xml version="1.0" encoding="utf-8"?>
<!-- Generator: Adobe Illustrator 24.0.2, SVG Export Plug-In . SVG Version: 6.00 Build 0)  -->
<svg version="1.1" id="Layer_1" xmlns="http://www.w3.org/2000/svg" xmlns:xlink="http://www.w3.org/1999/xlink" x="0px" y="0px"
	 viewBox="0 0 1150 200" style="enable-background:new 0 0 1150 200;" xml:space="preserve">
<style type="text/css">
	.st0{clip-path:url(#SVGID_2_);}
	.st1{clip-path:url(#SVGID_4_);}
	.st2{fill:#F3F3F3;}
	.st3{fill:url(#SVGID_5_);}
	.st4{fill:url(#SVGID_6_);}
	.st5{fill:url(#SVGID_7_);}
	.st6{fill:url(#SVGID_8_);}
	.st7{fill:url(#SVGID_9_);}
	.st8{fill:url(#SVGID_10_);}
	.st9{fill:url(#SVGID_11_);}
	.st10{opacity:0.8;fill:url(#SVGID_12_);}
	.st11{opacity:0.8;fill:url(#SVGID_13_);}
	.st12{opacity:0.8;fill:url(#SVGID_14_);}
	.st13{opacity:0.8;fill:url(#SVGID_15_);}
	.st14{fill:url(#SVGID_16_);}
	.st15{fill:url(#SVGID_17_);}
	.st16{fill:url(#SVGID_18_);}
	.st17{fill:#EF465C;}
	.st18{fill:#3C469D;}
</style>
<g>
	<defs>
		<rect id="SVGID_1_" width="1150" height="200"/>
	</defs>
	<clipPath id="SVGID_2_">
		<use xlink:href="#SVGID_1_"  style="overflow:visible;"/>
	</clipPath>
	<g class="st0">
		<defs>
			<rect id="SVGID_3_" x="-51.6" y="-421.3" width="1228.7" height="792.5"/>
		</defs>
		<clipPath id="SVGID_4_">
			<use xlink:href="#SVGID_3_"  style="overflow:visible;"/>
		</clipPath>
		<g class="st1">
			<rect x="-51.6" y="-421.3" class="st2" width="1228.7" height="792.5"/>
		</g>
		<g class="st1">
			
				<radialGradient id="SVGID_5_" cx="304.564" cy="-78.74" r="722.1615" gradientTransform="matrix(1.0757 -0.3658 0.2365 0.6511 40.2153 89.152)" gradientUnits="userSpaceOnUse">
				<stop  offset="0" style="stop-color:#CCCCCC"/>
				<stop  offset="2.564871e-02" style="stop-color:#D0D0D0;stop-opacity:0.9744"/>
				<stop  offset="0.2044" style="stop-color:#E5E5E5;stop-opacity:0.7956"/>
				<stop  offset="0.4041" style="stop-color:#F4F4F4;stop-opacity:0.5959"/>
				<stop  offset="0.6396" style="stop-color:#FCFCFC;stop-opacity:0.3604"/>
				<stop  offset="1" style="stop-color:#FFFFFF;stop-opacity:0"/>
			</radialGradient>
			<path class="st3" d="M1018.7-542.4C714.3,33.7-246.1,11.7-306.1,9.6l29.7-609L1018.7-542.4z"/>
			
				<radialGradient id="SVGID_6_" cx="666.7601" cy="-148.13" r="449.7034" gradientTransform="matrix(0.963 0.5907 -0.3404 0.5195 76.3833 -437.9436)" gradientUnits="userSpaceOnUse">
				<stop  offset="0" style="stop-color:#CCCCCC"/>
				<stop  offset="5.968702e-02" style="stop-color:#D8D8D8;stop-opacity:0.9403"/>
				<stop  offset="0.1819" style="stop-color:#E9E9E9;stop-opacity:0.8181"/>
				<stop  offset="0.3302" style="stop-color:#F6F6F6;stop-opacity:0.6698"/>
				<stop  offset="0.5298" style="stop-color:#FDFDFD;stop-opacity:0.4702"/>
				<stop  offset="1" style="stop-color:#FFFFFF;stop-opacity:0"/>
			</radialGradient>
			<path class="st4" d="M408.7-499c37,59.9,345.3,541.8,871.5,564.9V-499H408.7z"/>
			
				<radialGradient id="SVGID_7_" cx="572.8322" cy="-181.4745" r="325.2716" gradientTransform="matrix(0.4631 1.0081 -0.581 0.2498 585.2527 -897.7807)" gradientUnits="userSpaceOnUse">
				<stop  offset="0" style="stop-color:#CCCCCC"/>
				<stop  offset="2.564871e-02" style="stop-color:#D0D0D0;stop-opacity:0.9744"/>
				<stop  offset="0.2044" style="stop-color:#E5E5E5;stop-opacity:0.7956"/>
				<stop  offset="0.4041" style="stop-color:#F4F4F4;stop-opacity:0.5959"/>
				<stop  offset="0.6396" style="stop-color:#FCFCFC;stop-opacity:0.3604"/>
				<stop  offset="1" style="stop-color:#FFFFFF;stop-opacity:0"/>
			</radialGradient>
			<path class="st5" d="M872.7-873.3c-3.5,69.7-23,636.2,401.8,937.6l323.6-470.1L872.7-873.3z"/>
			
				<radialGradient id="SVGID_8_" cx="281.1132" cy="25.669" r="394.0835" gradientTransform="matrix(-0.8233 -0.7633 0.4935 -0.4983 547.9389 298.0679)" gradientUnits="userSpaceOnUse">
				<stop  offset="0" style="stop-color:#CCCCCC"/>
				<stop  offset="2.564871e-02" style="stop-color:#D0D0D0;stop-opacity:0.9744"/>
				<stop  offset="0.2044" style="stop-color:#E5E5E5;stop-opacity:0.7956"/>
				<stop  offset="0.4041" style="stop-color:#F4F4F4;stop-opacity:0.5959"/>
				<stop  offset="0.6396" style="stop-color:#FCFCFC;stop-opacity:0.3604"/>
				<stop  offset="1" style="stop-color:#FFFFFF;stop-opacity:0"/>
			</radialGradient>
			<path class="st6" d="M-130.2-235.8C200.3-135.8,447.2,115.5,507,420.4c9.5,48.4,13.7,95.1,13.9,139.6h-651.2V-235.8z"/>
			
				<radialGradient id="SVGID_9_" cx="591.2327" cy="-16.8549" r="534.1851" gradientTransform="matrix(-0.6288 0.9203 -0.321 -0.2053 1049.1587 -523.7666)" gradientUnits="userSpaceOnUse">
				<stop  offset="0" style="stop-color:#CCCCCC"/>
				<stop  offset="9.254815e-02" style="stop-color:#D7D8D7;stop-opacity:0.8232"/>
				<stop  offset="0.2834" style="stop-color:#ECECEC;stop-opacity:0.4587"/>
				<stop  offset="0.4082" style="stop-color:#F4F4F4;stop-opacity:0.2201"/>
				<stop  offset="0.6371" style="stop-color:#FCFCFC;stop-opacity:0.135"/>
				<stop  offset="1" style="stop-color:#FFFFFF;stop-opacity:0"/>
			</radialGradient>
			<path class="st7" d="M383.3,591.5c38.6-128.6,240.2-752.9,833.8-985.9c71.8-28.2,142.5-47.9,210.5-61.3V591.5H383.3z"/>
			
				<radialGradient id="SVGID_10_" cx="591.2327" cy="-16.8549" r="534.1851" gradientTransform="matrix(-0.6288 0.9203 -0.321 -0.2053 1049.1587 -523.7666)" gradientUnits="userSpaceOnUse">
				<stop  offset="0" style="stop-color:#CCCCCC"/>
				<stop  offset="9.254815e-02" style="stop-color:#D7D8D7;stop-opacity:0.8232"/>
				<stop  offset="0.2834" style="stop-color:#ECECEC;stop-opacity:0.4587"/>
				<stop  offset="0.4082" style="stop-color:#F4F4F4;stop-opacity:0.2201"/>
				<stop  offset="0.6371" style="stop-color:#FCFCFC;stop-opacity:0.135"/>
				<stop  offset="1" style="stop-color:#FFFFFF;stop-opacity:0"/>
			</radialGradient>
			<path class="st8" d="M383.3,591.5c38.6-128.6,240.2-752.9,833.8-985.9c71.8-28.2,142.5-47.9,210.5-61.3V591.5H383.3z"/>
			
				<radialGradient id="SVGID_11_" cx="719.014" cy="-26.4915" r="221.9762" gradientTransform="matrix(1.8164 -0.8596 0.338 0.6686 -426.4473 813.5471)" gradientUnits="userSpaceOnUse">
				<stop  offset="0" style="stop-color:#EBEBEB"/>
				<stop  offset="0.4949" style="stop-color:#F7F6F6;stop-opacity:0.5051"/>
				<stop  offset="1" style="stop-color:#FFFFFF;stop-opacity:0"/>
			</radialGradient>
			<path style="opacity:0.8;fill:url(#SVGID_11_);" d="M1278.7-5.9c41.4,82-105.5,233.8-328.2,339.2s-436.8,124.4-478.2,42.4
				S577.8,141.9,800.5,36.5S1237.3-87.9,1278.7-5.9z"/>
			
				<radialGradient id="SVGID_12_" cx="784.9656" cy="-394.4516" r="221.9684" gradientTransform="matrix(0.6544 -0.509 0.482 0.5801 451.1842 506.531)" gradientUnits="userSpaceOnUse">
				<stop  offset="0" style="stop-color:#EBEBEB"/>
				<stop  offset="1" style="stop-color:#FFFFFF;stop-opacity:0"/>
			</radialGradient>
			<path class="st10" d="M925.9-228.5c59.1,71.1,42,179.3-38.3,241.7S694.5,68.6,635.4-2.5c-59.1-71.1-42-179.3,38.3-241.7
				C753.8-306.7,866.8-299.6,925.9-228.5z"/>
			
				<radialGradient id="SVGID_13_" cx="496.4285" cy="-328.781" r="221.9794" gradientTransform="matrix(1.939 -0.5549 0.2181 0.7137 -638.9951 676.6757)" gradientUnits="userSpaceOnUse">
				<stop  offset="0" style="stop-color:#EBEBEB"/>
				<stop  offset="0.4949" style="stop-color:#F7F6F6;stop-opacity:0.5051"/>
				<stop  offset="1" style="stop-color:#FFFFFF;stop-opacity:0"/>
			</radialGradient>
			<path class="st11" d="M685.9,51.2c26.7,87.5-144.3,213.6-382,281.6c-237.7,68-452.1,52.2-478.8-35.3C-201.7,210.1-30.7,84,207,16
				S659.1-36.3,685.9,51.2z"/>
			
				<radialGradient id="SVGID_14_" cx="626.2814" cy="248.4129" r="534.2188" gradientTransform="matrix(-0.976 0.5703 -0.1989 -0.3187 1451.6805 -60.2628)" gradientUnits="userSpaceOnUse">
				<stop  offset="0" style="stop-color:#CCCCCC"/>
				<stop  offset="9.254815e-02" style="stop-color:#D7D8D7;stop-opacity:0.8232"/>
				<stop  offset="0.2834" style="stop-color:#ECECEC;stop-opacity:0.4587"/>
				<stop  offset="0.4082" style="stop-color:#F4F4F4;stop-opacity:0.2201"/>
				<stop  offset="0.6371" style="stop-color:#FCFCFC;stop-opacity:0.135"/>
				<stop  offset="1" style="stop-color:#FFFFFF;stop-opacity:0"/>
			</radialGradient>
			<path style="fill:url(#SVGID_14_);" d="M268.8,606.3C360.7,506.2,819.6,25.9,1459.2,61.8c77.3,4.3,149.9,15.8,217.4,32
				l-464.3,946L268.8,606.3z"/>
			
				<radialGradient id="SVGID_15_" cx="375.1104" cy="-66.5134" r="722.1919" gradientTransform="matrix(0.9596 -0.5958 0.3852 0.5808 143.33 325.3922)" gradientUnits="userSpaceOnUse">
				<stop  offset="0" style="stop-color:#CCCCCC"/>
				<stop  offset="2.564871e-02" style="stop-color:#D0D0D0;stop-opacity:0.9744"/>
				<stop  offset="0.2044" style="stop-color:#E5E5E5;stop-opacity:0.7956"/>
				<stop  offset="0.4041" style="stop-color:#F4F4F4;stop-opacity:0.5959"/>
				<stop  offset="0.6396" style="stop-color:#FCFCFC;stop-opacity:0.3604"/>
				<stop  offset="1" style="stop-color:#FFFFFF;stop-opacity:0"/>
			</radialGradient>
			<path style="fill:url(#SVGID_15_);" d="M1017.4-542.4C858.5,86.2-81.3,279-140.1,290.3l-116.2-599.2L1017.4-542.4z"/>
			
				<radialGradient id="SVGID_16_" cx="211.4851" cy="179.1364" r="394.0873" gradientTransform="matrix(-0.3646 -1.0453 0.6758 -0.2207 85.4442 509.0188)" gradientUnits="userSpaceOnUse">
				<stop  offset="0" style="stop-color:#CCCCCC"/>
				<stop  offset="2.564871e-02" style="stop-color:#D0D0D0;stop-opacity:0.9744"/>
				<stop  offset="0.2044" style="stop-color:#E5E5E5;stop-opacity:0.7956"/>
				<stop  offset="0.4041" style="stop-color:#F4F4F4;stop-opacity:0.5959"/>
				<stop  offset="0.6396" style="stop-color:#FCFCFC;stop-opacity:0.3604"/>
				<stop  offset="1" style="stop-color:#FFFFFF;stop-opacity:0"/>
			</radialGradient>
			<path class="st14" d="M-131.1-229.1C114,7.7,212.7,341,119.8,638c-14.7,47.1-33.4,90.4-54.5,130l-577.2-291.6L-131.1-229.1z"/>
		</g>
	</g>
</g>
<rect class="st17" width="1150" height="200"/>
<rect y="0.2" class="st18" width="1150" height="11.3"/>
</svg>
