<?xml version="1.0" encoding="utf-8"?>
<!-- Generator: Adobe Illustrator 24.0.2, SVG Export Plug-In . SVG Version: 6.00 Build 0)  -->
<svg version="1.1" id="Layer_1" xmlns="http://www.w3.org/2000/svg" xmlns:xlink="http://www.w3.org/1999/xlink" x="0px" y="0px"
	 viewBox="0 0 30 30" style="enable-background:new 0 0 30 30;" xml:space="preserve">
<style type="text/css">
	.st0{fill:#EF142E;}
</style>
<path class="st0" d="M4.4,4.4c-5.9,5.9-5.9,15.4,0,21.2s15.4,5.9,21.2,0s5.9-15.4,0-21.2c0,0,0,0,0,0C19.7-1.5,10.3-1.5,4.4,4.4z
	 M20,12.9L17.8,15l2.1,2.1c0.8,0.8,0.8,2,0,2.8s-2,0.8-2.8,0L15,17.8L12.9,20c-0.8,0.8-2,0.8-2.8,0s-0.8-2,0-2.8l2.1-2.1l-2.1-2.1
	c-0.8-0.8-0.8-2,0-2.8s2-0.8,2.8,0l2.1,2.1l2.1-2.1c0.8-0.8,2-0.8,2.8,0S20.7,12.1,20,12.9z"/>
</svg>
