<?xml version="1.0" encoding="utf-8"?>
<!-- Generator: Adobe Illustrator 24.0.2, SVG Export Plug-In . SVG Version: 6.00 Build 0)  -->
<svg version="1.1" id="Layer_1" xmlns:sketch="http://www.bohemiancoding.com/sketch/ns"
	 xmlns="http://www.w3.org/2000/svg" xmlns:xlink="http://www.w3.org/1999/xlink" x="0px" y="0px" viewBox="0 0 32 32"
	 style="enable-background:new 0 0 32 32;" xml:space="preserve">
<style type="text/css">
	.st0{fill-rule:evenodd;clip-rule:evenodd;fill:#F4E343;}
</style>
<g id="Page-1">
	<g id="icon-114-lock">
		<path id="lock" class="st0" d="M16,21.9v2.6c0,0.3,0.2,0.5,0.5,0.5c0.3,0,0.5-0.2,0.5-0.5v-2.6c0.6-0.2,1-0.8,1-1.4
			c0-0.8-0.7-1.5-1.5-1.5c-0.8,0-1.5,0.7-1.5,1.5C15,21.2,15.4,21.7,16,21.9L16,21.9z M9,14v-3.5C9,6.4,12.4,3,16.5,3
			c4.1,0,7.5,3.4,7.5,7.5V14c1.7,0,3,1.4,3,3v10c0,1.7-1.3,3-3,3H9c-1.7,0-3-1.3-3-3V17C6,15.3,7.3,14,9,14L9,14L9,14z M12,14v-3.5
			C12,8,14,6,16.5,6C19,6,21,8,21,10.5V14H12L12,14L12,14z"/>
	</g>
</g>
</svg>
