<?xml version="1.0" encoding="utf-8"?>
<!-- Generator: Adobe Illustrator 24.0.2, SVG Export Plug-In . SVG Version: 6.00 Build 0)  -->
<svg version="1.1" xmlns="http://www.w3.org/2000/svg" xmlns:xlink="http://www.w3.org/1999/xlink" x="0px" y="0px"
	 viewBox="0 0 350 350.2" style="enable-background:new 0 0 350 350.2;" xml:space="preserve">
<style type="text/css">
	.st0{fill:#EEE808;}
	.st1{opacity:0.1;}
	.st2{clip-path:url(#SVGID_2_);fill:#FFFFFF;}
	.st3{clip-path:url(#SVGID_4_);fill:#FFFFFF;}
	.st4{fill:#FEBE10;}
	.st5{fill:#353588;}
</style>
<g id="Layer_1">
	<g id="Layer_1_1_">
		<rect class="st0" width="350" height="350.2"/>
		<g class="st1">
			<g>
				<g>
					<defs>
						<rect id="SVGID_1_" width="349.9" height="350"/>
					</defs>
					<clipPath id="SVGID_2_">
						<use xlink:href="#SVGID_1_"  style="overflow:visible;"/>
					</clipPath>
					<path class="st2" d="M349.9,0c0,0-30.3,77.8-155.2,107.3S19.7,193.1,0,258.8V350h349.9V0z"/>
				</g>
			</g>
		</g>
		<g class="st1">
			<g>
				<g>
					<defs>
						<rect id="SVGID_3_" width="349.9" height="350"/>
					</defs>
					<clipPath id="SVGID_4_">
						<use xlink:href="#SVGID_3_"  style="overflow:visible;"/>
					</clipPath>
					<path class="st3" d="M272.3,0c0,0,14.5,81.3-109.2,137.9S13.2,225.4,0,254.3V350h349.9V0L272.3,0L272.3,0z"/>
				</g>
			</g>
		</g>
		<g>
			<g>
				<polygon class="st4" points="172.2,95.8 190.9,133.8 232.8,139.9 202.5,169.4 209.7,211.2 172.2,191.5 134.7,211.2 141.8,169.4 
					111.5,139.9 153.4,133.8 				"/>
				<path class="st4" d="M209.7,221c-1.6,0-3.1-0.4-4.6-1.1l-32.9-17.3l-32.9,17.3c-3.3,1.7-7.3,1.4-10.4-0.7
					c-3-2.2-4.6-5.9-3.9-9.6l6.3-36.6l-26.6-26c-2.7-2.6-3.7-6.5-2.5-10.1c1.2-3.6,4.2-6.2,7.9-6.7l36.8-5.3l16.5-33.3
					c1.7-3.4,5.1-5.5,8.8-5.5l0,0c3.7,0,7.2,2.1,8.8,5.5l16.5,33.3l36.8,5.3c3.7,0.5,6.8,3.1,8,6.7c1.2,3.6,0.2,7.5-2.5,10.1
					l-26.6,26l6.3,36.6c0.6,3.7-0.9,7.4-3.9,9.6C213.7,220.4,211.7,221,209.7,221z M172.2,181.6c1.6,0,3.1,0.4,4.6,1.1l19.8,10.4
					l-3.8-22.1c-0.5-3.2,0.5-6.5,2.8-8.7l16-15.6l-22.2-3.2c-3.2-0.5-6-2.5-7.4-5.4l-9.9-20.1l-9.9,20.1c-1.4,2.9-4.2,4.9-7.4,5.4
					l-22.2,3.2l16,15.6c2.3,2.3,3.4,5.5,2.8,8.7l-3.8,22.1l19.8-10.4C169,182,170.6,181.6,172.2,181.6z"/>
			</g>
		</g>
	</g>
</g>
<g id="Layer_2">
	<g>
		<path class="st5" d="M49,255.7c-1.6-1.9-3.5-2.9-5.9-2.9c-1,0-2,0.2-2.9,0.6c-0.9,0.4-1.6,0.9-2.3,1.5c-0.6,0.6-1.1,1.4-1.5,2.3
			C36.2,258,36,259,36,260c0,1.1,0.2,2,0.5,2.9c0.4,0.9,0.9,1.7,1.5,2.3c0.6,0.7,1.4,1.2,2.3,1.5c0.9,0.4,1.8,0.6,2.8,0.6
			c2.2,0,4.2-0.9,5.9-2.8v8.1l-0.7,0.2c-1,0.4-2,0.6-2.9,0.8c-0.9,0.2-1.8,0.3-2.7,0.3c-1.8,0-3.6-0.3-5.2-1
			c-1.7-0.7-3.1-1.7-4.4-2.9c-1.3-1.2-2.3-2.7-3.1-4.4s-1.2-3.6-1.2-5.6c0-2,0.4-3.9,1.1-5.6c0.8-1.7,1.8-3.1,3-4.4
			c1.3-1.2,2.7-2.2,4.4-2.9c1.7-0.7,3.4-1,5.3-1c1,0,2.1,0.1,3.1,0.3c1,0.2,2.1,0.6,3.2,1V255.7z"/>
		<path class="st5" d="M52.1,264.1c0-1.3,0.3-2.6,0.8-3.7c0.5-1.2,1.3-2.2,2.2-3c1-0.9,2.1-1.5,3.4-2c1.3-0.5,2.8-0.7,4.3-0.7
			c1.5,0,3,0.2,4.3,0.7c1.3,0.5,2.5,1.1,3.4,2s1.7,1.9,2.3,3c0.5,1.2,0.8,2.5,0.8,3.9c0,1.4-0.3,2.7-0.8,3.9c-0.5,1.2-1.3,2.2-2.3,3
			c-1,0.9-2.1,1.5-3.4,2c-1.3,0.5-2.8,0.7-4.4,0.7c-1.5,0-3-0.2-4.3-0.7c-1.3-0.5-2.4-1.1-3.4-2c-0.9-0.9-1.7-1.9-2.2-3.1
			C52.3,266.9,52.1,265.6,52.1,264.1z M58.7,264.2c0,0.6,0.1,1.2,0.3,1.7s0.5,0.9,0.9,1.3s0.8,0.7,1.3,0.9c0.5,0.2,1,0.3,1.6,0.3
			s1.1-0.1,1.6-0.3c0.5-0.2,0.9-0.5,1.3-0.9c0.4-0.4,0.7-0.8,0.9-1.3c0.2-0.5,0.3-1,0.3-1.6c0-0.6-0.1-1.1-0.3-1.6
			c-0.2-0.5-0.5-0.9-0.9-1.3c-0.4-0.4-0.8-0.7-1.3-0.9c-0.5-0.2-1-0.3-1.6-0.3s-1.1,0.1-1.6,0.3c-0.5,0.2-0.9,0.5-1.3,0.9
			s-0.7,0.8-0.9,1.3C58.8,263.1,58.7,263.6,58.7,264.2z"/>
		<path class="st5" d="M77.2,255.3h6.3v2.3c0.9-1.1,1.7-1.8,2.6-2.1c0.9-0.4,1.9-0.5,3.1-0.5c1.3,0,2.3,0.2,3.2,0.6
			c0.9,0.4,1.7,1,2.3,1.7c0.5,0.6,0.9,1.3,1.1,2c0.2,0.7,0.3,1.6,0.3,2.6v11.4h-6.3v-9.1c0-0.9-0.1-1.6-0.2-2.2
			c-0.1-0.5-0.4-1-0.7-1.3c-0.3-0.3-0.6-0.5-0.9-0.6c-0.4-0.1-0.7-0.2-1.1-0.2c-1.1,0-1.9,0.3-2.5,1c-0.6,0.6-0.9,1.6-0.9,2.7v9.6
			h-6.3V255.3z"/>
		<path class="st5" d="M120.6,255.3V272c0,1-0.1,1.9-0.2,2.7c-0.1,0.8-0.3,1.5-0.5,2.1c-0.3,0.8-0.7,1.5-1.3,2.2
			c-0.6,0.7-1.3,1.2-2.2,1.7c-0.8,0.5-1.8,0.9-2.9,1.2c-1.1,0.3-2.2,0.4-3.4,0.4c-1.4,0-2.7-0.2-3.9-0.5c-1.2-0.3-2.2-0.8-3.1-1.5
			c-0.9-0.6-1.6-1.3-2.2-2.2c-0.6-0.8-0.9-1.7-1.1-2.7h7.1c0.4,1.2,1.4,1.8,3,1.8c1.3,0,2.4-0.4,3.1-1.1c0.7-0.7,1.1-1.8,1.1-3.1
			v-1.7c-0.5,0.4-0.9,0.8-1.3,1.1c-0.4,0.3-0.9,0.5-1.3,0.7c-0.4,0.2-0.9,0.3-1.4,0.4c-0.5,0.1-1,0.1-1.6,0.1
			c-1.3,0-2.5-0.2-3.5-0.7c-1.1-0.4-2-1.1-2.8-1.9c-0.8-0.8-1.4-1.7-1.8-2.9c-0.4-1.1-0.6-2.3-0.6-3.7c0-1.4,0.2-2.7,0.7-3.8
			c0.5-1.2,1.1-2.2,1.9-3.1c0.8-0.9,1.8-1.6,2.9-2.1s2.3-0.8,3.6-0.8c2.1,0,3.9,0.8,5.4,2.4v-1.9H120.6z M106.4,264.2
			c0,0.6,0.1,1.1,0.3,1.6c0.2,0.5,0.5,0.9,0.9,1.3c0.4,0.4,0.8,0.7,1.3,0.9c0.5,0.2,1,0.3,1.6,0.3c0.6,0,1.1-0.1,1.6-0.3
			c0.5-0.2,0.9-0.5,1.3-0.9c0.4-0.4,0.7-0.8,0.9-1.3c0.2-0.5,0.3-1,0.3-1.6c0-0.6-0.1-1.1-0.3-1.6c-0.2-0.5-0.5-0.9-0.9-1.3
			c-0.4-0.4-0.8-0.7-1.3-0.9c-0.5-0.2-1-0.3-1.6-0.3c-0.6,0-1.1,0.1-1.6,0.3c-0.5,0.2-0.9,0.5-1.3,0.9c-0.4,0.4-0.7,0.8-0.9,1.3
			C106.5,263.1,106.4,263.6,106.4,264.2z"/>
		<path class="st5" d="M125.5,255.3h6.3v2.9c0.7-1.1,1.5-1.9,2.5-2.5c1-0.6,2.1-0.9,3.4-0.9c0.2,0,0.3,0,0.5,0s0.4,0,0.7,0.1v6.1
			c-0.8-0.4-1.8-0.6-2.7-0.6c-1.5,0-2.6,0.4-3.3,1.3s-1.1,2.2-1.1,3.8v7.7h-6.3V255.3z"/>
		<path class="st5" d="M155.9,255.3h6.4v18h-6.4v-2c-1.4,1.7-3.2,2.6-5.5,2.6c-1.3,0-2.5-0.2-3.6-0.7c-1.1-0.5-2.1-1.1-2.9-2
			c-0.8-0.9-1.5-1.9-1.9-3s-0.7-2.4-0.7-3.8c0-1.3,0.2-2.5,0.7-3.7s1.1-2.2,1.9-3c0.8-0.9,1.7-1.5,2.8-2c1.1-0.5,2.3-0.8,3.6-0.8
			c2.2,0,4.1,0.8,5.6,2.3V255.3z M147.9,264.2c0,0.6,0.1,1.1,0.3,1.6c0.2,0.5,0.5,0.9,0.9,1.3c0.4,0.4,0.8,0.7,1.3,0.9
			c0.5,0.2,1,0.3,1.6,0.3c0.6,0,1.1-0.1,1.6-0.3c0.5-0.2,0.9-0.5,1.3-0.9c0.4-0.4,0.7-0.8,0.9-1.3c0.2-0.5,0.3-1,0.3-1.6
			s-0.1-1.1-0.3-1.6c-0.2-0.5-0.5-0.9-0.9-1.3c-0.4-0.4-0.8-0.7-1.3-0.9c-0.5-0.2-1-0.3-1.6-0.3c-0.6,0-1.1,0.1-1.6,0.3
			c-0.5,0.2-0.9,0.5-1.3,0.9c-0.4,0.4-0.6,0.8-0.9,1.3C148,263.1,147.9,263.6,147.9,264.2z"/>
		<path class="st5" d="M173.6,260.6v12.7h-6.3v-12.7h-2.1v-5.3h2.1v-5.4h6.3v5.4h3.6v5.3H173.6z"/>
		<path class="st5" d="M186,255.3v10.1c0,2.2,1.1,3.3,3.2,3.3s3.2-1.1,3.2-3.3v-10.1h6.3v11.3c0,2.4-0.8,4.2-2.4,5.5
			c-1.6,1.2-4,1.8-7.2,1.8c-3.2,0-5.6-0.6-7.2-1.8c-1.6-1.2-2.4-3-2.4-5.5v-11.3H186z"/>
		<path class="st5" d="M209.4,244.2v29H203v-29H209.4z"/>
		<path class="st5" d="M227.6,255.3h6.4v18h-6.4v-2c-1.4,1.7-3.2,2.6-5.5,2.6c-1.3,0-2.5-0.2-3.6-0.7c-1.1-0.5-2.1-1.1-2.9-2
			c-0.8-0.9-1.5-1.9-1.9-3s-0.7-2.4-0.7-3.8c0-1.3,0.2-2.5,0.7-3.7s1.1-2.2,1.9-3c0.8-0.9,1.7-1.5,2.8-2c1.1-0.5,2.3-0.8,3.6-0.8
			c2.2,0,4.1,0.8,5.6,2.3V255.3z M219.6,264.2c0,0.6,0.1,1.1,0.3,1.6s0.5,0.9,0.9,1.3c0.4,0.4,0.8,0.7,1.3,0.9s1,0.3,1.6,0.3
			c0.6,0,1.1-0.1,1.6-0.3s0.9-0.5,1.3-0.9c0.4-0.4,0.7-0.8,0.9-1.3c0.2-0.5,0.3-1,0.3-1.6s-0.1-1.1-0.3-1.6
			c-0.2-0.5-0.5-0.9-0.9-1.3c-0.4-0.4-0.8-0.7-1.3-0.9s-1-0.3-1.6-0.3c-0.6,0-1.1,0.1-1.6,0.3s-0.9,0.5-1.3,0.9
			c-0.4,0.4-0.6,0.8-0.9,1.3C219.7,263.1,219.6,263.6,219.6,264.2z"/>
		<path class="st5" d="M245.3,260.6v12.7H239v-12.7h-2.1v-5.3h2.1v-5.4h6.3v5.4h3.6v5.3H245.3z"/>
		<path class="st5" d="M251.4,248.4c0-0.5,0.1-1,0.3-1.4s0.4-0.8,0.8-1.1c0.3-0.3,0.7-0.6,1.1-0.8c0.4-0.2,0.9-0.3,1.4-0.3
			c0.5,0,1,0.1,1.4,0.3s0.8,0.4,1.1,0.8c0.3,0.3,0.6,0.7,0.8,1.1s0.3,0.9,0.3,1.4c0,0.5-0.1,1-0.3,1.4c-0.2,0.4-0.4,0.8-0.8,1.1
			c-0.3,0.3-0.7,0.6-1.1,0.8s-0.9,0.3-1.4,0.3c-0.5,0-1-0.1-1.4-0.3c-0.4-0.2-0.8-0.4-1.1-0.8c-0.3-0.3-0.6-0.7-0.8-1.1
			C251.5,249.3,251.4,248.9,251.4,248.4z M258.1,255.3v18h-6.3v-18H258.1z"/>
		<path class="st5" d="M261.8,264.1c0-1.3,0.3-2.6,0.8-3.7s1.3-2.2,2.2-3s2.1-1.5,3.4-2c1.3-0.5,2.8-0.7,4.3-0.7
			c1.5,0,3,0.2,4.3,0.7s2.5,1.1,3.4,2c1,0.9,1.7,1.9,2.3,3c0.5,1.2,0.8,2.5,0.8,3.9c0,1.4-0.3,2.7-0.8,3.9c-0.5,1.2-1.3,2.2-2.3,3
			c-1,0.9-2.1,1.5-3.4,2s-2.8,0.7-4.4,0.7c-1.5,0-3-0.2-4.3-0.7c-1.3-0.5-2.4-1.1-3.4-2c-0.9-0.9-1.7-1.9-2.2-3.1
			C262,266.9,261.8,265.6,261.8,264.1z M268.5,264.2c0,0.6,0.1,1.2,0.3,1.7s0.5,0.9,0.9,1.3c0.4,0.4,0.8,0.7,1.3,0.9s1,0.3,1.6,0.3
			c0.6,0,1.1-0.1,1.6-0.3s0.9-0.5,1.3-0.9c0.4-0.4,0.7-0.8,0.9-1.3c0.2-0.5,0.3-1,0.3-1.6c0-0.6-0.1-1.1-0.3-1.6
			c-0.2-0.5-0.5-0.9-0.9-1.3c-0.4-0.4-0.8-0.7-1.3-0.9s-1-0.3-1.6-0.3c-0.6,0-1.1,0.1-1.6,0.3s-0.9,0.5-1.3,0.9
			c-0.4,0.4-0.7,0.8-0.9,1.3C268.6,263.1,268.5,263.6,268.5,264.2z"/>
		<path class="st5" d="M287,255.3h6.3v2.3c0.9-1.1,1.7-1.8,2.6-2.1c0.9-0.4,1.9-0.5,3.1-0.5c1.3,0,2.3,0.2,3.2,0.6s1.7,1,2.3,1.7
			c0.5,0.6,0.9,1.3,1,2s0.3,1.6,0.3,2.6v11.4h-6.3v-9.1c0-0.9-0.1-1.6-0.2-2.2c-0.1-0.5-0.4-1-0.7-1.3c-0.3-0.3-0.6-0.5-0.9-0.6
			c-0.4-0.1-0.7-0.2-1.1-0.2c-1.1,0-1.9,0.3-2.5,1c-0.6,0.6-0.9,1.6-0.9,2.7v9.6H287V255.3z"/>
		<path class="st5" d="M322.1,259.9c-1.2-0.6-2.3-0.9-3.4-0.9c-0.6,0-1.1,0.1-1.4,0.4c-0.4,0.2-0.5,0.5-0.5,0.9c0,0.2,0,0.4,0.1,0.5
			c0.1,0.1,0.2,0.3,0.4,0.4c0.2,0.1,0.5,0.2,0.9,0.3c0.4,0.1,0.9,0.2,1.5,0.3c1.8,0.4,3.1,1,3.9,1.9s1.3,2,1.3,3.4
			c0,1-0.2,2-0.6,2.8s-1,1.5-1.8,2.1c-0.7,0.6-1.6,1-2.7,1.3c-1.1,0.3-2.2,0.5-3.5,0.5c-2.4,0-4.8-0.7-7.2-2.1l2.3-4.5
			c1.8,1.2,3.5,1.8,5,1.8c0.6,0,1.1-0.1,1.4-0.4c0.4-0.3,0.6-0.6,0.6-1c0-0.2,0-0.4-0.1-0.6c-0.1-0.2-0.2-0.3-0.4-0.4
			c-0.2-0.1-0.5-0.2-0.8-0.3c-0.4-0.1-0.8-0.2-1.4-0.3c-2-0.4-3.3-1-4.1-1.8c-0.8-0.8-1.2-1.9-1.2-3.2c0-1,0.2-1.9,0.6-2.7
			c0.4-0.8,0.9-1.5,1.6-2c0.7-0.6,1.5-1,2.5-1.3c1-0.3,2.1-0.5,3.3-0.5c2,0,3.9,0.4,5.8,1.2L322.1,259.9z"/>
		<path class="st5" d="M328.5,269.9c0-0.6,0.1-1.1,0.3-1.6s0.5-0.9,0.9-1.3c0.4-0.4,0.8-0.7,1.3-0.9c0.5-0.2,1-0.3,1.6-0.3
			c0.6,0,1.1,0.1,1.6,0.3s0.9,0.5,1.3,0.9s0.7,0.8,0.9,1.3s0.3,1,0.3,1.6c0,0.6-0.1,1.1-0.3,1.6c-0.2,0.5-0.5,0.9-0.9,1.3
			c-0.4,0.4-0.8,0.7-1.3,0.9s-1,0.3-1.6,0.3c-0.6,0-1.1-0.1-1.6-0.3c-0.5-0.2-0.9-0.5-1.3-0.9c-0.4-0.4-0.7-0.8-0.9-1.3
			C328.6,271,328.5,270.4,328.5,269.9z M329.3,264.3v-17.4h6.6v17.4H329.3z"/>
	</g>
</g>
</svg>
