<?xml version="1.0" encoding="utf-8"?>
<!-- Generator: Adobe Illustrator 24.0.2, SVG Export Plug-In . SVG Version: 6.00 Build 0)  -->
<svg version="1.1" xmlns="http://www.w3.org/2000/svg" xmlns:xlink="http://www.w3.org/1999/xlink" x="0px" y="0px"
	 viewBox="0 0 350 350" style="enable-background:new 0 0 350 350;" xml:space="preserve">
<style type="text/css">
	.st0{fill:#85BE56;}
	.st1{opacity:0.1;}
	.st2{clip-path:url(#SVGID_2_);fill:#FFFFFF;}
	.st3{clip-path:url(#SVGID_4_);fill:#FFFFFF;}
	.st4{fill:#FFFFFF;}
</style>
<g id="Layer_1">
	<rect y="0" class="st0" width="350" height="349.902"/>
	<g class="st1">
		<g>
			<defs>
				<rect id="SVGID_1_" x="0" y="1.078" width="350" height="348.923"/>
			</defs>
			<clipPath id="SVGID_2_">
				<use xlink:href="#SVGID_1_"  style="overflow:visible;"/>
			</clipPath>
			<path class="st2" d="M350,1.078c0,0-30.263,77.538-155.263,106.949c-125,29.41-175,85.559-194.737,151.067v90.906h350V1.078z"/>
		</g>
	</g>
	<g class="st1">
		<g>
			<defs>
				<rect id="SVGID_3_" y="0" width="350" height="349.902"/>
			</defs>
			<clipPath id="SVGID_4_">
				<use xlink:href="#SVGID_3_"  style="overflow:visible;"/>
			</clipPath>
			<path class="st3" d="M272.368,0c0,0,14.474,81.301-109.211,137.902C39.474,194.504,13.158,225.378,0,254.193v95.709h350V0
				H272.368z"/>
		</g>
	</g>
	<path class="st4" d="M250.585,108.958c0,35.81-29.029,64.839-64.839,64.839c-35.81,0-64.839-29.029-64.839-64.839
		c0-35.81,29.029-64.839,64.839-64.839C221.556,44.12,250.585,73.149,250.585,108.958"/>
	<g>
		<path class="st0" d="M186.192,81.063c-10.753,1.521-18.251,11.531-16.73,22.284c0.141,0.92,0.318,1.839,0.601,2.865
			c0.531,1.556,1.273,3.042,2.193,4.457c0,2.087-0.955,4.032-2.617,5.27c-0.707,0.531-1.026,1.379-0.814,2.334
			c0.248,0.849,0.955,1.45,1.769,1.592c3.325,0.495,6.791-0.212,9.621-1.945c1.91,1.026,3.997,1.769,6.296,2.228
			c0.778,0.106,1.592,0.141,2.405,0.141c0.92,0,1.839-0.071,2.759-0.177l0,0c5.2-0.743,9.833-3.466,12.981-7.675
			s4.492-9.409,3.749-14.608C206.919,87.041,196.944,79.542,186.192,81.063z M191.214,116.611c-1.45,0.212-2.9,0.212-4.138,0.071
			c-2.158-0.46-4.209-1.238-6.048-2.334l-0.884-0.46l-0.849,0.424l-0.46,0.283c-1.45,0.99-3.148,1.592-4.881,1.804
			c1.203-1.698,1.839-3.785,1.769-5.907c0-0.177,0-0.389-0.035-0.566l-0.035-0.46l-0.248-0.389
			c-0.849-1.273-1.556-2.617-2.016-3.962c-0.212-0.778-0.389-1.556-0.495-2.299c-0.601-4.28,0.495-8.524,3.077-11.991
			s6.402-5.695,10.682-6.296c8.843-1.273,17.049,4.917,18.322,13.759S200.057,115.338,191.214,116.611z"/>
		<path class="st0" d="M189.976,66.066c-0.177,0-0.354,0-0.566,0c-13.016,0-24.866,7.605-30.242,19.489
			c-1.945,4.315-2.971,8.913-2.971,13.688c0,0.177,0,1.167,0,2.724c-0.248,1.132-1.203,2.228-2.228,3.219
			c-0.354,0.354-0.92,0.92-1.556,1.521c-1.769,1.733-2.9,2.794-3.254,3.219c-0.46,0.601-0.99,1.344-1.273,2.228
			c-0.814,2.547,1.167,3.749,1.804,4.174c0.601,0.389,1.273,0.743,2.122,1.096c0.637,0.283,1.309,0.566,1.91,0.849
			c0.071,0.035,0.141,0.071,0.248,0.106c0.814,5.412,2.441,16.058,2.441,16.094c0.248,2.122,0.955,3.749,2.158,4.846
			c2.087,1.91,4.881,1.839,7.145,1.769c0.354,0,0.743-0.035,1.061-0.035h3.643c0.106,1.521,0.283,3.891,0.389,5.942l0.283,4.492
			c0.071,0.849,0.495,1.627,1.132,2.122c0.495,0.389,1.132,0.601,1.769,0.601c0.177,0,0.389-0.035,0.566-0.071l36.786-7.322
			c1.981-0.389,3.431-2.122,3.431-4.174v-6.685c0-7.888,1.698-15.846,5.058-23.663c1.875-4.351,2.794-8.984,2.688-13.759
			C222.27,80.674,207.945,66.349,189.976,66.066z M216.681,111.022c-3.537,8.241-5.341,16.66-5.341,25.042v6.65
			c0,0.354-0.248,0.672-0.601,0.743l-36.149,7.18l-0.248-3.82c-0.46-7.251-0.531-7.605-0.601-7.888l-0.318-1.344h-1.698h-4.917
			c-0.389,0-0.778,0-1.167,0.035c-1.804,0.035-3.679,0.106-4.704-0.849c-0.566-0.495-0.884-1.379-1.061-2.724
			c-0.071-0.389-2.582-16.943-2.582-16.943l-0.071-0.495l-0.318-0.389l-0.354-0.389c-0.424-0.354-0.884-0.531-1.203-0.637
			l-0.248-0.106c-0.601-0.248-1.203-0.531-1.804-0.814c-0.707-0.318-1.238-0.601-1.733-0.92c-0.141-0.071-0.212-0.141-0.283-0.177
			c0.141-0.354,0.424-0.743,0.637-1.026c0.248-0.318,1.945-1.945,2.971-2.9c0.637-0.637,1.238-1.203,1.592-1.556
			c1.415-1.379,2.9-3.113,3.254-5.306l0.035-0.141v-0.141c0-1.662,0-2.688,0-2.865c0-4.28,0.884-8.383,2.653-12.238
			c4.881-10.788,15.669-17.615,27.554-17.438c16.058,0.248,28.898,13.052,29.216,29.11
			C219.193,102.958,218.379,107.096,216.681,111.022z"/>
	</g>
</g>
<g id="Layer_2">
	<g>
		<path class="st4" d="M113.54,229.416h5.375v15.858h-5.375V229.416z"/>
		<path class="st4" d="M120.751,233.493h5.04v1.3h0.045c0.297-0.434,0.74-0.811,1.329-1.132c0.588-0.32,1.262-0.481,2.021-0.481
			c0.818,0,1.5,0.149,2.043,0.448s0.975,0.683,1.295,1.153c0.32,0.471,0.543,0.997,0.67,1.579c0.126,0.582,0.19,1.165,0.19,1.747
			v7.168h-5.174v-6.271c0-0.598-0.093-1.016-0.28-1.255c-0.187-0.238-0.467-0.358-0.84-0.358c-0.344,0-0.624,0.139-0.84,0.415
			s-0.325,0.676-0.325,1.198v6.271h-5.174V233.493z"/>
		<path class="st4" d="M139.97,245.588c-1.583,0-2.755-0.34-3.517-1.02c-0.761-0.679-1.142-1.735-1.142-3.169v-4.211h-1.658v-3.696
			h1.635v-2.643h5.018v2.643h2.553v3.696h-2.553v3.136c0,0.567,0.123,0.952,0.369,1.153c0.247,0.202,0.586,0.303,1.02,0.303
			c0.164,0,0.336-0.015,0.515-0.045c0.179-0.029,0.321-0.06,0.425-0.09v3.539c-0.269,0.119-0.646,0.217-1.131,0.291
			C141.019,245.551,140.507,245.588,139.97,245.588z"/>
		<path class="st4" d="M143.442,233.493h4.973v1.344h0.045c0.254-0.478,0.631-0.873,1.131-1.187c0.5-0.313,1.086-0.471,1.758-0.471
			c0.403,0,0.731,0.037,0.985,0.112l-0.403,4.39c-0.165-0.044-0.348-0.078-0.549-0.101c-0.202-0.022-0.385-0.033-0.549-0.033
			c-0.672,0-1.209,0.194-1.613,0.582c-0.403,0.389-0.605,0.866-0.605,1.434v5.712h-5.174V233.493z"/>
		<path class="st4" d="M165.55,239.339c0,1.016-0.183,1.919-0.549,2.71c-0.366,0.792-0.859,1.46-1.478,2.005
			c-0.62,0.545-1.337,0.96-2.15,1.243c-0.814,0.283-1.669,0.426-2.565,0.426c-0.881,0-1.729-0.143-2.542-0.426
			c-0.814-0.283-1.527-0.698-2.139-1.243c-0.613-0.545-1.102-1.213-1.467-2.005c-0.366-0.791-0.549-1.694-0.549-2.71
			c0-1.001,0.183-1.893,0.549-2.677c0.366-0.784,0.854-1.445,1.467-1.982c0.612-0.538,1.325-0.944,2.139-1.221
			c0.813-0.276,1.661-0.415,2.542-0.415c0.896,0,1.751,0.139,2.565,0.415c0.813,0.276,1.53,0.683,2.15,1.221
			c0.619,0.537,1.112,1.198,1.478,1.982S165.55,238.338,165.55,239.339z M158.808,237.412c-0.567,0-1.027,0.194-1.377,0.582
			c-0.351,0.389-0.526,0.845-0.526,1.367c0,0.553,0.179,1.022,0.538,1.411c0.358,0.388,0.821,0.582,1.389,0.582
			s1.03-0.194,1.389-0.582c0.358-0.389,0.538-0.858,0.538-1.411c0-0.522-0.183-0.979-0.549-1.367
			C159.842,237.607,159.375,237.412,158.808,237.412z"/>
		<path class="st4" d="M176.256,241.535c0,0.791-0.167,1.455-0.501,1.993c-0.334,0.537-0.758,0.967-1.271,1.288
			s-1.074,0.552-1.683,0.694c-0.61,0.142-1.19,0.213-1.741,0.213c-1.016,0-2.012-0.146-2.99-0.438
			c-0.978-0.291-1.826-0.705-2.542-1.243l2.531-2.934c0.358,0.328,0.78,0.594,1.266,0.795s0.952,0.303,1.4,0.303
			c0.179,0,0.347-0.034,0.504-0.102c0.157-0.066,0.235-0.19,0.235-0.369c0-0.194-0.138-0.348-0.415-0.459
			c-0.276-0.112-0.758-0.25-1.444-0.415c-0.374-0.089-0.754-0.22-1.143-0.392c-0.389-0.172-0.743-0.399-1.064-0.684
			c-0.321-0.283-0.586-0.63-0.795-1.041s-0.313-0.899-0.313-1.467c0-0.762,0.168-1.412,0.504-1.949s0.762-0.975,1.277-1.311
			s1.075-0.582,1.68-0.739c0.604-0.156,1.176-0.235,1.713-0.235c0.911,0,1.814,0.135,2.71,0.403c0.896,0.27,1.702,0.643,2.419,1.12
			l-2.419,2.89c-0.374-0.238-0.754-0.426-1.143-0.56c-0.388-0.135-0.769-0.202-1.142-0.202c-0.254,0-0.463,0.034-0.627,0.101
			c-0.165,0.067-0.246,0.198-0.246,0.393c0,0.149,0.093,0.265,0.278,0.347c0.186,0.083,0.614,0.19,1.283,0.325
			c0.46,0.09,0.91,0.228,1.349,0.414c0.438,0.188,0.833,0.426,1.183,0.717c0.349,0.291,0.628,0.646,0.836,1.064
			C176.152,240.474,176.256,240.967,176.256,241.535z"/>
		<path class="st4" d="M185.574,245.588c-0.582,0-1.157-0.108-1.725-0.324c-0.567-0.217-1.03-0.52-1.389-0.907h-0.045v6.294h-5.129
			v-17.158h4.86v1.188h0.045c0.433-0.493,0.955-0.866,1.567-1.12s1.21-0.381,1.792-0.381c0.881,0,1.658,0.18,2.33,0.538
			s1.231,0.828,1.68,1.411c0.448,0.582,0.787,1.239,1.02,1.971c0.231,0.731,0.347,1.479,0.347,2.24c0,0.776-0.115,1.538-0.347,2.284
			c-0.232,0.747-0.571,1.415-1.02,2.005s-1.004,1.064-1.669,1.423C187.229,245.41,186.455,245.588,185.574,245.588z
			 M186.135,239.339c0-0.522-0.165-0.979-0.493-1.366c-0.328-0.389-0.807-0.583-1.434-0.583c-0.612,0-1.102,0.194-1.467,0.583
			c-0.366,0.388-0.549,0.844-0.549,1.366c0,0.553,0.183,1.022,0.549,1.411c0.365,0.389,0.854,0.582,1.467,0.582
			c0.627,0,1.105-0.19,1.434-0.571S186.135,239.907,186.135,239.339z"/>
		<path class="st4" d="M204.3,239.495c0,0.194-0.004,0.393-0.011,0.594c-0.008,0.202-0.02,0.37-0.034,0.504h-7.93
			c0.016,0.209,0.086,0.396,0.213,0.561s0.284,0.306,0.471,0.425c0.187,0.12,0.396,0.21,0.627,0.27s0.467,0.089,0.706,0.089
			c0.478,0,0.877-0.085,1.198-0.257s0.563-0.362,0.728-0.571l3.674,1.858c-0.522,0.852-1.28,1.523-2.273,2.017
			c-0.993,0.492-2.146,0.739-3.461,0.739c-0.851,0-1.68-0.135-2.486-0.403s-1.52-0.668-2.139-1.198
			c-0.62-0.53-1.117-1.19-1.49-1.982c-0.373-0.791-0.56-1.71-0.56-2.755c0-0.971,0.172-1.849,0.516-2.633
			c0.343-0.783,0.81-1.448,1.399-1.993s1.284-0.967,2.083-1.266s1.654-0.448,2.565-0.448c0.925,0,1.77,0.161,2.53,0.482
			c0.762,0.321,1.415,0.769,1.96,1.344s0.967,1.258,1.266,2.05C204.15,237.711,204.3,238.57,204.3,239.495z M199.843,237.816
			c0-0.418-0.153-0.762-0.46-1.03c-0.306-0.269-0.721-0.403-1.243-0.403c-0.567,0-1.008,0.157-1.321,0.471s-0.493,0.635-0.537,0.963
			H199.843z"/>
		<path class="st4" d="M211.691,245.723c-1.001,0-1.919-0.149-2.756-0.448c-0.836-0.299-1.561-0.725-2.173-1.276
			c-0.612-0.553-1.09-1.218-1.433-1.994c-0.344-0.776-0.516-1.649-0.516-2.62c0-0.956,0.176-1.826,0.526-2.61
			c0.351-0.783,0.84-1.452,1.467-2.004c0.628-0.553,1.363-0.979,2.207-1.277c0.843-0.299,1.758-0.448,2.743-0.448
			c0.403,0,0.811,0.034,1.221,0.102c0.411,0.066,0.807,0.16,1.188,0.279c0.381,0.12,0.731,0.255,1.053,0.403
			c0.321,0.149,0.594,0.313,0.817,0.493l-2.575,3.718c-0.18-0.201-0.415-0.356-0.706-0.465c-0.291-0.107-0.571-0.162-0.84-0.162
			c-0.254,0-0.501,0.041-0.739,0.123c-0.239,0.083-0.452,0.21-0.639,0.381c-0.187,0.172-0.34,0.381-0.459,0.627
			c-0.119,0.247-0.179,0.534-0.179,0.863c0,0.328,0.06,0.615,0.179,0.862c0.119,0.246,0.272,0.447,0.459,0.604
			c0.187,0.156,0.399,0.276,0.639,0.358c0.238,0.082,0.485,0.123,0.739,0.123c0.299,0,0.59-0.056,0.874-0.168
			c0.283-0.112,0.515-0.265,0.694-0.459l2.598,3.613c-0.492,0.386-1.131,0.713-1.915,0.98S212.557,245.723,211.691,245.723z"/>
		<path class="st4" d="M221.367,245.588c-1.583,0-2.755-0.34-3.517-1.02c-0.762-0.679-1.143-1.735-1.143-3.169v-4.211h-1.657v-3.696
			h1.635v-2.643h5.018v2.643h2.554v3.696h-2.554v3.136c0,0.567,0.123,0.952,0.37,1.153c0.246,0.202,0.586,0.303,1.019,0.303
			c0.164,0,0.336-0.015,0.516-0.045c0.179-0.029,0.321-0.06,0.426-0.09v3.539c-0.27,0.119-0.646,0.217-1.132,0.291
			C222.416,245.551,221.905,245.588,221.367,245.588z"/>
		<path class="st4" d="M224.772,230.088c0-0.358,0.07-0.698,0.213-1.02c0.142-0.321,0.336-0.601,0.582-0.84
			c0.246-0.238,0.534-0.429,0.862-0.571c0.328-0.142,0.68-0.213,1.053-0.213c0.358,0,0.694,0.071,1.008,0.213
			c0.313,0.143,0.594,0.333,0.841,0.571c0.246,0.239,0.439,0.519,0.582,0.84c0.142,0.321,0.213,0.661,0.213,1.02
			c0,0.373-0.071,0.721-0.213,1.041c-0.143,0.321-0.336,0.598-0.582,0.829c-0.247,0.231-0.527,0.414-0.841,0.549
			s-0.649,0.201-1.008,0.201c-0.373,0-0.725-0.066-1.053-0.201s-0.616-0.317-0.862-0.549s-0.44-0.508-0.582-0.829
			C224.843,230.809,224.772,230.461,224.772,230.088z M224.862,233.493h5.174v11.782h-5.174V233.493z"/>
		<path class="st4" d="M244.572,239.339c0,1.016-0.183,1.919-0.549,2.71c-0.366,0.792-0.858,1.46-1.479,2.005
			c-0.619,0.545-1.336,0.96-2.15,1.243c-0.813,0.283-1.668,0.426-2.564,0.426c-0.881,0-1.729-0.143-2.542-0.426
			c-0.814-0.283-1.527-0.698-2.14-1.243s-1.102-1.213-1.467-2.005c-0.366-0.791-0.549-1.694-0.549-2.71
			c0-1.001,0.183-1.893,0.549-2.677c0.365-0.784,0.854-1.445,1.467-1.982c0.612-0.538,1.325-0.944,2.14-1.221
			c0.813-0.276,1.661-0.415,2.542-0.415c0.896,0,1.751,0.139,2.564,0.415c0.814,0.276,1.531,0.683,2.15,1.221
			c0.62,0.537,1.112,1.198,1.479,1.982S244.572,238.338,244.572,239.339z M237.83,237.412c-0.567,0-1.026,0.194-1.377,0.582
			c-0.352,0.389-0.527,0.845-0.527,1.367c0,0.553,0.18,1.022,0.538,1.411c0.358,0.388,0.821,0.582,1.389,0.582
			s1.03-0.194,1.389-0.582c0.358-0.389,0.538-0.858,0.538-1.411c0-0.522-0.184-0.979-0.549-1.367
			C238.864,237.607,238.397,237.412,237.83,237.412z"/>
		<path class="st4" d="M245.647,233.493h5.039v1.3h0.045c0.298-0.434,0.741-0.811,1.329-1.132c0.588-0.32,1.262-0.481,2.021-0.481
			c0.818,0,1.5,0.149,2.043,0.448s0.976,0.683,1.296,1.153c0.319,0.471,0.543,0.997,0.669,1.579c0.127,0.582,0.19,1.165,0.19,1.747
			v7.168h-5.174v-6.271c0-0.598-0.094-1.016-0.28-1.255c-0.187-0.238-0.467-0.358-0.84-0.358c-0.344,0-0.624,0.139-0.84,0.415
			c-0.217,0.276-0.325,0.676-0.325,1.198v6.271h-5.174V233.493z"/>
	</g>
</g>
</svg>
