<?xml version="1.0" encoding="utf-8"?>
<!-- Generator: Adobe Illustrator 24.0.2, SVG Export Plug-In . SVG Version: 6.00 Build 0)  -->
<svg version="1.1" id="Layer_1" xmlns="http://www.w3.org/2000/svg" xmlns:xlink="http://www.w3.org/1999/xlink" x="0px" y="0px"
	 viewBox="0 0 350.1 350" style="enable-background:new 0 0 350.1 350;" xml:space="preserve">
<style type="text/css">
	.st0{fill:#85BE56;}
	.st1{opacity:0.1;}
	.st2{clip-path:url(#SVGID_2_);fill:#FFFFFF;}
	.st3{clip-path:url(#SVGID_4_);fill:#FFFFFF;}
	.st4{fill:#FFFFFF;}
</style>
<g id="Layer_1_1_">
	<rect x="0.1" class="st0" width="350" height="350"/>
	<g class="st1">
		<g>
			<g>
				<defs>
					<rect id="SVGID_1_" y="0.1" width="350.1" height="349.9"/>
				</defs>
				<clipPath id="SVGID_2_">
					<use xlink:href="#SVGID_1_"  style="overflow:visible;"/>
				</clipPath>
				<path class="st2" d="M350.1,0.1c0,0-30.3,77.8-155.3,107.3S19.7,193.1,0,258.8V350h350.1V0.1z"/>
			</g>
		</g>
	</g>
	<g class="st1">
		<g>
			<g>
				<defs>
					<rect id="SVGID_3_" x="0.1" width="350" height="350"/>
				</defs>
				<clipPath id="SVGID_4_">
					<use xlink:href="#SVGID_3_"  style="overflow:visible;"/>
				</clipPath>
				<path class="st3" d="M272.5,0c0,0,14.5,81.3-109.2,137.9S13.2,225.4,0.1,254.3V350h350V0L272.5,0L272.5,0z"/>
			</g>
		</g>
	</g>
	<path class="st4" d="M245,107.2c0,36.1-29.3,65.3-65.3,65.3s-65.3-29.3-65.3-65.3c0-36.1,29.3-65.3,65.3-65.3
		C215.8,41.8,245,71.1,245,107.2"/>
	<g>
		<g>
			<path class="st0" d="M199.8,140.6c-0.2,0-0.4,0-0.6,0h-28c-1.2,0-2.2-1-2.2-2.2s1-2.2,2.2-2.2l28.2,0c3.3,0.1,3.8-1.2,3.9-1.6
				V84.9c-0.4-2.3-2-3.2-2.5-3.4h-41.3c-1.2,0-2.2-1-2.2-2.2s1-2.2,2.2-2.2h42l0.3,0.1c1.9,0.5,5.2,2.6,6,7.2l0,0.2l0,50.3
				C207.6,136.9,205.8,140.6,199.8,140.6z M203.3,134.5L203.3,134.5L203.3,134.5z"/>
		</g>
		<g>
			<g>
				<path class="st0" d="M189.6,97.3h-25.7c-0.8,0-1.4-0.6-1.4-1.4s0.6-1.4,1.4-1.4h25.7c0.8,0,1.4,0.6,1.4,1.4
					C191,96.7,190.3,97.3,189.6,97.3z"/>
			</g>
		</g>
		<g>
			<g>
				<path class="st0" d="M189.6,117.1h-25.7c-0.8,0-1.4-0.6-1.4-1.4s0.6-1.4,1.4-1.4h25.7c0.8,0,1.4,0.6,1.4,1.4
					S190.3,117.1,189.6,117.1z"/>
			</g>
		</g>
		<g>
			<g>
				<path class="st0" d="M159.3,108.9h-11.4c-0.9,0-1.7-0.8-1.7-1.7s0.8-1.7,1.7-1.7h11.4c0.9,0,1.7,0.8,1.7,1.7
					S160.3,108.9,159.3,108.9z"/>
			</g>
			<g>
				<path class="st0" d="M156.4,113.5c-0.4,0-0.8-0.1-1.1-0.4c-0.7-0.6-0.7-1.7-0.1-2.4l3.2-3.5l-3.2-3.6c-0.6-0.7-0.6-1.8,0.1-2.4
					s1.8-0.6,2.4,0.1l5.2,5.8l-5.2,5.7C157.3,113.3,156.8,113.5,156.4,113.5z"/>
			</g>
		</g>
	</g>
</g>
<g id="Layer_2_1_">
	<g>
		<path class="st4" d="M72.8,241.4v-16h6c1.3,0,2.5,0.1,3.6,0.4c1.2,0.2,2.2,0.7,3,1.3s1.6,1.4,2.1,2.4s0.8,2.3,0.8,3.8
			c0,1.4-0.3,2.6-0.8,3.6c-0.5,1-1.2,1.9-2,2.5c-0.8,0.7-1.8,1.1-2.9,1.5c-1.1,0.3-2.2,0.5-3.4,0.5L72.8,241.4L72.8,241.4z
			 M77.9,230v6.8h1c1.3,0,2.2-0.3,2.9-0.8c0.7-0.5,1-1.4,1-2.7c0-1-0.3-1.8-1-2.4c-0.7-0.6-1.6-0.9-2.7-0.9L77.9,230L77.9,230z"/>
		<path class="st4" d="M96.1,233.9c0-0.4-0.1-0.6-0.4-0.8c-0.2-0.2-0.6-0.3-1-0.3c-0.5,0-0.9,0.1-1.4,0.3s-0.8,0.4-1.1,0.7l-2.6-2.6
			c0.7-0.7,1.6-1.2,2.6-1.6c1-0.4,2-0.6,3.1-0.6c1.1,0,2.1,0.2,2.8,0.5s1.3,0.8,1.8,1.3c0.4,0.6,0.7,1.2,0.9,1.9
			c0.2,0.7,0.3,1.5,0.3,2.3v6.3h-4.7v-0.9h0c-0.3,0.5-0.7,0.8-1.3,1s-1.1,0.3-1.6,0.3c-0.5,0-0.9-0.1-1.4-0.2
			c-0.5-0.1-0.9-0.4-1.3-0.7s-0.7-0.7-1-1.2c-0.3-0.5-0.4-1.1-0.4-1.8c0-0.8,0.2-1.5,0.6-2c0.4-0.5,1-0.9,1.6-1.2
			c0.7-0.3,1.4-0.5,2.2-0.6S95.3,233.9,96.1,233.9L96.1,233.9L96.1,233.9z M96.2,236.5c-0.8,0-1.4,0.1-1.9,0.2
			c-0.5,0.2-0.7,0.5-0.7,0.9c0,0.2,0,0.3,0.1,0.4c0.1,0.1,0.2,0.2,0.3,0.3s0.3,0.1,0.4,0.2c0.1,0,0.3,0.1,0.4,0.1
			c0.5,0,0.9-0.2,1.2-0.5c0.3-0.3,0.5-0.7,0.5-1.2v-0.4H96.2z"/>
		<path class="st4" d="M102.7,229.6h5v1.4h0c0.3-0.5,0.6-0.9,1.1-1.2c0.5-0.3,1.1-0.5,1.8-0.5c0.4,0,0.7,0,1,0.1l-0.4,4.4
			c-0.2,0-0.3-0.1-0.6-0.1s-0.4,0-0.6,0c-0.7,0-1.2,0.2-1.6,0.6c-0.4,0.4-0.6,0.9-0.6,1.4v5.8h-5.2L102.7,229.6L102.7,229.6z"/>
		<path class="st4" d="M122.1,237.7c0,0.8-0.2,1.5-0.5,2c-0.3,0.5-0.8,1-1.3,1.3c-0.5,0.3-1.1,0.6-1.7,0.7c-0.6,0.1-1.2,0.2-1.8,0.2
			c-1,0-2-0.1-3-0.4c-1-0.3-1.8-0.7-2.6-1.3l2.6-3c0.4,0.3,0.8,0.6,1.3,0.8c0.5,0.2,1,0.3,1.4,0.3c0.2,0,0.3,0,0.5-0.1
			c0.2-0.1,0.2-0.2,0.2-0.4c0-0.2-0.1-0.4-0.4-0.5c-0.3-0.1-0.8-0.3-1.5-0.4c-0.4-0.1-0.8-0.2-1.2-0.4c-0.4-0.2-0.7-0.4-1.1-0.7
			c-0.3-0.3-0.6-0.6-0.8-1.1c-0.2-0.4-0.3-0.9-0.3-1.5c0-0.8,0.2-1.4,0.5-2c0.3-0.5,0.8-1,1.3-1.3s1.1-0.6,1.7-0.7
			c0.6-0.2,1.2-0.2,1.7-0.2c0.9,0,1.8,0.1,2.7,0.4c0.9,0.3,1.7,0.6,2.4,1.1l-2.4,2.9c-0.4-0.2-0.8-0.4-1.2-0.6s-0.8-0.2-1.2-0.2
			c-0.3,0-0.5,0-0.6,0.1c-0.2,0.1-0.2,0.2-0.2,0.4c0,0.1,0.1,0.3,0.3,0.4c0.2,0.1,0.6,0.2,1.3,0.3c0.5,0.1,0.9,0.2,1.4,0.4
			c0.4,0.2,0.8,0.4,1.2,0.7c0.4,0.3,0.6,0.7,0.8,1.1C121.9,236.6,122.1,237.1,122.1,237.7z"/>
		<path class="st4" d="M132,229.2c0.8,0,1.5,0.2,2.1,0.5c0.5,0.3,1,0.7,1.3,1.2s0.5,1,0.7,1.6c0.1,0.6,0.2,1.2,0.2,1.8v7.2H131v-6.3
			c0-0.6-0.1-1-0.3-1.3c-0.2-0.2-0.5-0.4-0.8-0.4c-0.3,0-0.6,0.1-0.8,0.4c-0.2,0.3-0.4,0.7-0.4,1.3v6.3h-5.2v-17.1h5.2v6.5h0
			c0.3-0.4,0.7-0.8,1.3-1.1C130.6,229.4,131.2,229.2,132,229.2z"/>
		<path class="st4" d="M144.4,233.9c0-0.4-0.1-0.6-0.4-0.8c-0.2-0.2-0.6-0.3-1-0.3c-0.5,0-0.9,0.1-1.4,0.3s-0.8,0.4-1.1,0.7
			l-2.6-2.6c0.7-0.7,1.6-1.2,2.6-1.6c1-0.4,2-0.6,3.1-0.6c1.1,0,2.1,0.2,2.8,0.5s1.3,0.8,1.8,1.3c0.4,0.6,0.7,1.2,0.9,1.9
			c0.2,0.7,0.3,1.5,0.3,2.3v6.3h-4.7v-0.9h0c-0.3,0.5-0.7,0.8-1.3,1s-1.1,0.3-1.6,0.3c-0.5,0-0.9-0.1-1.4-0.2
			c-0.5-0.1-0.9-0.4-1.3-0.7s-0.7-0.7-1-1.2c-0.3-0.5-0.4-1.1-0.4-1.8c0-0.8,0.2-1.5,0.6-2c0.4-0.5,1-0.9,1.6-1.2
			c0.7-0.3,1.4-0.5,2.2-0.6S143.6,233.9,144.4,233.9L144.4,233.9L144.4,233.9z M144.4,236.5c-0.8,0-1.4,0.1-1.9,0.2
			c-0.5,0.2-0.7,0.5-0.7,0.9c0,0.2,0,0.3,0.1,0.4c0.1,0.1,0.2,0.2,0.3,0.3s0.3,0.1,0.4,0.2c0.1,0,0.3,0.1,0.4,0.1
			c0.5,0,0.9-0.2,1.2-0.5c0.3-0.3,0.5-0.7,0.5-1.2v-0.4H144.4z"/>
		<path class="st4" d="M151,229.6h5.1v1.3h0c0.3-0.4,0.7-0.8,1.3-1.1c0.6-0.3,1.3-0.5,2-0.5c0.8,0,1.5,0.2,2.1,0.5
			c0.5,0.3,1,0.7,1.3,1.2c0.3,0.5,0.5,1,0.7,1.6c0.1,0.6,0.2,1.2,0.2,1.8v7.2h-5.2v-6.3c0-0.6-0.1-1-0.3-1.3
			c-0.2-0.2-0.5-0.4-0.8-0.4c-0.3,0-0.6,0.1-0.8,0.4c-0.2,0.3-0.3,0.7-0.3,1.2v6.3H151V229.6z"/>
		<path class="st4" d="M175.2,225.5h5.7l6.2,16h-5.8l-0.8-2.3h-5.1l-0.8,2.3h-5.7L175.2,225.5z M177.9,231l-1.3,3.9h2.6L177.9,231z"
			/>
		<path class="st4" d="M194,241.9c-1,0-1.9-0.1-2.8-0.5c-0.8-0.3-1.6-0.7-2.2-1.3c-0.6-0.6-1.1-1.2-1.4-2c-0.3-0.8-0.5-1.7-0.5-2.6
			c0-1,0.2-1.8,0.5-2.6s0.8-1.5,1.5-2c0.6-0.6,1.4-1,2.2-1.3c0.9-0.3,1.8-0.5,2.8-0.5c0.4,0,0.8,0,1.2,0.1c0.4,0.1,0.8,0.2,1.2,0.3
			c0.4,0.1,0.7,0.3,1.1,0.4s0.6,0.3,0.8,0.5l-2.6,3.7c-0.2-0.2-0.4-0.4-0.7-0.5c-0.3-0.1-0.6-0.2-0.8-0.2c-0.3,0-0.5,0-0.7,0.1
			c-0.2,0.1-0.5,0.2-0.6,0.4s-0.3,0.4-0.5,0.6c-0.1,0.2-0.2,0.5-0.2,0.9s0.1,0.6,0.2,0.9c0.1,0.2,0.3,0.5,0.5,0.6s0.4,0.3,0.6,0.4
			c0.2,0.1,0.5,0.1,0.7,0.1c0.3,0,0.6-0.1,0.9-0.2c0.3-0.1,0.5-0.3,0.7-0.5l2.6,3.6c-0.5,0.4-1.1,0.7-1.9,1S194.8,241.9,194,241.9z"
			/>
		<path class="st4" d="M205.3,233.9c0-0.4-0.1-0.6-0.4-0.8c-0.2-0.2-0.6-0.3-1-0.3c-0.5,0-0.9,0.1-1.4,0.3c-0.4,0.2-0.8,0.4-1.1,0.7
			l-2.6-2.6c0.7-0.7,1.6-1.2,2.6-1.6s2-0.6,3.1-0.6c1.1,0,2.1,0.2,2.8,0.5s1.3,0.8,1.7,1.3s0.7,1.2,0.9,1.9c0.2,0.7,0.3,1.5,0.3,2.3
			v6.3h-4.7v-0.9h0c-0.3,0.5-0.7,0.8-1.3,1s-1.1,0.3-1.6,0.3c-0.5,0-0.9-0.1-1.4-0.2c-0.5-0.1-0.9-0.4-1.3-0.7s-0.7-0.7-1-1.2
			c-0.3-0.5-0.4-1.1-0.4-1.8c0-0.8,0.2-1.5,0.6-2c0.4-0.5,1-0.9,1.6-1.2c0.7-0.3,1.4-0.5,2.2-0.6S204.5,233.9,205.3,233.9
			L205.3,233.9L205.3,233.9z M205.3,236.5c-0.8,0-1.4,0.1-1.9,0.2c-0.5,0.2-0.7,0.5-0.7,0.9c0,0.2,0,0.3,0.1,0.4
			c0.1,0.1,0.2,0.2,0.3,0.3s0.3,0.1,0.4,0.2c0.1,0,0.3,0.1,0.4,0.1c0.5,0,0.9-0.2,1.2-0.5c0.3-0.3,0.5-0.7,0.5-1.2v-0.4H205.3z"/>
		<path class="st4" d="M211.4,235.5c0-0.8,0.1-1.5,0.4-2.3c0.2-0.7,0.6-1.4,1-2c0.5-0.6,1-1.1,1.7-1.4c0.7-0.4,1.5-0.5,2.3-0.5
			c0.6,0,1.1,0.1,1.7,0.3c0.6,0.2,1,0.5,1.4,0.9h0v-6.1h5.2v17.1h-4.7v-1.2h0c-0.3,0.5-0.9,0.9-1.5,1.1c-0.7,0.3-1.4,0.4-2.1,0.4
			c-0.9,0-1.7-0.2-2.3-0.5c-0.7-0.4-1.2-0.8-1.7-1.4c-0.5-0.6-0.8-1.3-1-2C211.5,237,211.4,236.2,211.4,235.5z M216.2,235.5
			c0,0.6,0.2,1.1,0.5,1.4c0.3,0.4,0.8,0.6,1.4,0.6c0.6,0,1.1-0.2,1.5-0.6c0.4-0.4,0.6-0.9,0.6-1.4c0-0.5-0.2-1-0.6-1.4
			c-0.4-0.4-0.9-0.6-1.5-0.6c-0.6,0-1.1,0.2-1.4,0.6C216.4,234.5,216.2,234.9,216.2,235.5z"/>
		<path class="st4" d="M239.5,235.6c0,0.2,0,0.4,0,0.6s0,0.4,0,0.5h-8c0,0.2,0.1,0.4,0.2,0.6c0.1,0.2,0.3,0.3,0.5,0.4
			c0.2,0.1,0.4,0.2,0.6,0.3c0.2,0.1,0.5,0.1,0.7,0.1c0.5,0,0.9-0.1,1.2-0.3c0.3-0.2,0.6-0.4,0.7-0.6l3.7,1.9c-0.5,0.9-1.3,1.5-2.3,2
			c-1,0.5-2.2,0.7-3.5,0.7c-0.9,0-1.7-0.1-2.5-0.4c-0.8-0.3-1.5-0.7-2.2-1.2c-0.6-0.5-1.1-1.2-1.5-2c-0.4-0.8-0.6-1.7-0.6-2.8
			c0-1,0.2-1.9,0.5-2.7c0.3-0.8,0.8-1.5,1.4-2c0.6-0.5,1.3-1,2.1-1.3c0.8-0.3,1.7-0.5,2.6-0.5c0.9,0,1.8,0.2,2.6,0.5
			c0.8,0.3,1.4,0.8,2,1.4c0.5,0.6,1,1.3,1.3,2.1C239.3,233.8,239.5,234.7,239.5,235.6z M235,233.9c0-0.4-0.2-0.8-0.5-1
			c-0.3-0.3-0.7-0.4-1.3-0.4c-0.6,0-1,0.2-1.3,0.5c-0.3,0.3-0.5,0.6-0.5,1L235,233.9L235,233.9z"/>
		<path class="st4" d="M248.2,241.4v-6.2c0-0.6-0.1-1-0.2-1.3c-0.2-0.3-0.4-0.4-0.7-0.4c-0.3,0-0.5,0.1-0.7,0.4
			c-0.2,0.2-0.4,0.7-0.4,1.3v6.3h-5.2v-11.9h5.1v1.3h0c0.1-0.2,0.3-0.4,0.6-0.6c0.2-0.2,0.5-0.4,0.7-0.5s0.6-0.3,0.9-0.4
			c0.3-0.1,0.7-0.1,1.1-0.1c0.8,0,1.5,0.1,2,0.4s1,0.7,1.4,1.3c0.4-0.5,0.9-0.9,1.4-1.2c0.6-0.3,1.3-0.5,2.2-0.5
			c0.8,0,1.5,0.2,2.1,0.5c0.5,0.3,1,0.7,1.3,1.2c0.3,0.5,0.5,1,0.7,1.6s0.2,1.1,0.2,1.6v7.2h-5.2v-6.3c0-0.6-0.1-1.1-0.2-1.3
			c-0.2-0.2-0.4-0.3-0.7-0.3c-0.3,0-0.6,0.1-0.8,0.4c-0.2,0.3-0.3,0.7-0.3,1.2v6.3L248.2,241.4L248.2,241.4z"/>
		<path class="st4" d="M265.9,241l-4.8-11.4h5.8l1.8,6.3h0.1l1.6-6.3h5.6l-4.9,12.6c-0.3,0.7-0.6,1.4-1,2s-0.8,1.1-1.3,1.5
			c-0.5,0.4-1,0.7-1.7,0.9c-0.7,0.2-1.4,0.3-2.3,0.3c-0.3,0-0.5,0-0.8,0c-0.3,0-0.6-0.1-0.8-0.1c-0.3,0-0.5-0.1-0.7-0.1
			c-0.2,0-0.4-0.1-0.6-0.1l0.7-4.3c0.2,0.1,0.4,0.1,0.7,0.2s0.5,0.1,0.8,0.1c0.6,0,1-0.1,1.3-0.3c0.3-0.2,0.5-0.5,0.6-0.9L265.9,241
			z"/>
	</g>
</g>
</svg>
