<?xml version="1.0" encoding="utf-8"?>
<!-- Generator: Adobe Illustrator 24.0.2, SVG Export Plug-In . SVG Version: 6.00 Build 0)  -->
<svg version="1.1" id="Layer_1" xmlns="http://www.w3.org/2000/svg" xmlns:xlink="http://www.w3.org/1999/xlink" x="0px" y="0px"
	 viewBox="0 0 350 350.4" style="enable-background:new 0 0 350 350.4;" xml:space="preserve">
<style type="text/css">
	.st0{fill:#C571AB;}
	.st1{opacity:0.1;}
	.st2{clip-path:url(#SVGID_2_);fill:#FFFFFF;}
	.st3{clip-path:url(#SVGID_4_);fill:#FFFFFF;}
	.st4{fill:#FFFFFF;}
</style>
<g id="Layer_1_1_">
	<rect y="0.4" class="st0" width="350" height="350"/>
	<g class="st1">
		<g>
			<g>
				<defs>
					<rect id="SVGID_1_" width="350" height="350.4"/>
				</defs>
				<clipPath id="SVGID_2_">
					<use xlink:href="#SVGID_1_"  style="overflow:visible;"/>
				</clipPath>
				<path class="st2" d="M350,0c0,0-30.3,77.9-155.3,107.4S19.7,193.3,0,259.1v91.3h350V0z"/>
			</g>
		</g>
	</g>
	<g class="st1">
		<g>
			<g>
				<defs>
					<rect id="SVGID_3_" y="0.4" width="350" height="350"/>
				</defs>
				<clipPath id="SVGID_4_">
					<use xlink:href="#SVGID_3_"  style="overflow:visible;"/>
				</clipPath>
				<path class="st3" d="M272.4,0.4c0,0,14.5,81.3-109.2,137.9S13.2,225.9,0,254.7v95.7h350V0.4C350,0.4,272.4,0.4,272.4,0.4z"/>
			</g>
		</g>
	</g>
	<path class="st4" d="M242,108.7c0,36-29.2,65.1-65.1,65.1s-65.1-29.2-65.1-65.1s29.2-65.1,65.1-65.1C212.8,43.6,242,72.8,242,108.7
		"/>
	<g>
		<g>
			<path class="st0" d="M179.5,91.9c-5.6,0-10.1-4.5-10.1-10.1s4.5-10.1,10.1-10.1c5.6,0,10.1,4.5,10.1,10.1
				C189.6,87.3,185.1,91.9,179.5,91.9z M179.5,76c-3.2,0-5.8,2.6-5.8,5.8s2.6,5.8,5.8,5.8c3.2,0,5.8-2.6,5.8-5.8
				C185.3,78.6,182.7,76,179.5,76z"/>
		</g>
		<g>
			<g>
				<path class="st0" d="M196.7,144.6c-3.9,0-8-0.4-12.9-1.3c-1.4-0.3-2.9-0.5-4.4-0.7c-2.9-0.5-6-1-8.9-1.7
					c-1.9-0.5-3.9-1.2-5.4-2.7c-1.5-1.6-2-4.1-1.2-6.4c0.8-2.5,2.7-4.2,4.9-4.7c1.2-0.2,2.4-0.1,3.5,0.1c1,0.2,1.9,0.4,2.9,0.6l0,0
					c5.4,1.2,10.9,1.6,15.8,1.2c1.2-0.1,2.4-0.3,3.7-0.4c3.9-0.6,8.3-1.2,12.4,0.9c1.9,1,3.2,2.4,3.8,4.1c1,3.1,0.2,5.3-0.7,6.6
					c-2.6,3.8-8.8,4.5-12.3,4.6C197.6,144.6,197.1,144.6,196.7,144.6z M170.1,131.2c-0.2,0-0.3,0-0.5,0c-0.7,0.1-1.3,0.8-1.6,1.7
					c-0.3,0.9-0.2,1.7,0.2,2.1c0.7,0.7,1.8,1.1,3.3,1.5c2.8,0.7,5.7,1.2,8.5,1.6c1.5,0.2,3,0.5,4.5,0.8c5.2,1,9.4,1.4,13.3,1.3
					c4.3-0.1,7.8-1.2,8.8-2.7c0.3-0.4,0.6-1.2,0.1-2.7c-0.2-0.6-0.8-1.2-1.6-1.6c-2.8-1.5-6.2-1-9.8-0.4c-1.3,0.2-2.7,0.4-4,0.5
					c-5.3,0.4-11.2-0.1-17-1.3l0,0c-0.9-0.2-1.9-0.4-2.8-0.6C171.1,131.2,170.6,131.2,170.1,131.2z"/>
			</g>
			<g>
				<path class="st0" d="M161.2,145.5c-4.4,0-8.5-0.8-11-3.1c-1.3-1.2-2.8-3.5-2.3-7.3c0.4-3,2.7-5.3,5.9-5.8c1.6-0.2,3-0.1,4.4,0
					c1.6,0.2,3,0.3,4.3-0.2c1.6-0.6,3-2,3.9-4c1.2-2.6,2.2-6.6,1.1-9.9c-0.5,0.4-1.5,1.3-3.2,3.5l-0.1,0.1c-3.5,4.7-8,7.5-13.5,8.3
					c-1.9,0.3-7.8,1.2-9.5-3.5c-2-5.8,4.3-8.1,7.6-9.4c0.9-0.3,1.8-0.7,2.3-1c3-1.7,4.6-4.1,6.4-7.8l0.1-0.2
					c1.6-3.2,3.4-6.9,6.9-9.2c3.4-2.3,11.1-5.8,23.9-3.5c5.5,1,10,6.1,12.1,10.7c1.9,4.2,4.4,7.7,7.3,10.2c1.4,1.3,3,2.1,4.6,3
					c1.4,0.8,4.1,2.3,4.7,5.2c0.3,1.4-0.1,3.3-1.1,4.6c-0.8,1.1-1.9,1.7-3.1,1.8c-0.5,0-1.1,0.1-1.6,0c-6-0.2-12-4-16.4-10.4
					c-0.3-0.4-0.6-0.9-0.8-1.3c-0.3-0.5-0.5-0.9-0.8-1.3c0,0.2,0,0.5,0,0.8c0,0.2,0,0.3,0,0.5c0,1.7,0.3,3.4,0.5,4.9
					c0.4,2.7,1.4,5.3,2.9,7.5c0.6,1,0.3,2.3-0.7,3s-2.3,0.3-3-0.7c-1.7-2.7-2.9-5.9-3.5-9.1c-0.3-1.6-0.5-3.6-0.6-5.6
					c0-0.1,0-0.2,0-0.4c-0.1-2-0.2-5.2,2.1-6.3c0.6-0.3,1.2-0.3,1.9-0.1c2.5,0.7,3.8,2.8,4.8,4.6c0.2,0.4,0.5,0.8,0.7,1.1
					c1.7,2.5,6.4,8.3,13,8.5c0.3,0,0.7,0,1,0c0.2-0.2,0.4-0.9,0.4-1.1c-0.2-0.9-1.4-1.6-2.6-2.3c-1.7-1-3.6-2-5.3-3.6
					c-3.4-2.9-6.2-6.9-8.4-11.7c-1.6-3.4-5-7.5-9-8.2c-3.9-0.7-13.7-1.8-20.7,2.8c-2.5,1.7-3.9,4.5-5.4,7.5l-0.1,0.2
					c-1.7,3.5-3.8,7.2-8.2,9.6c-0.8,0.4-1.8,0.8-2.9,1.2c-4.4,1.6-5.5,2.5-5.1,3.9c0.3,0.9,1.9,1.1,4.7,0.7
					c4.3-0.7,7.9-2.9,10.7-6.6l0.1-0.1c2.3-3.1,4.8-5.9,7.6-5.5c0.8,0.1,2.4,0.7,3.1,3c1.3,3.8,0.8,8.8-1.3,13.2
					c-1.4,3-3.6,5.2-6.3,6.2c-2.2,0.8-4.3,0.6-6.2,0.4c-1.2-0.1-2.3-0.2-3.3-0.1c-1,0.2-2.1,0.8-2.3,2c-0.3,2.1,0.4,3,1,3.6
					c2.4,2.3,9.2,2.6,18.1,0.8c2.5-0.5,5.2-1,7.7-1.8c1.1-0.3,2.4,0.3,2.7,1.5c0.3,1.1-0.3,2.4-1.5,2.7c-2.7,0.8-5.5,1.4-8.1,1.9
					C168.6,144.9,164.8,145.5,161.2,145.5z M191.8,113.8L191.8,113.8L191.8,113.8z"/>
			</g>
		</g>
	</g>
</g>
<g id="text">
	<g>
		<path class="st4" d="M121.5,233.7l0.2,9h-5v-16h7l2.9,8.6h0.1l2.5-8.6h7.2v16h-5.2l0.2-9l-0.1,0l-3,9h-3.8l-2.9-9H121.5z"/>
		<path class="st4" d="M151.1,236.9c0,0.2,0,0.4,0,0.6c0,0.2,0,0.4,0,0.5h-8c0,0.2,0.1,0.4,0.2,0.6c0.1,0.2,0.3,0.3,0.5,0.4
			s0.4,0.2,0.6,0.3c0.2,0.1,0.5,0.1,0.7,0.1c0.5,0,0.9-0.1,1.2-0.3c0.3-0.2,0.6-0.4,0.7-0.6l3.7,1.9c-0.5,0.9-1.3,1.5-2.3,2
			s-2.2,0.7-3.5,0.7c-0.9,0-1.7-0.1-2.5-0.4c-0.8-0.3-1.5-0.7-2.2-1.2c-0.6-0.5-1.1-1.2-1.5-2s-0.6-1.7-0.6-2.8c0-1,0.2-1.9,0.5-2.6
			s0.8-1.5,1.4-2c0.6-0.5,1.3-1,2.1-1.3s1.7-0.5,2.6-0.5c0.9,0,1.8,0.2,2.5,0.5s1.4,0.8,2,1.4c0.5,0.6,1,1.3,1.3,2.1
			S151.1,236,151.1,236.9z M146.6,235.2c0-0.4-0.2-0.8-0.5-1s-0.7-0.4-1.3-0.4c-0.6,0-1,0.2-1.3,0.5s-0.5,0.6-0.5,1L146.6,235.2
			L146.6,235.2z"/>
		<path class="st4" d="M152,236.7c0-0.8,0.1-1.5,0.4-2.3c0.2-0.7,0.6-1.4,1-2c0.5-0.6,1-1.1,1.7-1.4c0.7-0.4,1.5-0.5,2.3-0.5
			c0.6,0,1.1,0.1,1.7,0.3c0.6,0.2,1,0.5,1.4,0.9h0v-6.1h5.2v17h-4.7v-1.2h0c-0.3,0.5-0.9,0.9-1.5,1.1c-0.7,0.3-1.4,0.4-2.1,0.4
			c-0.9,0-1.7-0.2-2.3-0.5c-0.7-0.4-1.2-0.8-1.7-1.4c-0.5-0.6-0.8-1.3-1-2C152.1,238.3,152,237.5,152,236.7z M156.8,236.7
			c0,0.6,0.2,1,0.5,1.4c0.3,0.4,0.8,0.6,1.4,0.6c0.6,0,1.1-0.2,1.5-0.6c0.4-0.4,0.6-0.9,0.6-1.4c0-0.5-0.2-1-0.6-1.4
			c-0.4-0.4-0.9-0.6-1.5-0.6c-0.6,0-1.1,0.2-1.4,0.6C157,235.7,156.8,236.2,156.8,236.7z"/>
		<path class="st4" d="M167.6,227.4c0-0.4,0.1-0.7,0.2-1s0.3-0.6,0.6-0.8c0.2-0.2,0.5-0.4,0.9-0.6c0.3-0.1,0.7-0.2,1.1-0.2
			c0.4,0,0.7,0.1,1,0.2c0.3,0.1,0.6,0.3,0.8,0.6c0.2,0.2,0.4,0.5,0.6,0.8c0.1,0.3,0.2,0.7,0.2,1c0,0.4-0.1,0.7-0.2,1
			c-0.1,0.3-0.3,0.6-0.6,0.8c-0.2,0.2-0.5,0.4-0.8,0.6c-0.3,0.1-0.7,0.2-1,0.2c-0.4,0-0.7-0.1-1.1-0.2c-0.3-0.1-0.6-0.3-0.9-0.6
			c-0.2-0.2-0.4-0.5-0.6-0.8S167.6,227.8,167.6,227.4z M167.7,230.8h5.2v11.9h-5.2V230.8z"/>
		<path class="st4" d="M180.1,243c-1.6,0-2.8-0.3-3.5-1c-0.8-0.7-1.1-1.7-1.1-3.2v-4.2h-1.7v-3.7h1.6v-2.7h5.1v2.7h2.6v3.7h-2.6v3.2
			c0,0.6,0.1,1,0.4,1.2s0.6,0.3,1,0.3c0.2,0,0.3,0,0.5,0c0.2,0,0.3-0.1,0.4-0.1v3.6c-0.3,0.1-0.6,0.2-1.1,0.3S180.6,243,180.1,243z"
			/>
		<path class="st4" d="M190.3,235.2c0-0.4-0.1-0.6-0.4-0.8s-0.6-0.3-1-0.3c-0.5,0-0.9,0.1-1.4,0.3s-0.8,0.4-1.1,0.7l-2.6-2.6
			c0.7-0.7,1.6-1.2,2.6-1.6c1-0.4,2-0.6,3.1-0.6c1.1,0,2.1,0.2,2.8,0.5s1.3,0.8,1.7,1.3c0.4,0.6,0.7,1.2,0.9,1.9
			c0.2,0.7,0.3,1.5,0.3,2.3v6.2h-4.7v-0.9h0c-0.3,0.5-0.7,0.8-1.3,1s-1.1,0.3-1.6,0.3c-0.5,0-0.9-0.1-1.4-0.2
			c-0.5-0.1-0.9-0.4-1.3-0.7c-0.4-0.3-0.7-0.7-1-1.2s-0.4-1.1-0.4-1.8c0-0.8,0.2-1.5,0.6-2c0.4-0.5,1-0.9,1.6-1.2
			c0.7-0.3,1.4-0.5,2.2-0.6S189.5,235.2,190.3,235.2L190.3,235.2L190.3,235.2z M190.3,237.8c-0.8,0-1.4,0.1-1.9,0.2
			c-0.5,0.2-0.7,0.5-0.7,0.9c0,0.2,0,0.3,0.1,0.4c0.1,0.1,0.2,0.2,0.3,0.3c0.1,0.1,0.3,0.1,0.4,0.2c0.1,0,0.3,0.1,0.4,0.1
			c0.5,0,0.9-0.2,1.2-0.5c0.3-0.3,0.5-0.7,0.5-1.2v-0.4L190.3,237.8L190.3,237.8z"/>
		<path class="st4" d="M201.8,243c-1.6,0-2.8-0.3-3.5-1c-0.8-0.7-1.1-1.7-1.1-3.2v-4.2h-1.7v-3.7h1.6v-2.7h5.1v2.7h2.6v3.7h-2.6v3.2
			c0,0.6,0.1,1,0.4,1.2s0.6,0.3,1,0.3c0.2,0,0.3,0,0.5,0c0.2,0,0.3-0.1,0.4-0.1v3.6c-0.3,0.1-0.6,0.2-1.1,0.3S202.4,243,201.8,243z"
			/>
		<path class="st4" d="M205.7,227.4c0-0.4,0.1-0.7,0.2-1s0.3-0.6,0.6-0.8c0.2-0.2,0.5-0.4,0.9-0.6c0.3-0.1,0.7-0.2,1.1-0.2
			c0.4,0,0.7,0.1,1,0.2c0.3,0.1,0.6,0.3,0.8,0.6c0.2,0.2,0.4,0.5,0.6,0.8c0.1,0.3,0.2,0.7,0.2,1c0,0.4-0.1,0.7-0.2,1
			c-0.1,0.3-0.3,0.6-0.6,0.8c-0.2,0.2-0.5,0.4-0.8,0.6c-0.3,0.1-0.7,0.2-1,0.2c-0.4,0-0.7-0.1-1.1-0.2c-0.3-0.1-0.6-0.3-0.9-0.6
			c-0.2-0.2-0.4-0.5-0.6-0.8S205.7,227.8,205.7,227.4z M205.8,230.8h5.2v11.9h-5.2V230.8z"/>
		<path class="st4" d="M226,236.7c0,1-0.2,1.9-0.6,2.7s-0.9,1.5-1.5,2c-0.6,0.6-1.3,1-2.2,1.3s-1.7,0.4-2.6,0.4
			c-0.9,0-1.7-0.1-2.6-0.4c-0.8-0.3-1.5-0.7-2.2-1.3c-0.6-0.5-1.1-1.2-1.5-2c-0.4-0.8-0.6-1.7-0.6-2.7c0-1,0.2-1.9,0.6-2.7
			c0.4-0.8,0.9-1.5,1.5-2s1.3-1,2.2-1.2c0.8-0.3,1.7-0.4,2.6-0.4c0.9,0,1.8,0.1,2.6,0.4c0.8,0.3,1.5,0.7,2.2,1.2s1.1,1.2,1.5,2
			C225.8,234.8,226,235.7,226,236.7z M219.2,234.8c-0.6,0-1,0.2-1.4,0.6c-0.4,0.4-0.5,0.9-0.5,1.4c0,0.6,0.2,1,0.5,1.4
			c0.4,0.4,0.8,0.6,1.4,0.6s1-0.2,1.4-0.6c0.4-0.4,0.5-0.9,0.5-1.4c0-0.5-0.2-1-0.6-1.4S219.8,234.8,219.2,234.8z"/>
		<path class="st4" d="M227.5,230.8h5.1v1.3h0c0.3-0.4,0.7-0.8,1.3-1.1s1.3-0.5,2-0.5c0.8,0,1.5,0.1,2.1,0.5s1,0.7,1.3,1.2
			s0.5,1,0.7,1.6c0.1,0.6,0.2,1.2,0.2,1.8v7.2H235v-6.3c0-0.6-0.1-1-0.3-1.3c-0.2-0.2-0.5-0.4-0.8-0.4c-0.3,0-0.6,0.1-0.8,0.4
			c-0.2,0.3-0.3,0.7-0.3,1.2v6.3h-5.2L227.5,230.8L227.5,230.8z"/>
	</g>
</g>
</svg>
