<?xml version="1.0" encoding="utf-8"?>
<!-- Generator: Adobe Illustrator 24.0.2, SVG Export Plug-In . SVG Version: 6.00 Build 0)  -->
<svg version="1.1" xmlns="http://www.w3.org/2000/svg" xmlns:xlink="http://www.w3.org/1999/xlink" x="0px" y="0px"
	 viewBox="0 0 350 350.121" style="enable-background:new 0 0 350 350.121;" xml:space="preserve">
<style type="text/css">
	.st0{fill:#F15A24;}
	.st1{opacity:0.1;}
	.st2{clip-path:url(#SVGID_2_);fill:#FFFFFF;}
	.st3{clip-path:url(#SVGID_4_);fill:#FFFFFF;}
	.st4{fill:#FFFFFF;}
</style>
<g id="Layer_1">
	<rect class="st0" width="350" height="350.121"/>
	<g class="st1">
		<g>
			<defs>
				<rect id="SVGID_1_" y="1.717" width="350" height="348.404"/>
			</defs>
			<clipPath id="SVGID_2_">
				<use xlink:href="#SVGID_1_"  style="overflow:visible;"/>
			</clipPath>
			<path class="st2" d="M350,1.717c0,0-30.263,77.422-155.263,106.79c-125,29.366-175,85.432-194.737,150.842v90.771h350V1.717z"/>
		</g>
	</g>
	<g class="st1">
		<g>
			<defs>
				<rect id="SVGID_3_" y="0.121" width="350" height="350"/>
			</defs>
			<clipPath id="SVGID_4_">
				<use xlink:href="#SVGID_3_"  style="overflow:visible;"/>
			</clipPath>
			<path class="st3" d="M272.368,0.121c0,0,14.474,81.324-109.211,137.941C39.474,194.68,13.158,225.562,0,254.385v95.736h350v-350
				H272.368z"/>
		</g>
	</g>
	<path class="st4" d="M247.022,108.868c0,35.58-28.842,64.422-64.422,64.422c-35.58,0-64.422-28.842-64.422-64.422
		c0-35.58,28.842-64.422,64.422-64.422C218.18,44.446,247.022,73.289,247.022,108.868"/>
	<path class="st0" d="M183.782,141.75h-2.395c-1.933,0-3.5-1.567-3.5-3.5v-29.237c0-1.933,1.567-3.5,3.5-3.5h2.395
		c1.933,0,3.5,1.567,3.5,3.5v29.237C187.282,140.183,185.715,141.75,183.782,141.75z"/>
	<circle class="st0" cx="182.585" cy="95.447" r="6.04"/>
</g>
<g id="text">
	<g>
		<path class="st4" d="M71.937,228.551h5.341v15.757h-5.341V228.551z"/>
		<path class="st4" d="M79.103,232.602h5.007v1.291h0.044c0.295-0.431,0.736-0.805,1.32-1.124c0.584-0.319,1.254-0.479,2.008-0.479
			c0.813,0,1.49,0.148,2.03,0.444c0.54,0.298,0.969,0.68,1.287,1.146c0.318,0.468,0.54,0.99,0.666,1.569
			c0.125,0.578,0.188,1.157,0.188,1.735v7.122h-5.141v-6.231c0-0.594-0.093-1.009-0.278-1.246c-0.186-0.237-0.464-0.356-0.834-0.356
			c-0.342,0-0.62,0.138-0.835,0.412c-0.215,0.274-0.323,0.671-0.323,1.19v6.231h-5.141V232.602z"/>
		<path class="st4" d="M98.197,244.619c-1.573,0-2.737-0.337-3.494-1.013c-0.756-0.675-1.135-1.725-1.135-3.149v-4.184h-1.647
			v-3.672h1.625v-2.626h4.985v2.626h2.537v3.672h-2.537v3.116c0,0.563,0.123,0.945,0.367,1.146s0.582,0.301,1.013,0.301
			c0.163,0,0.334-0.015,0.512-0.045c0.178-0.029,0.319-0.059,0.423-0.089v3.517c-0.267,0.118-0.642,0.215-1.124,0.289
			S98.731,244.619,98.197,244.619z"/>
		<path class="st4" d="M101.647,232.602h4.94v1.335h0.044c0.252-0.475,0.627-0.868,1.124-1.18s1.08-0.467,1.747-0.467
			c0.4,0,0.727,0.037,0.979,0.111l-0.401,4.361c-0.164-0.044-0.345-0.077-0.545-0.1c-0.2-0.022-0.382-0.033-0.545-0.033
			c-0.668,0-1.202,0.192-1.603,0.578s-0.601,0.86-0.601,1.425v5.675h-5.141V232.602z"/>
		<path class="st4" d="M123.613,238.41c0,1.009-0.182,1.906-0.545,2.692c-0.364,0.787-0.853,1.451-1.469,1.992
			c-0.616,0.542-1.328,0.953-2.137,1.235c-0.809,0.281-1.658,0.423-2.548,0.423c-0.876,0-1.718-0.142-2.526-0.423
			c-0.809-0.282-1.517-0.693-2.125-1.235c-0.609-0.541-1.095-1.205-1.458-1.992c-0.364-0.786-0.545-1.684-0.545-2.692
			c0-0.994,0.181-1.881,0.545-2.66c0.363-0.778,0.849-1.435,1.458-1.969c0.608-0.534,1.316-0.938,2.125-1.213
			s1.65-0.412,2.526-0.412c0.89,0,1.739,0.138,2.548,0.412s1.521,0.679,2.137,1.213s1.105,1.19,1.469,1.969
			C123.431,236.529,123.613,237.416,123.613,238.41z M116.914,236.496c-0.564,0-1.021,0.193-1.369,0.578
			c-0.349,0.387-0.523,0.839-0.523,1.358c0,0.549,0.178,1.016,0.534,1.401c0.356,0.387,0.816,0.579,1.38,0.579
			s1.024-0.192,1.38-0.579c0.356-0.386,0.534-0.853,0.534-1.401c0-0.52-0.182-0.972-0.545-1.358
			C117.941,236.689,117.478,236.496,116.914,236.496z"/>
		<path class="st4" d="M124.213,238.41c0-0.757,0.115-1.499,0.345-2.226s0.567-1.38,1.013-1.959
			c0.445-0.578,1.001-1.046,1.669-1.401c0.668-0.356,1.439-0.534,2.314-0.534c0.564,0,1.127,0.107,1.692,0.322
			c0.563,0.216,1.016,0.523,1.357,0.924h0.044v-6.054h5.142v16.825h-4.627v-1.224h-0.045c-0.341,0.475-0.838,0.849-1.491,1.123
			s-1.343,0.412-2.07,0.412c-0.875,0-1.647-0.178-2.315-0.534c-0.668-0.356-1.225-0.827-1.67-1.413
			c-0.445-0.586-0.783-1.25-1.013-1.992C124.328,239.938,124.213,239.182,124.213,238.41z M128.976,238.41
			c0,0.563,0.163,1.034,0.49,1.413c0.326,0.378,0.801,0.567,1.424,0.567c0.608,0,1.094-0.192,1.458-0.578
			c0.363-0.386,0.545-0.854,0.545-1.402c0-0.52-0.182-0.972-0.545-1.357c-0.364-0.386-0.85-0.579-1.458-0.579
			c-0.623,0-1.098,0.193-1.424,0.579C129.139,237.438,128.976,237.891,128.976,238.41z"/>
		<path class="st4" d="M151.698,244.308h-5.008v-1.291h-0.045c-0.297,0.431-0.738,0.806-1.324,1.124
			c-0.586,0.319-1.257,0.479-2.014,0.479c-0.831,0-1.514-0.145-2.048-0.434c-0.534-0.29-0.961-0.668-1.279-1.136
			c-0.319-0.467-0.542-0.993-0.668-1.58c-0.126-0.586-0.188-1.168-0.188-1.747v-7.121h5.141v6.187c0,0.594,0.094,1.01,0.281,1.246
			c0.187,0.238,0.468,0.356,0.842,0.356c0.345,0,0.626-0.137,0.844-0.412c0.217-0.274,0.325-0.671,0.325-1.19v-6.187h5.142V244.308z
			"/>
		<path class="st4" d="M159.6,244.753c-0.994,0-1.907-0.148-2.737-0.445c-0.832-0.297-1.551-0.72-2.159-1.269
			s-1.083-1.209-1.425-1.98c-0.341-0.771-0.512-1.64-0.512-2.604c0-0.949,0.175-1.813,0.523-2.593
			c0.349-0.778,0.834-1.442,1.458-1.991c0.623-0.549,1.354-0.972,2.191-1.269s1.747-0.445,2.727-0.445c0.4,0,0.805,0.033,1.213,0.1
			c0.408,0.067,0.801,0.16,1.18,0.278c0.378,0.119,0.727,0.253,1.046,0.401s0.59,0.312,0.812,0.489l-2.56,3.694
			c-0.178-0.2-0.412-0.354-0.701-0.462s-0.567-0.161-0.834-0.161c-0.253,0-0.498,0.041-0.735,0.122
			c-0.237,0.082-0.448,0.208-0.634,0.379c-0.186,0.17-0.338,0.378-0.456,0.623c-0.119,0.244-0.179,0.53-0.179,0.856
			c0,0.327,0.06,0.612,0.179,0.857c0.118,0.244,0.271,0.444,0.456,0.601c0.186,0.155,0.396,0.274,0.634,0.355
			c0.237,0.082,0.482,0.123,0.735,0.123c0.296,0,0.586-0.056,0.867-0.167c0.282-0.111,0.512-0.264,0.69-0.456l2.581,3.59
			c-0.489,0.384-1.123,0.709-1.902,0.975S160.46,244.753,159.6,244.753z"/>
		<path class="st4" d="M169.213,244.619c-1.573,0-2.737-0.337-3.494-1.013c-0.757-0.675-1.136-1.725-1.136-3.149v-4.184h-1.646
			v-3.672h1.625v-2.626h4.984v2.626h2.537v3.672h-2.537v3.116c0,0.563,0.123,0.945,0.368,1.146c0.244,0.2,0.582,0.301,1.012,0.301
			c0.163,0,0.334-0.015,0.513-0.045c0.178-0.029,0.318-0.059,0.423-0.089v3.517c-0.268,0.118-0.643,0.215-1.124,0.289
			C170.255,244.582,169.747,244.619,169.213,244.619z"/>
		<path class="st4" d="M172.595,229.219c0-0.356,0.07-0.693,0.212-1.013c0.141-0.319,0.334-0.598,0.579-0.835
			c0.244-0.237,0.53-0.426,0.856-0.567c0.326-0.141,0.675-0.211,1.046-0.211c0.356,0,0.689,0.07,1.002,0.211
			c0.312,0.142,0.589,0.33,0.834,0.567s0.438,0.516,0.579,0.835c0.141,0.319,0.211,0.656,0.211,1.013
			c0,0.371-0.07,0.716-0.211,1.034c-0.142,0.319-0.334,0.594-0.579,0.824c-0.245,0.229-0.522,0.411-0.834,0.545
			c-0.312,0.134-0.646,0.2-1.002,0.2c-0.371,0-0.72-0.066-1.046-0.2s-0.612-0.315-0.856-0.545c-0.245-0.23-0.438-0.505-0.579-0.824
			C172.665,229.935,172.595,229.59,172.595,229.219z M172.685,232.602h5.141v11.706h-5.141V232.602z"/>
		<path class="st4" d="M192.269,238.41c0,1.009-0.182,1.906-0.545,2.692c-0.364,0.787-0.854,1.451-1.469,1.992
			c-0.616,0.542-1.328,0.953-2.137,1.235c-0.81,0.281-1.658,0.423-2.549,0.423c-0.875,0-1.717-0.142-2.525-0.423
			c-0.81-0.282-1.518-0.693-2.126-1.235c-0.608-0.541-1.094-1.205-1.457-1.992c-0.364-0.786-0.546-1.684-0.546-2.692
			c0-0.994,0.182-1.881,0.546-2.66c0.363-0.778,0.849-1.435,1.457-1.969s1.316-0.938,2.126-1.213
			c0.809-0.274,1.65-0.412,2.525-0.412c0.891,0,1.739,0.138,2.549,0.412c0.809,0.274,1.521,0.679,2.137,1.213
			c0.615,0.534,1.104,1.19,1.469,1.969C192.087,236.529,192.269,237.416,192.269,238.41z M185.569,236.496
			c-0.563,0-1.02,0.193-1.368,0.578c-0.349,0.387-0.523,0.839-0.523,1.358c0,0.549,0.179,1.016,0.534,1.401
			c0.356,0.387,0.816,0.579,1.38,0.579s1.023-0.192,1.38-0.579c0.356-0.386,0.534-0.853,0.534-1.401c0-0.52-0.182-0.972-0.545-1.358
			C186.597,236.689,186.134,236.496,185.569,236.496z"/>
		<path class="st4" d="M193.337,232.602h5.007v1.291h0.045c0.296-0.431,0.736-0.805,1.32-1.124s1.254-0.479,2.009-0.479
			c0.812,0,1.489,0.148,2.029,0.444c0.54,0.298,0.969,0.68,1.287,1.146c0.318,0.468,0.54,0.99,0.666,1.569
			c0.126,0.578,0.188,1.157,0.188,1.735v7.122h-5.141v-6.231c0-0.594-0.093-1.009-0.278-1.246s-0.464-0.356-0.835-0.356
			c-0.341,0-0.619,0.138-0.834,0.412c-0.216,0.274-0.323,0.671-0.323,1.19v6.231h-5.141V232.602z"/>
		<path class="st4" d="M217.172,244.619c-1.573,0-2.737-0.337-3.494-1.013c-0.757-0.675-1.136-1.725-1.136-3.149v-4.184h-1.646
			v-3.672h1.625v-2.626h4.984v2.626h2.537v3.672h-2.537v3.116c0,0.563,0.123,0.945,0.368,1.146c0.244,0.2,0.582,0.301,1.012,0.301
			c0.163,0,0.334-0.015,0.513-0.045c0.178-0.029,0.318-0.059,0.423-0.089v3.517c-0.268,0.118-0.643,0.215-1.124,0.289
			C218.214,244.582,217.706,244.619,217.172,244.619z"/>
		<path class="st4" d="M233.507,238.41c0,1.009-0.182,1.906-0.545,2.692c-0.364,0.787-0.854,1.451-1.469,1.992
			c-0.616,0.542-1.328,0.953-2.137,1.235c-0.81,0.281-1.658,0.423-2.549,0.423c-0.875,0-1.717-0.142-2.525-0.423
			c-0.81-0.282-1.518-0.693-2.126-1.235c-0.608-0.541-1.094-1.205-1.457-1.992c-0.364-0.786-0.546-1.684-0.546-2.692
			c0-0.994,0.182-1.881,0.546-2.66c0.363-0.778,0.849-1.435,1.457-1.969s1.316-0.938,2.126-1.213
			c0.809-0.274,1.65-0.412,2.525-0.412c0.891,0,1.739,0.138,2.549,0.412c0.809,0.274,1.521,0.679,2.137,1.213
			c0.615,0.534,1.104,1.19,1.469,1.969C233.325,236.529,233.507,237.416,233.507,238.41z M226.808,236.496
			c-0.563,0-1.02,0.193-1.368,0.578c-0.349,0.387-0.523,0.839-0.523,1.358c0,0.549,0.179,1.016,0.534,1.401
			c0.356,0.387,0.816,0.579,1.38,0.579s1.023-0.192,1.38-0.579c0.356-0.386,0.534-0.853,0.534-1.401c0-0.52-0.182-0.972-0.545-1.358
			C227.835,236.689,227.372,236.496,226.808,236.496z"/>
		<path class="st4" d="M244.412,244.619c-1.573,0-2.737-0.337-3.494-1.013c-0.757-0.675-1.136-1.725-1.136-3.149v-4.184h-1.646
			v-3.672h1.625v-2.626h4.984v2.626h2.537v3.672h-2.537v3.116c0,0.563,0.123,0.945,0.368,1.146c0.244,0.2,0.582,0.301,1.012,0.301
			c0.163,0,0.334-0.015,0.513-0.045c0.178-0.029,0.318-0.059,0.423-0.089v3.517c-0.268,0.118-0.643,0.215-1.124,0.289
			C245.454,244.582,244.946,244.619,244.412,244.619z"/>
		<path class="st4" d="M256.242,232.29c0.813,0,1.49,0.148,2.03,0.444c0.539,0.298,0.969,0.68,1.286,1.146
			c0.318,0.468,0.54,0.99,0.666,1.569c0.126,0.578,0.188,1.157,0.188,1.735v7.122h-5.141v-6.231c0-0.594-0.093-1.009-0.278-1.246
			s-0.464-0.356-0.835-0.356c-0.297,0-0.563,0.13-0.801,0.39s-0.356,0.672-0.356,1.235v6.209h-5.141v-16.825h5.141v6.41h0.045
			c0.295-0.431,0.717-0.805,1.265-1.124C254.858,232.449,255.502,232.29,256.242,232.29z"/>
		<path class="st4" d="M274.077,238.565c0,0.193-0.004,0.39-0.011,0.59c-0.008,0.2-0.019,0.367-0.033,0.501h-7.879
			c0.015,0.208,0.085,0.394,0.212,0.557c0.126,0.163,0.281,0.304,0.467,0.423s0.394,0.208,0.623,0.267
			c0.23,0.06,0.464,0.089,0.701,0.089c0.475,0,0.872-0.085,1.191-0.256c0.318-0.17,0.56-0.359,0.723-0.567l3.65,1.848
			c-0.52,0.846-1.272,1.513-2.259,2.003c-0.987,0.489-2.134,0.734-3.438,0.734c-0.846,0-1.67-0.134-2.471-0.4
			c-0.802-0.268-1.51-0.664-2.125-1.191c-0.616-0.526-1.109-1.183-1.48-1.97c-0.371-0.786-0.557-1.698-0.557-2.737
			c0-0.964,0.171-1.836,0.512-2.614c0.342-0.779,0.805-1.439,1.392-1.981c0.586-0.541,1.275-0.96,2.069-1.257
			s1.644-0.445,2.549-0.445c0.919,0,1.758,0.159,2.515,0.479s1.405,0.765,1.947,1.335c0.541,0.571,0.96,1.25,1.257,2.037
			C273.929,236.793,274.077,237.645,274.077,238.565z M269.648,236.896c0-0.415-0.152-0.757-0.456-1.023
			c-0.305-0.268-0.716-0.4-1.235-0.4c-0.563,0-1.001,0.155-1.312,0.467s-0.49,0.631-0.534,0.957H269.648z"/>
		<path class="st4" d="M71.225,263.136c0-1.262,0.222-2.404,0.667-3.428s1.053-1.899,1.825-2.626
			c0.771-0.727,1.68-1.287,2.726-1.681c1.046-0.393,2.162-0.59,3.35-0.59c1.216,0,2.366,0.197,3.449,0.59
			c1.083,0.394,1.988,0.924,2.715,1.592l-3.25,3.917c-0.297-0.386-0.667-0.68-1.113-0.88c-0.445-0.2-0.942-0.3-1.491-0.3
			c-0.445,0-0.861,0.077-1.247,0.233s-0.723,0.382-1.013,0.679c-0.289,0.297-0.516,0.656-0.679,1.079s-0.245,0.895-0.245,1.414
			s0.085,0.982,0.256,1.391c0.17,0.408,0.4,0.761,0.69,1.057c0.29,0.297,0.626,0.523,1.013,0.679
			c0.386,0.156,0.793,0.234,1.224,0.234c0.608,0,1.131-0.126,1.569-0.379c0.438-0.252,0.782-0.549,1.035-0.89l3.25,3.895
			c-0.712,0.712-1.588,1.279-2.626,1.702c-1.039,0.423-2.218,0.635-3.539,0.635c-1.188,0-2.304-0.2-3.35-0.602
			c-1.046-0.4-1.955-0.968-2.726-1.702c-0.772-0.734-1.38-1.609-1.825-2.626S71.225,264.382,71.225,263.136z"/>
		<path class="st4" d="M99.199,265.116c0,1.009-0.182,1.906-0.545,2.692c-0.364,0.787-0.853,1.451-1.469,1.992
			c-0.616,0.542-1.328,0.953-2.137,1.235c-0.809,0.281-1.658,0.423-2.548,0.423c-0.876,0-1.718-0.142-2.526-0.423
			c-0.809-0.282-1.517-0.693-2.125-1.235c-0.609-0.541-1.095-1.205-1.458-1.992c-0.364-0.786-0.545-1.684-0.545-2.692
			c0-0.994,0.181-1.881,0.545-2.66c0.363-0.778,0.849-1.435,1.458-1.969c0.608-0.534,1.316-0.938,2.125-1.213
			s1.65-0.412,2.526-0.412c0.89,0,1.739,0.138,2.548,0.412s1.521,0.679,2.137,1.213s1.105,1.19,1.469,1.969
			C99.017,263.235,99.199,264.122,99.199,265.116z M92.5,263.202c-0.564,0-1.021,0.193-1.369,0.578
			c-0.349,0.387-0.523,0.839-0.523,1.358c0,0.549,0.178,1.016,0.534,1.401c0.356,0.387,0.816,0.579,1.38,0.579
			s1.024-0.192,1.38-0.579c0.356-0.386,0.534-0.853,0.534-1.401c0-0.52-0.182-0.972-0.545-1.358
			C93.527,263.396,93.064,263.202,92.5,263.202z"/>
		<path class="st4" d="M112.664,271.014h-5.007v-1.291h-0.044c-0.297,0.431-0.738,0.806-1.324,1.124
			c-0.586,0.319-1.257,0.479-2.014,0.479c-0.831,0-1.513-0.145-2.047-0.434c-0.534-0.29-0.961-0.668-1.28-1.136
			c-0.319-0.467-0.542-0.993-0.668-1.58c-0.126-0.586-0.189-1.168-0.189-1.747v-7.121h5.141v6.187c0,0.594,0.093,1.01,0.281,1.246
			c0.187,0.238,0.468,0.356,0.843,0.356c0.345,0,0.625-0.137,0.843-0.412c0.217-0.274,0.326-0.671,0.326-1.19v-6.187h5.141V271.014z
			"/>
		<path class="st4" d="M114.199,259.308h4.94v1.335h0.044c0.252-0.475,0.627-0.868,1.124-1.18s1.08-0.467,1.747-0.467
			c0.4,0,0.727,0.037,0.979,0.111l-0.401,4.361c-0.164-0.044-0.345-0.077-0.545-0.1c-0.2-0.022-0.382-0.033-0.545-0.033
			c-0.668,0-1.202,0.192-1.603,0.578s-0.601,0.86-0.601,1.425v5.675h-5.141V259.308z"/>
		<path class="st4" d="M132.849,267.297c0,0.787-0.166,1.446-0.498,1.98c-0.333,0.534-0.754,0.961-1.263,1.28
			c-0.51,0.319-1.066,0.549-1.672,0.689c-0.606,0.142-1.183,0.212-1.73,0.212c-1.009,0-2-0.145-2.971-0.435
			c-0.972-0.289-1.814-0.7-2.526-1.234l2.515-2.916c0.356,0.327,0.775,0.59,1.257,0.79c0.482,0.2,0.946,0.301,1.391,0.301
			c0.178,0,0.345-0.033,0.5-0.101c0.156-0.066,0.234-0.188,0.234-0.367c0-0.192-0.138-0.345-0.412-0.456
			c-0.275-0.111-0.753-0.248-1.436-0.412c-0.371-0.089-0.75-0.219-1.135-0.389c-0.386-0.171-0.738-0.397-1.057-0.679
			c-0.319-0.282-0.583-0.627-0.79-1.035c-0.208-0.408-0.312-0.894-0.312-1.458c0-0.757,0.167-1.402,0.501-1.937
			c0.333-0.533,0.756-0.968,1.269-1.302c0.512-0.334,1.068-0.578,1.669-0.734c0.601-0.155,1.168-0.233,1.703-0.233
			c0.905,0,1.803,0.134,2.693,0.4c0.89,0.268,1.691,0.639,2.403,1.113l-2.403,2.87c-0.371-0.236-0.75-0.423-1.135-0.556
			c-0.386-0.134-0.764-0.2-1.135-0.2c-0.252,0-0.46,0.033-0.623,0.1c-0.164,0.067-0.245,0.197-0.245,0.39
			c0,0.148,0.092,0.264,0.277,0.345c0.185,0.082,0.609,0.189,1.274,0.323c0.458,0.089,0.905,0.226,1.341,0.411
			s0.827,0.423,1.175,0.713c0.347,0.289,0.624,0.642,0.831,1.057C132.745,266.244,132.849,266.733,132.849,267.297z"/>
		<path class="st4" d="M146.09,265.271c0,0.193-0.004,0.39-0.011,0.59c-0.008,0.2-0.019,0.367-0.033,0.501h-7.879
			c0.015,0.208,0.085,0.394,0.212,0.557c0.126,0.163,0.281,0.304,0.467,0.423s0.394,0.208,0.623,0.267
			c0.23,0.06,0.464,0.089,0.701,0.089c0.475,0,0.872-0.085,1.191-0.256c0.318-0.17,0.56-0.359,0.723-0.567l3.65,1.848
			c-0.52,0.846-1.272,1.513-2.259,2.003c-0.987,0.489-2.134,0.734-3.438,0.734c-0.846,0-1.67-0.134-2.471-0.4
			c-0.802-0.268-1.51-0.664-2.125-1.191c-0.616-0.526-1.109-1.183-1.48-1.97c-0.371-0.786-0.557-1.698-0.557-2.737
			c0-0.964,0.171-1.836,0.512-2.614c0.342-0.779,0.805-1.439,1.392-1.981c0.586-0.541,1.275-0.96,2.069-1.257
			s1.644-0.445,2.549-0.445c0.919,0,1.758,0.159,2.515,0.479s1.405,0.765,1.947,1.335c0.541,0.571,0.96,1.25,1.257,2.037
			C145.941,263.499,146.09,264.352,146.09,265.271z M141.661,263.603c0-0.415-0.152-0.757-0.456-1.023
			c-0.305-0.268-0.716-0.4-1.235-0.4c-0.563,0-1.001,0.155-1.312,0.467s-0.49,0.631-0.534,0.957H141.661z"/>
	</g>
</g>
</svg>
