<?xml version="1.0" encoding="utf-8"?>
<!-- Generator: Adobe Illustrator 24.0.2, SVG Export Plug-In . SVG Version: 6.00 Build 0)  -->
<svg version="1.1" id="Layer_1" xmlns="http://www.w3.org/2000/svg" xmlns:xlink="http://www.w3.org/1999/xlink" x="0px" y="0px"
	 viewBox="0 0 350 350" style="enable-background:new 0 0 350 350;" xml:space="preserve">
<style type="text/css">
	.st0{fill:#8062A6;}
	.st1{opacity:0.1;}
	.st2{clip-path:url(#SVGID_2_);fill:#FFFFFF;}
	.st3{clip-path:url(#SVGID_4_);fill:#FFFFFF;}
	.st4{fill:#FFFFFF;}
</style>
<g id="Layer_1_1_">
	<rect class="st0" width="349.8" height="350"/>
	<g class="st1">
		<g>
			<g>
				<defs>
					<rect id="SVGID_1_" y="0" width="350" height="350"/>
				</defs>
				<clipPath id="SVGID_2_">
					<use xlink:href="#SVGID_1_"  style="overflow:visible;"/>
				</clipPath>
				<path class="st2" d="M350,0c0,0-30.3,77.8-155.3,107.3S19.7,193.1,0,258.8V350h350V0z"/>
			</g>
		</g>
	</g>
	<g class="st1">
		<g>
			<g>
				<defs>
					<rect id="SVGID_3_" y="0" width="350" height="350"/>
				</defs>
				<clipPath id="SVGID_4_">
					<use xlink:href="#SVGID_3_"  style="overflow:visible;"/>
				</clipPath>
				<path class="st3" d="M272.4,0c0,0,14.5,81.3-109.2,137.9C39.5,194.6,13.2,225.5,0,254.3V350h350V0L272.4,0L272.4,0z"/>
			</g>
		</g>
	</g>
	<path class="st4" d="M238.7,115.3c0,35.1-28.5,63.6-63.6,63.6c-35.1,0-63.6-28.5-63.6-63.6s28.5-63.6,63.6-63.6
		C210.2,51.7,238.7,80.2,238.7,115.3"/>
</g>
<g id="text">
	<g>
		<path class="st4" d="M82.8,229.6L82.8,229.6l0,6.2h-5.1v-15.6h5.1v5.7h0l4.2-5.7h6.2l-5.8,7.1l6.1,8.4H87L82.8,229.6z"/>
		<path class="st4" d="M105.8,230.1c0,0.2,0,0.4,0,0.6c0,0.2,0,0.4,0,0.5H98c0,0.2,0.1,0.4,0.2,0.6s0.3,0.3,0.5,0.4
			c0.2,0.1,0.4,0.2,0.6,0.3c0.2,0.1,0.5,0.1,0.7,0.1c0.5,0,0.9-0.1,1.2-0.3c0.3-0.2,0.6-0.4,0.7-0.6l3.6,1.8c-0.5,0.8-1.3,1.5-2.2,2
			c-1,0.5-2.1,0.7-3.4,0.7c-0.8,0-1.6-0.1-2.4-0.4c-0.8-0.3-1.5-0.7-2.1-1.2s-1.1-1.2-1.5-1.9c-0.4-0.8-0.6-1.7-0.6-2.7
			c0-1,0.2-1.8,0.5-2.6c0.3-0.8,0.8-1.4,1.4-2c0.6-0.5,1.3-0.9,2-1.2c0.8-0.3,1.6-0.4,2.5-0.4c0.9,0,1.7,0.2,2.5,0.5
			c0.7,0.3,1.4,0.8,1.9,1.3c0.5,0.6,0.9,1.2,1.2,2C105.7,228.4,105.8,229.2,105.8,230.1z M101.4,228.5c0-0.4-0.2-0.7-0.5-1
			c-0.3-0.3-0.7-0.4-1.2-0.4c-0.6,0-1,0.2-1.3,0.5c-0.3,0.3-0.5,0.6-0.5,0.9L101.4,228.5L101.4,228.5z"/>
		<path class="st4" d="M110.5,235.3l-4.7-11.1h5.6l1.7,6.1h0.1l1.5-6.1h5.4l-4.7,12.3c-0.3,0.7-0.6,1.4-0.9,1.9
			c-0.4,0.6-0.8,1-1.2,1.4c-0.5,0.4-1,0.7-1.7,0.9c-0.6,0.2-1.4,0.3-2.2,0.3c-0.3,0-0.5,0-0.8,0c-0.3,0-0.5-0.1-0.8-0.1
			c-0.3,0-0.5-0.1-0.7-0.1s-0.4-0.1-0.6-0.1l0.6-4.2c0.2,0.1,0.4,0.1,0.7,0.2c0.3,0.1,0.5,0.1,0.7,0.1c0.6,0,1-0.1,1.2-0.3
			c0.3-0.2,0.5-0.5,0.6-0.9L110.5,235.3z"/>
		<path class="st4" d="M131.4,230.8v5h-5.2v-15.6h6.7c0.8,0,1.6,0.1,2.3,0.3c0.8,0.2,1.4,0.5,2,0.9c0.6,0.4,1.1,0.9,1.5,1.6
			c0.4,0.7,0.5,1.5,0.5,2.5c0,1-0.2,1.8-0.5,2.5s-0.8,1.2-1.4,1.6c-0.6,0.4-1.3,0.7-2,0.9c-0.8,0.2-1.6,0.3-2.4,0.3L131.4,230.8
			L131.4,230.8z M131.4,224.3v2.5h1.1c0.4,0,0.8-0.1,1.1-0.3c0.3-0.2,0.5-0.5,0.5-1c0-0.2,0-0.5-0.1-0.6c-0.1-0.2-0.2-0.3-0.4-0.4
			s-0.3-0.1-0.5-0.2c-0.2,0-0.4-0.1-0.6-0.1H131.4z"/>
		<path class="st4" d="M140.5,224.2h4.9v1.3h0c0.2-0.5,0.6-0.9,1.1-1.2s1.1-0.5,1.7-0.5c0.4,0,0.7,0,1,0.1l-0.4,4.3
			c-0.2,0-0.3-0.1-0.5-0.1s-0.4,0-0.5,0c-0.7,0-1.2,0.2-1.6,0.6c-0.4,0.4-0.6,0.9-0.6,1.4v5.6h-5.1L140.5,224.2L140.5,224.2z"/>
		<path class="st4" d="M149.8,220.9c0-0.4,0.1-0.7,0.2-1c0.1-0.3,0.3-0.6,0.6-0.8s0.5-0.4,0.8-0.6c0.3-0.1,0.7-0.2,1-0.2
			c0.4,0,0.7,0.1,1,0.2c0.3,0.1,0.6,0.3,0.8,0.6s0.4,0.5,0.6,0.8c0.1,0.3,0.2,0.6,0.2,1c0,0.4-0.1,0.7-0.2,1s-0.3,0.6-0.6,0.8
			c-0.2,0.2-0.5,0.4-0.8,0.5s-0.6,0.2-1,0.2c-0.4,0-0.7-0.1-1-0.2c-0.3-0.1-0.6-0.3-0.8-0.5c-0.2-0.2-0.4-0.5-0.6-0.8
			S149.8,221.2,149.8,220.9z M149.9,224.2h5.1v11.6h-5.1V224.2z"/>
		<path class="st4" d="M156.9,224.2h4.9v1.3h0c0.3-0.4,0.7-0.8,1.3-1.1c0.6-0.3,1.2-0.5,2-0.5c0.8,0,1.5,0.1,2,0.4
			c0.5,0.3,1,0.7,1.3,1.1c0.3,0.5,0.5,1,0.7,1.5c0.1,0.6,0.2,1.1,0.2,1.7v7h-5.1v-6.2c0-0.6-0.1-1-0.3-1.2c-0.2-0.2-0.5-0.4-0.8-0.4
			c-0.3,0-0.6,0.1-0.8,0.4c-0.2,0.3-0.3,0.7-0.3,1.2v6.2h-5.1L156.9,224.2L156.9,224.2z"/>
		<path class="st4" d="M177.4,236.2c-1,0-1.9-0.1-2.7-0.4s-1.5-0.7-2.1-1.3s-1.1-1.2-1.4-2c-0.3-0.8-0.5-1.6-0.5-2.6
			c0-0.9,0.2-1.8,0.5-2.6c0.3-0.8,0.8-1.4,1.4-2c0.6-0.5,1.3-1,2.2-1.3c0.8-0.3,1.7-0.4,2.7-0.4c0.4,0,0.8,0,1.2,0.1
			c0.4,0.1,0.8,0.2,1.2,0.3c0.4,0.1,0.7,0.2,1,0.4c0.3,0.1,0.6,0.3,0.8,0.5l-2.5,3.6c-0.2-0.2-0.4-0.4-0.7-0.5
			c-0.3-0.1-0.6-0.2-0.8-0.2c-0.2,0-0.5,0-0.7,0.1c-0.2,0.1-0.4,0.2-0.6,0.4c-0.2,0.2-0.3,0.4-0.4,0.6c-0.1,0.2-0.2,0.5-0.2,0.8
			s0.1,0.6,0.2,0.8c0.1,0.2,0.3,0.4,0.4,0.6c0.2,0.2,0.4,0.3,0.6,0.4c0.2,0.1,0.5,0.1,0.7,0.1c0.3,0,0.6-0.1,0.9-0.2
			c0.3-0.1,0.5-0.3,0.7-0.4l2.6,3.5c-0.5,0.4-1.1,0.7-1.9,1S178.2,236.2,177.4,236.2z"/>
		<path class="st4" d="M182.2,220.9c0-0.4,0.1-0.7,0.2-1c0.1-0.3,0.3-0.6,0.6-0.8c0.2-0.2,0.5-0.4,0.8-0.6c0.3-0.1,0.7-0.2,1-0.2
			c0.4,0,0.7,0.1,1,0.2c0.3,0.1,0.6,0.3,0.8,0.6c0.2,0.2,0.4,0.5,0.6,0.8c0.1,0.3,0.2,0.6,0.2,1c0,0.4-0.1,0.7-0.2,1
			c-0.1,0.3-0.3,0.6-0.6,0.8c-0.2,0.2-0.5,0.4-0.8,0.5c-0.3,0.1-0.6,0.2-1,0.2c-0.4,0-0.7-0.1-1-0.2s-0.6-0.3-0.8-0.5
			c-0.2-0.2-0.4-0.5-0.6-0.8S182.2,221.2,182.2,220.9z M182.3,224.2h5.1v11.6h-5.1V224.2z"/>
		<path class="st4" d="M197.4,236.1c-0.6,0-1.1-0.1-1.7-0.3c-0.6-0.2-1-0.5-1.4-0.9h0v6.2h-5v-16.8h4.8v1.2h0
			c0.4-0.5,0.9-0.9,1.5-1.1s1.2-0.4,1.8-0.4c0.9,0,1.6,0.2,2.3,0.5c0.7,0.4,1.2,0.8,1.6,1.4c0.4,0.6,0.8,1.2,1,1.9
			c0.2,0.7,0.3,1.4,0.3,2.2c0,0.8-0.1,1.5-0.3,2.2c-0.2,0.7-0.6,1.4-1,2s-1,1-1.6,1.4C199,235.9,198.3,236.1,197.4,236.1z M198,230
			c0-0.5-0.2-1-0.5-1.3s-0.8-0.6-1.4-0.6c-0.6,0-1.1,0.2-1.4,0.6s-0.5,0.8-0.5,1.3c0,0.5,0.2,1,0.5,1.4s0.8,0.6,1.4,0.6
			c0.6,0,1.1-0.2,1.4-0.6C197.8,231,198,230.5,198,230z"/>
		<path class="st4" d="M204.1,219.2h5.2v16.6h-5.2V219.2z"/>
		<path class="st4" d="M223.3,230.1c0,0.2,0,0.4,0,0.6c0,0.2,0,0.4,0,0.5h-7.8c0,0.2,0.1,0.4,0.2,0.6c0.1,0.2,0.3,0.3,0.5,0.4
			c0.2,0.1,0.4,0.2,0.6,0.3c0.2,0.1,0.5,0.1,0.7,0.1c0.5,0,0.9-0.1,1.2-0.3c0.3-0.2,0.6-0.4,0.7-0.6l3.6,1.8c-0.5,0.8-1.3,1.5-2.2,2
			c-1,0.5-2.1,0.7-3.4,0.7c-0.8,0-1.6-0.1-2.4-0.4s-1.5-0.7-2.1-1.2s-1.1-1.2-1.5-1.9c-0.4-0.8-0.6-1.7-0.6-2.7c0-1,0.2-1.8,0.5-2.6
			s0.8-1.4,1.4-2c0.6-0.5,1.3-0.9,2-1.2c0.8-0.3,1.6-0.4,2.5-0.4c0.9,0,1.7,0.2,2.5,0.5c0.7,0.3,1.4,0.8,1.9,1.3
			c0.5,0.6,0.9,1.2,1.2,2S223.3,229.2,223.3,230.1z M218.9,228.5c0-0.4-0.1-0.7-0.4-1c-0.3-0.3-0.7-0.4-1.2-0.4
			c-0.6,0-1,0.2-1.3,0.5c-0.3,0.3-0.5,0.6-0.5,0.9L218.9,228.5L218.9,228.5z"/>
		<path class="st4" d="M234.1,232.1c0,0.8-0.2,1.4-0.5,2c-0.3,0.5-0.7,0.9-1.2,1.3c-0.5,0.3-1.1,0.5-1.7,0.7
			c-0.6,0.1-1.2,0.2-1.7,0.2c-1,0-2-0.1-2.9-0.4c-1-0.3-1.8-0.7-2.5-1.2l2.5-2.9c0.4,0.3,0.8,0.6,1.2,0.8c0.5,0.2,0.9,0.3,1.4,0.3
			c0.2,0,0.3,0,0.5-0.1c0.2-0.1,0.2-0.2,0.2-0.4c0-0.2-0.1-0.3-0.4-0.4c-0.3-0.1-0.7-0.2-1.4-0.4c-0.4-0.1-0.7-0.2-1.1-0.4
			c-0.4-0.2-0.7-0.4-1-0.7c-0.3-0.3-0.6-0.6-0.8-1c-0.2-0.4-0.3-0.9-0.3-1.4c0-0.7,0.2-1.4,0.5-1.9c0.3-0.5,0.7-1,1.3-1.3
			c0.5-0.3,1.1-0.6,1.6-0.7s1.2-0.2,1.7-0.2c0.9,0,1.8,0.1,2.7,0.4c0.9,0.3,1.7,0.6,2.4,1.1l-2.4,2.8c-0.4-0.2-0.7-0.4-1.1-0.6
			c-0.4-0.1-0.8-0.2-1.1-0.2c-0.2,0-0.5,0-0.6,0.1c-0.2,0.1-0.2,0.2-0.2,0.4c0,0.1,0.1,0.3,0.3,0.3c0.2,0.1,0.6,0.2,1.3,0.3
			c0.5,0.1,0.9,0.2,1.3,0.4c0.4,0.2,0.8,0.4,1.2,0.7c0.3,0.3,0.6,0.6,0.8,1S234.1,231.6,234.1,232.1z"/>
		<path class="st4" d="M253.3,230c0,1-0.2,1.9-0.5,2.7c-0.4,0.8-0.8,1.4-1.5,2c-0.6,0.5-1.3,0.9-2.1,1.2c-0.8,0.3-1.6,0.4-2.5,0.4
			c-0.9,0-1.7-0.1-2.5-0.4c-0.8-0.3-1.5-0.7-2.1-1.2c-0.6-0.5-1.1-1.2-1.4-2c-0.4-0.8-0.5-1.7-0.5-2.7c0-1,0.2-1.9,0.5-2.6
			c0.4-0.8,0.8-1.4,1.4-1.9c0.6-0.5,1.3-0.9,2.1-1.2c0.8-0.3,1.6-0.4,2.5-0.4c0.9,0,1.7,0.1,2.5,0.4c0.8,0.3,1.5,0.7,2.1,1.2
			c0.6,0.5,1.1,1.2,1.5,1.9C253.1,228.1,253.3,229,253.3,230z M246.7,228.1c-0.6,0-1,0.2-1.4,0.6c-0.3,0.4-0.5,0.8-0.5,1.3
			c0,0.5,0.2,1,0.5,1.4s0.8,0.6,1.4,0.6s1-0.2,1.4-0.6s0.5-0.8,0.5-1.4c0-0.5-0.2-1-0.5-1.3C247.7,228.3,247.2,228.1,246.7,228.1z"
			/>
		<path class="st4" d="M262.5,222.5c-0.2,0-0.4-0.1-0.5-0.1c-0.5,0-0.8,0.2-1,0.5c-0.2,0.3-0.3,0.7-0.3,1.2v0.2h2.4v3.6h-2.4v7.9
			h-5.1v-7.9h-2v-3.6h2V224c0-0.7,0.1-1.4,0.3-2.1c0.2-0.7,0.5-1.2,0.9-1.7c0.4-0.5,1-0.9,1.7-1.2s1.6-0.4,2.6-0.4
			c0.3,0,0.7,0,1.2,0.1c0.4,0.1,0.8,0.1,1.1,0.3l-0.3,3.8C262.8,222.6,262.7,222.5,262.5,222.5z"/>
		<path class="st4" d="M82.8,262.6c-0.6,0-1.2-0.1-1.9-0.2s-1.2-0.3-1.8-0.5c-0.6-0.2-1.1-0.5-1.6-0.7c-0.5-0.3-0.9-0.6-1.3-1
			l3.2-3.5c0.4,0.4,0.9,0.7,1.5,1.1s1.2,0.5,1.9,0.5c0.3,0,0.6-0.1,0.8-0.2c0.2-0.1,0.4-0.3,0.4-0.6c0-0.1,0-0.3-0.1-0.4
			s-0.2-0.2-0.4-0.3c-0.2-0.1-0.5-0.2-0.8-0.4s-0.8-0.3-1.4-0.5c-0.5-0.2-1-0.4-1.5-0.6s-0.9-0.5-1.3-0.9c-0.4-0.4-0.7-0.8-0.9-1.3
			c-0.2-0.5-0.3-1.1-0.3-1.8c0-1,0.2-1.8,0.6-2.5s0.9-1.2,1.5-1.7c0.6-0.4,1.3-0.7,2.1-0.9c0.8-0.2,1.5-0.3,2.3-0.3
			c1,0,2.1,0.2,3.1,0.6s2,1,2.8,1.7l-3.3,3.3c-0.4-0.4-0.8-0.8-1.3-1c-0.5-0.2-1-0.3-1.4-0.3c-0.4,0-0.7,0.1-0.9,0.2
			c-0.2,0.1-0.4,0.3-0.4,0.5c0,0.2,0.1,0.4,0.4,0.5c0.2,0.1,0.6,0.3,1.2,0.4c0.6,0.2,1.1,0.4,1.8,0.6s1.2,0.5,1.7,0.9
			c0.5,0.4,0.9,0.8,1.3,1.4c0.3,0.5,0.5,1.2,0.5,2c0,0.9-0.2,1.8-0.6,2.5c-0.4,0.7-0.9,1.3-1.5,1.7c-0.6,0.5-1.3,0.8-2.1,1
			C84.3,262.5,83.6,262.6,82.8,262.6z"/>
		<path class="st4" d="M98.7,262.5c-0.6,0-1.1-0.1-1.7-0.3c-0.6-0.2-1-0.5-1.4-0.9h0v6.2h-5v-16.8h4.8v1.2h0
			c0.4-0.5,0.9-0.9,1.5-1.1s1.2-0.4,1.8-0.4c0.9,0,1.6,0.2,2.3,0.5c0.7,0.4,1.2,0.8,1.6,1.4c0.4,0.6,0.8,1.2,1,1.9s0.3,1.4,0.3,2.2
			c0,0.8-0.1,1.5-0.3,2.2c-0.2,0.7-0.6,1.4-1,2c-0.4,0.6-1,1-1.6,1.4C100.3,262.3,99.5,262.5,98.7,262.5z M99.2,256.3
			c0-0.5-0.2-1-0.5-1.3c-0.3-0.4-0.8-0.6-1.4-0.6c-0.6,0-1.1,0.2-1.4,0.6c-0.4,0.4-0.5,0.8-0.5,1.3c0,0.5,0.2,1,0.5,1.4
			c0.4,0.4,0.8,0.6,1.4,0.6c0.6,0,1.1-0.2,1.4-0.6C99.1,257.4,99.2,256.9,99.2,256.3z"/>
		<path class="st4" d="M105.3,247.3c0-0.4,0.1-0.7,0.2-1c0.1-0.3,0.3-0.6,0.6-0.8s0.5-0.4,0.8-0.6c0.3-0.1,0.7-0.2,1-0.2
			c0.4,0,0.7,0.1,1,0.2c0.3,0.1,0.6,0.3,0.8,0.6s0.4,0.5,0.6,0.8c0.1,0.3,0.2,0.6,0.2,1c0,0.4-0.1,0.7-0.2,1s-0.3,0.6-0.6,0.8
			c-0.2,0.2-0.5,0.4-0.8,0.5s-0.6,0.2-1,0.2c-0.4,0-0.7-0.1-1-0.2c-0.3-0.1-0.6-0.3-0.8-0.5c-0.2-0.2-0.4-0.5-0.6-0.8
			S105.3,247.6,105.3,247.3z M105.4,250.6h5.1v11.6h-5.1V250.6z"/>
		<path class="st4" d="M112.4,250.6h4.9v1.3h0c0.2-0.5,0.6-0.9,1.1-1.2s1.1-0.5,1.7-0.5c0.4,0,0.7,0,1,0.1l-0.4,4.3
			c-0.2,0-0.3-0.1-0.5-0.1s-0.4,0-0.5,0c-0.7,0-1.2,0.2-1.6,0.6c-0.4,0.4-0.6,0.9-0.6,1.4v5.6h-5.1L112.4,250.6L112.4,250.6z"/>
		<path class="st4" d="M121.7,247.3c0-0.4,0.1-0.7,0.2-1c0.1-0.3,0.3-0.6,0.6-0.8s0.5-0.4,0.8-0.6c0.3-0.1,0.7-0.2,1-0.2
			c0.4,0,0.7,0.1,1,0.2c0.3,0.1,0.6,0.3,0.8,0.6s0.4,0.5,0.6,0.8c0.1,0.3,0.2,0.6,0.2,1c0,0.4-0.1,0.7-0.2,1s-0.3,0.6-0.6,0.8
			c-0.2,0.2-0.5,0.4-0.8,0.5s-0.6,0.2-1,0.2c-0.4,0-0.7-0.1-1-0.2c-0.3-0.1-0.6-0.3-0.8-0.5c-0.2-0.2-0.4-0.5-0.6-0.8
			S121.7,247.6,121.7,247.3z M121.8,250.6h5.1v11.6h-5.1V250.6z"/>
		<path class="st4" d="M133.8,262.5c-1.6,0-2.7-0.3-3.5-1c-0.7-0.7-1.1-1.7-1.1-3.1v-4.1h-1.6v-3.6h1.6V248h4.9v2.6h2.5v3.6h-2.5
			v3.1c0,0.6,0.1,0.9,0.4,1.1c0.2,0.2,0.6,0.3,1,0.3c0.2,0,0.3,0,0.5,0s0.3-0.1,0.4-0.1v3.5c-0.3,0.1-0.6,0.2-1.1,0.3
			C134.9,262.4,134.4,262.5,133.8,262.5z"/>
		<path class="st4" d="M149.9,262.2h-4.9v-1.3h0c-0.3,0.4-0.7,0.8-1.3,1.1c-0.6,0.3-1.2,0.5-2,0.5c-0.8,0-1.5-0.1-2-0.4
			c-0.5-0.3-0.9-0.7-1.3-1.1c-0.3-0.5-0.5-1-0.7-1.6c-0.1-0.6-0.2-1.2-0.2-1.7v-7h5.1v6.1c0,0.6,0.1,1,0.3,1.2s0.5,0.4,0.8,0.4
			c0.3,0,0.6-0.1,0.8-0.4c0.2-0.3,0.3-0.7,0.3-1.2v-6.1h5.1L149.9,262.2L149.9,262.2z"/>
		<path class="st4" d="M157.9,254.8c0-0.4-0.1-0.6-0.4-0.8c-0.2-0.2-0.6-0.3-1-0.3c-0.5,0-0.9,0.1-1.3,0.3c-0.4,0.2-0.8,0.4-1.1,0.7
			l-2.5-2.5c0.7-0.7,1.5-1.2,2.5-1.6c1-0.4,2-0.6,3-0.6c1.1,0,2,0.2,2.7,0.5c0.7,0.3,1.3,0.7,1.7,1.3c0.4,0.5,0.7,1.2,0.9,1.9
			s0.3,1.5,0.3,2.3v6.1h-4.6v-0.9h0c-0.3,0.4-0.7,0.8-1.3,0.9c-0.5,0.2-1.1,0.3-1.6,0.3c-0.5,0-0.9-0.1-1.4-0.2
			c-0.5-0.1-0.9-0.3-1.3-0.6c-0.4-0.3-0.7-0.7-1-1.1c-0.2-0.5-0.4-1-0.4-1.7c0-0.8,0.2-1.5,0.6-2c0.4-0.5,0.9-0.9,1.6-1.2
			c0.6-0.3,1.4-0.5,2.2-0.6C156.4,254.9,157.2,254.9,157.9,254.8L157.9,254.8L157.9,254.8z M158,257.4c-0.7,0-1.3,0.1-1.8,0.2
			s-0.7,0.5-0.7,0.9c0,0.2,0,0.3,0.1,0.4c0.1,0.1,0.2,0.2,0.3,0.3s0.2,0.1,0.4,0.2c0.1,0,0.3,0.1,0.4,0.1c0.5,0,0.9-0.2,1.2-0.5
			c0.3-0.3,0.4-0.7,0.4-1.2v-0.4L158,257.4L158,257.4z"/>
		<path class="st4" d="M164.4,245.5h5.2v16.6h-5.2V245.5z"/>
		<path class="st4" d="M171.4,247.3c0-0.4,0.1-0.7,0.2-1c0.1-0.3,0.3-0.6,0.6-0.8s0.5-0.4,0.8-0.6c0.3-0.1,0.7-0.2,1-0.2
			c0.4,0,0.7,0.1,1,0.2c0.3,0.1,0.6,0.3,0.8,0.6c0.2,0.2,0.4,0.5,0.6,0.8c0.1,0.3,0.2,0.6,0.2,1c0,0.4-0.1,0.7-0.2,1
			c-0.1,0.3-0.3,0.6-0.6,0.8s-0.5,0.4-0.8,0.5s-0.6,0.2-1,0.2c-0.4,0-0.7-0.1-1-0.2c-0.3-0.1-0.6-0.3-0.8-0.5
			c-0.2-0.2-0.4-0.5-0.6-0.8S171.4,247.6,171.4,247.3z M171.5,250.6h5.1v11.6h-5.1V250.6z"/>
		<path class="st4" d="M183.5,262.5c-1.6,0-2.7-0.3-3.5-1c-0.7-0.7-1.1-1.7-1.1-3.1v-4.1h-1.6v-3.6h1.6V248h4.9v2.6h2.5v3.6h-2.5
			v3.1c0,0.6,0.1,0.9,0.4,1.1c0.2,0.2,0.6,0.3,1,0.3c0.2,0,0.3,0,0.5,0s0.3-0.1,0.4-0.1v3.5c-0.3,0.1-0.6,0.2-1.1,0.3
			C184.6,262.4,184.1,262.5,183.5,262.5z"/>
		<path class="st4" d="M190.7,261.7l-4.7-11.1h5.6l1.7,6.1h0.1l1.5-6.1h5.4l-4.7,12.3c-0.3,0.7-0.6,1.4-0.9,1.9
			c-0.4,0.6-0.8,1-1.2,1.4c-0.5,0.4-1,0.7-1.7,0.9c-0.6,0.2-1.4,0.3-2.2,0.3c-0.3,0-0.5,0-0.8,0c-0.3,0-0.5-0.1-0.8-0.1
			c-0.3,0-0.5-0.1-0.7-0.1s-0.4-0.1-0.5-0.1l0.6-4.2c0.2,0.1,0.4,0.1,0.7,0.2c0.3,0.1,0.5,0.1,0.7,0.1c0.6,0,1-0.1,1.2-0.3
			c0.3-0.2,0.5-0.5,0.6-0.9L190.7,261.7z"/>
	</g>
</g>
<g>
	<g>
		<path class="st0" d="M175.6,94.8c-10.9,0-19.8,8.9-19.8,19.8s8.9,19.8,19.8,19.8s19.8-8.9,19.8-19.8S186.5,94.8,175.6,94.8z
			 M175.6,128.7c-7.8,0-14.1-6.3-14.1-14.1s6.3-14.1,14.1-14.1s14.1,6.3,14.1,14.1S183.4,128.7,175.6,128.7z M175.6,89.1
			c1.6,0,2.8-1.3,2.8-2.8v-5.7c0-1.6-1.3-2.8-2.8-2.8c-1.6,0-2.8,1.3-2.8,2.8v5.7C172.8,87.8,174.1,89.1,175.6,89.1z M175.6,140
			c-1.6,0-2.8,1.3-2.8,2.8v5.7c0,1.6,1.3,2.8,2.8,2.8c1.6,0,2.8-1.3,2.8-2.8v-5.7C178.5,141.3,177.2,140,175.6,140z M197.6,96.6l4-4
			c1.1-1.1,1.1-2.9,0-4c-1.1-1.1-2.9-1.1-4,0l-4,4c-1.1,1.1-1.1,2.9,0,4S196.5,97.7,197.6,96.6z M153.6,132.6l-4,4
			c-1.1,1.1-1.1,2.9,0,4c1.1,1.1,2.9,1.1,4,0l4-4c1.1-1.1,1.1-2.9,0-4C156.5,131.5,154.7,131.5,153.6,132.6z M150.2,114.6
			c0-1.6-1.3-2.8-2.8-2.8h-5.7c-1.6,0-2.8,1.3-2.8,2.8c0,1.6,1.3,2.8,2.8,2.8h5.7C148.9,117.4,150.2,116.1,150.2,114.6z
			 M209.6,111.7h-5.7c-1.6,0-2.8,1.3-2.8,2.8c0,1.6,1.3,2.8,2.8,2.8h5.7c1.6,0,2.8-1.3,2.8-2.8C212.4,113,211.1,111.7,209.6,111.7z
			 M153.6,96.6c1.1,1.1,2.9,1.1,4,0c1.1-1.1,1.1-2.9,0-4l-4-4c-1.1-1.1-2.9-1.1-4,0c-1.1,1.1-1.1,2.9,0,4L153.6,96.6z M197.6,132.6
			c-1.1-1.1-2.9-1.1-4,0c-1.1,1.1-1.1,2.9,0,4l4,4c1.1,1.1,2.9,1.1,4,0c1.1-1.1,1.1-2.9,0-4L197.6,132.6z"/>
	</g>
</g>
</svg>
