<?xml version="1.0" encoding="utf-8"?>
<!-- Generator: Adobe Illustrator 24.0.2, SVG Export Plug-In . SVG Version: 6.00 Build 0)  -->
<svg version="1.1" xmlns="http://www.w3.org/2000/svg" xmlns:xlink="http://www.w3.org/1999/xlink" x="0px" y="0px"
	 viewBox="0 0 350 350" style="enable-background:new 0 0 350 350;" xml:space="preserve">
<style type="text/css">
	.st0{fill:#C571AB;}
	.st1{opacity:0.1;}
	.st2{clip-path:url(#SVGID_2_);fill:#FFFFFF;}
	.st3{clip-path:url(#SVGID_4_);fill:#FFFFFF;}
	.st4{fill:#FFFFFF;}
</style>
<g id="Layer_1">
	<rect x="0" y="0" class="st0" width="350" height="350"/>
	<g class="st1">
		<g>
			<defs>
				<rect id="SVGID_1_" y="0" width="350" height="350"/>
			</defs>
			<clipPath id="SVGID_2_">
				<use xlink:href="#SVGID_1_"  style="overflow:visible;"/>
			</clipPath>
			<path class="st2" d="M350,0.001c0,0-30.263,77.777-155.263,107.279c-125,29.501-175,85.823-194.737,151.533v91.186h350V0.001z"/>
		</g>
	</g>
	<g class="st1">
		<g>
			<defs>
				<rect id="SVGID_3_" x="0" y="0" width="350" height="350"/>
			</defs>
			<clipPath id="SVGID_4_">
				<use xlink:href="#SVGID_3_"  style="overflow:visible;"/>
			</clipPath>
			<path class="st3" d="M272.368,0c0,0,14.474,81.324-109.211,137.941C39.474,194.559,13.158,225.441,0,254.264V350h350V0H272.368z"
				/>
		</g>
	</g>
	<path class="st4" d="M248.607,109.446c0,35.803-29.023,64.826-64.826,64.826c-35.803,0-64.826-29.023-64.826-64.826
		c0-35.803,29.023-64.826,64.826-64.826C219.584,44.62,248.607,73.643,248.607,109.446"/>
	<g>
		<g>
			<path class="st0" d="M212.219,88.413h-53.383c-0.672,0-1.268-0.437-1.468-1.079c-0.265-0.854-2.498-8.453,0.914-12.207
				c0.292-0.32,0.704-0.503,1.137-0.503h52.9c0.625,0,1.189,0.379,1.424,0.958c0.234,0.577,0.097,1.239-0.346,1.675
				c-0.396,0.395-3.713,3.954,0.025,8.665c0.367,0.462,0.436,1.093,0.18,1.624C213.346,88.076,212.808,88.413,212.219,88.413z
				 M160.017,85.34h49.448c-1.35-2.943-0.947-5.642-0.032-7.643h-49.242C159.051,79.643,159.533,83.247,160.017,85.34z"/>
		</g>
		<g>
			<path class="st0" d="M212.32,138.661h-49.073c-0.175,0-1.751-0.036-3.295-1.269c-1.933-1.545-2.912-4.146-2.911-7.732
				l0.078-42.787c0.002-0.847,0.689-1.534,1.537-1.534h53.075c0.841,0,1.527,0.677,1.537,1.519l0.59,50.249
				c0.005,0.41-0.155,0.806-0.444,1.098C213.124,138.497,212.73,138.661,212.32,138.661z M160.189,88.413l-0.075,41.252
				c-0.002,5.625,2.84,5.91,3.164,5.924h47.487l-0.554-47.175H160.189z"/>
		</g>
		<g>
			<path class="st0" d="M167.485,152.371c-0.206,0-0.413-0.041-0.61-0.126c-0.562-0.243-0.926-0.797-0.926-1.411v-11.828
				c0-0.848,0.688-1.537,1.537-1.537h14.894c0.848,0,1.537,0.688,1.537,1.537v11.828c0,0.607-0.358,1.157-0.913,1.405
				c-0.554,0.246-1.204,0.143-1.654-0.264l-6.543-5.914l-6.269,5.893C168.246,152.227,167.868,152.371,167.485,152.371z
				 M174.786,142.435c0.369,0,0.737,0.132,1.03,0.396l5.026,4.543v-6.831h-11.821v6.738l4.712-4.429
				C174.029,142.574,174.408,142.435,174.786,142.435z"/>
		</g>
	</g>
</g>
<g id="text">
	<g>
		<path class="st4" d="M72.424,229.877h5.375v11.265h5.263v4.591H72.424V229.877z"/>
		<path class="st4" d="M95.893,239.954c0,0.194-0.003,0.393-0.011,0.594c-0.008,0.202-0.019,0.37-0.034,0.504h-7.928
			c0.015,0.209,0.085,0.396,0.212,0.56c0.127,0.165,0.284,0.307,0.471,0.426c0.187,0.12,0.395,0.209,0.627,0.269
			c0.231,0.061,0.466,0.09,0.705,0.09c0.478,0,0.877-0.086,1.198-0.258c0.321-0.171,0.563-0.361,0.728-0.57l3.673,1.858
			c-0.523,0.851-1.281,1.522-2.273,2.016c-0.993,0.492-2.146,0.739-3.46,0.739c-0.851,0-1.68-0.135-2.486-0.403
			s-1.519-0.668-2.139-1.198s-1.116-1.19-1.489-1.982c-0.373-0.791-0.56-1.709-0.56-2.754c0-0.971,0.171-1.848,0.515-2.632
			c0.343-0.783,0.81-1.447,1.399-1.993c0.59-0.545,1.284-0.966,2.083-1.265s1.654-0.448,2.564-0.448c0.925,0,1.769,0.16,2.531,0.481
			c0.761,0.321,1.414,0.77,1.959,1.344c0.545,0.575,0.966,1.258,1.265,2.049C95.744,238.171,95.893,239.03,95.893,239.954z
			 M91.437,238.276c0-0.418-0.153-0.762-0.459-1.03c-0.306-0.27-0.72-0.403-1.243-0.403c-0.568,0-1.008,0.156-1.321,0.47
			c-0.313,0.314-0.493,0.635-0.538,0.964H91.437z"/>
		<path class="st4" d="M106.912,241.993c0,0.792-0.167,1.456-0.502,1.993c-0.334,0.538-0.758,0.967-1.271,1.288
			s-1.074,0.552-1.683,0.694c-0.61,0.142-1.19,0.213-1.741,0.213c-1.016,0-2.012-0.146-2.99-0.438
			c-0.978-0.291-1.825-0.705-2.542-1.242l2.531-2.934c0.358,0.328,0.78,0.593,1.266,0.795c0.485,0.201,0.952,0.302,1.399,0.302
			c0.179,0,0.347-0.033,0.504-0.101s0.235-0.19,0.235-0.369c0-0.194-0.139-0.348-0.415-0.459c-0.276-0.112-0.758-0.25-1.444-0.415
			c-0.374-0.089-0.754-0.22-1.142-0.392c-0.389-0.172-0.743-0.399-1.064-0.683c-0.321-0.284-0.586-0.631-0.795-1.042
			c-0.209-0.41-0.313-0.899-0.313-1.467c0-0.762,0.168-1.411,0.504-1.948s0.761-0.974,1.276-1.31s1.075-0.583,1.68-0.739
			c0.604-0.157,1.176-0.235,1.713-0.235c0.91,0,1.814,0.135,2.709,0.403c0.896,0.269,1.702,0.642,2.419,1.119l-2.419,2.89
			c-0.373-0.239-0.754-0.426-1.142-0.561c-0.388-0.134-0.769-0.201-1.142-0.201c-0.254,0-0.463,0.033-0.627,0.101
			c-0.165,0.067-0.247,0.198-0.247,0.392c0,0.149,0.093,0.266,0.279,0.348c0.186,0.082,0.613,0.19,1.282,0.324
			c0.46,0.09,0.91,0.229,1.349,0.415c0.438,0.187,0.833,0.425,1.182,0.716c0.349,0.292,0.628,0.646,0.836,1.064
			S106.912,241.425,106.912,241.993z"/>
		<path class="st4" d="M117.975,241.993c0,0.792-0.167,1.456-0.502,1.993c-0.334,0.538-0.758,0.967-1.271,1.288
			s-1.074,0.552-1.683,0.694c-0.61,0.142-1.19,0.213-1.741,0.213c-1.016,0-2.012-0.146-2.99-0.438
			c-0.978-0.291-1.825-0.705-2.542-1.242l2.531-2.934c0.358,0.328,0.78,0.593,1.266,0.795c0.485,0.201,0.952,0.302,1.399,0.302
			c0.179,0,0.347-0.033,0.504-0.101s0.235-0.19,0.235-0.369c0-0.194-0.139-0.348-0.415-0.459c-0.276-0.112-0.758-0.25-1.444-0.415
			c-0.374-0.089-0.754-0.22-1.142-0.392c-0.389-0.172-0.743-0.399-1.064-0.683c-0.321-0.284-0.586-0.631-0.795-1.042
			c-0.209-0.41-0.313-0.899-0.313-1.467c0-0.762,0.168-1.411,0.504-1.948s0.761-0.974,1.276-1.31s1.075-0.583,1.68-0.739
			c0.604-0.157,1.176-0.235,1.713-0.235c0.91,0,1.814,0.135,2.709,0.403c0.896,0.269,1.702,0.642,2.419,1.119l-2.419,2.89
			c-0.373-0.239-0.754-0.426-1.142-0.561c-0.388-0.134-0.769-0.201-1.142-0.201c-0.254,0-0.463,0.033-0.627,0.101
			c-0.165,0.067-0.247,0.198-0.247,0.392c0,0.149,0.093,0.266,0.279,0.348c0.186,0.082,0.613,0.19,1.282,0.324
			c0.46,0.09,0.91,0.229,1.349,0.415c0.438,0.187,0.833,0.425,1.182,0.716c0.349,0.292,0.628,0.646,0.836,1.064
			S117.975,241.425,117.975,241.993z"/>
		<path class="st4" d="M132.374,239.798c0,1.016-0.183,1.919-0.548,2.71c-0.366,0.791-0.859,1.459-1.478,2.004
			c-0.62,0.545-1.336,0.96-2.15,1.243c-0.814,0.283-1.668,0.426-2.564,0.426c-0.881,0-1.728-0.143-2.542-0.426
			c-0.814-0.283-1.527-0.698-2.139-1.243s-1.101-1.213-1.467-2.004s-0.548-1.694-0.548-2.71c0-1,0.183-1.893,0.548-2.676
			c0.366-0.784,0.854-1.445,1.467-1.982s1.325-0.944,2.139-1.221c0.813-0.275,1.661-0.414,2.542-0.414
			c0.896,0,1.75,0.139,2.564,0.414c0.813,0.276,1.53,0.684,2.15,1.221c0.619,0.537,1.112,1.198,1.478,1.982
			C132.191,237.906,132.374,238.798,132.374,239.798z M125.633,237.872c-0.567,0-1.026,0.194-1.377,0.582
			c-0.351,0.389-0.526,0.844-0.526,1.366c0,0.553,0.179,1.022,0.537,1.411c0.358,0.388,0.821,0.582,1.389,0.582
			s1.03-0.194,1.389-0.582c0.358-0.389,0.537-0.858,0.537-1.411c0-0.522-0.183-0.978-0.548-1.366
			C126.667,238.067,126.2,237.872,125.633,237.872z"/>
		<path class="st4" d="M133.852,233.953h5.039v1.299h0.045c0.297-0.434,0.74-0.81,1.328-1.131s1.262-0.481,2.021-0.481
			c0.818,0,1.499,0.149,2.042,0.447c0.543,0.299,0.975,0.684,1.295,1.153c0.32,0.471,0.543,0.997,0.669,1.579
			c0.127,0.582,0.19,1.164,0.19,1.747v7.166h-5.173v-6.271c0-0.597-0.094-1.016-0.28-1.254c-0.187-0.239-0.467-0.358-0.84-0.358
			c-0.343,0-0.624,0.138-0.839,0.414c-0.217,0.276-0.325,0.676-0.325,1.198v6.271h-5.173V233.953z"/>
		<path class="st4" d="M157.971,241.993c0,0.792-0.167,1.456-0.502,1.993c-0.334,0.538-0.758,0.967-1.271,1.288
			s-1.074,0.552-1.683,0.694c-0.61,0.142-1.19,0.213-1.741,0.213c-1.016,0-2.012-0.146-2.99-0.438
			c-0.978-0.291-1.825-0.705-2.542-1.242l2.531-2.934c0.358,0.328,0.78,0.593,1.266,0.795c0.485,0.201,0.952,0.302,1.399,0.302
			c0.179,0,0.347-0.033,0.504-0.101s0.235-0.19,0.235-0.369c0-0.194-0.139-0.348-0.415-0.459c-0.276-0.112-0.758-0.25-1.444-0.415
			c-0.374-0.089-0.754-0.22-1.142-0.392c-0.389-0.172-0.743-0.399-1.064-0.683c-0.321-0.284-0.586-0.631-0.795-1.042
			c-0.209-0.41-0.313-0.899-0.313-1.467c0-0.762,0.168-1.411,0.504-1.948s0.761-0.974,1.276-1.31s1.075-0.583,1.68-0.739
			c0.604-0.157,1.176-0.235,1.713-0.235c0.91,0,1.814,0.135,2.709,0.403c0.896,0.269,1.702,0.642,2.419,1.119l-2.419,2.89
			c-0.373-0.239-0.754-0.426-1.142-0.561c-0.388-0.134-0.769-0.201-1.142-0.201c-0.254,0-0.463,0.033-0.627,0.101
			c-0.165,0.067-0.247,0.198-0.247,0.392c0,0.149,0.093,0.266,0.279,0.348c0.186,0.082,0.613,0.19,1.282,0.324
			c0.46,0.09,0.91,0.229,1.349,0.415c0.438,0.187,0.833,0.425,1.182,0.716c0.349,0.292,0.628,0.646,0.836,1.064
			S157.971,241.425,157.971,241.993z"/>
		<path class="st4" d="M178.192,239.798c0,0.776-0.115,1.538-0.347,2.284c-0.23,0.747-0.569,1.415-1.017,2.004
			c-0.446,0.591-1.005,1.064-1.676,1.423c-0.67,0.358-1.445,0.537-2.323,0.537c-0.73,0-1.423-0.138-2.078-0.414
			c-0.656-0.276-1.155-0.653-1.497-1.131h-0.045v1.231h-4.656v-16.931h5.173v6.092h0.044c0.342-0.403,0.796-0.713,1.362-0.93
			c0.566-0.216,1.132-0.324,1.698-0.324c0.878,0,1.653,0.179,2.322,0.537c0.67,0.358,1.229,0.828,1.676,1.411
			c0.446,0.582,0.785,1.239,1.016,1.971C178.077,238.29,178.192,239.036,178.192,239.798z M173.4,239.798
			c0-0.522-0.164-0.978-0.493-1.366c-0.329-0.388-0.806-0.582-1.433-0.582c-0.612,0-1.101,0.194-1.467,0.582
			c-0.366,0.389-0.549,0.844-0.549,1.366c0,0.553,0.183,1.022,0.549,1.411c0.366,0.388,0.854,0.582,1.467,0.582
			c0.627,0,1.104-0.19,1.433-0.571S173.4,240.366,173.4,239.798z"/>
		<path class="st4" d="M183.074,245.265l-4.77-11.312h5.732l1.747,6.203h0.09l1.545-6.203h5.531l-4.837,12.496
			c-0.284,0.731-0.604,1.385-0.963,1.959c-0.358,0.575-0.776,1.064-1.254,1.467c-0.479,0.403-1.042,0.709-1.691,0.919
			c-0.649,0.209-1.407,0.313-2.272,0.313c-0.27,0-0.546-0.012-0.829-0.034c-0.284-0.022-0.557-0.053-0.817-0.09
			c-0.262-0.038-0.504-0.075-0.728-0.112c-0.225-0.038-0.411-0.079-0.561-0.124l0.649-4.275c0.194,0.074,0.43,0.138,0.706,0.19
			c0.276,0.052,0.526,0.078,0.75,0.078c0.567,0,0.989-0.116,1.266-0.347c0.275-0.231,0.481-0.525,0.615-0.883L183.074,245.265z"/>
		<path class="st4" d="M206.365,245.733h-5.33v-11.354h-3.896v-4.501h13.123v4.501h-3.896V245.733z"/>
		<path class="st4" d="M221.324,239.954c0,0.194-0.004,0.393-0.011,0.594c-0.008,0.202-0.02,0.37-0.034,0.504h-7.928
			c0.015,0.209,0.086,0.396,0.213,0.56c0.127,0.165,0.283,0.307,0.471,0.426c0.187,0.12,0.396,0.209,0.627,0.269
			c0.231,0.061,0.467,0.09,0.705,0.09c0.478,0,0.877-0.086,1.198-0.258c0.321-0.171,0.563-0.361,0.728-0.57l3.673,1.858
			c-0.522,0.851-1.28,1.522-2.272,2.016c-0.993,0.492-2.146,0.739-3.46,0.739c-0.852,0-1.68-0.135-2.486-0.403
			c-0.806-0.269-1.52-0.668-2.139-1.198s-1.116-1.19-1.489-1.982c-0.373-0.791-0.56-1.709-0.56-2.754
			c0-0.971,0.171-1.848,0.515-2.632c0.344-0.783,0.81-1.447,1.4-1.993c0.589-0.545,1.283-0.966,2.082-1.265s1.653-0.448,2.564-0.448
			c0.926,0,1.77,0.16,2.53,0.481c0.762,0.321,1.415,0.77,1.96,1.344c0.545,0.575,0.967,1.258,1.266,2.049
			C221.175,238.171,221.324,239.03,221.324,239.954z M216.868,238.276c0-0.418-0.153-0.762-0.459-1.03
			c-0.307-0.27-0.721-0.403-1.243-0.403c-0.567,0-1.008,0.156-1.321,0.47c-0.313,0.314-0.493,0.635-0.538,0.964H216.868z"/>
		<path class="st4" d="M228.826,238.253c0-0.358-0.124-0.624-0.37-0.795c-0.246-0.172-0.571-0.258-0.974-0.258
			c-0.479,0-0.93,0.101-1.355,0.302c-0.426,0.202-0.803,0.438-1.131,0.706l-2.575-2.554c0.717-0.687,1.567-1.216,2.553-1.59
			c0.985-0.373,2.001-0.56,3.046-0.56c1.12,0,2.045,0.156,2.777,0.471c0.73,0.313,1.31,0.746,1.735,1.299
			c0.426,0.552,0.724,1.194,0.896,1.926s0.258,1.508,0.258,2.329v6.203h-4.681v-0.94h-0.045c-0.299,0.447-0.725,0.769-1.276,0.963
			c-0.553,0.193-1.09,0.291-1.612,0.291c-0.463,0-0.938-0.067-1.422-0.201c-0.485-0.135-0.926-0.351-1.321-0.649
			c-0.396-0.299-0.721-0.687-0.975-1.165c-0.254-0.478-0.381-1.067-0.381-1.77c0-0.82,0.213-1.489,0.639-2.004
			s0.966-0.918,1.623-1.209s1.393-0.489,2.206-0.594s1.608-0.157,2.386-0.157V238.253z M228.87,240.851
			c-0.761,0-1.373,0.082-1.836,0.246s-0.694,0.471-0.694,0.918c0,0.165,0.037,0.303,0.112,0.414c0.074,0.112,0.171,0.206,0.291,0.28
			c0.119,0.075,0.25,0.131,0.392,0.168s0.272,0.056,0.392,0.056c0.493,0,0.889-0.156,1.188-0.47s0.448-0.717,0.448-1.209v-0.403
			H228.87z"/>
		<path class="st4" d="M241.792,246.181c-1,0-1.919-0.149-2.755-0.448s-1.56-0.724-2.172-1.276s-1.09-1.217-1.434-1.993
			s-0.515-1.649-0.515-2.62c0-0.955,0.175-1.825,0.526-2.609c0.351-0.783,0.84-1.451,1.467-2.004s1.362-0.978,2.206-1.276
			c0.843-0.299,1.758-0.448,2.743-0.448c0.403,0,0.81,0.033,1.221,0.101c0.41,0.067,0.806,0.161,1.187,0.28s0.731,0.254,1.053,0.403
			c0.32,0.149,0.594,0.313,0.817,0.492l-2.575,3.718c-0.18-0.202-0.415-0.356-0.706-0.465s-0.57-0.162-0.84-0.162
			c-0.254,0-0.5,0.041-0.738,0.123c-0.239,0.082-0.452,0.209-0.639,0.381s-0.34,0.381-0.459,0.627
			c-0.12,0.246-0.18,0.534-0.18,0.862s0.06,0.615,0.18,0.862c0.119,0.246,0.272,0.447,0.459,0.604
			c0.187,0.156,0.399,0.276,0.639,0.358c0.238,0.082,0.484,0.123,0.738,0.123c0.299,0,0.59-0.056,0.874-0.168
			c0.283-0.112,0.515-0.265,0.694-0.459l2.598,3.612c-0.493,0.387-1.131,0.713-1.915,0.98S242.658,246.181,241.792,246.181z"/>
		<path class="st4" d="M255.175,233.64c0.818,0,1.5,0.149,2.043,0.447c0.543,0.299,0.975,0.684,1.295,1.153
			c0.319,0.471,0.543,0.997,0.67,1.579c0.126,0.582,0.189,1.164,0.189,1.747v7.166h-5.173v-6.271c0-0.597-0.094-1.016-0.28-1.254
			c-0.187-0.239-0.467-0.358-0.84-0.358c-0.299,0-0.567,0.131-0.806,0.392c-0.239,0.262-0.358,0.676-0.358,1.243v6.248h-5.174
			v-16.931h5.174v6.45h0.045c0.297-0.434,0.722-0.81,1.272-1.131S254.431,233.64,255.175,233.64z"/>
		<path class="st4" d="M273.525,239.954c0,0.194-0.004,0.393-0.011,0.594c-0.008,0.202-0.02,0.37-0.034,0.504h-7.928
			c0.015,0.209,0.086,0.396,0.213,0.56c0.127,0.165,0.283,0.307,0.471,0.426c0.187,0.12,0.396,0.209,0.627,0.269
			c0.231,0.061,0.467,0.09,0.705,0.09c0.478,0,0.877-0.086,1.198-0.258c0.321-0.171,0.563-0.361,0.728-0.57l3.673,1.858
			c-0.522,0.851-1.28,1.522-2.272,2.016c-0.993,0.492-2.146,0.739-3.46,0.739c-0.852,0-1.68-0.135-2.486-0.403
			c-0.806-0.269-1.52-0.668-2.139-1.198s-1.116-1.19-1.489-1.982c-0.373-0.791-0.56-1.709-0.56-2.754
			c0-0.971,0.171-1.848,0.515-2.632c0.344-0.783,0.81-1.447,1.4-1.993c0.589-0.545,1.283-0.966,2.082-1.265s1.653-0.448,2.564-0.448
			c0.926,0,1.77,0.16,2.53,0.481c0.762,0.321,1.415,0.77,1.96,1.344c0.545,0.575,0.967,1.258,1.266,2.049
			C273.376,238.171,273.525,239.03,273.525,239.954z M269.069,238.276c0-0.418-0.153-0.762-0.459-1.03
			c-0.307-0.27-0.721-0.403-1.243-0.403c-0.567,0-1.008,0.156-1.321,0.47c-0.313,0.314-0.493,0.635-0.538,0.964H269.069z"/>
		<path class="st4" d="M274.913,233.953h4.972v1.344h0.045c0.254-0.479,0.631-0.874,1.131-1.188s1.087-0.47,1.759-0.47
			c0.402,0,0.73,0.037,0.985,0.111l-0.403,4.39c-0.165-0.045-0.348-0.078-0.549-0.101s-0.385-0.034-0.549-0.034
			c-0.672,0-1.209,0.194-1.612,0.583c-0.403,0.388-0.604,0.865-0.604,1.433v5.711h-5.174V233.953z"/>
		<path class="st4" d="M294.083,241.993c0,0.792-0.167,1.456-0.502,1.993c-0.334,0.538-0.758,0.967-1.271,1.288
			s-1.073,0.552-1.683,0.694c-0.609,0.142-1.189,0.213-1.74,0.213c-1.016,0-2.012-0.146-2.989-0.438
			c-0.979-0.291-1.825-0.705-2.542-1.242l2.53-2.934c0.358,0.328,0.78,0.593,1.266,0.795c0.484,0.201,0.951,0.302,1.399,0.302
			c0.179,0,0.347-0.033,0.504-0.101s0.235-0.19,0.235-0.369c0-0.194-0.139-0.348-0.414-0.459c-0.277-0.112-0.759-0.25-1.445-0.415
			c-0.373-0.089-0.754-0.22-1.142-0.392c-0.389-0.172-0.743-0.399-1.063-0.683c-0.321-0.284-0.587-0.631-0.796-1.042
			c-0.209-0.41-0.313-0.899-0.313-1.467c0-0.762,0.168-1.411,0.504-1.948s0.762-0.974,1.277-1.31
			c0.515-0.336,1.074-0.583,1.679-0.739c0.605-0.157,1.176-0.235,1.714-0.235c0.91,0,1.813,0.135,2.71,0.403
			c0.896,0.269,1.701,0.642,2.418,1.119l-2.418,2.89c-0.374-0.239-0.755-0.426-1.143-0.561c-0.389-0.134-0.77-0.201-1.143-0.201
			c-0.254,0-0.463,0.033-0.627,0.101s-0.246,0.198-0.246,0.392c0,0.149,0.093,0.266,0.278,0.348c0.187,0.082,0.613,0.19,1.283,0.324
			c0.46,0.09,0.91,0.229,1.349,0.415s0.832,0.425,1.182,0.716c0.35,0.292,0.628,0.646,0.837,1.064
			C293.979,240.933,294.083,241.425,294.083,241.993z"/>
	</g>
</g>
</svg>
