<?xml version="1.0" encoding="utf-8"?>
<!-- Generator: Adobe Illustrator 24.0.2, SVG Export Plug-In . SVG Version: 6.00 Build 0)  -->
<svg version="1.1" xmlns="http://www.w3.org/2000/svg" xmlns:xlink="http://www.w3.org/1999/xlink" x="0px" y="0px"
	 viewBox="0 0 350 350.211" style="enable-background:new 0 0 350 350.211;" xml:space="preserve">
<style type="text/css">
	.st0{fill:#26ADE4;}
	.st1{opacity:0.1;}
	.st2{clip-path:url(#SVGID_2_);fill:#FFFFFF;}
	.st3{clip-path:url(#SVGID_4_);fill:#FFFFFF;}
	.st4{fill:#FFFFFF;}
</style>
<g id="Layer_1">
	<rect class="st0" width="350" height="350.211"/>
	<g class="st1">
		<g>
			<defs>
				<rect id="SVGID_1_" width="349.891" height="350"/>
			</defs>
			<clipPath id="SVGID_2_">
				<use xlink:href="#SVGID_1_"  style="overflow:visible;"/>
			</clipPath>
			<path class="st2" d="M349.891,0.001c0,0-30.254,77.778-155.215,107.28S19.731,193.104,0,258.813v91.188h349.891V0.001z"/>
		</g>
	</g>
	<g class="st1">
		<g>
			<defs>
				<rect id="SVGID_3_" width="349.891" height="350"/>
			</defs>
			<clipPath id="SVGID_4_">
				<use xlink:href="#SVGID_3_"  style="overflow:visible;"/>
			</clipPath>
			<path class="st3" d="M272.283,0.001c0,0,14.469,81.324-109.176,137.941S13.154,225.442,0,254.265v95.735h349.891v-350H272.283z"
				/>
		</g>
	</g>
	<path class="st4" d="M241.299,105.014c0,36.674-29.729,66.403-66.403,66.403c-36.674,0-66.403-29.729-66.403-66.403
		c0-36.674,29.729-66.403,66.403-66.403C211.569,38.611,241.299,68.34,241.299,105.014"/>
	<g>
		<g>
			<path class="st0" d="M200.865,143.261h-50.284c-4.676,0-8.48-3.804-8.48-8.48V74.979c0-4.676,3.804-8.48,8.48-8.48h50.284
				c4.676,0,8.48,3.804,8.48,8.48v59.802C209.345,139.457,205.541,143.261,200.865,143.261z M150.581,70.739
				c-2.338,0-4.24,1.902-4.24,4.24v59.802c0,2.338,1.902,4.24,4.24,4.24h50.284c2.338,0,4.24-1.902,4.24-4.24V74.979
				c0-2.338-1.902-4.24-4.24-4.24H150.581z"/>
		</g>
		<g>
			<polygon class="st0" points="174.195,81.573 178.23,89.749 187.253,91.06 180.724,97.424 182.266,106.411 174.195,102.168 
				166.125,106.411 167.667,97.424 161.138,91.06 170.16,89.749 			"/>
			<path class="st0" d="M182.266,108.53c-0.337,0-0.676-0.08-0.986-0.243l-7.084-3.724l-7.084,3.724
				c-0.715,0.375-1.58,0.312-2.232-0.161c-0.653-0.475-0.98-1.278-0.843-2.073l1.353-7.888l-5.731-5.586
				c-0.578-0.563-0.786-1.406-0.536-2.173c0.249-0.768,0.913-1.326,1.711-1.442l7.92-1.151l3.542-7.177
				c0.357-0.724,1.094-1.182,1.901-1.182l0,0c0.807,0,1.544,0.458,1.901,1.182l3.542,7.177l7.92,1.151
				c0.799,0.116,1.462,0.675,1.712,1.442c0.249,0.768,0.041,1.61-0.537,2.173l-5.731,5.586l1.353,7.888
				c0.137,0.795-0.19,1.599-0.843,2.073C183.142,108.394,182.705,108.53,182.266,108.53z M174.196,100.048
				c0.339,0,0.678,0.081,0.986,0.243l4.268,2.244l-0.815-4.753c-0.118-0.687,0.11-1.389,0.61-1.876l3.453-3.366l-4.772-0.694
				c-0.69-0.1-1.287-0.534-1.596-1.159l-2.134-4.324l-2.134,4.324c-0.309,0.626-0.906,1.059-1.596,1.159l-4.772,0.694l3.453,3.366
				c0.5,0.487,0.728,1.189,0.61,1.876l-0.815,4.753l4.268-2.244C173.518,100.13,173.857,100.048,174.196,100.048z"/>
		</g>
		<g>
			<path class="st0" d="M186.95,117.234h-24.325c-0.732,0-1.325-0.593-1.325-1.325s0.593-1.325,1.325-1.325h24.325
				c0.732,0,1.325,0.593,1.325,1.325S187.682,117.234,186.95,117.234z"/>
		</g>
		<g>
			<path class="st0" d="M186.95,123.952h-24.325c-0.732,0-1.325-0.593-1.325-1.325s0.593-1.325,1.325-1.325h24.325
				c0.732,0,1.325,0.593,1.325,1.325S187.682,123.952,186.95,123.952z"/>
		</g>
		<g>
			<path class="st0" d="M186.95,130.671h-24.325c-0.732,0-1.325-0.593-1.325-1.325c0-0.732,0.593-1.325,1.325-1.325h24.325
				c0.732,0,1.325,0.593,1.325,1.325C188.275,130.078,187.682,130.671,186.95,130.671z"/>
		</g>
	</g>
</g>
<g id="text">
	<g>
		<path class="st4" d="M57.917,210.297v5.23h-5.437v-16.241h6.974c0.826,0,1.636,0.088,2.432,0.264
			c0.795,0.176,1.506,0.475,2.133,0.895c0.627,0.421,1.132,0.979,1.514,1.675c0.382,0.696,0.573,1.571,0.573,2.627
			c0,1.009-0.188,1.865-0.562,2.568c-0.375,0.704-0.872,1.277-1.491,1.721c-0.62,0.444-1.331,0.765-2.134,0.964
			c-0.803,0.199-1.625,0.298-2.466,0.298H57.917z M57.917,203.53v2.614h1.147c0.413,0,0.792-0.103,1.136-0.31
			c0.344-0.206,0.516-0.554,0.516-1.044c0-0.26-0.046-0.47-0.138-0.63c-0.092-0.161-0.218-0.287-0.378-0.379
			s-0.341-0.156-0.539-0.195c-0.199-0.038-0.398-0.057-0.597-0.057H57.917z"/>
		<path class="st4" d="M76.076,203.14c0.839,0,1.536,0.153,2.093,0.459s0.999,0.699,1.327,1.182
			c0.327,0.481,0.556,1.021,0.686,1.617c0.129,0.597,0.194,1.192,0.194,1.789v7.341h-5.299v-6.423c0-0.611-0.096-1.04-0.287-1.285
			c-0.191-0.244-0.478-0.367-0.86-0.367c-0.306,0-0.582,0.135-0.826,0.401c-0.245,0.269-0.367,0.692-0.367,1.273v6.4h-5.299v-17.343
			h5.299v6.606h0.046c0.304-0.443,0.739-0.829,1.303-1.158C74.65,203.305,75.313,203.14,76.076,203.14z"/>
		<path class="st4" d="M82.21,199.975c0-0.367,0.072-0.715,0.218-1.044s0.344-0.616,0.597-0.86c0.252-0.245,0.546-0.439,0.883-0.585
			c0.336-0.146,0.695-0.218,1.078-0.218c0.367,0,0.711,0.072,1.032,0.218s0.608,0.34,0.86,0.585c0.252,0.244,0.451,0.531,0.596,0.86
			c0.145,0.329,0.218,0.677,0.218,1.044c0,0.382-0.073,0.737-0.218,1.066c-0.146,0.329-0.344,0.611-0.596,0.849
			c-0.252,0.237-0.539,0.425-0.86,0.562c-0.321,0.138-0.666,0.207-1.032,0.207c-0.383,0-0.742-0.069-1.078-0.207
			c-0.337-0.137-0.631-0.324-0.883-0.562s-0.451-0.52-0.597-0.849S82.21,200.356,82.21,199.975z M82.302,203.461h5.299v12.066
			h-5.299V203.461z"/>
		<path class="st4" d="M89.62,198.185h5.414v17.343H89.62V198.185z"/>
		<path class="st4" d="M110.312,209.448c0,1.04-0.188,1.966-0.562,2.775c-0.375,0.812-0.88,1.495-1.514,2.054
			c-0.635,0.559-1.369,0.982-2.202,1.272c-0.834,0.291-1.709,0.437-2.626,0.437c-0.903,0-1.771-0.146-2.604-0.437
			c-0.833-0.29-1.563-0.714-2.19-1.272c-0.627-0.559-1.128-1.242-1.503-2.054c-0.375-0.81-0.562-1.735-0.562-2.775
			c0-1.024,0.188-1.938,0.562-2.741c0.375-0.803,0.875-1.479,1.503-2.03c0.627-0.551,1.357-0.967,2.19-1.25s1.701-0.425,2.604-0.425
			c0.917,0,1.792,0.142,2.626,0.425c0.833,0.283,1.567,0.699,2.202,1.25c0.634,0.551,1.139,1.228,1.514,2.03
			C110.124,207.51,110.312,208.424,110.312,209.448z M103.407,207.476c-0.582,0-1.052,0.199-1.411,0.597s-0.539,0.864-0.539,1.399
			c0,0.565,0.184,1.047,0.551,1.444c0.367,0.398,0.841,0.597,1.422,0.597c0.581,0,1.055-0.198,1.422-0.597
			c0.367-0.397,0.551-0.879,0.551-1.444c0-0.535-0.188-1.002-0.562-1.399C104.465,207.675,103.988,207.476,103.407,207.476z"/>
		<path class="st4" d="M121.689,211.696c0,0.811-0.171,1.491-0.514,2.042s-0.776,0.99-1.301,1.318
			c-0.525,0.329-1.1,0.566-1.724,0.712c-0.624,0.145-1.218,0.218-1.783,0.218c-1.04,0-2.061-0.149-3.062-0.447
			c-1.001-0.299-1.87-0.723-2.604-1.273l2.592-3.005c0.367,0.336,0.799,0.607,1.296,0.814c0.497,0.206,0.975,0.31,1.434,0.31
			c0.184,0,0.356-0.034,0.517-0.104c0.16-0.068,0.241-0.195,0.241-0.378c0-0.199-0.142-0.356-0.424-0.471
			c-0.283-0.114-0.776-0.256-1.48-0.425c-0.382-0.092-0.772-0.225-1.17-0.401c-0.397-0.176-0.761-0.408-1.089-0.699
			c-0.329-0.29-0.601-0.646-0.814-1.066c-0.214-0.421-0.321-0.922-0.321-1.503c0-0.78,0.172-1.445,0.516-1.996
			c0.344-0.551,0.78-0.998,1.308-1.342c0.528-0.344,1.101-0.597,1.721-0.757c0.619-0.161,1.204-0.241,1.755-0.241
			c0.933,0,1.858,0.138,2.776,0.413c0.917,0.275,1.743,0.658,2.477,1.147l-2.477,2.959c-0.383-0.244-0.772-0.436-1.17-0.573
			c-0.397-0.138-0.788-0.207-1.17-0.207c-0.26,0-0.474,0.034-0.642,0.104c-0.168,0.068-0.252,0.203-0.252,0.401
			c0,0.153,0.095,0.271,0.286,0.355c0.19,0.084,0.628,0.195,1.313,0.333c0.472,0.092,0.932,0.233,1.382,0.424
			c0.449,0.191,0.853,0.437,1.21,0.734s0.644,0.661,0.857,1.09C121.582,210.61,121.689,211.115,121.689,211.696z"/>
		<path class="st4" d="M136.439,209.448c0,1.04-0.188,1.966-0.562,2.775c-0.375,0.812-0.88,1.495-1.514,2.054
			c-0.635,0.559-1.369,0.982-2.202,1.272c-0.834,0.291-1.709,0.437-2.626,0.437c-0.903,0-1.771-0.146-2.604-0.437
			c-0.833-0.29-1.563-0.714-2.19-1.272c-0.627-0.559-1.128-1.242-1.503-2.054c-0.375-0.81-0.562-1.735-0.562-2.775
			c0-1.024,0.188-1.938,0.562-2.741c0.375-0.803,0.875-1.479,1.503-2.03c0.627-0.551,1.357-0.967,2.19-1.25s1.701-0.425,2.604-0.425
			c0.917,0,1.792,0.142,2.626,0.425c0.833,0.283,1.567,0.699,2.202,1.25c0.634,0.551,1.139,1.228,1.514,2.03
			C136.251,207.51,136.439,208.424,136.439,209.448z M129.534,207.476c-0.582,0-1.052,0.199-1.411,0.597s-0.539,0.864-0.539,1.399
			c0,0.565,0.184,1.047,0.551,1.444c0.367,0.398,0.841,0.597,1.422,0.597c0.581,0,1.055-0.198,1.422-0.597
			c0.367-0.397,0.551-0.879,0.551-1.444c0-0.535-0.188-1.002-0.562-1.399C130.593,207.675,130.115,207.476,129.534,207.476z"/>
		<path class="st4" d="M146.44,215.849c-0.597,0-1.186-0.111-1.767-0.333s-1.055-0.531-1.422-0.929h-0.046v6.446h-5.253v-17.572
			h4.978v1.216h0.046c0.443-0.505,0.979-0.887,1.605-1.146c0.627-0.261,1.239-0.391,1.835-0.391c0.902,0,1.697,0.184,2.386,0.551
			c0.688,0.367,1.262,0.849,1.72,1.445c0.459,0.597,0.807,1.27,1.044,2.019c0.237,0.749,0.355,1.514,0.355,2.294
			c0,0.795-0.119,1.575-0.355,2.34c-0.237,0.765-0.585,1.449-1.044,2.053c-0.458,0.604-1.028,1.09-1.709,1.457
			S147.343,215.849,146.44,215.849z M147.014,209.448c0-0.535-0.168-1.001-0.504-1.399c-0.336-0.397-0.826-0.597-1.468-0.597
			c-0.627,0-1.128,0.199-1.502,0.597c-0.375,0.398-0.562,0.864-0.562,1.399c0,0.566,0.187,1.048,0.562,1.445
			c0.375,0.397,0.875,0.597,1.502,0.597c0.643,0,1.132-0.195,1.468-0.585C146.845,210.515,147.014,210.029,147.014,209.448z"/>
		<path class="st4" d="M162.075,203.14c0.839,0,1.536,0.153,2.093,0.459s0.999,0.699,1.327,1.182
			c0.327,0.481,0.556,1.021,0.686,1.617c0.129,0.597,0.194,1.192,0.194,1.789v7.341h-5.299v-6.423c0-0.611-0.096-1.04-0.287-1.285
			c-0.191-0.244-0.478-0.367-0.86-0.367c-0.306,0-0.582,0.135-0.826,0.401c-0.245,0.269-0.367,0.692-0.367,1.273v6.4h-5.299v-17.343
			h5.299v6.606h0.046c0.304-0.443,0.739-0.829,1.303-1.158C160.65,203.305,161.313,203.14,162.075,203.14z"/>
		<path class="st4" d="M171.765,215.048l-4.886-11.587h5.873l1.79,6.354h0.092l1.583-6.354h5.666l-4.955,12.801
			c-0.291,0.749-0.619,1.418-0.986,2.007s-0.796,1.09-1.285,1.503c-0.49,0.413-1.067,0.726-1.732,0.94
			c-0.666,0.214-1.442,0.321-2.329,0.321c-0.275,0-0.559-0.012-0.849-0.035c-0.291-0.022-0.57-0.054-0.837-0.092
			c-0.268-0.039-0.516-0.077-0.746-0.115c-0.229-0.039-0.421-0.081-0.573-0.127l0.665-4.38c0.199,0.076,0.439,0.142,0.723,0.195
			c0.283,0.054,0.539,0.08,0.769,0.08c0.581,0,1.013-0.118,1.296-0.354c0.283-0.237,0.493-0.539,0.631-0.905L171.765,215.048z"/>
		<path class="st4" d="M198.467,214.357c-0.489,0.429-1.112,0.784-1.869,1.066c-0.758,0.283-1.664,0.425-2.719,0.425
			c-0.78,0-1.553-0.092-2.317-0.275s-1.449-0.474-2.053-0.872c-0.604-0.397-1.098-0.917-1.479-1.56
			c-0.383-0.643-0.573-1.414-0.573-2.317c0-0.52,0.084-1.005,0.252-1.456s0.394-0.856,0.677-1.216s0.619-0.681,1.01-0.964
			c0.39-0.282,0.806-0.516,1.25-0.699c-0.444-0.397-0.818-0.876-1.124-1.434c-0.307-0.559-0.459-1.189-0.459-1.893
			c0-0.795,0.18-1.469,0.539-2.019c0.359-0.551,0.822-0.998,1.388-1.343c0.565-0.344,1.193-0.592,1.881-0.745
			c0.688-0.152,1.361-0.229,2.02-0.229c0.672,0,1.342,0.08,2.007,0.241c0.665,0.16,1.266,0.417,1.801,0.769s0.971,0.807,1.308,1.364
			c0.336,0.559,0.505,1.235,0.505,2.03c0,0.505-0.085,0.96-0.253,1.365s-0.397,0.772-0.688,1.101
			c-0.291,0.329-0.624,0.628-0.998,0.895c-0.375,0.269-0.776,0.517-1.205,0.746l1.124,1.055l1.262-1.812h5.713l-3.9,4.748
			l4.404,4.198h-6.377L198.467,214.357z M193.512,209.265c-0.214,0.077-0.417,0.215-0.607,0.413
			c-0.191,0.199-0.287,0.481-0.287,0.849c0,0.229,0.046,0.421,0.138,0.573c0.092,0.153,0.214,0.283,0.367,0.391
			c0.152,0.106,0.321,0.184,0.505,0.229c0.183,0.046,0.358,0.068,0.527,0.068c0.29,0,0.562-0.046,0.814-0.138
			c0.252-0.092,0.439-0.206,0.562-0.344L193.512,209.265z M194.934,202.337c-0.352,0-0.615,0.107-0.791,0.321
			s-0.264,0.459-0.264,0.734c0,0.26,0.076,0.504,0.229,0.733c0.152,0.229,0.359,0.444,0.619,0.643
			c0.352-0.138,0.643-0.325,0.872-0.562c0.229-0.236,0.344-0.508,0.344-0.813c0-0.307-0.084-0.559-0.252-0.758
			C195.522,202.437,195.271,202.337,194.934,202.337z"/>
		<path class="st4" d="M217.576,210.297v5.23h-5.438v-16.241h6.974c0.826,0,1.637,0.088,2.432,0.264
			c0.796,0.176,1.507,0.475,2.134,0.895c0.627,0.421,1.132,0.979,1.514,1.675c0.383,0.696,0.574,1.571,0.574,2.627
			c0,1.009-0.188,1.865-0.562,2.568c-0.375,0.704-0.871,1.277-1.491,1.721c-0.619,0.444-1.33,0.765-2.133,0.964
			s-1.625,0.298-2.467,0.298H217.576z M217.576,203.53v2.614h1.146c0.413,0,0.792-0.103,1.136-0.31
			c0.344-0.206,0.516-0.554,0.516-1.044c0-0.26-0.046-0.47-0.138-0.63c-0.091-0.161-0.218-0.287-0.378-0.379
			c-0.161-0.092-0.341-0.156-0.539-0.195c-0.199-0.038-0.398-0.057-0.597-0.057H217.576z"/>
		<path class="st4" d="M239.047,215.527h-5.161v-1.33h-0.046c-0.307,0.443-0.761,0.829-1.365,1.158
			c-0.604,0.328-1.296,0.493-2.076,0.493c-0.856,0-1.56-0.149-2.11-0.447c-0.551-0.299-0.99-0.688-1.319-1.17
			c-0.328-0.482-0.558-1.024-0.688-1.629c-0.13-0.604-0.195-1.204-0.195-1.801v-7.341h5.299v6.377c0,0.612,0.097,1.041,0.29,1.285
			c0.192,0.245,0.482,0.367,0.868,0.367c0.355,0,0.646-0.142,0.869-0.425c0.224-0.282,0.336-0.691,0.336-1.228v-6.377h5.299V215.527
			z"/>
		<path class="st4" d="M241.043,203.461h5.093v1.376h0.046c0.26-0.489,0.646-0.895,1.158-1.216c0.513-0.32,1.112-0.481,1.801-0.481
			c0.413,0,0.749,0.038,1.01,0.115l-0.413,4.496c-0.169-0.046-0.355-0.08-0.562-0.104c-0.206-0.022-0.394-0.034-0.562-0.034
			c-0.688,0-1.239,0.199-1.651,0.597c-0.413,0.397-0.62,0.887-0.62,1.468v5.85h-5.299V203.461z"/>
		<path class="st4" d="M259.303,215.849c-0.596,0-1.185-0.111-1.766-0.333c-0.582-0.222-1.056-0.531-1.423-0.929h-0.046v6.446
			h-5.253v-17.572h4.978v1.216h0.046c0.443-0.505,0.979-0.887,1.606-1.146c0.627-0.261,1.238-0.391,1.835-0.391
			c0.902,0,1.697,0.184,2.386,0.551s1.262,0.849,1.721,1.445s0.807,1.27,1.044,2.019c0.236,0.749,0.355,1.514,0.355,2.294
			c0,0.795-0.119,1.575-0.355,2.34c-0.237,0.765-0.585,1.449-1.044,2.053c-0.459,0.604-1.029,1.09-1.709,1.457
			C260.997,215.665,260.205,215.849,259.303,215.849z M259.877,209.448c0-0.535-0.169-1.001-0.505-1.399
			c-0.337-0.397-0.826-0.597-1.468-0.597c-0.628,0-1.129,0.199-1.503,0.597c-0.375,0.398-0.562,0.864-0.562,1.399
			c0,0.566,0.188,1.048,0.562,1.445c0.374,0.397,0.875,0.597,1.503,0.597c0.642,0,1.131-0.195,1.468-0.585
			C259.708,210.515,259.877,210.029,259.877,209.448z"/>
		<path class="st4" d="M279.581,209.448c0,1.04-0.188,1.966-0.562,2.775c-0.375,0.812-0.879,1.495-1.514,2.054
			s-1.369,0.982-2.202,1.272c-0.834,0.291-1.709,0.437-2.627,0.437c-0.902,0-1.77-0.146-2.604-0.437
			c-0.834-0.29-1.563-0.714-2.19-1.272s-1.128-1.242-1.503-2.054c-0.375-0.81-0.562-1.735-0.562-2.775
			c0-1.024,0.187-1.938,0.562-2.741s0.876-1.479,1.503-2.03s1.356-0.967,2.19-1.25s1.701-0.425,2.604-0.425
			c0.918,0,1.793,0.142,2.627,0.425c0.833,0.283,1.567,0.699,2.202,1.25s1.139,1.228,1.514,2.03S279.581,208.424,279.581,209.448z
			 M272.676,207.476c-0.581,0-1.052,0.199-1.41,0.597c-0.359,0.397-0.539,0.864-0.539,1.399c0,0.565,0.184,1.047,0.55,1.444
			c0.367,0.398,0.841,0.597,1.423,0.597c0.581,0,1.055-0.198,1.422-0.597c0.367-0.397,0.551-0.879,0.551-1.444
			c0-0.535-0.188-1.002-0.562-1.399C273.735,207.675,273.257,207.476,272.676,207.476z"/>
		<path class="st4" d="M290.959,211.696c0,0.811-0.172,1.491-0.514,2.042c-0.343,0.551-0.776,0.99-1.302,1.318
			c-0.525,0.329-1.1,0.566-1.724,0.712c-0.625,0.145-1.219,0.218-1.783,0.218c-1.04,0-2.061-0.149-3.062-0.447
			c-1.002-0.299-1.869-0.723-2.604-1.273l2.592-3.005c0.367,0.336,0.8,0.607,1.297,0.814c0.496,0.206,0.975,0.31,1.434,0.31
			c0.184,0,0.355-0.034,0.516-0.104c0.161-0.068,0.241-0.195,0.241-0.378c0-0.199-0.142-0.356-0.425-0.471s-0.776-0.256-1.479-0.425
			c-0.382-0.092-0.772-0.225-1.17-0.401c-0.397-0.176-0.761-0.408-1.09-0.699c-0.329-0.29-0.6-0.646-0.813-1.066
			c-0.215-0.421-0.321-0.922-0.321-1.503c0-0.78,0.172-1.445,0.516-1.996c0.345-0.551,0.78-0.998,1.308-1.342
			s1.102-0.597,1.721-0.757c0.619-0.161,1.204-0.241,1.755-0.241c0.933,0,1.858,0.138,2.775,0.413
			c0.918,0.275,1.744,0.658,2.478,1.147l-2.478,2.959c-0.382-0.244-0.772-0.436-1.17-0.573s-0.788-0.207-1.17-0.207
			c-0.26,0-0.474,0.034-0.642,0.104c-0.169,0.068-0.253,0.203-0.253,0.401c0,0.153,0.095,0.271,0.285,0.355s0.629,0.195,1.313,0.333
			c0.472,0.092,0.933,0.233,1.382,0.424c0.449,0.191,0.854,0.437,1.211,0.734c0.358,0.298,0.644,0.661,0.856,1.09
			C290.852,210.61,290.959,211.115,290.959,211.696z"/>
		<path class="st4" d="M305.021,209.608c0,0.199-0.004,0.402-0.012,0.608s-0.019,0.379-0.034,0.517h-8.12
			c0.015,0.214,0.088,0.405,0.218,0.573s0.29,0.313,0.481,0.436c0.191,0.123,0.405,0.215,0.643,0.275
			c0.236,0.062,0.478,0.092,0.723,0.092c0.489,0,0.898-0.088,1.228-0.264c0.328-0.176,0.576-0.371,0.745-0.585l3.762,1.903
			c-0.535,0.872-1.312,1.561-2.328,2.065c-1.018,0.504-2.198,0.757-3.544,0.757c-0.872,0-1.721-0.138-2.547-0.413
			c-0.825-0.275-1.556-0.685-2.19-1.228c-0.635-0.542-1.144-1.219-1.525-2.03c-0.383-0.811-0.573-1.751-0.573-2.821
			c0-0.994,0.176-1.893,0.527-2.695s0.829-1.483,1.434-2.042c0.604-0.558,1.315-0.99,2.134-1.296
			c0.817-0.306,1.693-0.459,2.626-0.459c0.948,0,1.812,0.165,2.593,0.493c0.779,0.329,1.448,0.788,2.007,1.377
			s0.99,1.288,1.296,2.099S305.021,208.661,305.021,209.608z M300.456,207.889c0-0.429-0.157-0.78-0.471-1.056
			s-0.738-0.413-1.273-0.413c-0.581,0-1.032,0.161-1.354,0.482c-0.32,0.32-0.504,0.649-0.55,0.986H300.456z"/>
	</g>
	<g>
		<path class="st4" d="M62.093,235.392c0,1.04-0.188,1.966-0.562,2.775c-0.375,0.812-0.88,1.495-1.514,2.054
			c-0.635,0.559-1.369,0.982-2.202,1.272c-0.834,0.291-1.709,0.437-2.626,0.437c-0.903,0-1.771-0.146-2.604-0.437
			c-0.833-0.29-1.563-0.714-2.19-1.272c-0.627-0.559-1.128-1.242-1.503-2.054c-0.375-0.81-0.562-1.735-0.562-2.775
			c0-1.024,0.188-1.938,0.562-2.741c0.375-0.803,0.875-1.479,1.503-2.03c0.627-0.551,1.357-0.967,2.19-1.25s1.701-0.425,2.604-0.425
			c0.917,0,1.792,0.142,2.626,0.425c0.833,0.283,1.567,0.699,2.202,1.25c0.634,0.551,1.139,1.228,1.514,2.03
			C61.905,233.453,62.093,234.367,62.093,235.392z M55.188,233.419c-0.582,0-1.052,0.199-1.411,0.597s-0.539,0.864-0.539,1.399
			c0,0.565,0.184,1.047,0.551,1.444c0.367,0.398,0.841,0.597,1.422,0.597c0.581,0,1.055-0.198,1.422-0.597
			c0.367-0.397,0.551-0.879,0.551-1.444c0-0.535-0.188-1.002-0.562-1.399C56.247,233.618,55.769,233.419,55.188,233.419z"/>
		<path class="st4" d="M71.704,227.604c-0.184-0.038-0.367-0.058-0.55-0.058c-0.52,0-0.883,0.161-1.09,0.482
			c-0.207,0.32-0.31,0.727-0.31,1.216v0.16h2.546v3.785h-2.546v8.281h-5.299v-8.281h-2.064v-3.785h2.064v-0.275
			c0-0.749,0.088-1.468,0.265-2.156c0.176-0.688,0.48-1.296,0.91-1.823c0.43-0.528,1.009-0.944,1.739-1.251
			c0.729-0.306,1.646-0.458,2.752-0.458c0.352,0,0.76,0.026,1.227,0.08c0.466,0.054,0.86,0.142,1.182,0.264l-0.344,3.969
			C72.048,227.691,71.888,227.642,71.704,227.604z"/>
		<path class="st4" d="M84.321,241.93c-0.658,0-1.304-0.058-1.938-0.171c-0.635-0.114-1.247-0.282-1.835-0.502
			c-0.589-0.222-1.144-0.479-1.663-0.776c-0.52-0.297-0.986-0.628-1.399-0.993l3.326-3.614c0.382,0.413,0.891,0.78,1.525,1.102
			s1.289,0.481,1.961,0.481c0.306,0,0.585-0.054,0.837-0.161c0.252-0.106,0.378-0.306,0.378-0.597c0-0.153-0.042-0.283-0.126-0.392
			c-0.084-0.106-0.233-0.218-0.447-0.333c-0.214-0.114-0.509-0.241-0.883-0.379c-0.375-0.138-0.845-0.299-1.411-0.482
			c-0.551-0.184-1.078-0.402-1.583-0.655s-0.952-0.562-1.342-0.931c-0.39-0.368-0.7-0.808-0.929-1.321s-0.344-1.13-0.344-1.851
			c0-1.011,0.207-1.868,0.62-2.573c0.413-0.704,0.944-1.283,1.594-1.735c0.65-0.452,1.38-0.777,2.191-0.977
			c0.81-0.199,1.613-0.299,2.408-0.299c1.07,0,2.16,0.206,3.269,0.619s2.083,1.01,2.925,1.789l-3.395,3.465
			c-0.367-0.459-0.818-0.807-1.354-1.044s-1.017-0.355-1.445-0.355c-0.397,0-0.719,0.057-0.963,0.172
			c-0.245,0.114-0.367,0.302-0.367,0.562c0,0.245,0.126,0.429,0.378,0.551c0.252,0.123,0.661,0.275,1.227,0.459
			c0.581,0.184,1.193,0.397,1.835,0.643c0.642,0.244,1.235,0.562,1.778,0.951c0.542,0.391,0.99,0.868,1.342,1.435
			c0.352,0.565,0.528,1.27,0.528,2.11c0,0.979-0.195,1.831-0.585,2.558c-0.39,0.727-0.903,1.33-1.537,1.812
			c-0.635,0.481-1.35,0.841-2.145,1.078C85.957,241.811,85.147,241.93,84.321,241.93z"/>
		<path class="st4" d="M100.906,241.792c-0.597,0-1.186-0.111-1.767-0.333s-1.055-0.531-1.422-0.929h-0.046v6.446h-5.253v-17.572
			h4.978v1.216h0.046c0.443-0.505,0.979-0.887,1.605-1.146c0.627-0.261,1.239-0.391,1.835-0.391c0.902,0,1.697,0.184,2.386,0.551
			c0.688,0.367,1.262,0.849,1.72,1.445c0.459,0.597,0.807,1.27,1.044,2.019c0.237,0.749,0.355,1.514,0.355,2.294
			c0,0.795-0.119,1.575-0.355,2.34c-0.237,0.765-0.585,1.449-1.044,2.053c-0.458,0.604-1.028,1.09-1.709,1.457
			S101.809,241.792,100.906,241.792z M101.479,235.392c0-0.535-0.168-1.001-0.504-1.399c-0.336-0.397-0.826-0.597-1.468-0.597
			c-0.627,0-1.128,0.199-1.502,0.597c-0.375,0.398-0.562,0.864-0.562,1.399c0,0.566,0.187,1.048,0.562,1.445
			c0.375,0.397,0.875,0.597,1.502,0.597c0.643,0,1.132-0.195,1.468-0.585C101.311,236.458,101.479,235.973,101.479,235.392z"/>
		<path class="st4" d="M107.833,225.918c0-0.367,0.072-0.715,0.218-1.044s0.344-0.616,0.597-0.86
			c0.252-0.245,0.546-0.439,0.883-0.585c0.336-0.146,0.695-0.218,1.078-0.218c0.367,0,0.711,0.072,1.032,0.218
			s0.608,0.34,0.86,0.585c0.252,0.244,0.451,0.531,0.596,0.86c0.145,0.329,0.218,0.677,0.218,1.044c0,0.382-0.073,0.737-0.218,1.066
			c-0.146,0.329-0.344,0.611-0.596,0.849c-0.252,0.237-0.539,0.425-0.86,0.562c-0.321,0.138-0.666,0.207-1.032,0.207
			c-0.383,0-0.742-0.069-1.078-0.207c-0.337-0.137-0.631-0.324-0.883-0.562s-0.451-0.52-0.597-0.849S107.833,226.3,107.833,225.918z
			 M107.925,229.404h5.299v12.066h-5.299V229.404z"/>
		<path class="st4" d="M115.243,229.404h5.093v1.376h0.046c0.26-0.489,0.646-0.895,1.158-1.216c0.512-0.32,1.113-0.481,1.801-0.481
			c0.413,0,0.749,0.038,1.009,0.115l-0.413,4.496c-0.168-0.046-0.355-0.08-0.562-0.104c-0.207-0.022-0.394-0.034-0.562-0.034
			c-0.688,0-1.239,0.199-1.652,0.597s-0.619,0.887-0.619,1.468v5.85h-5.299V229.404z"/>
		<path class="st4" d="M124.946,225.918c0-0.367,0.072-0.715,0.218-1.044s0.344-0.616,0.597-0.86
			c0.252-0.245,0.546-0.439,0.883-0.585c0.336-0.146,0.695-0.218,1.078-0.218c0.367,0,0.711,0.072,1.032,0.218
			s0.608,0.34,0.86,0.585c0.252,0.244,0.451,0.531,0.596,0.86c0.145,0.329,0.218,0.677,0.218,1.044c0,0.382-0.073,0.737-0.218,1.066
			c-0.146,0.329-0.344,0.611-0.596,0.849c-0.252,0.237-0.539,0.425-0.86,0.562c-0.321,0.138-0.666,0.207-1.032,0.207
			c-0.383,0-0.742-0.069-1.078-0.207c-0.337-0.137-0.631-0.324-0.883-0.562s-0.451-0.52-0.597-0.849S124.946,226.3,124.946,225.918z
			 M125.038,229.404h5.299v12.066h-5.299V229.404z"/>
		<path class="st4" d="M137.609,241.792c-1.622,0-2.822-0.348-3.602-1.044c-0.78-0.695-1.17-1.777-1.17-3.246v-4.312h-1.698v-3.785
			h1.675v-2.707h5.138v2.707h2.615v3.785h-2.615v3.212c0,0.581,0.126,0.975,0.378,1.181c0.252,0.207,0.6,0.31,1.044,0.31
			c0.168,0,0.344-0.015,0.528-0.045c0.184-0.031,0.329-0.062,0.436-0.092v3.624c-0.275,0.122-0.662,0.222-1.158,0.298
			C138.684,241.754,138.16,241.792,137.609,241.792z"/>
		<path class="st4" d="M154.354,241.471h-5.161v-1.33h-0.046c-0.306,0.443-0.761,0.829-1.365,1.158
			c-0.604,0.328-1.296,0.493-2.076,0.493c-0.857,0-1.56-0.149-2.111-0.447c-0.55-0.299-0.99-0.688-1.319-1.17
			c-0.329-0.482-0.559-1.024-0.688-1.629c-0.13-0.604-0.195-1.204-0.195-1.801v-7.341h5.299v6.377c0,0.612,0.096,1.041,0.29,1.285
			c0.193,0.245,0.482,0.367,0.868,0.367c0.355,0,0.645-0.142,0.869-0.425c0.224-0.282,0.336-0.691,0.336-1.228v-6.377h5.299V241.471
			z"/>
		<path class="st4" d="M162.751,233.809c0-0.367-0.126-0.638-0.379-0.814c-0.252-0.176-0.585-0.264-0.998-0.264
			c-0.49,0-0.952,0.104-1.388,0.31c-0.436,0.207-0.822,0.447-1.158,0.723l-2.638-2.615c0.734-0.703,1.606-1.246,2.615-1.628
			c1.009-0.383,2.049-0.574,3.12-0.574c1.147,0,2.095,0.161,2.845,0.482c0.749,0.32,1.342,0.765,1.778,1.33
			c0.436,0.566,0.742,1.224,0.917,1.973c0.176,0.75,0.264,1.545,0.264,2.386v6.354h-4.794v-0.964h-0.045
			c-0.306,0.459-0.742,0.788-1.308,0.986c-0.566,0.199-1.117,0.299-1.652,0.299c-0.474,0-0.96-0.069-1.457-0.207
			c-0.497-0.137-0.949-0.358-1.354-0.665c-0.405-0.306-0.738-0.703-0.998-1.192c-0.26-0.489-0.39-1.094-0.39-1.812
			c0-0.841,0.218-1.525,0.653-2.053c0.436-0.528,0.99-0.941,1.664-1.239c0.672-0.298,1.426-0.501,2.259-0.607
			c0.833-0.107,1.648-0.161,2.443-0.161V233.809z M162.797,236.47c-0.78,0-1.407,0.084-1.881,0.252
			c-0.474,0.169-0.711,0.482-0.711,0.941c0,0.168,0.038,0.31,0.115,0.424c0.076,0.115,0.175,0.211,0.298,0.287
			s0.256,0.134,0.402,0.172c0.145,0.038,0.279,0.058,0.401,0.058c0.504,0,0.91-0.161,1.216-0.482
			c0.306-0.32,0.458-0.733,0.458-1.238v-0.413H162.797z"/>
		<path class="st4" d="M169.472,224.128h5.414v17.343h-5.414V224.128z"/>
		<path class="st4" d="M181.699,233.35c0-1.299,0.229-2.478,0.688-3.532c0.459-1.056,1.086-1.958,1.882-2.707
			c0.795-0.749,1.731-1.326,2.81-1.732c1.078-0.404,2.229-0.607,3.452-0.607c1.254,0,2.439,0.203,3.556,0.607
			c1.116,0.406,2.05,0.952,2.799,1.641l-3.349,4.037c-0.307-0.397-0.688-0.699-1.147-0.906c-0.459-0.206-0.971-0.31-1.537-0.31
			c-0.458,0-0.887,0.081-1.284,0.241c-0.398,0.16-0.746,0.394-1.044,0.699c-0.298,0.307-0.531,0.677-0.699,1.113
			c-0.169,0.436-0.253,0.921-0.253,1.456c0,0.536,0.088,1.014,0.264,1.435c0.176,0.42,0.413,0.783,0.712,1.089
			c0.298,0.307,0.646,0.539,1.043,0.7c0.397,0.16,0.818,0.24,1.262,0.24c0.627,0,1.166-0.129,1.617-0.39
			c0.451-0.26,0.807-0.565,1.067-0.918l3.349,4.015c-0.733,0.734-1.637,1.319-2.707,1.755c-1.07,0.437-2.286,0.654-3.647,0.654
			c-1.224,0-2.374-0.207-3.452-0.619c-1.078-0.413-2.015-0.998-2.81-1.755c-0.796-0.758-1.423-1.659-1.882-2.707
			C181.929,235.801,181.699,234.635,181.699,233.35z"/>
		<path class="st4" d="M210.442,241.471h-5.161v-1.33h-0.046c-0.307,0.443-0.761,0.829-1.365,1.158
			c-0.604,0.328-1.296,0.493-2.076,0.493c-0.856,0-1.56-0.149-2.11-0.447c-0.551-0.299-0.99-0.688-1.319-1.17
			c-0.328-0.482-0.558-1.024-0.688-1.629c-0.13-0.604-0.195-1.204-0.195-1.801v-7.341h5.299v6.377c0,0.612,0.097,1.041,0.29,1.285
			c0.192,0.245,0.482,0.367,0.868,0.367c0.355,0,0.646-0.142,0.869-0.425c0.224-0.282,0.336-0.691,0.336-1.228v-6.377h5.299V241.471
			z"/>
		<path class="st4" d="M212.438,229.404h5.093v1.376h0.046c0.26-0.489,0.646-0.895,1.158-1.216c0.513-0.32,1.112-0.481,1.801-0.481
			c0.413,0,0.749,0.038,1.01,0.115l-0.413,4.496c-0.169-0.046-0.355-0.08-0.562-0.104c-0.206-0.022-0.394-0.034-0.562-0.034
			c-0.688,0-1.239,0.199-1.651,0.597c-0.413,0.397-0.62,0.887-0.62,1.468v5.85h-5.299V229.404z"/>
		<path class="st4" d="M222.21,229.404h5.093v1.376h0.046c0.26-0.489,0.646-0.895,1.158-1.216c0.513-0.32,1.112-0.481,1.801-0.481
			c0.413,0,0.749,0.038,1.01,0.115l-0.413,4.496c-0.169-0.046-0.355-0.08-0.562-0.104c-0.206-0.022-0.394-0.034-0.562-0.034
			c-0.688,0-1.239,0.199-1.651,0.597c-0.413,0.397-0.62,0.887-0.62,1.468v5.85h-5.299V229.404z"/>
		<path class="st4" d="M231.914,225.918c0-0.367,0.072-0.715,0.218-1.044c0.145-0.329,0.344-0.616,0.596-0.86
			c0.253-0.245,0.547-0.439,0.884-0.585c0.336-0.146,0.695-0.218,1.078-0.218c0.367,0,0.711,0.072,1.032,0.218
			s0.607,0.34,0.86,0.585c0.252,0.244,0.451,0.531,0.597,0.86c0.145,0.329,0.218,0.677,0.218,1.044c0,0.382-0.073,0.737-0.218,1.066
			c-0.146,0.329-0.345,0.611-0.597,0.849c-0.253,0.237-0.539,0.425-0.86,0.562c-0.321,0.138-0.665,0.207-1.032,0.207
			c-0.383,0-0.742-0.069-1.078-0.207c-0.337-0.137-0.631-0.324-0.884-0.562c-0.252-0.237-0.451-0.52-0.596-0.849
			C231.986,226.655,231.914,226.3,231.914,225.918z M232.005,229.404h5.3v12.066h-5.3V229.404z"/>
		<path class="st4" d="M245.883,241.93c-1.024,0-1.965-0.153-2.821-0.459s-1.599-0.741-2.226-1.308
			c-0.627-0.565-1.116-1.246-1.468-2.042c-0.352-0.795-0.527-1.689-0.527-2.684c0-0.979,0.18-1.869,0.539-2.673
			c0.358-0.803,0.86-1.486,1.502-2.053c0.643-0.565,1.396-1.002,2.26-1.308s1.801-0.459,2.811-0.459c0.413,0,0.829,0.034,1.25,0.104
			c0.42,0.068,0.826,0.164,1.216,0.287c0.39,0.122,0.749,0.26,1.078,0.412c0.329,0.153,0.607,0.321,0.837,0.505l-2.638,3.809
			c-0.184-0.207-0.425-0.365-0.723-0.477c-0.298-0.11-0.585-0.166-0.86-0.166c-0.26,0-0.513,0.042-0.757,0.126
			c-0.245,0.084-0.463,0.215-0.654,0.39c-0.191,0.177-0.348,0.391-0.47,0.643c-0.123,0.253-0.184,0.547-0.184,0.884
			c0,0.336,0.061,0.631,0.184,0.883c0.122,0.252,0.278,0.459,0.47,0.619c0.191,0.161,0.409,0.283,0.654,0.367
			c0.244,0.084,0.497,0.126,0.757,0.126c0.306,0,0.604-0.058,0.895-0.172c0.291-0.114,0.528-0.271,0.711-0.471l2.661,3.701
			c-0.504,0.396-1.158,0.73-1.961,1.004C247.615,241.793,246.77,241.93,245.883,241.93z"/>
		<path class="st4" d="M263.73,241.471h-5.161v-1.33h-0.046c-0.307,0.443-0.761,0.829-1.365,1.158
			c-0.604,0.328-1.296,0.493-2.076,0.493c-0.856,0-1.56-0.149-2.11-0.447c-0.551-0.299-0.99-0.688-1.319-1.17
			c-0.328-0.482-0.558-1.024-0.688-1.629c-0.13-0.604-0.195-1.204-0.195-1.801v-7.341h5.299v6.377c0,0.612,0.097,1.041,0.29,1.285
			c0.192,0.245,0.482,0.367,0.868,0.367c0.355,0,0.646-0.142,0.869-0.425c0.224-0.282,0.336-0.691,0.336-1.228v-6.377h5.299V241.471
			z"/>
		<path class="st4" d="M265.726,224.128h5.414v17.343h-5.414V224.128z"/>
		<path class="st4" d="M285.89,241.471h-5.161v-1.33h-0.046c-0.307,0.443-0.761,0.829-1.365,1.158
			c-0.604,0.328-1.296,0.493-2.076,0.493c-0.856,0-1.56-0.149-2.11-0.447c-0.551-0.299-0.99-0.688-1.319-1.17
			c-0.328-0.482-0.558-1.024-0.688-1.629c-0.13-0.604-0.195-1.204-0.195-1.801v-7.341h5.299v6.377c0,0.612,0.097,1.041,0.29,1.285
			c0.192,0.245,0.482,0.367,0.868,0.367c0.355,0,0.646-0.142,0.869-0.425c0.224-0.282,0.336-0.691,0.336-1.228v-6.377h5.299V241.471
			z"/>
		<path class="st4" d="M295.249,241.471v-6.331c0-0.612-0.077-1.056-0.229-1.331c-0.153-0.275-0.405-0.413-0.757-0.413
			c-0.261,0-0.509,0.123-0.746,0.367c-0.237,0.245-0.355,0.681-0.355,1.308v6.4h-5.299v-12.066h5.161v1.33h0.046
			c0.153-0.198,0.341-0.394,0.562-0.585c0.222-0.19,0.474-0.366,0.757-0.527c0.283-0.16,0.6-0.29,0.952-0.39
			c0.352-0.1,0.734-0.149,1.146-0.149c0.795,0,1.483,0.142,2.065,0.425c0.58,0.283,1.039,0.723,1.376,1.318
			c0.397-0.489,0.887-0.901,1.468-1.238c0.581-0.336,1.315-0.505,2.202-0.505c0.856,0,1.563,0.169,2.122,0.505
			c0.559,0.337,1.002,0.757,1.331,1.262c0.328,0.505,0.558,1.052,0.688,1.641s0.195,1.135,0.195,1.64v7.341h-5.299v-6.423
			c0-0.657-0.08-1.098-0.241-1.319c-0.16-0.222-0.409-0.333-0.745-0.333c-0.307,0-0.566,0.142-0.78,0.425s-0.321,0.699-0.321,1.25
			v6.4H295.249z"/>
	</g>
</g>
</svg>
