<?xml version="1.0" encoding="utf-8"?>
<!-- Generator: Adobe Illustrator 24.0.2, SVG Export Plug-In . SVG Version: 6.00 Build 0)  -->
<svg version="1.1" id="Layer_1" xmlns="http://www.w3.org/2000/svg" xmlns:xlink="http://www.w3.org/1999/xlink" x="0px" y="0px"
	 viewBox="0 0 350 350" style="enable-background:new 0 0 350 350;" xml:space="preserve">
<style type="text/css">
	.st0{fill:#E5D60F;}
	.st1{opacity:0.1;}
	.st2{clip-path:url(#SVGID_2_);fill:#FFFFFF;}
	.st3{clip-path:url(#SVGID_4_);fill:#FFFFFF;}
	.st4{fill:#FFFFFF;}
	.st5{fill:none;}
	.st6{fill:#F2E20F;}
</style>
<g id="Layer_1_1_">
	<rect y="0" class="st0" width="350" height="350"/>
	<g class="st1">
		<g>
			<g>
				<defs>
					<rect id="SVGID_1_" y="0" width="350" height="350"/>
				</defs>
				<clipPath id="SVGID_2_">
					<use xlink:href="#SVGID_1_"  style="overflow:visible;"/>
				</clipPath>
				<path class="st2" d="M350,0c0,0-30.3,77.8-155.3,107.3C69.7,136.8,19.7,193.1,0,258.8V350h350V0z"/>
			</g>
		</g>
	</g>
	<g class="st1">
		<g>
			<g>
				<defs>
					<rect id="SVGID_3_" x="0.1" y="0.1" width="349.9" height="349.9"/>
				</defs>
				<clipPath id="SVGID_4_">
					<use xlink:href="#SVGID_3_"  style="overflow:visible;"/>
				</clipPath>
				<path class="st3" d="M272.4,0.1c0,0,14.5,81.3-109.2,137.9S13.2,225.5,0.1,254.3V350H350V0.1H272.4z"/>
			</g>
		</g>
	</g>
	<path class="st4" d="M239.5,115.1c0,35.5-28.7,64.2-64.2,64.2s-64.2-28.7-64.2-64.2S139.8,51,175.3,51
		C210.7,51,239.5,79.7,239.5,115.1"/>
	<g>
		<g>
			<g>
				<polygon class="st5" points="152.9,82.7 152.9,145 186.7,145 204.6,126 204.6,82.7 				"/>
				<path class="st6" d="M187.9,147.8h-37.8V79.9h57.3v47.2L187.9,147.8z M155.7,142.2h29.8l16.4-17.3V85.5h-46.2L155.7,142.2
					L155.7,142.2z"/>
			</g>
			<g>
				<polygon class="st6" points="186.7,145 186.7,126 204.6,126 				"/>
				<path class="st6" d="M185.8,147.3V125h21L185.8,147.3z M187.6,126.9v15.7l14.9-15.7H187.6z"/>
			</g>
		</g>
		<g>
			<rect x="170" y="108.6" class="st6" width="16.7" height="5.6"/>
		</g>
	</g>
	<g>
		<path class="st6" d="M166.8,98.6c0-1.9,0.4-3.3,1.1-4.1c0.7-0.8,1.8-1.2,3.2-1.2c0.7,0,1.3,0.1,1.7,0.3c0.4,0.2,0.8,0.4,1.1,0.7
			c0.3,0.3,0.5,0.6,0.7,0.9c0.2,0.3,0.3,0.7,0.4,1.1c0.2,0.8,0.3,1.6,0.3,2.4c0,1.9-0.3,3.2-0.9,4.1c-0.6,0.9-1.7,1.3-3.2,1.3
			c-0.9,0-1.6-0.1-2.1-0.4c-0.5-0.3-1-0.7-1.3-1.2c-0.2-0.4-0.4-0.9-0.6-1.5C166.8,100.1,166.8,99.4,166.8,98.6z M169.6,98.6
			c0,1.3,0.1,2.2,0.3,2.7c0.2,0.5,0.6,0.7,1,0.7c0.3,0,0.5-0.1,0.8-0.3c0.2-0.2,0.4-0.5,0.5-1c0.1-0.4,0.1-1.1,0.1-2
			c0-1.4-0.1-2.3-0.3-2.7s-0.6-0.7-1-0.7c-0.5,0-0.8,0.2-1,0.7C169.7,96.4,169.6,97.3,169.6,98.6z"/>
		<path class="st6" d="M176,98.9h4.1v2.2H176V98.9z"/>
		<path class="st6" d="M189.4,103.7h-8.5c0.1-0.8,0.4-1.6,0.9-2.4c0.5-0.7,1.4-1.6,2.8-2.6c0.8-0.6,1.4-1.1,1.6-1.4s0.3-0.6,0.3-0.9
			c0-0.3-0.1-0.6-0.3-0.8c-0.2-0.2-0.5-0.3-0.9-0.3c-0.4,0-0.7,0.1-0.9,0.3c-0.2,0.2-0.4,0.6-0.5,1.2l-2.8-0.2
			c0.1-0.8,0.3-1.4,0.6-1.9c0.3-0.4,0.7-0.8,1.3-1c0.5-0.2,1.3-0.4,2.2-0.4c1,0,1.8,0.1,2.3,0.3s1,0.6,1.3,1.1
			c0.3,0.5,0.5,1,0.5,1.6c0,0.6-0.2,1.2-0.5,1.8s-1,1.2-2,1.9c-0.6,0.4-1,0.7-1.1,0.8c-0.2,0.2-0.4,0.4-0.7,0.6h4.4L189.4,103.7
			L189.4,103.7z"/>
	</g>
</g>
<g id="text">
	<g>
		<path class="st4" d="M64.1,251.9h5.3v11.2h5.2v4.5H64.1V251.9z"/>
		<path class="st4" d="M87.7,261.9c0,0.2,0,0.4,0,0.6c0,0.2,0,0.4,0,0.5h-7.8c0,0.2,0.1,0.4,0.2,0.6c0.1,0.2,0.3,0.3,0.5,0.4
			c0.2,0.1,0.4,0.2,0.6,0.3c0.2,0.1,0.5,0.1,0.7,0.1c0.5,0,0.9-0.1,1.2-0.3c0.3-0.2,0.6-0.4,0.7-0.6l3.6,1.8c-0.5,0.8-1.3,1.5-2.3,2
			c-1,0.5-2.1,0.7-3.4,0.7c-0.8,0-1.7-0.1-2.5-0.4s-1.5-0.7-2.1-1.2c-0.6-0.5-1.1-1.2-1.5-2c-0.4-0.8-0.6-1.7-0.6-2.7
			c0-1,0.2-1.8,0.5-2.6c0.3-0.8,0.8-1.4,1.4-2c0.6-0.5,1.3-1,2.1-1.3c0.8-0.3,1.6-0.4,2.5-0.4c0.9,0,1.8,0.2,2.5,0.5
			c0.8,0.3,1.4,0.8,1.9,1.3s1,1.2,1.3,2C87.5,260.1,87.7,261,87.7,261.9z M83.3,260.2c0-0.4-0.2-0.8-0.5-1c-0.3-0.3-0.7-0.4-1.2-0.4
			c-0.6,0-1,0.2-1.3,0.5c-0.3,0.3-0.5,0.6-0.5,1H83.3z"/>
		<path class="st4" d="M87.7,256h5.7l1.7,6.3h0.1l1.6-6.3h5.5l-4.5,11.7h-5.6L87.7,256z"/>
		<path class="st4" d="M115,261.9c0,0.2,0,0.4,0,0.6c0,0.2,0,0.4,0,0.5h-7.8c0,0.2,0.1,0.4,0.2,0.6c0.1,0.2,0.3,0.3,0.5,0.4
			c0.2,0.1,0.4,0.2,0.6,0.3c0.2,0.1,0.5,0.1,0.7,0.1c0.5,0,0.9-0.1,1.2-0.3c0.3-0.2,0.6-0.4,0.7-0.6l3.6,1.8c-0.5,0.8-1.3,1.5-2.3,2
			c-1,0.5-2.1,0.7-3.4,0.7c-0.8,0-1.7-0.1-2.5-0.4s-1.5-0.7-2.1-1.2c-0.6-0.5-1.1-1.2-1.5-2c-0.4-0.8-0.6-1.7-0.6-2.7
			c0-1,0.2-1.8,0.5-2.6c0.3-0.8,0.8-1.4,1.4-2c0.6-0.5,1.3-1,2.1-1.3c0.8-0.3,1.6-0.4,2.5-0.4c0.9,0,1.8,0.2,2.5,0.5
			c0.8,0.3,1.4,0.8,1.9,1.3s1,1.2,1.3,2C114.8,260.1,115,261,115,261.9z M110.6,260.2c0-0.4-0.2-0.8-0.5-1c-0.3-0.3-0.7-0.4-1.2-0.4
			c-0.6,0-1,0.2-1.3,0.5c-0.3,0.3-0.5,0.6-0.5,1H110.6z"/>
		<path class="st4" d="M116.3,250.9h5.2v16.8h-5.2V250.9z"/>
		<path class="st4" d="M140.8,268.1c-1,0-1.8-0.1-2.5-0.4c-0.7-0.3-1.3-0.6-1.9-1c-0.5-0.4-0.9-0.9-1.3-1.5
			c-0.3-0.6-0.6-1.2-0.8-1.8c-0.2-0.6-0.3-1.2-0.4-1.9c-0.1-0.6-0.1-1.2-0.1-1.8c0-0.6,0-1.2,0.1-1.8c0.1-0.6,0.2-1.3,0.4-1.9
			c0.2-0.6,0.5-1.2,0.8-1.7c0.3-0.5,0.8-1,1.3-1.4c0.5-0.4,1.1-0.7,1.9-1c0.7-0.2,1.6-0.4,2.5-0.4c1.4,0,2.6,0.3,3.5,0.8
			c0.9,0.5,1.6,1.2,2.2,2s0.9,1.7,1.1,2.7c0.2,1,0.3,1.9,0.3,2.8c0,0.6,0,1.2-0.1,1.8c-0.1,0.6-0.2,1.3-0.4,1.9
			c-0.2,0.6-0.5,1.2-0.8,1.8c-0.3,0.6-0.8,1.1-1.3,1.5c-0.5,0.4-1.1,0.8-1.9,1C142.6,267.9,141.7,268.1,140.8,268.1z M140.8,256
			c-0.3,0-0.6,0.1-0.8,0.3s-0.4,0.5-0.5,0.9c-0.1,0.4-0.2,0.8-0.2,1.2c0,0.4-0.1,0.9-0.1,1.3c0,0.4,0,0.9,0.1,1.3s0.1,0.9,0.2,1.2
			c0.1,0.4,0.3,0.7,0.5,0.9s0.5,0.3,0.8,0.3s0.6-0.1,0.8-0.3s0.4-0.5,0.5-0.9c0.1-0.4,0.2-0.8,0.2-1.2c0-0.5,0.1-0.9,0.1-1.3
			c0-0.4,0-0.8-0.1-1.3c0-0.4-0.1-0.8-0.2-1.2c-0.1-0.4-0.3-0.6-0.5-0.9S141.1,256,140.8,256z"/>
		<path class="st4" d="M148.8,270.3l1.8-6.9h4.8l-2.5,6.9H148.8z"/>
		<path class="st4" d="M162.9,257.5l-2.6,1.8l-2.5-3.9l5.6-3.5h4.9v15.7h-5.3V257.5z"/>
		<path class="st4" d="M184.9,260.2c0-0.4-0.1-0.6-0.4-0.8c-0.2-0.2-0.6-0.3-1-0.3c-0.5,0-0.9,0.1-1.3,0.3c-0.4,0.2-0.8,0.4-1.1,0.7
			l-2.6-2.5c0.7-0.7,1.6-1.2,2.5-1.6c1-0.4,2-0.6,3-0.6c1.1,0,2,0.2,2.8,0.5c0.7,0.3,1.3,0.7,1.7,1.3c0.4,0.5,0.7,1.2,0.9,1.9
			s0.3,1.5,0.3,2.3v6.1h-4.6v-0.9h0c-0.3,0.4-0.7,0.8-1.3,1c-0.5,0.2-1.1,0.3-1.6,0.3c-0.5,0-0.9-0.1-1.4-0.2
			c-0.5-0.1-0.9-0.3-1.3-0.6c-0.4-0.3-0.7-0.7-1-1.2s-0.4-1.1-0.4-1.8c0-0.8,0.2-1.5,0.6-2s1-0.9,1.6-1.2c0.6-0.3,1.4-0.5,2.2-0.6
			C183.4,260.3,184.2,260.3,184.9,260.2L184.9,260.2L184.9,260.2z M185,262.8c-0.8,0-1.4,0.1-1.8,0.2c-0.5,0.2-0.7,0.5-0.7,0.9
			c0,0.2,0,0.3,0.1,0.4c0.1,0.1,0.2,0.2,0.3,0.3c0.1,0.1,0.2,0.1,0.4,0.2s0.3,0.1,0.4,0.1c0.5,0,0.9-0.2,1.2-0.5s0.4-0.7,0.4-1.2
			v-0.4H185L185,262.8z"/>
		<path class="st4" d="M191.8,256h5v1.3h0c0.3-0.4,0.7-0.8,1.3-1.1c0.6-0.3,1.2-0.5,2-0.5c0.8,0,1.5,0.1,2,0.4
			c0.5,0.3,1,0.7,1.3,1.1c0.3,0.5,0.5,1,0.7,1.6c0.1,0.6,0.2,1.2,0.2,1.7v7.1h-5.1v-6.2c0-0.6-0.1-1-0.3-1.2
			c-0.2-0.2-0.5-0.4-0.8-0.4c-0.3,0-0.6,0.1-0.8,0.4c-0.2,0.3-0.3,0.7-0.3,1.2v6.2h-5.1L191.8,256L191.8,256z"/>
		<path class="st4" d="M206.2,261.8c0-0.8,0.1-1.5,0.3-2.2c0.2-0.7,0.6-1.4,1-2c0.4-0.6,1-1,1.7-1.4c0.7-0.4,1.4-0.5,2.3-0.5
			c0.6,0,1.1,0.1,1.7,0.3c0.6,0.2,1,0.5,1.4,0.9h0v-6h5.1v16.8h-4.6v-1.2h0c-0.3,0.5-0.8,0.8-1.5,1.1c-0.6,0.3-1.3,0.4-2.1,0.4
			c-0.9,0-1.6-0.2-2.3-0.5c-0.7-0.4-1.2-0.8-1.7-1.4c-0.4-0.6-0.8-1.2-1-2C206.3,263.3,206.2,262.5,206.2,261.8z M210.9,261.8
			c0,0.6,0.2,1,0.5,1.4c0.3,0.4,0.8,0.6,1.4,0.6c0.6,0,1.1-0.2,1.5-0.6c0.4-0.4,0.5-0.8,0.5-1.4c0-0.5-0.2-1-0.5-1.4
			c-0.4-0.4-0.8-0.6-1.5-0.6c-0.6,0-1.1,0.2-1.4,0.6C211.1,260.8,210.9,261.2,210.9,261.8z"/>
		<path class="st4" d="M234,258.6c0.3-0.2,0.5-0.4,0.6-0.6c0.2-0.2,0.2-0.5,0.2-0.7c0-0.3-0.1-0.6-0.3-0.8s-0.5-0.3-0.9-0.3
			c-0.4,0-0.8,0.2-1.1,0.5c-0.3,0.3-0.4,0.8-0.5,1.4l-5-0.6c0.1-1,0.4-1.9,0.8-2.6c0.4-0.7,1-1.4,1.6-1.8c0.6-0.5,1.4-0.8,2.1-1.1
			s1.6-0.3,2.5-0.3c0.8,0,1.5,0.1,2.3,0.3c0.8,0.2,1.4,0.5,2,0.9c0.6,0.4,1.1,0.9,1.4,1.6c0.4,0.6,0.6,1.4,0.6,2.4
			c0,0.6-0.1,1.2-0.3,1.7c-0.2,0.5-0.4,0.9-0.7,1.3c-0.3,0.4-0.6,0.7-1,1s-0.7,0.6-1.1,0.9l-2.3,1.6h5.4v4.4h-12.7v-4.1L234,258.6z"
			/>
	</g>
</g>
<g>
	<path class="st4" d="M68.3,246.1c-0.6,0-1.2-0.1-1.8-0.2c-0.6-0.1-1.2-0.3-1.7-0.5c-0.6-0.2-1.1-0.5-1.6-0.7
		c-0.5-0.3-0.9-0.6-1.3-0.9l3.1-3.4c0.4,0.4,0.8,0.7,1.4,1c0.6,0.3,1.2,0.5,1.9,0.5c0.3,0,0.6-0.1,0.8-0.2s0.4-0.3,0.4-0.6
		c0-0.1,0-0.3-0.1-0.4c-0.1-0.1-0.2-0.2-0.4-0.3c-0.2-0.1-0.5-0.2-0.8-0.4c-0.4-0.1-0.8-0.3-1.3-0.5c-0.5-0.2-1-0.4-1.5-0.6
		c-0.5-0.2-0.9-0.5-1.3-0.9s-0.7-0.8-0.9-1.2c-0.2-0.5-0.3-1.1-0.3-1.7c0-1,0.2-1.8,0.6-2.4c0.4-0.7,0.9-1.2,1.5-1.6
		s1.3-0.7,2.1-0.9c0.8-0.2,1.5-0.3,2.3-0.3c1,0,2,0.2,3.1,0.6c1,0.4,2,1,2.8,1.7l-3.2,3.3c-0.3-0.4-0.8-0.8-1.3-1
		c-0.5-0.2-1-0.3-1.4-0.3c-0.4,0-0.7,0.1-0.9,0.2c-0.2,0.1-0.3,0.3-0.3,0.5c0,0.2,0.1,0.4,0.4,0.5c0.2,0.1,0.6,0.3,1.2,0.4
		c0.5,0.2,1.1,0.4,1.7,0.6c0.6,0.2,1.2,0.5,1.7,0.9c0.5,0.4,0.9,0.8,1.3,1.4s0.5,1.2,0.5,2c0,0.9-0.2,1.7-0.6,2.4
		c-0.4,0.7-0.9,1.3-1.5,1.7c-0.6,0.5-1.3,0.8-2,1C69.8,246,69,246.1,68.3,246.1z"/>
	<path class="st4" d="M82.1,246.1c-1,0-1.9-0.1-2.7-0.4c-0.8-0.3-1.5-0.7-2.1-1.2c-0.6-0.5-1.1-1.2-1.4-1.9
		c-0.3-0.8-0.5-1.6-0.5-2.5c0-0.9,0.2-1.8,0.5-2.5c0.3-0.8,0.8-1.4,1.4-1.9c0.6-0.5,1.3-0.9,2.1-1.2c0.8-0.3,1.7-0.4,2.7-0.4
		c0.4,0,0.8,0,1.2,0.1c0.4,0.1,0.8,0.2,1.1,0.3c0.4,0.1,0.7,0.2,1,0.4c0.3,0.1,0.6,0.3,0.8,0.5l-2.5,3.6c-0.2-0.2-0.4-0.3-0.7-0.4
		c-0.3-0.1-0.6-0.2-0.8-0.2c-0.2,0-0.5,0-0.7,0.1s-0.4,0.2-0.6,0.4c-0.2,0.2-0.3,0.4-0.4,0.6c-0.1,0.2-0.2,0.5-0.2,0.8
		c0,0.3,0.1,0.6,0.2,0.8c0.1,0.2,0.3,0.4,0.4,0.6c0.2,0.2,0.4,0.3,0.6,0.3c0.2,0.1,0.5,0.1,0.7,0.1c0.3,0,0.6-0.1,0.8-0.2
		c0.3-0.1,0.5-0.3,0.7-0.4l2.5,3.5c-0.5,0.4-1.1,0.7-1.9,0.9C83.7,246,82.9,246.1,82.1,246.1z"/>
	<path class="st4" d="M99.4,239.9c0,1-0.2,1.9-0.5,2.6c-0.4,0.8-0.8,1.4-1.4,1.9c-0.6,0.5-1.3,0.9-2.1,1.2s-1.6,0.4-2.5,0.4
		c-0.9,0-1.7-0.1-2.5-0.4c-0.8-0.3-1.5-0.7-2.1-1.2s-1.1-1.2-1.4-1.9c-0.4-0.8-0.5-1.6-0.5-2.6c0-1,0.2-1.8,0.5-2.6
		c0.4-0.8,0.8-1.4,1.4-1.9c0.6-0.5,1.3-0.9,2.1-1.2c0.8-0.3,1.6-0.4,2.5-0.4c0.9,0,1.7,0.1,2.5,0.4c0.8,0.3,1.5,0.7,2.1,1.2
		c0.6,0.5,1.1,1.2,1.4,1.9C99.3,238.1,99.4,238.9,99.4,239.9z M92.9,238c-0.5,0-1,0.2-1.3,0.6s-0.5,0.8-0.5,1.3c0,0.5,0.2,1,0.5,1.4
		s0.8,0.6,1.3,0.6s1-0.2,1.3-0.6s0.5-0.8,0.5-1.4c0-0.5-0.2-0.9-0.5-1.3C93.9,238.2,93.5,238,92.9,238z"/>
	<path class="st4" d="M108.9,246c-0.6,0-1.1-0.1-1.7-0.3s-1-0.5-1.3-0.9h0v6.1h-5v-16.6h4.7v1.1h0c0.4-0.5,0.9-0.8,1.5-1.1
		c0.6-0.2,1.2-0.4,1.7-0.4c0.9,0,1.6,0.2,2.3,0.5s1.2,0.8,1.6,1.4s0.8,1.2,1,1.9c0.2,0.7,0.3,1.4,0.3,2.2c0,0.8-0.1,1.5-0.3,2.2
		c-0.2,0.7-0.6,1.4-1,1.9c-0.4,0.6-1,1-1.6,1.4S109.7,246,108.9,246z M109.4,239.9c0-0.5-0.2-0.9-0.5-1.3c-0.3-0.4-0.8-0.6-1.4-0.6
		c-0.6,0-1.1,0.2-1.4,0.6c-0.4,0.4-0.5,0.8-0.5,1.3c0,0.5,0.2,1,0.5,1.4c0.4,0.4,0.8,0.6,1.4,0.6c0.6,0,1.1-0.2,1.4-0.6
		C109.3,240.9,109.4,240.5,109.4,239.9z"/>
	<path class="st4" d="M127.4,240.1c0,0.2,0,0.4,0,0.6s0,0.4,0,0.5h-7.7c0,0.2,0.1,0.4,0.2,0.5c0.1,0.2,0.3,0.3,0.5,0.4
		c0.2,0.1,0.4,0.2,0.6,0.3c0.2,0.1,0.5,0.1,0.7,0.1c0.5,0,0.8-0.1,1.2-0.2s0.5-0.3,0.7-0.6l3.6,1.8c-0.5,0.8-1.2,1.5-2.2,2
		c-1,0.5-2.1,0.7-3.3,0.7c-0.8,0-1.6-0.1-2.4-0.4c-0.8-0.3-1.5-0.6-2.1-1.2c-0.6-0.5-1.1-1.2-1.4-1.9c-0.4-0.8-0.5-1.7-0.5-2.7
		c0-0.9,0.2-1.8,0.5-2.5c0.3-0.8,0.8-1.4,1.4-1.9c0.6-0.5,1.2-0.9,2-1.2c0.8-0.3,1.6-0.4,2.5-0.4c0.9,0,1.7,0.2,2.4,0.5
		c0.7,0.3,1.4,0.7,1.9,1.3c0.5,0.6,0.9,1.2,1.2,2C127.2,238.3,127.4,239.2,127.4,240.1z M123.1,238.4c0-0.4-0.1-0.7-0.4-1
		c-0.3-0.3-0.7-0.4-1.2-0.4c-0.5,0-1,0.2-1.3,0.5c-0.3,0.3-0.5,0.6-0.5,0.9H123.1z"/>
	<path class="st4" d="M139.8,238.4c0-0.3-0.1-0.6-0.4-0.8c-0.2-0.2-0.6-0.2-0.9-0.2c-0.5,0-0.9,0.1-1.3,0.3
		c-0.4,0.2-0.8,0.4-1.1,0.7l-2.5-2.5c0.7-0.7,1.5-1.2,2.5-1.5c1-0.4,1.9-0.5,2.9-0.5c1.1,0,2,0.2,2.7,0.5c0.7,0.3,1.3,0.7,1.7,1.3
		c0.4,0.5,0.7,1.2,0.9,1.9c0.2,0.7,0.2,1.5,0.2,2.3v6h-4.5v-0.9h0c-0.3,0.4-0.7,0.7-1.2,0.9s-1.1,0.3-1.6,0.3
		c-0.4,0-0.9-0.1-1.4-0.2c-0.5-0.1-0.9-0.3-1.3-0.6s-0.7-0.7-0.9-1.1s-0.4-1-0.4-1.7c0-0.8,0.2-1.4,0.6-1.9c0.4-0.5,0.9-0.9,1.6-1.2
		c0.6-0.3,1.3-0.5,2.1-0.6C138.3,238.5,139,238.5,139.8,238.4L139.8,238.4z M139.8,240.9c-0.7,0-1.3,0.1-1.8,0.2s-0.7,0.5-0.7,0.9
		c0,0.2,0,0.3,0.1,0.4c0.1,0.1,0.2,0.2,0.3,0.3c0.1,0.1,0.2,0.1,0.4,0.2c0.1,0,0.3,0.1,0.4,0.1c0.5,0,0.9-0.2,1.1-0.5
		s0.4-0.7,0.4-1.2v-0.4H139.8z"/>
	<path class="st4" d="M146.1,234.3h4.9v1.3h0c0.3-0.4,0.7-0.8,1.3-1.1c0.6-0.3,1.2-0.5,2-0.5c0.8,0,1.5,0.1,2,0.4
		c0.5,0.3,0.9,0.7,1.3,1.1s0.5,1,0.6,1.5s0.2,1.1,0.2,1.7v6.9h-5v-6.1c0-0.6-0.1-1-0.3-1.2c-0.2-0.2-0.5-0.3-0.8-0.3
		c-0.3,0-0.6,0.1-0.8,0.4c-0.2,0.3-0.3,0.7-0.3,1.2v6.1h-5V234.3z"/>
	<path class="st4" d="M159.7,239.9c0-0.7,0.1-1.5,0.3-2.2c0.2-0.7,0.6-1.3,1-1.9c0.4-0.6,1-1,1.6-1.4s1.4-0.5,2.3-0.5
		c0.5,0,1.1,0.1,1.6,0.3c0.5,0.2,1,0.5,1.3,0.9h0v-5.9h5v16.4h-4.5v-1.2h0c-0.3,0.5-0.8,0.8-1.5,1.1c-0.6,0.3-1.3,0.4-2,0.4
		c-0.9,0-1.6-0.2-2.3-0.5c-0.7-0.3-1.2-0.8-1.6-1.4c-0.4-0.6-0.8-1.2-1-1.9C159.8,241.4,159.7,240.7,159.7,239.9z M164.3,239.9
		c0,0.5,0.2,1,0.5,1.4c0.3,0.4,0.8,0.6,1.4,0.6c0.6,0,1.1-0.2,1.4-0.6c0.4-0.4,0.5-0.8,0.5-1.4c0-0.5-0.2-0.9-0.5-1.3
		c-0.4-0.4-0.8-0.6-1.4-0.6c-0.6,0-1.1,0.2-1.4,0.6C164.5,239,164.3,239.4,164.3,239.9z"/>
	<path class="st4" d="M185.1,246.1c-0.6,0-1.2-0.1-1.8-0.2c-0.6-0.1-1.2-0.3-1.7-0.5c-0.6-0.2-1.1-0.5-1.6-0.7s-0.9-0.6-1.3-0.9
		l3.1-3.4c0.4,0.4,0.8,0.7,1.4,1c0.6,0.3,1.2,0.5,1.9,0.5c0.3,0,0.6-0.1,0.8-0.2s0.4-0.3,0.4-0.6c0-0.1,0-0.3-0.1-0.4
		c-0.1-0.1-0.2-0.2-0.4-0.3s-0.5-0.2-0.8-0.4c-0.4-0.1-0.8-0.3-1.3-0.5c-0.5-0.2-1-0.4-1.5-0.6c-0.5-0.2-0.9-0.5-1.3-0.9
		s-0.7-0.8-0.9-1.2c-0.2-0.5-0.3-1.1-0.3-1.7c0-1,0.2-1.8,0.6-2.4c0.4-0.7,0.9-1.2,1.5-1.6c0.6-0.4,1.3-0.7,2.1-0.9s1.5-0.3,2.3-0.3
		c1,0,2,0.2,3.1,0.6s2,1,2.8,1.7l-3.2,3.3c-0.3-0.4-0.8-0.8-1.3-1c-0.5-0.2-1-0.3-1.4-0.3c-0.4,0-0.7,0.1-0.9,0.2
		c-0.2,0.1-0.3,0.3-0.3,0.5c0,0.2,0.1,0.4,0.4,0.5c0.2,0.1,0.6,0.3,1.2,0.4c0.5,0.2,1.1,0.4,1.7,0.6c0.6,0.2,1.2,0.5,1.7,0.9
		s0.9,0.8,1.3,1.4s0.5,1.2,0.5,2c0,0.9-0.2,1.7-0.6,2.4c-0.4,0.7-0.9,1.3-1.5,1.7s-1.3,0.8-2,1S185.9,246.1,185.1,246.1z"/>
	<path class="st4" d="M204.6,240.1c0,0.2,0,0.4,0,0.6c0,0.2,0,0.4,0,0.5h-7.7c0,0.2,0.1,0.4,0.2,0.5c0.1,0.2,0.3,0.3,0.5,0.4
		c0.2,0.1,0.4,0.2,0.6,0.3c0.2,0.1,0.5,0.1,0.7,0.1c0.5,0,0.8-0.1,1.2-0.2s0.5-0.3,0.7-0.6l3.6,1.8c-0.5,0.8-1.2,1.5-2.2,2
		c-1,0.5-2.1,0.7-3.3,0.7c-0.8,0-1.6-0.1-2.4-0.4c-0.8-0.3-1.5-0.6-2.1-1.2c-0.6-0.5-1.1-1.2-1.4-1.9c-0.4-0.8-0.5-1.7-0.5-2.7
		c0-0.9,0.2-1.8,0.5-2.5c0.3-0.8,0.8-1.4,1.4-1.9c0.6-0.5,1.2-0.9,2-1.2c0.8-0.3,1.6-0.4,2.5-0.4c0.9,0,1.7,0.2,2.4,0.5
		c0.7,0.3,1.4,0.7,1.9,1.3s0.9,1.2,1.2,2S204.6,239.2,204.6,240.1z M200.3,238.4c0-0.4-0.1-0.7-0.4-1c-0.3-0.3-0.7-0.4-1.2-0.4
		c-0.5,0-1,0.2-1.3,0.5c-0.3,0.3-0.5,0.6-0.5,0.9H200.3z"/>
	<path class="st4" d="M210.7,246c-0.9,0-1.6-0.2-2.2-0.5s-1.2-0.8-1.6-1.4c-0.4-0.6-0.8-1.2-1-1.9c-0.2-0.7-0.3-1.5-0.3-2.2
		c0-0.7,0.1-1.5,0.3-2.2c0.2-0.7,0.6-1.3,1-1.9c0.4-0.6,1-1,1.6-1.4c0.7-0.3,1.4-0.5,2.3-0.5c0.6,0,1.1,0.1,1.7,0.4
		c0.6,0.2,1.1,0.6,1.5,1.1h0v-1.1h4.7v16.6h-5v-6.1h0c-0.3,0.4-0.8,0.7-1.3,0.9C211.8,245.8,211.2,246,210.7,246z M210.1,239.9
		c0,0.5,0.2,1,0.5,1.4c0.3,0.4,0.8,0.6,1.4,0.6c0.6,0,1.1-0.2,1.4-0.6c0.4-0.4,0.5-0.8,0.5-1.4c0-0.5-0.2-0.9-0.5-1.3
		c-0.4-0.4-0.8-0.6-1.4-0.6c-0.6,0-1.1,0.2-1.4,0.6C210.3,239,210.1,239.4,210.1,239.9z"/>
	<path class="st4" d="M232.7,245.6h-4.9v-1.3h0c-0.3,0.4-0.7,0.8-1.3,1.1c-0.6,0.3-1.2,0.5-2,0.5c-0.8,0-1.5-0.1-2-0.4
		c-0.5-0.3-0.9-0.7-1.2-1.1c-0.3-0.5-0.5-1-0.6-1.5c-0.1-0.6-0.2-1.1-0.2-1.7v-6.9h5v6c0,0.6,0.1,1,0.3,1.2c0.2,0.2,0.5,0.3,0.8,0.3
		c0.3,0,0.6-0.1,0.8-0.4c0.2-0.3,0.3-0.7,0.3-1.2v-6h5V245.6z"/>
	<path class="st4" d="M246.4,240.1c0,0.2,0,0.4,0,0.6c0,0.2,0,0.4,0,0.5h-7.7c0,0.2,0.1,0.4,0.2,0.5c0.1,0.2,0.3,0.3,0.5,0.4
		c0.2,0.1,0.4,0.2,0.6,0.3c0.2,0.1,0.5,0.1,0.7,0.1c0.5,0,0.8-0.1,1.2-0.2s0.5-0.3,0.7-0.6l3.6,1.8c-0.5,0.8-1.2,1.5-2.2,2
		c-1,0.5-2.1,0.7-3.3,0.7c-0.8,0-1.6-0.1-2.4-0.4c-0.8-0.3-1.5-0.6-2.1-1.2c-0.6-0.5-1.1-1.2-1.4-1.9c-0.4-0.8-0.5-1.7-0.5-2.7
		c0-0.9,0.2-1.8,0.5-2.5c0.3-0.8,0.8-1.4,1.4-1.9c0.6-0.5,1.2-0.9,2-1.2c0.8-0.3,1.6-0.4,2.5-0.4c0.9,0,1.7,0.2,2.4,0.5
		c0.7,0.3,1.4,0.7,1.9,1.3s0.9,1.2,1.2,2S246.4,239.2,246.4,240.1z M242.1,238.4c0-0.4-0.1-0.7-0.4-1c-0.3-0.3-0.7-0.4-1.2-0.4
		c-0.5,0-1,0.2-1.3,0.5c-0.3,0.3-0.5,0.6-0.5,0.9H242.1z"/>
	<path class="st4" d="M247.8,234.3h4.9v1.3h0c0.3-0.4,0.7-0.8,1.3-1.1c0.6-0.3,1.2-0.5,2-0.5c0.8,0,1.5,0.1,2,0.4
		c0.5,0.3,0.9,0.7,1.3,1.1s0.5,1,0.6,1.5c0.1,0.6,0.2,1.1,0.2,1.7v6.9h-5v-6.1c0-0.6-0.1-1-0.3-1.2c-0.2-0.2-0.5-0.3-0.8-0.3
		c-0.3,0-0.6,0.1-0.8,0.4c-0.2,0.3-0.3,0.7-0.3,1.2v6.1h-5V234.3z"/>
	<path class="st4" d="M268,246.1c-1,0-1.9-0.1-2.7-0.4s-1.5-0.7-2.1-1.2c-0.6-0.5-1.1-1.2-1.4-1.9s-0.5-1.6-0.5-2.5
		c0-0.9,0.2-1.8,0.5-2.5c0.3-0.8,0.8-1.4,1.4-1.9c0.6-0.5,1.3-0.9,2.1-1.2c0.8-0.3,1.7-0.4,2.7-0.4c0.4,0,0.8,0,1.2,0.1
		c0.4,0.1,0.8,0.2,1.1,0.3c0.4,0.1,0.7,0.2,1,0.4c0.3,0.1,0.6,0.3,0.8,0.5l-2.5,3.6c-0.2-0.2-0.4-0.3-0.7-0.4
		c-0.3-0.1-0.6-0.2-0.8-0.2c-0.2,0-0.5,0-0.7,0.1c-0.2,0.1-0.4,0.2-0.6,0.4s-0.3,0.4-0.4,0.6c-0.1,0.2-0.2,0.5-0.2,0.8
		c0,0.3,0.1,0.6,0.2,0.8c0.1,0.2,0.3,0.4,0.4,0.6c0.2,0.2,0.4,0.3,0.6,0.3c0.2,0.1,0.5,0.1,0.7,0.1c0.3,0,0.6-0.1,0.8-0.2
		s0.5-0.3,0.7-0.4l2.5,3.5c-0.5,0.4-1.1,0.7-1.9,0.9C269.6,246,268.8,246.1,268,246.1z"/>
	<path class="st4" d="M284.7,240.1c0,0.2,0,0.4,0,0.6c0,0.2,0,0.4,0,0.5H277c0,0.2,0.1,0.4,0.2,0.5c0.1,0.2,0.3,0.3,0.5,0.4
		c0.2,0.1,0.4,0.2,0.6,0.3c0.2,0.1,0.5,0.1,0.7,0.1c0.5,0,0.8-0.1,1.2-0.2s0.5-0.3,0.7-0.6l3.6,1.8c-0.5,0.8-1.2,1.5-2.2,2
		c-1,0.5-2.1,0.7-3.3,0.7c-0.8,0-1.6-0.1-2.4-0.4c-0.8-0.3-1.5-0.6-2.1-1.2c-0.6-0.5-1.1-1.2-1.4-1.9c-0.4-0.8-0.5-1.7-0.5-2.7
		c0-0.9,0.2-1.8,0.5-2.5c0.3-0.8,0.8-1.4,1.4-1.9c0.6-0.5,1.2-0.9,2-1.2c0.8-0.3,1.6-0.4,2.5-0.4c0.9,0,1.7,0.2,2.4,0.5
		c0.7,0.3,1.4,0.7,1.9,1.3s0.9,1.2,1.2,2S284.7,239.2,284.7,240.1z M280.4,238.4c0-0.4-0.1-0.7-0.4-1c-0.3-0.3-0.7-0.4-1.2-0.4
		c-0.5,0-1,0.2-1.3,0.5c-0.3,0.3-0.5,0.6-0.5,0.9H280.4z"/>
	<path class="st4" d="M303.6,239.9c0,1-0.2,1.9-0.5,2.6c-0.4,0.8-0.8,1.4-1.4,1.9c-0.6,0.5-1.3,0.9-2.1,1.2
		c-0.8,0.3-1.6,0.4-2.5,0.4c-0.9,0-1.7-0.1-2.5-0.4s-1.5-0.7-2.1-1.2c-0.6-0.5-1.1-1.2-1.4-1.9c-0.4-0.8-0.5-1.6-0.5-2.6
		c0-1,0.2-1.8,0.5-2.6c0.4-0.8,0.8-1.4,1.4-1.9c0.6-0.5,1.3-0.9,2.1-1.2c0.8-0.3,1.6-0.4,2.5-0.4c0.9,0,1.7,0.1,2.5,0.4
		c0.8,0.3,1.5,0.7,2.1,1.2c0.6,0.5,1.1,1.2,1.4,1.9C303.4,238.1,303.6,238.9,303.6,239.9z M297,238c-0.5,0-1,0.2-1.3,0.6
		c-0.3,0.4-0.5,0.8-0.5,1.3c0,0.5,0.2,1,0.5,1.4s0.8,0.6,1.3,0.6c0.5,0,1-0.2,1.3-0.6s0.5-0.8,0.5-1.4c0-0.5-0.2-0.9-0.5-1.3
		C298,238.2,297.6,238,297,238z"/>
	<path class="st4" d="M312.6,232.6c-0.2,0-0.3-0.1-0.5-0.1c-0.5,0-0.8,0.2-1,0.5c-0.2,0.3-0.3,0.7-0.3,1.1v0.2h2.4v3.6h-2.4v7.8h-5
		v-7.8h-2v-3.6h2V234c0-0.7,0.1-1.4,0.2-2c0.2-0.7,0.5-1.2,0.9-1.7s1-0.9,1.6-1.2c0.7-0.3,1.6-0.4,2.6-0.4c0.3,0,0.7,0,1.2,0.1
		s0.8,0.1,1.1,0.2l-0.3,3.7C313,232.6,312.8,232.6,312.6,232.6z"/>
</g>
</svg>
