<?xml version="1.0" encoding="utf-8"?>
<!-- Generator: Adobe Illustrator 24.0.2, SVG Export Plug-In . SVG Version: 6.00 Build 0)  -->
<svg version="1.1" id="Layer_1" xmlns="http://www.w3.org/2000/svg" xmlns:xlink="http://www.w3.org/1999/xlink" x="0px" y="0px"
	 viewBox="0 0 350 350" style="enable-background:new 0 0 350 350;" xml:space="preserve">
<style type="text/css">
	.st0{fill:#85BE56;}
	.st1{opacity:0.1;}
	.st2{clip-path:url(#SVGID_2_);fill:#FFFFFF;}
	.st3{clip-path:url(#SVGID_4_);fill:#FFFFFF;}
	.st4{fill:#FFFFFF;}
	.st5{fill:none;}
</style>
<g id="Layer_1_1_">
	<rect y="0" class="st0" width="350" height="350"/>
	<g class="st1">
		<g>
			<g>
				<defs>
					<rect id="SVGID_1_" width="350" height="350"/>
				</defs>
				<clipPath id="SVGID_2_">
					<use xlink:href="#SVGID_1_"  style="overflow:visible;"/>
				</clipPath>
				<path class="st2" d="M350,0c0,0-30.3,77.8-155.3,107.3C69.7,136.8,19.7,193.1,0,258.8V350h350V0z"/>
			</g>
		</g>
	</g>
	<g class="st1">
		<g>
			<g>
				<defs>
					<rect id="SVGID_3_" y="0" width="350" height="350"/>
				</defs>
				<clipPath id="SVGID_4_">
					<use xlink:href="#SVGID_3_"  style="overflow:visible;"/>
				</clipPath>
				<path class="st3" d="M272.4,0c0,0,14.5,81.3-109.2,137.9C39.5,194.6,13.2,225.5,0,254.3V350h350V0H272.4z"/>
			</g>
		</g>
	</g>
	<path class="st4" d="M238.2,112c0,34.9-28.3,63.2-63.2,63.2s-63.2-28.3-63.2-63.2s28.3-63.2,63.2-63.2S238.2,77.1,238.2,112"/>
	<g>
		<g>
			<g>
				<polygon class="st5" points="154.2,82.3 154.2,143.6 187.5,143.6 205.2,124.9 205.2,82.3 				"/>
				<path class="st0" d="M188.7,146.3h-37.2V79.5h56.4V126L188.7,146.3z M157,140.9h29.4l16.1-17.1V85H157V140.9z"/>
			</g>
			<g>
				<polygon class="st0" points="187.5,143.6 187.5,124.9 205.2,124.9 				"/>
				<path class="st0" d="M186.6,145.9V124h20.7L186.6,145.9z M188.4,125.8v15.5l14.6-15.5C203.1,125.8,188.4,125.8,188.4,125.8z"/>
			</g>
		</g>
		<g>
			<rect x="171.1" y="107.8" class="st0" width="16.4" height="5.5"/>
		</g>
		<g>
			<path class="st0" d="M171.4,90.3v11.5h-3.2v-7.5c-0.5,0.4-1,0.7-1.5,0.9s-1.1,0.5-1.8,0.7v-2.6c1.1-0.3,1.9-0.8,2.5-1.2
				c0.6-0.5,1.1-1.1,1.4-1.8C168.8,90.3,171.4,90.3,171.4,90.3z"/>
			<path class="st0" d="M174.5,96.5h4.6v2.4h-4.6V96.5z"/>
			<path class="st0" d="M187.2,95.7c-0.5-0.3-0.9-0.6-1.1-0.9c-0.3-0.4-0.5-1-0.5-1.5c0-0.9,0.4-1.7,1.3-2.3
				c0.7-0.5,1.6-0.7,2.8-0.7c1.5,0,2.6,0.3,3.4,0.9c0.7,0.6,1.1,1.3,1.1,2.2c0,0.5-0.1,1-0.4,1.4c-0.2,0.3-0.6,0.6-1,1
				c0.6,0.3,1.1,0.7,1.4,1.2c0.3,0.5,0.5,1,0.5,1.6c0,0.6-0.1,1.1-0.4,1.6c-0.3,0.5-0.6,0.9-1,1.1s-0.8,0.5-1.4,0.6
				s-1.2,0.2-1.8,0.2c-1.2,0-2.1-0.1-2.7-0.4c-0.6-0.3-1.1-0.7-1.4-1.2s-0.5-1.2-0.5-1.8c0-0.7,0.2-1.2,0.5-1.7
				C186.1,96.4,186.5,96,187.2,95.7z M188.4,98.4c0,0.5,0.2,0.9,0.5,1.2c0.3,0.3,0.7,0.5,1,0.5c0.4,0,0.7-0.2,1-0.5
				c0.3-0.3,0.4-0.7,0.4-1.2c0-0.5-0.1-0.9-0.5-1.2c-0.3-0.3-0.6-0.5-1-0.5c-0.4,0-0.7,0.2-1,0.5C188.6,97.4,188.4,97.9,188.4,98.4z
				 M188.6,93.5c0,0.4,0.1,0.7,0.4,0.9c0.2,0.2,0.6,0.4,1,0.4c0.4,0,0.7-0.1,0.9-0.4c0.2-0.2,0.3-0.5,0.3-0.9c0-0.4-0.1-0.7-0.4-1
				s-0.6-0.4-0.9-0.4c-0.4,0-0.7,0.1-0.9,0.4C188.7,92.8,188.6,93.1,188.6,93.5z"/>
		</g>
	</g>
</g>
<g id="text">
	<g>
		<path class="st4" d="M61.1,246.2c-1.2,0-2.4-0.2-3.4-0.6c-1-0.4-1.9-0.9-2.7-1.6s-1.4-1.6-1.8-2.6c-0.4-1-0.7-2.1-0.7-3.4
			s0.2-2.4,0.7-3.4c0.4-1,1-1.9,1.8-2.6c0.8-0.7,1.6-1.3,2.7-1.6c1-0.4,2.1-0.6,3.3-0.6c1.2,0,2.4,0.2,3.4,0.6
			c1.1,0.4,2,0.9,2.7,1.6l-3,3.6c-0.3-0.4-0.7-0.7-1.1-0.9c-0.4-0.2-1-0.3-1.6-0.3c-0.4,0-0.8,0.1-1.2,0.3c-0.4,0.2-0.8,0.4-1.1,0.7
			c-0.3,0.3-0.6,0.7-0.7,1.1s-0.3,0.9-0.3,1.5c0,1.1,0.3,2,0.8,2.6c0.6,0.7,1.5,1,2.7,1c0.2,0,0.4,0,0.7-0.1c0.2,0,0.4-0.1,0.5-0.2
			v-1.2h-2.5v-4.1h7.1v8.5c-0.4,0.2-0.8,0.4-1.3,0.6c-0.5,0.2-1,0.3-1.5,0.5c-0.5,0.1-1.1,0.2-1.7,0.3
			C62.2,246.2,61.7,246.2,61.1,246.2z"/>
		<path class="st4" d="M69.1,234.3H74v1.3h0c0.2-0.5,0.6-0.9,1.1-1.2c0.5-0.3,1.1-0.5,1.7-0.5c0.4,0,0.7,0,1,0.1l-0.4,4.3
			c-0.2,0-0.3-0.1-0.5-0.1c-0.2,0-0.4,0-0.5,0c-0.7,0-1.2,0.2-1.6,0.6s-0.6,0.8-0.6,1.4v5.6h-5C69.1,245.8,69.1,234.3,69.1,234.3z"
			/>
		<path class="st4" d="M84.1,238.5c0-0.3-0.1-0.6-0.4-0.8c-0.2-0.2-0.6-0.3-0.9-0.3c-0.5,0-0.9,0.1-1.3,0.3
			c-0.4,0.2-0.8,0.4-1.1,0.7l-2.5-2.5c0.7-0.7,1.5-1.2,2.5-1.6c1-0.4,2-0.5,3-0.5c1.1,0,2,0.2,2.7,0.5s1.3,0.7,1.7,1.3
			c0.4,0.5,0.7,1.2,0.9,1.9c0.2,0.7,0.3,1.5,0.3,2.3v6h-4.6v-0.9h0c-0.3,0.4-0.7,0.8-1.2,0.9c-0.5,0.2-1.1,0.3-1.6,0.3
			c-0.5,0-0.9-0.1-1.4-0.2s-0.9-0.3-1.3-0.6c-0.4-0.3-0.7-0.7-0.9-1.1s-0.4-1-0.4-1.7c0-0.8,0.2-1.5,0.6-2c0.4-0.5,0.9-0.9,1.6-1.2
			c0.6-0.3,1.4-0.5,2.2-0.6C82.6,238.6,83.4,238.6,84.1,238.5L84.1,238.5L84.1,238.5z M84.2,241.1c-0.7,0-1.3,0.1-1.8,0.2
			s-0.7,0.5-0.7,0.9c0,0.2,0,0.3,0.1,0.4s0.2,0.2,0.3,0.3c0.1,0.1,0.2,0.1,0.4,0.2s0.3,0.1,0.4,0.1c0.5,0,0.9-0.2,1.2-0.5
			s0.4-0.7,0.4-1.2v-0.4L84.2,241.1L84.2,241.1z"/>
		<path class="st4" d="M90.1,240c0-0.7,0.1-1.5,0.3-2.2c0.2-0.7,0.6-1.4,1-1.9c0.4-0.6,1-1,1.6-1.4c0.7-0.4,1.4-0.5,2.3-0.5
			c0.6,0,1.1,0.1,1.7,0.3c0.6,0.2,1,0.5,1.3,0.9h0v-5.9h5v16.5h-4.5v-1.2h0c-0.3,0.5-0.8,0.8-1.5,1.1c-0.6,0.3-1.3,0.4-2,0.4
			c-0.9,0-1.6-0.2-2.3-0.5c-0.7-0.3-1.2-0.8-1.6-1.4c-0.4-0.6-0.8-1.2-1-2C90.2,241.5,90.1,240.8,90.1,240z M94.8,240
			c0,0.6,0.2,1,0.5,1.4c0.3,0.4,0.8,0.6,1.4,0.6c0.6,0,1.1-0.2,1.4-0.6c0.4-0.4,0.5-0.8,0.5-1.4c0-0.5-0.2-1-0.5-1.3
			c-0.4-0.4-0.8-0.6-1.4-0.6c-0.6,0-1.1,0.2-1.4,0.6C94.9,239.1,94.8,239.5,94.8,240z"/>
		<path class="st4" d="M117.3,240.2c0,0.2,0,0.4,0,0.6c0,0.2,0,0.4,0,0.5h-7.7c0,0.2,0.1,0.4,0.2,0.5c0.1,0.2,0.3,0.3,0.5,0.4
			c0.2,0.1,0.4,0.2,0.6,0.3c0.2,0.1,0.5,0.1,0.7,0.1c0.5,0,0.9-0.1,1.2-0.3c0.3-0.2,0.5-0.4,0.7-0.6l3.6,1.8c-0.5,0.8-1.2,1.5-2.2,2
			c-1,0.5-2.1,0.7-3.4,0.7c-0.8,0-1.6-0.1-2.4-0.4c-0.8-0.3-1.5-0.7-2.1-1.2c-0.6-0.5-1.1-1.2-1.5-1.9c-0.4-0.8-0.5-1.7-0.5-2.7
			c0-0.9,0.2-1.8,0.5-2.6c0.3-0.8,0.8-1.4,1.4-1.9c0.6-0.5,1.3-0.9,2-1.2s1.6-0.4,2.5-0.4c0.9,0,1.7,0.2,2.5,0.5
			c0.7,0.3,1.4,0.8,1.9,1.3c0.5,0.6,0.9,1.2,1.2,2C117.1,238.5,117.3,239.3,117.3,240.2z M112.9,238.6c0-0.4-0.1-0.7-0.4-1
			s-0.7-0.4-1.2-0.4c-0.6,0-1,0.2-1.3,0.5s-0.5,0.6-0.5,0.9L112.9,238.6L112.9,238.6z"/>
		<path class="st4" d="M128,242.2c0,0.8-0.2,1.4-0.5,1.9s-0.7,0.9-1.2,1.3c-0.5,0.3-1,0.5-1.6,0.7c-0.6,0.1-1.2,0.2-1.7,0.2
			c-1,0-2-0.1-2.9-0.4c-1-0.3-1.8-0.7-2.5-1.2l2.5-2.9c0.3,0.3,0.8,0.6,1.2,0.8c0.5,0.2,0.9,0.3,1.4,0.3c0.2,0,0.3,0,0.5-0.1
			s0.2-0.2,0.2-0.4c0-0.2-0.1-0.3-0.4-0.4c-0.3-0.1-0.7-0.2-1.4-0.4c-0.4-0.1-0.7-0.2-1.1-0.4c-0.4-0.2-0.7-0.4-1-0.7
			s-0.6-0.6-0.8-1c-0.2-0.4-0.3-0.9-0.3-1.4c0-0.7,0.2-1.4,0.5-1.9c0.3-0.5,0.7-0.9,1.2-1.3c0.5-0.3,1-0.6,1.6-0.7
			c0.6-0.2,1.1-0.2,1.7-0.2c0.9,0,1.8,0.1,2.6,0.4c0.9,0.3,1.7,0.6,2.4,1.1l-2.4,2.8c-0.4-0.2-0.7-0.4-1.1-0.5
			c-0.4-0.1-0.8-0.2-1.1-0.2c-0.2,0-0.5,0-0.6,0.1c-0.2,0.1-0.2,0.2-0.2,0.4c0,0.1,0.1,0.3,0.3,0.3s0.6,0.2,1.2,0.3
			c0.4,0.1,0.9,0.2,1.3,0.4c0.4,0.2,0.8,0.4,1.2,0.7c0.3,0.3,0.6,0.6,0.8,1C127.9,241.1,128,241.6,128,242.2z"/>
		<path class="st4" d="M139.6,235.9l-2.6,1.8l-2.4-3.8l5.5-3.5h4.8v15.5h-5.2L139.6,235.9L139.6,235.9z"/>
		<path class="st4" d="M159.3,246.1c-1.5,0-2.7-0.3-3.4-1c-0.7-0.7-1.1-1.7-1.1-3.1v-4.1h-1.6v-3.6h1.6v-2.6h4.9v2.6h2.5v3.6h-2.5
			v3.1c0,0.6,0.1,0.9,0.4,1.1s0.6,0.3,1,0.3c0.2,0,0.3,0,0.5,0s0.3-0.1,0.4-0.1v3.4c-0.3,0.1-0.6,0.2-1.1,0.3
			S159.9,246.1,159.3,246.1z"/>
		<path class="st4" d="M175.7,240c0,1-0.2,1.9-0.5,2.6c-0.4,0.8-0.8,1.4-1.4,2c-0.6,0.5-1.3,0.9-2.1,1.2c-0.8,0.3-1.6,0.4-2.5,0.4
			c-0.9,0-1.7-0.1-2.5-0.4s-1.5-0.7-2.1-1.2c-0.6-0.5-1.1-1.2-1.4-2c-0.4-0.8-0.5-1.7-0.5-2.6c0-1,0.2-1.8,0.5-2.6
			c0.4-0.8,0.8-1.4,1.4-1.9c0.6-0.5,1.3-0.9,2.1-1.2s1.6-0.4,2.5-0.4c0.9,0,1.7,0.1,2.5,0.4c0.8,0.3,1.5,0.7,2.1,1.2
			c0.6,0.5,1.1,1.2,1.4,1.9C175.6,238.2,175.7,239.1,175.7,240z M169.2,238.2c-0.6,0-1,0.2-1.3,0.6c-0.3,0.4-0.5,0.8-0.5,1.3
			c0,0.5,0.2,1,0.5,1.4c0.4,0.4,0.8,0.6,1.4,0.6c0.6,0,1-0.2,1.4-0.6c0.3-0.4,0.5-0.8,0.5-1.4c0-0.5-0.2-1-0.5-1.3
			C170.2,238.4,169.7,238.2,169.2,238.2z"/>
		<path class="st4" d="M192.5,237.8c0.7,0.3,1.4,0.7,1.8,1.3c0.5,0.6,0.7,1.4,0.7,2.2c0,0.9-0.2,1.6-0.6,2.2
			c-0.4,0.6-0.9,1.1-1.5,1.5c-0.6,0.4-1.3,0.7-2.1,0.9c-0.8,0.2-1.5,0.3-2.3,0.3s-1.6-0.1-2.4-0.3s-1.5-0.5-2.1-0.9
			c-0.6-0.4-1.1-0.9-1.5-1.5c-0.4-0.6-0.6-1.4-0.6-2.2c0-0.8,0.2-1.6,0.7-2.2c0.5-0.6,1.1-1.1,1.9-1.4v-0.1
			c-0.6-0.2-1.2-0.7-1.6-1.2c-0.5-0.6-0.7-1.2-0.7-2s0.2-1.5,0.5-2.1c0.4-0.6,0.8-1.1,1.4-1.4s1.2-0.6,2-0.8
			c0.7-0.2,1.5-0.3,2.3-0.3c0.8,0,1.5,0.1,2.3,0.3c0.7,0.2,1.4,0.4,2,0.8c0.6,0.4,1,0.8,1.4,1.4c0.4,0.6,0.5,1.3,0.5,2.1
			s-0.2,1.5-0.6,2C193.8,237.1,193.2,237.5,192.5,237.8L192.5,237.8L192.5,237.8z M188.7,239.8c-0.5,0-0.8,0.1-1,0.4
			c-0.2,0.3-0.3,0.6-0.3,0.9c0,0.3,0.1,0.6,0.3,0.9s0.6,0.4,1,0.4s0.8-0.1,1-0.4s0.3-0.6,0.3-0.9c0-0.3-0.1-0.6-0.3-0.9
			C189.5,239.9,189.1,239.8,188.7,239.8z M188.7,233.8c-0.4,0-0.7,0.1-0.9,0.4c-0.2,0.2-0.3,0.5-0.3,0.8c0,0.3,0.1,0.6,0.3,0.8
			c0.2,0.2,0.5,0.4,0.9,0.4s0.7-0.1,0.9-0.4c0.2-0.2,0.3-0.5,0.3-0.8c0-0.3-0.1-0.5-0.3-0.8S189.1,233.8,188.7,233.8z"/>
	</g>
	<g>
		<path class="st4" d="M59.9,224.6c-0.6,0-1.2-0.1-1.8-0.2c-0.6-0.1-1.2-0.3-1.7-0.5c-0.6-0.2-1.1-0.5-1.6-0.7
			c-0.5-0.3-0.9-0.6-1.3-0.9l3.1-3.4c0.4,0.4,0.8,0.7,1.4,1c0.6,0.3,1.2,0.5,1.9,0.5c0.3,0,0.6-0.1,0.8-0.2s0.4-0.3,0.4-0.6
			c0-0.1,0-0.3-0.1-0.4c-0.1-0.1-0.2-0.2-0.4-0.3c-0.2-0.1-0.5-0.2-0.8-0.4c-0.4-0.1-0.8-0.3-1.3-0.5c-0.5-0.2-1-0.4-1.5-0.6
			c-0.5-0.2-0.9-0.5-1.3-0.9s-0.7-0.8-0.9-1.2c-0.2-0.5-0.3-1.1-0.3-1.7c0-1,0.2-1.8,0.6-2.4c0.4-0.7,0.9-1.2,1.5-1.6
			s1.3-0.7,2.1-0.9c0.8-0.2,1.5-0.3,2.3-0.3c1,0,2,0.2,3.1,0.6c1,0.4,2,1,2.8,1.7l-3.2,3.3c-0.3-0.4-0.8-0.8-1.3-1
			c-0.5-0.2-1-0.3-1.4-0.3c-0.4,0-0.7,0.1-0.9,0.2c-0.2,0.1-0.3,0.3-0.3,0.5c0,0.2,0.1,0.4,0.4,0.5c0.2,0.1,0.6,0.3,1.2,0.4
			c0.5,0.2,1.1,0.4,1.7,0.6c0.6,0.2,1.2,0.5,1.7,0.9c0.5,0.4,0.9,0.8,1.3,1.4s0.5,1.2,0.5,2c0,0.9-0.2,1.7-0.6,2.4
			c-0.4,0.7-0.9,1.3-1.5,1.7c-0.6,0.5-1.3,0.8-2,1C61.5,224.4,60.7,224.6,59.9,224.6z"/>
		<path class="st4" d="M73.8,224.6c-1,0-1.9-0.1-2.7-0.4c-0.8-0.3-1.5-0.7-2.1-1.2c-0.6-0.5-1.1-1.2-1.4-1.9
			c-0.3-0.8-0.5-1.6-0.5-2.5c0-0.9,0.2-1.8,0.5-2.5c0.3-0.8,0.8-1.4,1.4-1.9c0.6-0.5,1.3-0.9,2.1-1.2c0.8-0.3,1.7-0.4,2.7-0.4
			c0.4,0,0.8,0,1.2,0.1c0.4,0.1,0.8,0.2,1.1,0.3c0.4,0.1,0.7,0.2,1,0.4c0.3,0.1,0.6,0.3,0.8,0.5l-2.5,3.6c-0.2-0.2-0.4-0.3-0.7-0.4
			c-0.3-0.1-0.6-0.2-0.8-0.2c-0.2,0-0.5,0-0.7,0.1s-0.4,0.2-0.6,0.4c-0.2,0.2-0.3,0.4-0.4,0.6c-0.1,0.2-0.2,0.5-0.2,0.8
			c0,0.3,0.1,0.6,0.2,0.8c0.1,0.2,0.3,0.4,0.4,0.6c0.2,0.2,0.4,0.3,0.6,0.3c0.2,0.1,0.5,0.1,0.7,0.1c0.3,0,0.6-0.1,0.8-0.2
			c0.3-0.1,0.5-0.3,0.7-0.4l2.5,3.5c-0.5,0.4-1.1,0.7-1.9,0.9C75.4,224.4,74.6,224.6,73.8,224.6z"/>
		<path class="st4" d="M91.1,218.4c0,1-0.2,1.9-0.5,2.6c-0.4,0.8-0.8,1.4-1.4,1.9c-0.6,0.5-1.3,0.9-2.1,1.2s-1.6,0.4-2.5,0.4
			c-0.9,0-1.7-0.1-2.5-0.4c-0.8-0.3-1.5-0.7-2.1-1.2s-1.1-1.2-1.4-1.9c-0.4-0.8-0.5-1.6-0.5-2.6c0-1,0.2-1.8,0.5-2.6
			c0.4-0.8,0.8-1.4,1.4-1.9c0.6-0.5,1.3-0.9,2.1-1.2c0.8-0.3,1.6-0.4,2.5-0.4c0.9,0,1.7,0.1,2.5,0.4c0.8,0.3,1.5,0.7,2.1,1.2
			c0.6,0.5,1.1,1.2,1.4,1.9C90.9,216.5,91.1,217.4,91.1,218.4z M84.6,216.5c-0.5,0-1,0.2-1.3,0.6s-0.5,0.8-0.5,1.3
			c0,0.5,0.2,1,0.5,1.4s0.8,0.6,1.3,0.6s1-0.2,1.3-0.6s0.5-0.8,0.5-1.4c0-0.5-0.2-0.9-0.5-1.3C85.6,216.7,85.1,216.5,84.6,216.5z"/>
		<path class="st4" d="M100.6,224.4c-0.6,0-1.1-0.1-1.7-0.3s-1-0.5-1.3-0.9h0v6.1h-5v-16.6h4.7v1.1h0c0.4-0.5,0.9-0.8,1.5-1.1
			c0.6-0.2,1.2-0.4,1.7-0.4c0.9,0,1.6,0.2,2.3,0.5s1.2,0.8,1.6,1.4s0.8,1.2,1,1.9c0.2,0.7,0.3,1.4,0.3,2.2c0,0.8-0.1,1.5-0.3,2.2
			c-0.2,0.7-0.6,1.4-1,1.9c-0.4,0.6-1,1-1.6,1.4S101.4,224.4,100.6,224.4z M101.1,218.4c0-0.5-0.2-0.9-0.5-1.3
			c-0.3-0.4-0.8-0.6-1.4-0.6c-0.6,0-1.1,0.2-1.4,0.6c-0.4,0.4-0.5,0.8-0.5,1.3c0,0.5,0.2,1,0.5,1.4c0.4,0.4,0.8,0.6,1.4,0.6
			c0.6,0,1.1-0.2,1.4-0.6C100.9,219.4,101.1,218.9,101.1,218.4z"/>
		<path class="st4" d="M119.1,218.5c0,0.2,0,0.4,0,0.6s0,0.4,0,0.5h-7.7c0,0.2,0.1,0.4,0.2,0.5c0.1,0.2,0.3,0.3,0.5,0.4
			c0.2,0.1,0.4,0.2,0.6,0.3c0.2,0.1,0.5,0.1,0.7,0.1c0.5,0,0.8-0.1,1.2-0.2s0.5-0.3,0.7-0.6l3.6,1.8c-0.5,0.8-1.2,1.5-2.2,2
			c-1,0.5-2.1,0.7-3.3,0.7c-0.8,0-1.6-0.1-2.4-0.4c-0.8-0.3-1.5-0.6-2.1-1.2c-0.6-0.5-1.1-1.2-1.4-1.9c-0.4-0.8-0.5-1.7-0.5-2.7
			c0-0.9,0.2-1.8,0.5-2.5c0.3-0.8,0.8-1.4,1.4-1.9c0.6-0.5,1.2-0.9,2-1.2c0.8-0.3,1.6-0.4,2.5-0.4c0.9,0,1.7,0.2,2.4,0.5
			c0.7,0.3,1.4,0.7,1.9,1.3c0.5,0.6,0.9,1.2,1.2,2C118.9,216.8,119.1,217.6,119.1,218.5z M114.7,216.9c0-0.4-0.1-0.7-0.4-1
			c-0.3-0.3-0.7-0.4-1.2-0.4c-0.5,0-1,0.2-1.3,0.5c-0.3,0.3-0.5,0.6-0.5,0.9H114.7z"/>
		<path class="st4" d="M131.4,216.9c0-0.3-0.1-0.6-0.4-0.8c-0.2-0.2-0.6-0.2-0.9-0.2c-0.5,0-0.9,0.1-1.3,0.3
			c-0.4,0.2-0.8,0.4-1.1,0.7l-2.5-2.5c0.7-0.7,1.5-1.2,2.5-1.5c1-0.4,1.9-0.5,2.9-0.5c1.1,0,2,0.2,2.7,0.5c0.7,0.3,1.3,0.7,1.7,1.3
			c0.4,0.5,0.7,1.2,0.9,1.9c0.2,0.7,0.2,1.5,0.2,2.3v6h-4.5v-0.9h0c-0.3,0.4-0.7,0.7-1.2,0.9s-1.1,0.3-1.6,0.3
			c-0.4,0-0.9-0.1-1.4-0.2c-0.5-0.1-0.9-0.3-1.3-0.6s-0.7-0.7-0.9-1.1s-0.4-1-0.4-1.7c0-0.8,0.2-1.4,0.6-1.9
			c0.4-0.5,0.9-0.9,1.6-1.2c0.6-0.3,1.3-0.5,2.1-0.6C129.9,217,130.7,216.9,131.4,216.9L131.4,216.9z M131.5,219.4
			c-0.7,0-1.3,0.1-1.8,0.2s-0.7,0.5-0.7,0.9c0,0.2,0,0.3,0.1,0.4c0.1,0.1,0.2,0.2,0.3,0.3c0.1,0.1,0.2,0.1,0.4,0.2
			c0.1,0,0.3,0.1,0.4,0.1c0.5,0,0.9-0.2,1.1-0.5s0.4-0.7,0.4-1.2v-0.4H131.5z"/>
		<path class="st4" d="M137.8,212.7h4.9v1.3h0c0.3-0.4,0.7-0.8,1.3-1.1c0.6-0.3,1.2-0.5,2-0.5c0.8,0,1.5,0.1,2,0.4
			c0.5,0.3,0.9,0.7,1.3,1.1s0.5,1,0.6,1.5s0.2,1.1,0.2,1.7v6.9h-5v-6.1c0-0.6-0.1-1-0.3-1.2c-0.2-0.2-0.5-0.3-0.8-0.3
			c-0.3,0-0.6,0.1-0.8,0.4c-0.2,0.3-0.3,0.7-0.3,1.2v6.1h-5V212.7z"/>
		<path class="st4" d="M151.4,218.4c0-0.7,0.1-1.5,0.3-2.2c0.2-0.7,0.6-1.3,1-1.9c0.4-0.6,1-1,1.6-1.4s1.4-0.5,2.3-0.5
			c0.5,0,1.1,0.1,1.6,0.3c0.5,0.2,1,0.5,1.3,0.9h0v-5.9h5v16.4h-4.5v-1.2h0c-0.3,0.5-0.8,0.8-1.5,1.1c-0.6,0.3-1.3,0.4-2,0.4
			c-0.9,0-1.6-0.2-2.3-0.5c-0.7-0.3-1.2-0.8-1.6-1.4c-0.4-0.6-0.8-1.2-1-1.9C151.5,219.9,151.4,219.1,151.4,218.4z M156,218.4
			c0,0.5,0.2,1,0.5,1.4c0.3,0.4,0.8,0.6,1.4,0.6c0.6,0,1.1-0.2,1.4-0.6c0.4-0.4,0.5-0.8,0.5-1.4c0-0.5-0.2-0.9-0.5-1.3
			c-0.4-0.4-0.8-0.6-1.4-0.6c-0.6,0-1.1,0.2-1.4,0.6C156.2,217.4,156,217.9,156,218.4z"/>
		<path class="st4" d="M176.8,224.6c-0.6,0-1.2-0.1-1.8-0.2c-0.6-0.1-1.2-0.3-1.7-0.5c-0.6-0.2-1.1-0.5-1.6-0.7s-0.9-0.6-1.3-0.9
			l3.1-3.4c0.4,0.4,0.8,0.7,1.4,1c0.6,0.3,1.2,0.5,1.9,0.5c0.3,0,0.6-0.1,0.8-0.2s0.4-0.3,0.4-0.6c0-0.1,0-0.3-0.1-0.4
			c-0.1-0.1-0.2-0.2-0.4-0.3s-0.5-0.2-0.8-0.4c-0.4-0.1-0.8-0.3-1.3-0.5c-0.5-0.2-1-0.4-1.5-0.6c-0.5-0.2-0.9-0.5-1.3-0.9
			s-0.7-0.8-0.9-1.2c-0.2-0.5-0.3-1.1-0.3-1.7c0-1,0.2-1.8,0.6-2.4c0.4-0.7,0.9-1.2,1.5-1.6c0.6-0.4,1.3-0.7,2.1-0.9
			s1.5-0.3,2.3-0.3c1,0,2,0.2,3.1,0.6s2,1,2.8,1.7l-3.2,3.3c-0.3-0.4-0.8-0.8-1.3-1c-0.5-0.2-1-0.3-1.4-0.3c-0.4,0-0.7,0.1-0.9,0.2
			c-0.2,0.1-0.3,0.3-0.3,0.5c0,0.2,0.1,0.4,0.4,0.5c0.2,0.1,0.6,0.3,1.2,0.4c0.5,0.2,1.1,0.4,1.7,0.6c0.6,0.2,1.2,0.5,1.7,0.9
			s0.9,0.8,1.3,1.4s0.5,1.2,0.5,2c0,0.9-0.2,1.7-0.6,2.4c-0.4,0.7-0.9,1.3-1.5,1.7s-1.3,0.8-2,1S177.5,224.6,176.8,224.6z"/>
		<path class="st4" d="M196.3,218.5c0,0.2,0,0.4,0,0.6c0,0.2,0,0.4,0,0.5h-7.7c0,0.2,0.1,0.4,0.2,0.5c0.1,0.2,0.3,0.3,0.5,0.4
			c0.2,0.1,0.4,0.2,0.6,0.3c0.2,0.1,0.5,0.1,0.7,0.1c0.5,0,0.8-0.1,1.2-0.2s0.5-0.3,0.7-0.6l3.6,1.8c-0.5,0.8-1.2,1.5-2.2,2
			c-1,0.5-2.1,0.7-3.3,0.7c-0.8,0-1.6-0.1-2.4-0.4c-0.8-0.3-1.5-0.6-2.1-1.2c-0.6-0.5-1.1-1.2-1.4-1.9c-0.4-0.8-0.5-1.7-0.5-2.7
			c0-0.9,0.2-1.8,0.5-2.5c0.3-0.8,0.8-1.4,1.4-1.9c0.6-0.5,1.2-0.9,2-1.2c0.8-0.3,1.6-0.4,2.5-0.4c0.9,0,1.7,0.2,2.4,0.5
			c0.7,0.3,1.4,0.7,1.9,1.3s0.9,1.2,1.2,2S196.3,217.6,196.3,218.5z M192,216.9c0-0.4-0.1-0.7-0.4-1c-0.3-0.3-0.7-0.4-1.2-0.4
			c-0.5,0-1,0.2-1.3,0.5c-0.3,0.3-0.5,0.6-0.5,0.9H192z"/>
		<path class="st4" d="M202.4,224.4c-0.9,0-1.6-0.2-2.2-0.5s-1.2-0.8-1.6-1.4c-0.4-0.6-0.8-1.2-1-1.9c-0.2-0.7-0.3-1.5-0.3-2.2
			c0-0.7,0.1-1.5,0.3-2.2c0.2-0.7,0.6-1.3,1-1.9c0.4-0.6,1-1,1.6-1.4c0.7-0.3,1.4-0.5,2.3-0.5c0.6,0,1.1,0.1,1.7,0.4
			c0.6,0.2,1.1,0.6,1.5,1.1h0v-1.1h4.7v16.6h-5v-6.1h0c-0.3,0.4-0.8,0.7-1.3,0.9C203.5,224.3,202.9,224.4,202.4,224.4z M201.8,218.4
			c0,0.5,0.2,1,0.5,1.4c0.3,0.4,0.8,0.6,1.4,0.6c0.6,0,1.1-0.2,1.4-0.6c0.4-0.4,0.5-0.8,0.5-1.4c0-0.5-0.2-0.9-0.5-1.3
			c-0.4-0.4-0.8-0.6-1.4-0.6c-0.6,0-1.1,0.2-1.4,0.6C202,217.4,201.8,217.9,201.8,218.4z"/>
		<path class="st4" d="M224.3,224.1h-4.9v-1.3h0c-0.3,0.4-0.7,0.8-1.3,1.1c-0.6,0.3-1.2,0.5-2,0.5c-0.8,0-1.5-0.1-2-0.4
			c-0.5-0.3-0.9-0.7-1.2-1.1c-0.3-0.5-0.5-1-0.6-1.5c-0.1-0.6-0.2-1.1-0.2-1.7v-6.9h5v6c0,0.6,0.1,1,0.3,1.2
			c0.2,0.2,0.5,0.3,0.8,0.3c0.3,0,0.6-0.1,0.8-0.4c0.2-0.3,0.3-0.7,0.3-1.2v-6h5V224.1z"/>
		<path class="st4" d="M238.1,218.5c0,0.2,0,0.4,0,0.6c0,0.2,0,0.4,0,0.5h-7.7c0,0.2,0.1,0.4,0.2,0.5c0.1,0.2,0.3,0.3,0.5,0.4
			c0.2,0.1,0.4,0.2,0.6,0.3c0.2,0.1,0.5,0.1,0.7,0.1c0.5,0,0.8-0.1,1.2-0.2s0.5-0.3,0.7-0.6l3.6,1.8c-0.5,0.8-1.2,1.5-2.2,2
			c-1,0.5-2.1,0.7-3.3,0.7c-0.8,0-1.6-0.1-2.4-0.4c-0.8-0.3-1.5-0.6-2.1-1.2c-0.6-0.5-1.1-1.2-1.4-1.9c-0.4-0.8-0.5-1.7-0.5-2.7
			c0-0.9,0.2-1.8,0.5-2.5c0.3-0.8,0.8-1.4,1.4-1.9c0.6-0.5,1.2-0.9,2-1.2c0.8-0.3,1.6-0.4,2.5-0.4c0.9,0,1.7,0.2,2.4,0.5
			c0.7,0.3,1.4,0.7,1.9,1.3s0.9,1.2,1.2,2S238.1,217.6,238.1,218.5z M233.8,216.9c0-0.4-0.1-0.7-0.4-1c-0.3-0.3-0.7-0.4-1.2-0.4
			c-0.5,0-1,0.2-1.3,0.5c-0.3,0.3-0.5,0.6-0.5,0.9H233.8z"/>
		<path class="st4" d="M239.4,212.7h4.9v1.3h0c0.3-0.4,0.7-0.8,1.3-1.1c0.6-0.3,1.2-0.5,2-0.5c0.8,0,1.5,0.1,2,0.4
			c0.5,0.3,0.9,0.7,1.3,1.1s0.5,1,0.6,1.5c0.1,0.6,0.2,1.1,0.2,1.7v6.9h-5v-6.1c0-0.6-0.1-1-0.3-1.2c-0.2-0.2-0.5-0.3-0.8-0.3
			c-0.3,0-0.6,0.1-0.8,0.4c-0.2,0.3-0.3,0.7-0.3,1.2v6.1h-5V212.7z"/>
		<path class="st4" d="M259.7,224.6c-1,0-1.9-0.1-2.7-0.4s-1.5-0.7-2.1-1.2c-0.6-0.5-1.1-1.2-1.4-1.9s-0.5-1.6-0.5-2.5
			c0-0.9,0.2-1.8,0.5-2.5c0.3-0.8,0.8-1.4,1.4-1.9c0.6-0.5,1.3-0.9,2.1-1.2c0.8-0.3,1.7-0.4,2.7-0.4c0.4,0,0.8,0,1.2,0.1
			c0.4,0.1,0.8,0.2,1.1,0.3c0.4,0.1,0.7,0.2,1,0.4c0.3,0.1,0.6,0.3,0.8,0.5l-2.5,3.6c-0.2-0.2-0.4-0.3-0.7-0.4
			c-0.3-0.1-0.6-0.2-0.8-0.2c-0.2,0-0.5,0-0.7,0.1c-0.2,0.1-0.4,0.2-0.6,0.4s-0.3,0.4-0.4,0.6c-0.1,0.2-0.2,0.5-0.2,0.8
			c0,0.3,0.1,0.6,0.2,0.8c0.1,0.2,0.3,0.4,0.4,0.6c0.2,0.2,0.4,0.3,0.6,0.3c0.2,0.1,0.5,0.1,0.7,0.1c0.3,0,0.6-0.1,0.8-0.2
			s0.5-0.3,0.7-0.4l2.5,3.5c-0.5,0.4-1.1,0.7-1.9,0.9C261.3,224.4,260.5,224.6,259.7,224.6z"/>
		<path class="st4" d="M276.3,218.5c0,0.2,0,0.4,0,0.6c0,0.2,0,0.4,0,0.5h-7.7c0,0.2,0.1,0.4,0.2,0.5c0.1,0.2,0.3,0.3,0.5,0.4
			c0.2,0.1,0.4,0.2,0.6,0.3c0.2,0.1,0.5,0.1,0.7,0.1c0.5,0,0.8-0.1,1.2-0.2s0.5-0.3,0.7-0.6l3.6,1.8c-0.5,0.8-1.2,1.5-2.2,2
			c-1,0.5-2.1,0.7-3.3,0.7c-0.8,0-1.6-0.1-2.4-0.4c-0.8-0.3-1.5-0.6-2.1-1.2c-0.6-0.5-1.1-1.2-1.4-1.9c-0.4-0.8-0.5-1.7-0.5-2.7
			c0-0.9,0.2-1.8,0.5-2.5c0.3-0.8,0.8-1.4,1.4-1.9c0.6-0.5,1.2-0.9,2-1.2c0.8-0.3,1.6-0.4,2.5-0.4c0.9,0,1.7,0.2,2.4,0.5
			c0.7,0.3,1.4,0.7,1.9,1.3s0.9,1.2,1.2,2S276.3,217.6,276.3,218.5z M272,216.9c0-0.4-0.1-0.7-0.4-1c-0.3-0.3-0.7-0.4-1.2-0.4
			c-0.5,0-1,0.2-1.3,0.5c-0.3,0.3-0.5,0.6-0.5,0.9H272z"/>
		<path class="st4" d="M295.2,218.4c0,1-0.2,1.9-0.5,2.6c-0.4,0.8-0.8,1.4-1.4,1.9c-0.6,0.5-1.3,0.9-2.1,1.2
			c-0.8,0.3-1.6,0.4-2.5,0.4c-0.9,0-1.7-0.1-2.5-0.4s-1.5-0.7-2.1-1.2c-0.6-0.5-1.1-1.2-1.4-1.9c-0.4-0.8-0.5-1.6-0.5-2.6
			c0-1,0.2-1.8,0.5-2.6c0.4-0.8,0.8-1.4,1.4-1.9c0.6-0.5,1.3-0.9,2.1-1.2c0.8-0.3,1.6-0.4,2.5-0.4c0.9,0,1.7,0.1,2.5,0.4
			c0.8,0.3,1.5,0.7,2.1,1.2c0.6,0.5,1.1,1.2,1.4,1.9C295.1,216.5,295.2,217.4,295.2,218.4z M288.7,216.5c-0.5,0-1,0.2-1.3,0.6
			c-0.3,0.4-0.5,0.8-0.5,1.3c0,0.5,0.2,1,0.5,1.4s0.8,0.6,1.3,0.6c0.5,0,1-0.2,1.3-0.6s0.5-0.8,0.5-1.4c0-0.5-0.2-0.9-0.5-1.3
			C289.7,216.7,289.3,216.5,288.7,216.5z"/>
		<path class="st4" d="M304.3,211c-0.2,0-0.3-0.1-0.5-0.1c-0.5,0-0.8,0.2-1,0.5c-0.2,0.3-0.3,0.7-0.3,1.1v0.2h2.4v3.6h-2.4v7.8h-5
			v-7.8h-2v-3.6h2v-0.3c0-0.7,0.1-1.4,0.2-2c0.2-0.7,0.5-1.2,0.9-1.7s1-0.9,1.6-1.2c0.7-0.3,1.6-0.4,2.6-0.4c0.3,0,0.7,0,1.2,0.1
			s0.8,0.1,1.1,0.2l-0.3,3.7C304.6,211.1,304.5,211.1,304.3,211z"/>
	</g>
</g>
</svg>
