<?xml version="1.0" encoding="utf-8"?>
<!-- Generator: Adobe Illustrator 24.0.2, SVG Export Plug-In . SVG Version: 6.00 Build 0)  -->
<svg version="1.1" id="Layer_1" xmlns="http://www.w3.org/2000/svg" xmlns:xlink="http://www.w3.org/1999/xlink" x="0px" y="0px"
	 viewBox="0 0 350.3 350" style="enable-background:new 0 0 350.3 350;" xml:space="preserve">
<style type="text/css">
	.st0{fill:#F1AC10;}
	.st1{opacity:0.1;}
	.st2{clip-path:url(#SVGID_2_);fill:#FFFFFF;}
	.st3{clip-path:url(#SVGID_4_);fill:#FFFFFF;}
	.st4{fill:#FFFFFF;}
	.st5{fill:none;}
</style>
<g id="Layer_1_1_">
	<rect x="0.3" class="st0" width="350" height="350"/>
	<g class="st1">
		<g>
			<g>
				<defs>
					<rect id="SVGID_1_" y="0.1" width="350.3" height="349.9"/>
				</defs>
				<clipPath id="SVGID_2_">
					<use xlink:href="#SVGID_1_"  style="overflow:visible;"/>
				</clipPath>
				<path class="st2" d="M350.3,0.1c0,0-30.3,77.8-155.4,107.2C69.8,136.8,19.8,193.1,0,258.8V350h350.3V0.1z"/>
			</g>
		</g>
	</g>
	<g class="st1">
		<g>
			<g>
				<defs>
					<rect id="SVGID_3_" x="0.3" width="350" height="350"/>
				</defs>
				<clipPath id="SVGID_4_">
					<use xlink:href="#SVGID_3_"  style="overflow:visible;"/>
				</clipPath>
				<path class="st3" d="M272.7,0c0,0,14.5,81.3-109.2,137.9C39.8,194.6,13.5,225.4,0.3,254.3V350h350V0H272.7z"/>
			</g>
		</g>
	</g>
	<path class="st4" d="M237.3,112.1c0,34.9-28.3,63.2-63.2,63.2c-34.9,0-63.2-28.3-63.2-63.2c0-34.9,28.3-63.2,63.2-63.2
		C209,48.9,237.3,77.2,237.3,112.1"/>
	<g>
		<g>
			<g>
				<polygon class="st5" points="151.7,84.3 151.7,145.6 185,145.6 202.7,126.9 202.7,84.3 				"/>
				<path class="st0" d="M186.2,148.4H149V81.5h56.4V128L186.2,148.4z M154.5,142.9h29.4l16.1-17.1V87h-45.5V142.9z"/>
			</g>
			<g>
				<polygon class="st0" points="185,145.6 185,126.9 202.7,126.9 				"/>
				<path class="st0" d="M184.1,147.9V126h20.7L184.1,147.9z M185.9,127.8v15.5l14.6-15.5H185.9z"/>
			</g>
		</g>
		<g>
			<rect x="168.6" y="109.8" class="st0" width="16.4" height="5.5"/>
		</g>
		<g>
			<path class="st0" d="M157.6,99.5l2.7-0.3c0.1,0.4,0.2,0.6,0.4,0.8s0.4,0.2,0.6,0.2c0.4,0,0.8-0.2,1-0.7c0.2-0.3,0.3-1,0.4-2.1
				c-0.3,0.3-0.7,0.6-1,0.7c-0.3,0.2-0.7,0.2-1.2,0.2c-0.9,0-1.6-0.3-2.2-0.9c-0.6-0.6-0.9-1.4-0.9-2.3c0-0.6,0.2-1.2,0.5-1.8
				s0.7-0.9,1.3-1.2s1.2-0.4,2-0.4c1,0,1.8,0.2,2.3,0.5s1.1,0.9,1.4,1.6c0.4,0.7,0.5,1.7,0.5,2.9c0,1.8-0.4,3-1.1,3.9
				c-0.7,0.8-1.8,1.2-3.1,1.2c-0.8,0-1.4-0.1-1.8-0.3s-0.8-0.4-1.1-0.8C157.9,100.4,157.7,100,157.6,99.5z M162.5,95.1
				c0-0.5-0.1-0.9-0.4-1.2c-0.3-0.3-0.6-0.4-1-0.4c-0.4,0-0.7,0.1-0.9,0.4s-0.4,0.7-0.4,1.2c0,0.5,0.1,1,0.4,1.2
				c0.2,0.3,0.6,0.4,0.9,0.4c0.4,0,0.7-0.1,0.9-0.4C162.4,96.1,162.5,95.7,162.5,95.1z"/>
			<path class="st0" d="M170.8,97.1h3.9v2.1h-3.9V97.1z"/>
			<path class="st0" d="M186.2,91.8v9.9h-2.7v-6.5c-0.4,0.3-0.9,0.6-1.3,0.8c-0.4,0.2-0.9,0.4-1.6,0.6v-2.2c0.9-0.3,1.6-0.7,2.1-1.1
				s0.9-0.9,1.2-1.5L186.2,91.8L186.2,91.8z"/>
			<path class="st0" d="M197.1,101.7H189c0.1-0.8,0.4-1.6,0.8-2.3s1.4-1.5,2.7-2.5c0.8-0.6,1.3-1,1.5-1.3c0.2-0.3,0.3-0.6,0.3-0.9
				c0-0.3-0.1-0.6-0.3-0.8s-0.5-0.3-0.8-0.3c-0.3,0-0.6,0.1-0.8,0.3c-0.2,0.2-0.4,0.6-0.4,1.1l-2.7-0.2c0.1-0.8,0.3-1.4,0.6-1.8
				c0.3-0.4,0.7-0.8,1.2-1c0.5-0.2,1.2-0.3,2.1-0.3c1,0,1.7,0.1,2.2,0.3s0.9,0.6,1.2,1s0.5,1,0.5,1.5c0,0.6-0.2,1.2-0.5,1.7
				s-1,1.1-1.9,1.8c-0.5,0.4-0.9,0.6-1.1,0.8c-0.2,0.2-0.4,0.3-0.6,0.6h4.2L197.1,101.7L197.1,101.7z"/>
		</g>
	</g>
</g>
<g id="text">
	<g>
		<path class="st4" d="M67.9,246.3c-1.2,0-2.4-0.2-3.4-0.6c-1-0.4-1.9-0.9-2.7-1.6s-1.4-1.6-1.8-2.6c-0.4-1-0.7-2.1-0.7-3.4
			s0.2-2.4,0.7-3.4s1-1.9,1.8-2.6c0.8-0.7,1.6-1.3,2.7-1.6s2.1-0.6,3.3-0.6c1.2,0,2.4,0.2,3.4,0.6c1.1,0.4,2,0.9,2.7,1.6l-3,3.6
			c-0.3-0.4-0.7-0.7-1.1-0.9c-0.4-0.2-1-0.3-1.6-0.3c-0.4,0-0.8,0.1-1.2,0.3c-0.4,0.2-0.8,0.4-1.1,0.7c-0.3,0.3-0.6,0.7-0.7,1.1
			c-0.2,0.4-0.3,0.9-0.3,1.5c0,1.1,0.3,2,0.8,2.6c0.6,0.7,1.5,1,2.7,1c0.2,0,0.4,0,0.7-0.1c0.2,0,0.4-0.1,0.5-0.2v-1.2H67v-4.1h7.1
			v8.5c-0.4,0.2-0.8,0.4-1.3,0.6c-0.5,0.2-1,0.3-1.5,0.5c-0.5,0.1-1.1,0.2-1.7,0.3C69.1,246.3,68.5,246.3,67.9,246.3z"/>
		<path class="st4" d="M76,234.5h4.8v1.3h0c0.2-0.5,0.6-0.9,1.1-1.2s1.1-0.5,1.7-0.5c0.4,0,0.7,0,1,0.1l-0.4,4.3
			c-0.2,0-0.3-0.1-0.5-0.1c-0.2,0-0.4,0-0.5,0c-0.7,0-1.2,0.2-1.6,0.6c-0.4,0.4-0.6,0.8-0.6,1.4v5.6h-5L76,234.5L76,234.5z"/>
		<path class="st4" d="M91,238.7c0-0.4-0.1-0.6-0.4-0.8c-0.2-0.2-0.6-0.3-0.9-0.3c-0.5,0-0.9,0.1-1.3,0.3s-0.8,0.4-1.1,0.7l-2.5-2.5
			c0.7-0.7,1.5-1.2,2.5-1.6c1-0.4,2-0.5,3-0.5c1.1,0,2,0.2,2.7,0.5s1.3,0.7,1.7,1.3c0.4,0.5,0.7,1.2,0.9,1.9
			c0.2,0.7,0.3,1.5,0.3,2.3v6h-4.6V245h0c-0.3,0.4-0.7,0.8-1.2,0.9c-0.5,0.2-1.1,0.3-1.6,0.3c-0.5,0-0.9-0.1-1.4-0.2
			s-0.9-0.3-1.3-0.6c-0.4-0.3-0.7-0.7-0.9-1.1c-0.2-0.5-0.4-1-0.4-1.7c0-0.8,0.2-1.5,0.6-2c0.4-0.5,0.9-0.9,1.6-1.2s1.4-0.5,2.2-0.6
			C89.4,238.7,90.2,238.7,91,238.7L91,238.7L91,238.7z M91,241.2c-0.7,0-1.3,0.1-1.8,0.2s-0.7,0.5-0.7,0.9c0,0.2,0,0.3,0.1,0.4
			c0.1,0.1,0.2,0.2,0.3,0.3c0.1,0.1,0.2,0.1,0.4,0.2s0.3,0.1,0.4,0.1c0.5,0,0.9-0.2,1.2-0.5c0.3-0.3,0.4-0.7,0.4-1.2v-0.4L91,241.2
			L91,241.2z"/>
		<path class="st4" d="M96.9,240.2c0-0.7,0.1-1.5,0.3-2.2s0.6-1.4,1-1.9c0.4-0.6,1-1,1.6-1.4s1.4-0.5,2.3-0.5c0.6,0,1.1,0.1,1.7,0.3
			s1,0.5,1.3,0.9h0v-5.9h5v16.5h-4.5v-1.2h0c-0.3,0.5-0.8,0.8-1.5,1.1c-0.6,0.3-1.3,0.4-2,0.4c-0.9,0-1.6-0.2-2.3-0.5
			c-0.7-0.3-1.2-0.8-1.6-1.4c-0.4-0.6-0.8-1.2-1-2C97,241.7,96.9,240.9,96.9,240.2z M101.6,240.2c0,0.6,0.2,1,0.5,1.4
			s0.8,0.6,1.4,0.6c0.6,0,1.1-0.2,1.4-0.6c0.4-0.4,0.5-0.8,0.5-1.4c0-0.5-0.2-1-0.5-1.3c-0.4-0.4-0.8-0.6-1.4-0.6
			c-0.6,0-1.1,0.2-1.4,0.6S101.6,239.6,101.6,240.2z"/>
		<path class="st4" d="M124.1,240.3c0,0.2,0,0.4,0,0.6c0,0.2,0,0.4,0,0.5h-7.7c0,0.2,0.1,0.4,0.2,0.5c0.1,0.2,0.3,0.3,0.5,0.4
			c0.2,0.1,0.4,0.2,0.6,0.3c0.2,0.1,0.5,0.1,0.7,0.1c0.5,0,0.9-0.1,1.2-0.3s0.5-0.4,0.7-0.6l3.6,1.8c-0.5,0.8-1.2,1.5-2.2,2
			c-1,0.5-2.1,0.7-3.4,0.7c-0.8,0-1.6-0.1-2.4-0.4c-0.8-0.3-1.5-0.7-2.1-1.2c-0.6-0.5-1.1-1.2-1.5-1.9c-0.4-0.8-0.5-1.7-0.5-2.7
			c0-0.9,0.2-1.8,0.5-2.6c0.3-0.8,0.8-1.4,1.4-1.9s1.3-0.9,2-1.2s1.6-0.4,2.5-0.4c0.9,0,1.7,0.2,2.5,0.5c0.7,0.3,1.4,0.8,1.9,1.3
			c0.5,0.6,0.9,1.2,1.2,2C124,238.6,124.1,239.4,124.1,240.3z M119.8,238.7c0-0.4-0.1-0.7-0.4-1c-0.3-0.3-0.7-0.4-1.2-0.4
			c-0.6,0-1,0.2-1.3,0.5s-0.5,0.6-0.5,0.9L119.8,238.7L119.8,238.7z"/>
		<path class="st4" d="M134.9,242.3c0,0.8-0.2,1.4-0.5,1.9c-0.3,0.5-0.7,0.9-1.2,1.3c-0.5,0.3-1,0.5-1.6,0.7
			c-0.6,0.1-1.2,0.2-1.7,0.2c-1,0-2-0.1-2.9-0.4s-1.8-0.7-2.5-1.2l2.5-2.9c0.3,0.3,0.8,0.6,1.2,0.8c0.5,0.2,0.9,0.3,1.4,0.3
			c0.2,0,0.3,0,0.5-0.1c0.2-0.1,0.2-0.2,0.2-0.4c0-0.2-0.1-0.3-0.4-0.4c-0.3-0.1-0.7-0.2-1.4-0.4c-0.4-0.1-0.7-0.2-1.1-0.4
			c-0.4-0.2-0.7-0.4-1-0.7c-0.3-0.3-0.6-0.6-0.8-1c-0.2-0.4-0.3-0.9-0.3-1.4c0-0.7,0.2-1.4,0.5-1.9c0.3-0.5,0.7-0.9,1.2-1.3
			c0.5-0.3,1-0.6,1.6-0.7c0.6-0.2,1.1-0.2,1.7-0.2c0.9,0,1.8,0.1,2.6,0.4c0.9,0.3,1.7,0.6,2.4,1.1l-2.4,2.8
			c-0.4-0.2-0.7-0.4-1.1-0.5c-0.4-0.1-0.8-0.2-1.1-0.2c-0.2,0-0.5,0-0.6,0.1s-0.2,0.2-0.2,0.4c0,0.1,0.1,0.3,0.3,0.3
			c0.2,0.1,0.6,0.2,1.2,0.3c0.4,0.1,0.9,0.2,1.3,0.4c0.4,0.2,0.8,0.4,1.2,0.7c0.3,0.3,0.6,0.6,0.8,1
			C134.7,241.3,134.9,241.7,134.9,242.3z"/>
		<path class="st4" d="M146.3,241.1c-0.7,0-1.3-0.1-2-0.3s-1.2-0.6-1.7-1c-0.5-0.4-0.9-1-1.2-1.6c-0.3-0.6-0.4-1.4-0.4-2.2
			c0-1,0.2-1.8,0.5-2.6c0.4-0.7,0.9-1.4,1.5-1.8s1.3-0.9,2.2-1.1c0.8-0.2,1.7-0.4,2.6-0.4c0.9,0,1.8,0.1,2.6,0.4s1.5,0.6,2.2,1.1
			c0.6,0.5,1.1,1.1,1.5,1.8c0.4,0.7,0.5,1.6,0.5,2.6c0,1-0.2,1.9-0.6,2.7c-0.4,0.9-0.8,1.6-1.3,2.3l-3.5,5h-6.3l3.6-4.7l0.1-0.1
			L146.3,241.1L146.3,241.1z M147.8,237.4c0.5,0,0.8-0.1,1.1-0.4c0.3-0.3,0.4-0.7,0.4-1.1c0-0.4-0.1-0.8-0.4-1.1
			c-0.3-0.3-0.7-0.5-1.1-0.5c-0.5,0-0.9,0.2-1.2,0.5c-0.3,0.3-0.4,0.7-0.4,1.1c0,0.4,0.1,0.8,0.4,1.1
			C146.9,237.3,147.3,237.4,147.8,237.4z"/>
		<path class="st4" d="M166.2,246.3c-1.5,0-2.7-0.3-3.4-1c-0.7-0.7-1.1-1.7-1.1-3.1v-4.1H160v-3.6h1.6v-2.6h4.9v2.6h2.5v3.6h-2.5
			v3.1c0,0.6,0.1,0.9,0.4,1.1c0.2,0.2,0.6,0.3,1,0.3c0.2,0,0.3,0,0.5,0c0.2,0,0.3-0.1,0.4-0.1v3.5c-0.3,0.1-0.6,0.2-1.1,0.3
			C167.2,246.2,166.7,246.3,166.2,246.3z"/>
		<path class="st4" d="M182.6,240.2c0,1-0.2,1.9-0.5,2.6c-0.4,0.8-0.8,1.4-1.4,2c-0.6,0.5-1.3,0.9-2.1,1.2c-0.8,0.3-1.6,0.4-2.5,0.4
			c-0.9,0-1.7-0.1-2.5-0.4c-0.8-0.3-1.5-0.7-2.1-1.2c-0.6-0.5-1.1-1.2-1.4-2c-0.4-0.8-0.5-1.7-0.5-2.6c0-1,0.2-1.8,0.5-2.6
			c0.4-0.8,0.8-1.4,1.4-1.9c0.6-0.5,1.3-0.9,2.1-1.2c0.8-0.3,1.6-0.4,2.5-0.4c0.9,0,1.7,0.1,2.5,0.4c0.8,0.3,1.5,0.7,2.1,1.2
			c0.6,0.5,1.1,1.2,1.4,1.9C182.4,238.3,182.6,239.2,182.6,240.2z M176,238.3c-0.6,0-1,0.2-1.3,0.6c-0.3,0.4-0.5,0.8-0.5,1.3
			c0,0.5,0.2,1,0.5,1.4c0.3,0.4,0.8,0.6,1.4,0.6c0.6,0,1-0.2,1.4-0.6c0.4-0.4,0.5-0.8,0.5-1.4c0-0.5-0.2-1-0.5-1.3
			C177,238.5,176.6,238.3,176,238.3z"/>
		<path class="st4" d="M194.2,236l-2.6,1.8l-2.4-3.8l5.5-3.5h4.8v15.5h-5.2L194.2,236L194.2,236z"/>
		<path class="st4" d="M210.3,237c0.2-0.2,0.5-0.4,0.6-0.6c0.2-0.2,0.2-0.5,0.2-0.7c0-0.3-0.1-0.5-0.3-0.8c-0.2-0.2-0.5-0.3-0.9-0.3
			c-0.4,0-0.8,0.2-1,0.5c-0.3,0.3-0.4,0.8-0.5,1.4l-5-0.6c0.1-1,0.4-1.9,0.8-2.6c0.4-0.7,0.9-1.3,1.6-1.8c0.6-0.5,1.3-0.8,2.1-1.1
			c0.8-0.2,1.6-0.3,2.4-0.3c0.8,0,1.5,0.1,2.3,0.3c0.8,0.2,1.4,0.5,2,0.9s1.1,0.9,1.4,1.6c0.4,0.6,0.5,1.4,0.5,2.3
			c0,0.6-0.1,1.2-0.3,1.7c-0.2,0.5-0.4,0.9-0.7,1.3c-0.3,0.4-0.6,0.7-1,1c-0.4,0.3-0.7,0.6-1.1,0.9l-2.3,1.6h5.3v4.3h-12.5v-4
			L210.3,237z"/>
	</g>
	<g>
		<path class="st4" d="M65.8,223.4c-0.6,0-1.2-0.1-1.8-0.2c-0.6-0.1-1.2-0.3-1.7-0.5c-0.6-0.2-1.1-0.5-1.6-0.7
			c-0.5-0.3-0.9-0.6-1.3-0.9l3.1-3.4c0.4,0.4,0.8,0.7,1.4,1c0.6,0.3,1.2,0.5,1.9,0.5c0.3,0,0.6-0.1,0.8-0.2s0.4-0.3,0.4-0.6
			c0-0.1,0-0.3-0.1-0.4c-0.1-0.1-0.2-0.2-0.4-0.3c-0.2-0.1-0.5-0.2-0.8-0.4c-0.4-0.1-0.8-0.3-1.3-0.5c-0.5-0.2-1-0.4-1.5-0.6
			c-0.5-0.2-0.9-0.5-1.3-0.9s-0.7-0.8-0.9-1.2c-0.2-0.5-0.3-1.1-0.3-1.7c0-1,0.2-1.8,0.6-2.4c0.4-0.7,0.9-1.2,1.5-1.6
			s1.3-0.7,2.1-0.9c0.8-0.2,1.5-0.3,2.3-0.3c1,0,2,0.2,3.1,0.6c1,0.4,2,1,2.8,1.7l-3.2,3.3c-0.3-0.4-0.8-0.8-1.3-1
			c-0.5-0.2-1-0.3-1.4-0.3c-0.4,0-0.7,0.1-0.9,0.2c-0.2,0.1-0.3,0.3-0.3,0.5c0,0.2,0.1,0.4,0.4,0.5c0.2,0.1,0.6,0.3,1.2,0.4
			c0.5,0.2,1.1,0.4,1.7,0.6c0.6,0.2,1.2,0.5,1.7,0.9c0.5,0.4,0.9,0.8,1.3,1.4s0.5,1.2,0.5,2c0,0.9-0.2,1.7-0.6,2.4
			c-0.4,0.7-0.9,1.3-1.5,1.7c-0.6,0.5-1.3,0.8-2,1C67.3,223.3,66.6,223.4,65.8,223.4z"/>
		<path class="st4" d="M79.6,223.4c-1,0-1.9-0.1-2.7-0.4c-0.8-0.3-1.5-0.7-2.1-1.2c-0.6-0.5-1.1-1.2-1.4-1.9
			c-0.3-0.8-0.5-1.6-0.5-2.5c0-0.9,0.2-1.8,0.5-2.5c0.3-0.8,0.8-1.4,1.4-1.9c0.6-0.5,1.3-0.9,2.1-1.2c0.8-0.3,1.7-0.4,2.7-0.4
			c0.4,0,0.8,0,1.2,0.1c0.4,0.1,0.8,0.2,1.1,0.3c0.4,0.1,0.7,0.2,1,0.4c0.3,0.1,0.6,0.3,0.8,0.5l-2.5,3.6c-0.2-0.2-0.4-0.3-0.7-0.4
			c-0.3-0.1-0.6-0.2-0.8-0.2c-0.2,0-0.5,0-0.7,0.1s-0.4,0.2-0.6,0.4c-0.2,0.2-0.3,0.4-0.4,0.6c-0.1,0.2-0.2,0.5-0.2,0.8
			c0,0.3,0.1,0.6,0.2,0.8c0.1,0.2,0.3,0.4,0.4,0.6c0.2,0.2,0.4,0.3,0.6,0.3c0.2,0.1,0.5,0.1,0.7,0.1c0.3,0,0.6-0.1,0.8-0.2
			c0.3-0.1,0.5-0.3,0.7-0.4l2.5,3.5c-0.5,0.4-1.1,0.7-1.9,0.9C81.3,223.2,80.5,223.4,79.6,223.4z"/>
		<path class="st4" d="M97,217.2c0,1-0.2,1.9-0.5,2.6c-0.4,0.8-0.8,1.4-1.4,1.9c-0.6,0.5-1.3,0.9-2.1,1.2s-1.6,0.4-2.5,0.4
			c-0.9,0-1.7-0.1-2.5-0.4c-0.8-0.3-1.5-0.7-2.1-1.2s-1.1-1.2-1.4-1.9c-0.4-0.8-0.5-1.6-0.5-2.6c0-1,0.2-1.8,0.5-2.6
			c0.4-0.8,0.8-1.4,1.4-1.9c0.6-0.5,1.3-0.9,2.1-1.2c0.8-0.3,1.6-0.4,2.5-0.4c0.9,0,1.7,0.1,2.5,0.4c0.8,0.3,1.5,0.7,2.1,1.2
			c0.6,0.5,1.1,1.2,1.4,1.9C96.8,215.4,97,216.2,97,217.2z M90.4,215.3c-0.5,0-1,0.2-1.3,0.6s-0.5,0.8-0.5,1.3c0,0.5,0.2,1,0.5,1.4
			s0.8,0.6,1.3,0.6s1-0.2,1.3-0.6s0.5-0.8,0.5-1.4c0-0.5-0.2-0.9-0.5-1.3C91.4,215.5,91,215.3,90.4,215.3z"/>
		<path class="st4" d="M106.4,223.2c-0.6,0-1.1-0.1-1.7-0.3s-1-0.5-1.3-0.9h0v6.1h-5v-16.6h4.7v1.1h0c0.4-0.5,0.9-0.8,1.5-1.1
			c0.6-0.2,1.2-0.4,1.7-0.4c0.9,0,1.6,0.2,2.3,0.5s1.2,0.8,1.6,1.4s0.8,1.2,1,1.9c0.2,0.7,0.3,1.4,0.3,2.2c0,0.8-0.1,1.5-0.3,2.2
			c-0.2,0.7-0.6,1.4-1,1.9c-0.4,0.6-1,1-1.6,1.4S107.3,223.2,106.4,223.2z M107,217.2c0-0.5-0.2-0.9-0.5-1.3
			c-0.3-0.4-0.8-0.6-1.4-0.6c-0.6,0-1.1,0.2-1.4,0.6c-0.4,0.4-0.5,0.8-0.5,1.3c0,0.5,0.2,1,0.5,1.4c0.4,0.4,0.8,0.6,1.4,0.6
			c0.6,0,1.1-0.2,1.4-0.6C106.8,218.2,107,217.7,107,217.2z"/>
		<path class="st4" d="M124.9,217.3c0,0.2,0,0.4,0,0.6s0,0.4,0,0.5h-7.7c0,0.2,0.1,0.4,0.2,0.5c0.1,0.2,0.3,0.3,0.5,0.4
			c0.2,0.1,0.4,0.2,0.6,0.3c0.2,0.1,0.5,0.1,0.7,0.1c0.5,0,0.8-0.1,1.2-0.2s0.5-0.3,0.7-0.6l3.6,1.8c-0.5,0.8-1.2,1.5-2.2,2
			c-1,0.5-2.1,0.7-3.3,0.7c-0.8,0-1.6-0.1-2.4-0.4c-0.8-0.3-1.5-0.6-2.1-1.2c-0.6-0.5-1.1-1.2-1.4-1.9c-0.4-0.8-0.5-1.7-0.5-2.7
			c0-0.9,0.2-1.8,0.5-2.5c0.3-0.8,0.8-1.4,1.4-1.9c0.6-0.5,1.2-0.9,2-1.2c0.8-0.3,1.6-0.4,2.5-0.4c0.9,0,1.7,0.2,2.4,0.5
			c0.7,0.3,1.4,0.7,1.9,1.3c0.5,0.6,0.9,1.2,1.2,2C124.8,215.6,124.9,216.4,124.9,217.3z M120.6,215.7c0-0.4-0.1-0.7-0.4-1
			c-0.3-0.3-0.7-0.4-1.2-0.4c-0.5,0-1,0.2-1.3,0.5c-0.3,0.3-0.5,0.6-0.5,0.9H120.6z"/>
		<path class="st4" d="M137.3,215.7c0-0.3-0.1-0.6-0.4-0.8c-0.2-0.2-0.6-0.2-0.9-0.2c-0.5,0-0.9,0.1-1.3,0.3
			c-0.4,0.2-0.8,0.4-1.1,0.7l-2.5-2.5c0.7-0.7,1.5-1.2,2.5-1.5c1-0.4,1.9-0.5,2.9-0.5c1.1,0,2,0.2,2.7,0.5c0.7,0.3,1.3,0.7,1.7,1.3
			c0.4,0.5,0.7,1.2,0.9,1.9c0.2,0.7,0.2,1.5,0.2,2.3v6h-4.5V222h0c-0.3,0.4-0.7,0.7-1.2,0.9s-1.1,0.3-1.6,0.3
			c-0.4,0-0.9-0.1-1.4-0.2c-0.5-0.1-0.9-0.3-1.3-0.6s-0.7-0.7-0.9-1.1s-0.4-1-0.4-1.7c0-0.8,0.2-1.4,0.6-1.9
			c0.4-0.5,0.9-0.9,1.6-1.2c0.6-0.3,1.3-0.5,2.1-0.6C135.8,215.8,136.6,215.7,137.3,215.7L137.3,215.7z M137.4,218.2
			c-0.7,0-1.3,0.1-1.8,0.2s-0.7,0.5-0.7,0.9c0,0.2,0,0.3,0.1,0.4c0.1,0.1,0.2,0.2,0.3,0.3c0.1,0.1,0.2,0.1,0.4,0.2
			c0.1,0,0.3,0.1,0.4,0.1c0.5,0,0.9-0.2,1.1-0.5s0.4-0.7,0.4-1.2v-0.4H137.4z"/>
		<path class="st4" d="M143.7,211.5h4.9v1.3h0c0.3-0.4,0.7-0.8,1.3-1.1c0.6-0.3,1.2-0.5,2-0.5c0.8,0,1.5,0.1,2,0.4
			c0.5,0.3,0.9,0.7,1.3,1.1s0.5,1,0.6,1.5s0.2,1.1,0.2,1.7v6.9h-5v-6.1c0-0.6-0.1-1-0.3-1.2c-0.2-0.2-0.5-0.3-0.8-0.3
			c-0.3,0-0.6,0.1-0.8,0.4c-0.2,0.3-0.3,0.7-0.3,1.2v6.1h-5V211.5z"/>
		<path class="st4" d="M157.2,217.2c0-0.7,0.1-1.5,0.3-2.2c0.2-0.7,0.6-1.3,1-1.9c0.4-0.6,1-1,1.6-1.4s1.4-0.5,2.3-0.5
			c0.5,0,1.1,0.1,1.6,0.3c0.5,0.2,1,0.5,1.3,0.9h0v-5.9h5v16.4h-4.5v-1.2h0c-0.3,0.5-0.8,0.8-1.5,1.1c-0.6,0.3-1.3,0.4-2,0.4
			c-0.9,0-1.6-0.2-2.3-0.5c-0.7-0.3-1.2-0.8-1.6-1.4c-0.4-0.6-0.8-1.2-1-1.9C157.3,218.7,157.2,217.9,157.2,217.2z M161.9,217.2
			c0,0.5,0.2,1,0.5,1.4c0.3,0.4,0.8,0.6,1.4,0.6c0.6,0,1.1-0.2,1.4-0.6c0.4-0.4,0.5-0.8,0.5-1.4c0-0.5-0.2-0.9-0.5-1.3
			c-0.4-0.4-0.8-0.6-1.4-0.6c-0.6,0-1.1,0.2-1.4,0.6C162,216.2,161.9,216.7,161.9,217.2z"/>
		<path class="st4" d="M182.6,223.4c-0.6,0-1.2-0.1-1.8-0.2c-0.6-0.1-1.2-0.3-1.7-0.5c-0.6-0.2-1.1-0.5-1.6-0.7s-0.9-0.6-1.3-0.9
			l3.1-3.4c0.4,0.4,0.8,0.7,1.4,1c0.6,0.3,1.2,0.5,1.9,0.5c0.3,0,0.6-0.1,0.8-0.2s0.4-0.3,0.4-0.6c0-0.1,0-0.3-0.1-0.4
			c-0.1-0.1-0.2-0.2-0.4-0.3s-0.5-0.2-0.8-0.4c-0.4-0.1-0.8-0.3-1.3-0.5c-0.5-0.2-1-0.4-1.5-0.6c-0.5-0.2-0.9-0.5-1.3-0.9
			s-0.7-0.8-0.9-1.2c-0.2-0.5-0.3-1.1-0.3-1.7c0-1,0.2-1.8,0.6-2.4c0.4-0.7,0.9-1.2,1.5-1.6c0.6-0.4,1.3-0.7,2.1-0.9
			s1.5-0.3,2.3-0.3c1,0,2,0.2,3.1,0.6s2,1,2.8,1.7l-3.2,3.3c-0.3-0.4-0.8-0.8-1.3-1c-0.5-0.2-1-0.3-1.4-0.3c-0.4,0-0.7,0.1-0.9,0.2
			c-0.2,0.1-0.3,0.3-0.3,0.5c0,0.2,0.1,0.4,0.4,0.5c0.2,0.1,0.6,0.3,1.2,0.4c0.5,0.2,1.1,0.4,1.7,0.6c0.6,0.2,1.2,0.5,1.7,0.9
			s0.9,0.8,1.3,1.4s0.5,1.2,0.5,2c0,0.9-0.2,1.7-0.6,2.4c-0.4,0.7-0.9,1.3-1.5,1.7s-1.3,0.8-2,1S183.4,223.4,182.6,223.4z"/>
		<path class="st4" d="M202.2,217.3c0,0.2,0,0.4,0,0.6c0,0.2,0,0.4,0,0.5h-7.7c0,0.2,0.1,0.4,0.2,0.5c0.1,0.2,0.3,0.3,0.5,0.4
			c0.2,0.1,0.4,0.2,0.6,0.3c0.2,0.1,0.5,0.1,0.7,0.1c0.5,0,0.8-0.1,1.2-0.2s0.5-0.3,0.7-0.6l3.6,1.8c-0.5,0.8-1.2,1.5-2.2,2
			c-1,0.5-2.1,0.7-3.3,0.7c-0.8,0-1.6-0.1-2.4-0.4c-0.8-0.3-1.5-0.6-2.1-1.2c-0.6-0.5-1.1-1.2-1.4-1.9c-0.4-0.8-0.5-1.7-0.5-2.7
			c0-0.9,0.2-1.8,0.5-2.5c0.3-0.8,0.8-1.4,1.4-1.9c0.6-0.5,1.2-0.9,2-1.2c0.8-0.3,1.6-0.4,2.5-0.4c0.9,0,1.7,0.2,2.4,0.5
			c0.7,0.3,1.4,0.7,1.9,1.3s0.9,1.2,1.2,2S202.2,216.4,202.2,217.3z M197.8,215.7c0-0.4-0.1-0.7-0.4-1c-0.3-0.3-0.7-0.4-1.2-0.4
			c-0.5,0-1,0.2-1.3,0.5c-0.3,0.3-0.5,0.6-0.5,0.9H197.8z"/>
		<path class="st4" d="M208.2,223.2c-0.9,0-1.6-0.2-2.2-0.5s-1.2-0.8-1.6-1.4c-0.4-0.6-0.8-1.2-1-1.9c-0.2-0.7-0.3-1.5-0.3-2.2
			c0-0.7,0.1-1.5,0.3-2.2c0.2-0.7,0.6-1.3,1-1.9c0.4-0.6,1-1,1.6-1.4c0.7-0.3,1.4-0.5,2.3-0.5c0.6,0,1.1,0.1,1.7,0.4
			c0.6,0.2,1.1,0.6,1.5,1.1h0v-1.1h4.7v16.6h-5V222h0c-0.3,0.4-0.8,0.7-1.3,0.9C209.3,223.1,208.8,223.2,208.2,223.2z M207.7,217.2
			c0,0.5,0.2,1,0.5,1.4c0.3,0.4,0.8,0.6,1.4,0.6c0.6,0,1.1-0.2,1.4-0.6c0.4-0.4,0.5-0.8,0.5-1.4c0-0.5-0.2-0.9-0.5-1.3
			c-0.4-0.4-0.8-0.6-1.4-0.6c-0.6,0-1.1,0.2-1.4,0.6C207.8,216.2,207.7,216.7,207.7,217.2z"/>
		<path class="st4" d="M230.2,222.9h-4.9v-1.3h0c-0.3,0.4-0.7,0.8-1.3,1.1c-0.6,0.3-1.2,0.5-2,0.5c-0.8,0-1.5-0.1-2-0.4
			c-0.5-0.3-0.9-0.7-1.2-1.1c-0.3-0.5-0.5-1-0.6-1.5c-0.1-0.6-0.2-1.1-0.2-1.7v-6.9h5v6c0,0.6,0.1,1,0.3,1.2
			c0.2,0.2,0.5,0.3,0.8,0.3c0.3,0,0.6-0.1,0.8-0.4c0.2-0.3,0.3-0.7,0.3-1.2v-6h5V222.9z"/>
		<path class="st4" d="M244,217.3c0,0.2,0,0.4,0,0.6c0,0.2,0,0.4,0,0.5h-7.7c0,0.2,0.1,0.4,0.2,0.5c0.1,0.2,0.3,0.3,0.5,0.4
			c0.2,0.1,0.4,0.2,0.6,0.3c0.2,0.1,0.5,0.1,0.7,0.1c0.5,0,0.8-0.1,1.2-0.2s0.5-0.3,0.7-0.6l3.6,1.8c-0.5,0.8-1.2,1.5-2.2,2
			c-1,0.5-2.1,0.7-3.3,0.7c-0.8,0-1.6-0.1-2.4-0.4c-0.8-0.3-1.5-0.6-2.1-1.2c-0.6-0.5-1.1-1.2-1.4-1.9c-0.4-0.8-0.5-1.7-0.5-2.7
			c0-0.9,0.2-1.8,0.5-2.5c0.3-0.8,0.8-1.4,1.4-1.9c0.6-0.5,1.2-0.9,2-1.2c0.8-0.3,1.6-0.4,2.5-0.4c0.9,0,1.7,0.2,2.4,0.5
			c0.7,0.3,1.4,0.7,1.9,1.3s0.9,1.2,1.2,2S244,216.4,244,217.3z M239.7,215.7c0-0.4-0.1-0.7-0.4-1c-0.3-0.3-0.7-0.4-1.2-0.4
			c-0.5,0-1,0.2-1.3,0.5c-0.3,0.3-0.5,0.6-0.5,0.9H239.7z"/>
		<path class="st4" d="M245.3,211.5h4.9v1.3h0c0.3-0.4,0.7-0.8,1.3-1.1c0.6-0.3,1.2-0.5,2-0.5c0.8,0,1.5,0.1,2,0.4
			c0.5,0.3,0.9,0.7,1.3,1.1s0.5,1,0.6,1.5c0.1,0.6,0.2,1.1,0.2,1.7v6.9h-5v-6.1c0-0.6-0.1-1-0.3-1.2c-0.2-0.2-0.5-0.3-0.8-0.3
			c-0.3,0-0.6,0.1-0.8,0.4c-0.2,0.3-0.3,0.7-0.3,1.2v6.1h-5V211.5z"/>
		<path class="st4" d="M265.5,223.4c-1,0-1.9-0.1-2.7-0.4s-1.5-0.7-2.1-1.2c-0.6-0.5-1.1-1.2-1.4-1.9s-0.5-1.6-0.5-2.5
			c0-0.9,0.2-1.8,0.5-2.5c0.3-0.8,0.8-1.4,1.4-1.9c0.6-0.5,1.3-0.9,2.1-1.2c0.8-0.3,1.7-0.4,2.7-0.4c0.4,0,0.8,0,1.2,0.1
			c0.4,0.1,0.8,0.2,1.1,0.3c0.4,0.1,0.7,0.2,1,0.4c0.3,0.1,0.6,0.3,0.8,0.5l-2.5,3.6c-0.2-0.2-0.4-0.3-0.7-0.4
			c-0.3-0.1-0.6-0.2-0.8-0.2c-0.2,0-0.5,0-0.7,0.1c-0.2,0.1-0.4,0.2-0.6,0.4s-0.3,0.4-0.4,0.6c-0.1,0.2-0.2,0.5-0.2,0.8
			c0,0.3,0.1,0.6,0.2,0.8c0.1,0.2,0.3,0.4,0.4,0.6c0.2,0.2,0.4,0.3,0.6,0.3c0.2,0.1,0.5,0.1,0.7,0.1c0.3,0,0.6-0.1,0.8-0.2
			s0.5-0.3,0.7-0.4l2.5,3.5c-0.5,0.4-1.1,0.7-1.9,0.9C267.2,223.2,266.4,223.4,265.5,223.4z"/>
		<path class="st4" d="M282.2,217.3c0,0.2,0,0.4,0,0.6c0,0.2,0,0.4,0,0.5h-7.7c0,0.2,0.1,0.4,0.2,0.5c0.1,0.2,0.3,0.3,0.5,0.4
			c0.2,0.1,0.4,0.2,0.6,0.3c0.2,0.1,0.5,0.1,0.7,0.1c0.5,0,0.8-0.1,1.2-0.2s0.5-0.3,0.7-0.6l3.6,1.8c-0.5,0.8-1.2,1.5-2.2,2
			c-1,0.5-2.1,0.7-3.3,0.7c-0.8,0-1.6-0.1-2.4-0.4c-0.8-0.3-1.5-0.6-2.1-1.2c-0.6-0.5-1.1-1.2-1.4-1.9c-0.4-0.8-0.5-1.7-0.5-2.7
			c0-0.9,0.2-1.8,0.5-2.5c0.3-0.8,0.8-1.4,1.4-1.9c0.6-0.5,1.2-0.9,2-1.2c0.8-0.3,1.6-0.4,2.5-0.4c0.9,0,1.7,0.2,2.4,0.5
			c0.7,0.3,1.4,0.7,1.9,1.3s0.9,1.2,1.2,2S282.2,216.4,282.2,217.3z M277.9,215.7c0-0.4-0.1-0.7-0.4-1c-0.3-0.3-0.7-0.4-1.2-0.4
			c-0.5,0-1,0.2-1.3,0.5c-0.3,0.3-0.5,0.6-0.5,0.9H277.9z"/>
		<path class="st4" d="M301.1,217.2c0,1-0.2,1.9-0.5,2.6c-0.4,0.8-0.8,1.4-1.4,1.9c-0.6,0.5-1.3,0.9-2.1,1.2
			c-0.8,0.3-1.6,0.4-2.5,0.4c-0.9,0-1.7-0.1-2.5-0.4s-1.5-0.7-2.1-1.2c-0.6-0.5-1.1-1.2-1.4-1.9c-0.4-0.8-0.5-1.6-0.5-2.6
			c0-1,0.2-1.8,0.5-2.6c0.4-0.8,0.8-1.4,1.4-1.9c0.6-0.5,1.3-0.9,2.1-1.2c0.8-0.3,1.6-0.4,2.5-0.4c0.9,0,1.7,0.1,2.5,0.4
			c0.8,0.3,1.5,0.7,2.1,1.2c0.6,0.5,1.1,1.2,1.4,1.9C300.9,215.4,301.1,216.2,301.1,217.2z M294.6,215.3c-0.5,0-1,0.2-1.3,0.6
			c-0.3,0.4-0.5,0.8-0.5,1.3c0,0.5,0.2,1,0.5,1.4s0.8,0.6,1.3,0.6c0.5,0,1-0.2,1.3-0.6s0.5-0.8,0.5-1.4c0-0.5-0.2-0.9-0.5-1.3
			C295.6,215.5,295.1,215.3,294.6,215.3z"/>
		<path class="st4" d="M310.2,209.8c-0.2,0-0.3-0.1-0.5-0.1c-0.5,0-0.8,0.2-1,0.5c-0.2,0.3-0.3,0.7-0.3,1.1v0.2h2.4v3.6h-2.4v7.8h-5
			v-7.8h-2v-3.6h2v-0.3c0-0.7,0.1-1.4,0.2-2c0.2-0.7,0.5-1.2,0.9-1.7s1-0.9,1.6-1.2c0.7-0.3,1.6-0.4,2.6-0.4c0.3,0,0.7,0,1.2,0.1
			s0.8,0.1,1.1,0.2l-0.3,3.7C310.5,209.9,310.3,209.9,310.2,209.8z"/>
	</g>
</g>
</svg>
