<?xml version="1.0" encoding="utf-8"?>
<!-- Generator: Adobe Illustrator 24.0.2, SVG Export Plug-In . SVG Version: 6.00 Build 0)  -->
<svg version="1.1" xmlns="http://www.w3.org/2000/svg" xmlns:xlink="http://www.w3.org/1999/xlink" x="0px" y="0px"
	 viewBox="0 0 350.445 350" style="enable-background:new 0 0 350.445 350;" xml:space="preserve">
<style type="text/css">
	.st0{fill:#ED7670;}
	.st1{opacity:0.1;}
	.st2{clip-path:url(#SVGID_2_);fill:#FFFFFF;}
	.st3{clip-path:url(#SVGID_4_);fill:#FFFFFF;}
	.st4{fill:#FFFFFF;}
</style>
<g id="Layer_1">
	<rect x="0.445" class="st0" width="350" height="350"/>
	<g class="st1">
		<g>
			<defs>
				<rect id="SVGID_1_" y="0.038" width="350.445" height="349.962"/>
			</defs>
			<clipPath id="SVGID_2_">
				<use xlink:href="#SVGID_1_"  style="overflow:visible;"/>
			</clipPath>
			<path class="st2" d="M272.715,0.038c0,0,14.492,81.315-109.349,137.926C39.524,194.576,13.175,225.454,0,254.274V350h350.445
				V0.038H272.715z"/>
		</g>
	</g>
	<g class="st1">
		<g>
			<defs>
				<rect id="SVGID_3_" y="0.038" width="350.445" height="349.962"/>
			</defs>
			<clipPath id="SVGID_4_">
				<use xlink:href="#SVGID_3_"  style="overflow:visible;"/>
			</clipPath>
			<path class="st3" d="M350.445,0.039c0,0-30.302,77.768-155.461,107.267C69.826,136.804,19.762,193.12,0,258.823v91.176h350.445
				V0.039z"/>
		</g>
	</g>
	<g>
		<path class="st4" d="M241.382,111.34c0,35.133-28.48,63.612-63.612,63.612c-35.133,0-63.612-28.48-63.612-63.612
			c0-35.132,28.48-63.612,63.612-63.612C212.903,47.728,241.382,76.208,241.382,111.34"/>
		<g>
			<path class="st0" d="M186.452,98.489h-16.177V87.533h16.177V98.489z M173.397,95.366h9.933v-4.711h-9.933V95.366z"/>
		</g>
		<g>
			<path class="st0" d="M146.576,128.634h-16.177v-10.955h16.177V128.634z M133.521,125.512h9.933v-4.711h-9.933V125.512z"/>
		</g>
		<g>
			<path class="st0" d="M225.142,128.634h-16.177v-10.955h16.177V128.634z M212.088,125.512h9.932v-4.711h-9.932V125.512z"/>
		</g>
		<g>
			<path class="st0" d="M137.658,120.801c-0.129,0-0.26-0.016-0.39-0.049c-0.835-0.215-1.337-1.066-1.123-1.901
				c6.618-25.739,33.915-27.385,34.19-27.399c0.851-0.038,1.594,0.621,1.637,1.482c0.043,0.861-0.62,1.593-1.481,1.636
				c-1.04,0.054-25.285,1.58-31.322,25.058C138.987,120.333,138.353,120.801,137.658,120.801z"/>
		</g>
		<g>
			<path class="st0" d="M217.646,120.801c-0.695,0-1.329-0.468-1.511-1.173c-6.053-23.537-31.07-25.046-31.322-25.058
				c-0.861-0.043-1.525-0.775-1.482-1.636c0.043-0.861,0.753-1.528,1.637-1.482c0.275,0.014,27.572,1.66,34.191,27.399
				c0.215,0.835-0.288,1.686-1.123,1.901C217.906,120.785,217.775,120.801,217.646,120.801z"/>
		</g>
	</g>
</g>
<g id="text">
	<g>
		<path class="st4" d="M70.951,241.102h-5.23V229.96h-3.824v-4.417h12.878v4.417h-3.824V241.102z"/>
		<path class="st4" d="M85.631,235.432c0,0.19-0.004,0.385-0.011,0.583c-0.007,0.197-0.019,0.362-0.033,0.494h-7.779
			c0.014,0.205,0.084,0.389,0.208,0.549c0.125,0.162,0.278,0.301,0.461,0.418s0.388,0.205,0.615,0.264s0.458,0.088,0.692,0.088
			c0.469,0,0.86-0.084,1.176-0.253c0.315-0.168,0.553-0.354,0.714-0.561l3.604,1.824c-0.513,0.835-1.256,1.494-2.231,1.978
			c-0.974,0.484-2.106,0.726-3.395,0.726c-0.835,0-1.648-0.132-2.439-0.396c-0.791-0.264-1.491-0.655-2.099-1.176
			c-0.608-0.52-1.095-1.168-1.461-1.944s-0.549-1.678-0.549-2.703c0-0.952,0.168-1.813,0.505-2.582
			c0.337-0.77,0.795-1.421,1.374-1.956s1.26-0.948,2.044-1.242c0.784-0.293,1.623-0.439,2.516-0.439
			c0.908,0,1.736,0.158,2.483,0.473c0.747,0.315,1.388,0.755,1.923,1.318c0.535,0.564,0.948,1.234,1.242,2.011
			C85.484,233.682,85.631,234.523,85.631,235.432z M81.257,233.783c0-0.409-0.15-0.747-0.45-1.011
			c-0.3-0.264-0.707-0.396-1.22-0.396c-0.557,0-0.989,0.154-1.296,0.462s-0.483,0.623-0.528,0.944H81.257z"/>
		<path class="st4" d="M92.992,233.762c0-0.352-0.121-0.611-0.363-0.78c-0.242-0.168-0.56-0.253-0.956-0.253
			c-0.469,0-0.912,0.1-1.33,0.297c-0.417,0.198-0.788,0.429-1.11,0.692l-2.527-2.505c0.703-0.674,1.539-1.194,2.505-1.561
			s1.963-0.55,2.989-0.55c1.099,0,2.007,0.154,2.725,0.462c0.717,0.308,1.285,0.732,1.703,1.274c0.417,0.542,0.71,1.172,0.879,1.89
			c0.168,0.719,0.252,1.48,0.252,2.286v6.087h-4.593v-0.923h-0.044c-0.293,0.439-0.711,0.755-1.252,0.945
			c-0.542,0.189-1.07,0.285-1.583,0.285c-0.454,0-0.919-0.065-1.396-0.197c-0.476-0.133-0.908-0.345-1.296-0.638
			s-0.707-0.674-0.956-1.143s-0.374-1.048-0.374-1.736c0-0.806,0.209-1.461,0.626-1.967s0.948-0.901,1.593-1.187
			c0.645-0.286,1.366-0.479,2.165-0.582c0.798-0.103,1.579-0.154,2.34-0.154V233.762z M93.036,236.311
			c-0.747,0-1.348,0.081-1.802,0.242c-0.455,0.161-0.682,0.461-0.682,0.9c0,0.162,0.037,0.297,0.11,0.407
			c0.073,0.109,0.168,0.201,0.286,0.274s0.246,0.129,0.385,0.165s0.267,0.055,0.385,0.055c0.483,0,0.871-0.153,1.165-0.461
			c0.293-0.308,0.439-0.704,0.439-1.188v-0.396H93.036z"/>
		<path class="st4" d="M105.716,241.541c-0.981,0-1.883-0.146-2.703-0.439s-1.531-0.71-2.131-1.253
			c-0.601-0.542-1.07-1.193-1.407-1.955s-0.505-1.619-0.505-2.571c0-0.938,0.172-1.791,0.517-2.561
			c0.344-0.77,0.824-1.425,1.439-1.967s1.336-0.959,2.165-1.253c0.828-0.293,1.725-0.439,2.692-0.439c0.396,0,0.794,0.033,1.198,0.1
			c0.403,0.065,0.791,0.157,1.165,0.274s0.718,0.249,1.033,0.396c0.314,0.146,0.582,0.308,0.802,0.483l-2.527,3.648
			c-0.176-0.198-0.407-0.351-0.692-0.456c-0.286-0.106-0.561-0.16-0.824-0.16c-0.249,0-0.491,0.041-0.725,0.121
			c-0.234,0.081-0.443,0.205-0.626,0.374c-0.183,0.168-0.333,0.373-0.45,0.615c-0.118,0.241-0.176,0.523-0.176,0.846
			s0.058,0.604,0.176,0.847c0.117,0.241,0.267,0.439,0.45,0.593c0.183,0.154,0.392,0.271,0.626,0.352
			c0.234,0.081,0.476,0.121,0.725,0.121c0.293,0,0.579-0.055,0.857-0.165c0.278-0.109,0.506-0.26,0.682-0.45l2.549,3.545
			c-0.483,0.379-1.11,0.699-1.879,0.962S106.565,241.541,105.716,241.541z"/>
		<path class="st4" d="M118.847,229.234c0.803,0,1.472,0.146,2.005,0.439c0.533,0.294,0.957,0.671,1.271,1.132
			c0.314,0.462,0.533,0.979,0.657,1.55c0.124,0.571,0.187,1.143,0.187,1.714v7.032h-5.077v-6.153c0-0.586-0.091-0.996-0.274-1.23
			c-0.184-0.234-0.458-0.352-0.824-0.352c-0.293,0-0.557,0.128-0.791,0.385c-0.234,0.256-0.352,0.663-0.352,1.22v6.131h-5.077
			v-16.613h5.077v6.329h0.044c0.292-0.425,0.708-0.795,1.249-1.11C117.481,229.393,118.116,229.234,118.847,229.234z"/>
		<path class="st4" d="M124.723,226.202c0-0.352,0.069-0.685,0.209-1c0.139-0.314,0.33-0.59,0.571-0.824s0.523-0.421,0.846-0.561
			c0.322-0.139,0.667-0.208,1.033-0.208c0.352,0,0.681,0.069,0.989,0.208c0.308,0.14,0.583,0.326,0.824,0.561
			s0.432,0.51,0.571,0.824c0.139,0.315,0.209,0.648,0.209,1c0,0.366-0.07,0.707-0.209,1.021c-0.139,0.315-0.33,0.587-0.571,0.813
			c-0.242,0.228-0.517,0.406-0.824,0.538s-0.637,0.198-0.989,0.198c-0.366,0-0.711-0.066-1.033-0.198
			c-0.323-0.132-0.604-0.311-0.846-0.538c-0.242-0.227-0.432-0.498-0.571-0.813C124.793,226.909,124.723,226.568,124.723,226.202z
			 M124.811,229.542h5.077v11.56h-5.077V229.542z"/>
		<path class="st4" d="M131.822,229.542h4.945v1.275h0.044c0.292-0.425,0.727-0.795,1.303-1.11c0.577-0.314,1.238-0.473,1.983-0.473
			c0.803,0,1.471,0.146,2.004,0.439c0.533,0.294,0.957,0.671,1.271,1.132c0.314,0.462,0.533,0.979,0.657,1.55
			c0.124,0.571,0.187,1.143,0.187,1.714v7.032h-5.077v-6.153c0-0.586-0.091-0.996-0.274-1.23c-0.184-0.234-0.458-0.352-0.824-0.352
			c-0.337,0-0.612,0.136-0.824,0.406c-0.212,0.271-0.318,0.663-0.318,1.176v6.153h-5.077V229.542z"/>
		<path class="st4" d="M145.578,235.278c0-0.747,0.113-1.479,0.341-2.198c0.227-0.717,0.56-1.362,1-1.934
			c0.439-0.571,0.989-1.033,1.648-1.385s1.421-0.527,2.286-0.527c0.615,0,1.22,0.118,1.813,0.352
			c0.593,0.235,1.08,0.608,1.461,1.121h0.066v-1.165h4.769v10.373c0,1.26-0.206,2.308-0.615,3.143
			c-0.411,0.835-0.956,1.497-1.637,1.988s-1.454,0.835-2.318,1.033c-0.865,0.197-1.744,0.297-2.637,0.297
			c-1.099,0-2.198-0.144-3.296-0.429c-1.099-0.286-2.059-0.707-2.879-1.264l2.22-3.362c0.557,0.425,1.143,0.736,1.758,0.934
			c0.615,0.198,1.201,0.297,1.758,0.297c0.366,0,0.714-0.048,1.044-0.143c0.33-0.096,0.619-0.234,0.868-0.418
			c0.249-0.183,0.447-0.41,0.593-0.681c0.146-0.271,0.22-0.583,0.22-0.935v-0.505h-0.066c-0.279,0.322-0.692,0.608-1.242,0.856
			c-0.549,0.25-1.176,0.374-1.879,0.374c-0.894,0-1.67-0.157-2.33-0.473c-0.659-0.314-1.208-0.739-1.648-1.274
			c-0.44-0.534-0.766-1.153-0.978-1.857C145.684,236.794,145.578,236.055,145.578,235.278z M150.281,235.278
			c0,0.557,0.161,1.021,0.483,1.396c0.322,0.373,0.791,0.56,1.406,0.56c0.601,0,1.08-0.189,1.439-0.571
			c0.359-0.381,0.539-0.842,0.539-1.384c0-0.513-0.18-0.96-0.539-1.341c-0.359-0.381-0.839-0.571-1.439-0.571
			c-0.615,0-1.084,0.19-1.406,0.571C150.442,234.318,150.281,234.766,150.281,235.278z"/>
		<path class="st4" d="M173.531,241.102h-5.23V229.96h-3.824v-4.417h12.877v4.417h-3.823V241.102z"/>
		<path class="st4" d="M188.211,235.432c0,0.19-0.004,0.385-0.011,0.583c-0.008,0.197-0.019,0.362-0.033,0.494h-7.779
			c0.015,0.205,0.084,0.389,0.209,0.549c0.124,0.162,0.277,0.301,0.461,0.418s0.388,0.205,0.615,0.264s0.458,0.088,0.692,0.088
			c0.469,0,0.86-0.084,1.176-0.253c0.314-0.168,0.553-0.354,0.714-0.561l3.604,1.824c-0.514,0.835-1.257,1.494-2.23,1.978
			c-0.975,0.484-2.106,0.726-3.396,0.726c-0.835,0-1.648-0.132-2.439-0.396s-1.491-0.655-2.099-1.176
			c-0.608-0.52-1.096-1.168-1.461-1.944c-0.366-0.776-0.549-1.678-0.549-2.703c0-0.952,0.168-1.813,0.505-2.582
			c0.337-0.77,0.794-1.421,1.374-1.956s1.26-0.948,2.044-1.242c0.783-0.293,1.622-0.439,2.516-0.439
			c0.909,0,1.736,0.158,2.483,0.473c0.747,0.315,1.389,0.755,1.923,1.318c0.535,0.564,0.949,1.234,1.242,2.011
			C188.064,233.682,188.211,234.523,188.211,235.432z M183.838,233.783c0-0.409-0.15-0.747-0.451-1.011
			c-0.3-0.264-0.707-0.396-1.219-0.396c-0.558,0-0.989,0.154-1.297,0.462s-0.483,0.623-0.527,0.944H183.838z"/>
		<path class="st4" d="M195.858,241.541c-0.982,0-1.883-0.146-2.703-0.439c-0.821-0.293-1.531-0.71-2.132-1.253
			c-0.601-0.542-1.069-1.193-1.406-1.955c-0.338-0.762-0.506-1.619-0.506-2.571c0-0.938,0.172-1.791,0.517-2.561
			c0.344-0.77,0.824-1.425,1.439-1.967s1.337-0.959,2.164-1.253c0.828-0.293,1.726-0.439,2.692-0.439c0.396,0,0.795,0.033,1.197,0.1
			c0.403,0.065,0.792,0.157,1.165,0.274c0.374,0.117,0.718,0.249,1.033,0.396c0.314,0.146,0.582,0.308,0.802,0.483l-2.527,3.648
			c-0.176-0.198-0.406-0.351-0.692-0.456c-0.285-0.106-0.56-0.16-0.823-0.16c-0.25,0-0.491,0.041-0.726,0.121
			c-0.234,0.081-0.443,0.205-0.626,0.374c-0.184,0.168-0.334,0.373-0.451,0.615c-0.117,0.241-0.176,0.523-0.176,0.846
			s0.059,0.604,0.176,0.847c0.117,0.241,0.268,0.439,0.451,0.593c0.183,0.154,0.392,0.271,0.626,0.352
			c0.234,0.081,0.476,0.121,0.726,0.121c0.292,0,0.578-0.055,0.856-0.165c0.278-0.109,0.506-0.26,0.682-0.45l2.549,3.545
			c-0.483,0.379-1.109,0.699-1.879,0.962C197.517,241.41,196.707,241.541,195.858,241.541z"/>
		<path class="st4" d="M208.989,229.234c0.804,0,1.472,0.146,2.006,0.439c0.532,0.294,0.956,0.671,1.27,1.132
			c0.314,0.462,0.533,0.979,0.657,1.55c0.125,0.571,0.187,1.143,0.187,1.714v7.032h-5.076v-6.153c0-0.586-0.092-0.996-0.274-1.23
			c-0.184-0.234-0.458-0.352-0.824-0.352c-0.293,0-0.557,0.128-0.791,0.385c-0.234,0.256-0.352,0.663-0.352,1.22v6.131h-5.076
			v-16.613h5.076v6.329h0.044c0.292-0.425,0.708-0.795,1.249-1.11C207.624,229.393,208.259,229.234,208.989,229.234z"/>
		<path class="st4" d="M214.932,229.542h4.944v1.275h0.044c0.292-0.425,0.727-0.795,1.304-1.11c0.576-0.314,1.237-0.473,1.982-0.473
			c0.804,0,1.472,0.146,2.005,0.439c0.533,0.294,0.957,0.671,1.271,1.132c0.314,0.462,0.533,0.979,0.657,1.55
			c0.125,0.571,0.187,1.143,0.187,1.714v7.032h-5.076v-6.153c0-0.586-0.092-0.996-0.274-1.23c-0.184-0.234-0.458-0.352-0.824-0.352
			c-0.337,0-0.612,0.136-0.824,0.406c-0.212,0.271-0.318,0.663-0.318,1.176v6.153h-5.076V229.542z"/>
		<path class="st4" d="M229.084,226.202c0-0.352,0.069-0.685,0.209-1c0.139-0.314,0.329-0.59,0.571-0.824s0.523-0.421,0.846-0.561
			c0.322-0.139,0.667-0.208,1.033-0.208c0.352,0,0.682,0.069,0.989,0.208c0.308,0.14,0.582,0.326,0.824,0.561
			c0.241,0.234,0.432,0.51,0.571,0.824c0.139,0.315,0.208,0.648,0.208,1c0,0.366-0.069,0.707-0.208,1.021
			c-0.14,0.315-0.33,0.587-0.571,0.813c-0.242,0.228-0.517,0.406-0.824,0.538s-0.638,0.198-0.989,0.198
			c-0.366,0-0.711-0.066-1.033-0.198s-0.604-0.311-0.846-0.538c-0.242-0.227-0.433-0.498-0.571-0.813
			C229.153,226.909,229.084,226.568,229.084,226.202z M229.172,229.542h5.076v11.56h-5.076V229.542z"/>
		<path class="st4" d="M240.972,241.409c-0.864,0-1.622-0.176-2.274-0.527c-0.651-0.352-1.197-0.816-1.637-1.396
			c-0.439-0.578-0.773-1.234-1-1.967c-0.228-0.732-0.341-1.479-0.341-2.241c0-0.747,0.113-1.479,0.341-2.198
			c0.227-0.717,0.561-1.362,1-1.934s0.988-1.033,1.648-1.385c0.659-0.352,1.42-0.527,2.285-0.527c0.571,0,1.157,0.125,1.758,0.374
			s1.113,0.615,1.538,1.099h0.044v-1.165h4.769v16.834h-5.032V240.2h-0.044c-0.352,0.382-0.806,0.678-1.362,0.891
			C242.108,241.303,241.544,241.409,240.972,241.409z M240.424,235.278c0,0.557,0.161,1.021,0.483,1.396
			c0.322,0.373,0.791,0.56,1.406,0.56c0.601,0,1.08-0.189,1.439-0.571c0.358-0.381,0.538-0.842,0.538-1.384
			c0-0.513-0.18-0.96-0.538-1.341c-0.359-0.381-0.839-0.571-1.439-0.571c-0.615,0-1.084,0.19-1.406,0.571
			S240.424,234.766,240.424,235.278z"/>
		<path class="st4" d="M263.256,241.102h-4.944v-1.274h-0.044c-0.294,0.425-0.729,0.795-1.308,1.109
			c-0.579,0.315-1.242,0.473-1.989,0.473c-0.82,0-1.494-0.143-2.021-0.429c-0.527-0.285-0.949-0.659-1.264-1.12
			c-0.315-0.462-0.535-0.981-0.659-1.561c-0.125-0.579-0.187-1.154-0.187-1.726v-7.032h5.076v6.109c0,0.586,0.092,0.997,0.277,1.23
			c0.185,0.235,0.462,0.352,0.832,0.352c0.34,0,0.617-0.135,0.832-0.406c0.215-0.271,0.322-0.662,0.322-1.176v-6.109h5.076V241.102z
			"/>
		<path class="st4" d="M277.21,235.432c0,0.19-0.004,0.385-0.011,0.583c-0.008,0.197-0.019,0.362-0.033,0.494h-7.779
			c0.015,0.205,0.084,0.389,0.209,0.549c0.124,0.162,0.277,0.301,0.461,0.418s0.388,0.205,0.615,0.264s0.458,0.088,0.692,0.088
			c0.469,0,0.86-0.084,1.176-0.253c0.314-0.168,0.553-0.354,0.714-0.561l3.604,1.824c-0.514,0.835-1.257,1.494-2.23,1.978
			c-0.975,0.484-2.106,0.726-3.396,0.726c-0.835,0-1.648-0.132-2.439-0.396s-1.491-0.655-2.099-1.176
			c-0.608-0.52-1.096-1.168-1.461-1.944c-0.366-0.776-0.55-1.678-0.55-2.703c0-0.952,0.168-1.813,0.506-2.582
			c0.337-0.77,0.794-1.421,1.373-1.956s1.26-0.948,2.044-1.242c0.783-0.293,1.622-0.439,2.516-0.439
			c0.909,0,1.736,0.158,2.483,0.473c0.747,0.315,1.389,0.755,1.923,1.318c0.535,0.564,0.949,1.234,1.242,2.011
			C277.063,233.682,277.21,234.523,277.21,235.432z M272.837,233.783c0-0.409-0.15-0.747-0.451-1.011
			c-0.3-0.264-0.707-0.396-1.219-0.396c-0.558,0-0.989,0.154-1.297,0.462s-0.483,0.623-0.527,0.944H272.837z"/>
		<path class="st4" d="M288.021,237.432c0,0.776-0.164,1.429-0.492,1.956s-0.744,0.948-1.247,1.264
			c-0.503,0.314-1.054,0.542-1.651,0.681c-0.598,0.14-1.167,0.209-1.708,0.209c-0.996,0-1.974-0.143-2.934-0.429
			c-0.96-0.285-1.791-0.692-2.494-1.22l2.483-2.879c0.352,0.323,0.766,0.583,1.241,0.78c0.477,0.198,0.935,0.297,1.374,0.297
			c0.176,0,0.341-0.033,0.494-0.099c0.154-0.066,0.23-0.187,0.23-0.362c0-0.19-0.136-0.341-0.406-0.451
			c-0.271-0.109-0.744-0.245-1.417-0.406c-0.367-0.088-0.74-0.216-1.121-0.385c-0.381-0.168-0.729-0.392-1.044-0.67
			c-0.315-0.278-0.575-0.619-0.78-1.022c-0.205-0.402-0.308-0.882-0.308-1.439c0-0.747,0.165-1.384,0.494-1.911
			c0.33-0.527,0.748-0.956,1.253-1.286c0.506-0.329,1.055-0.571,1.648-0.725c0.593-0.154,1.153-0.231,1.681-0.231
			c0.894,0,1.78,0.132,2.659,0.396s1.67,0.631,2.374,1.1l-2.374,2.834c-0.366-0.233-0.74-0.417-1.12-0.549
			c-0.382-0.132-0.755-0.198-1.121-0.198c-0.249,0-0.454,0.033-0.615,0.1c-0.161,0.065-0.242,0.194-0.242,0.384
			c0,0.147,0.091,0.261,0.273,0.341c0.183,0.081,0.603,0.187,1.259,0.318c0.452,0.088,0.893,0.224,1.323,0.407
			s0.817,0.417,1.16,0.703c0.343,0.285,0.616,0.634,0.82,1.044S288.021,236.875,288.021,237.432z"/>
	</g>
</g>
</svg>
