<?xml version="1.0" encoding="utf-8"?>
<!-- Generator: Adobe Illustrator 24.0.2, SVG Export Plug-In . SVG Version: 6.00 Build 0)  -->
<svg version="1.1" xmlns="http://www.w3.org/2000/svg" xmlns:xlink="http://www.w3.org/1999/xlink" x="0px" y="0px"
	 viewBox="0 0 350 350.001" style="enable-background:new 0 0 350 350.001;" xml:space="preserve">
<style type="text/css">
	.st0{fill:#F1AC10;}
	.st1{opacity:0.1;}
	.st2{clip-path:url(#SVGID_2_);fill:#FFFFFF;}
	.st3{clip-path:url(#SVGID_4_);fill:#FFFFFF;}
	.st4{fill:#FFFFFF;}
</style>
<g id="Layer_1">
	<rect y="0" class="st0" width="350" height="350"/>
	<g class="st1">
		<g>
			<defs>
				<rect id="SVGID_1_" width="350" height="350"/>
			</defs>
			<clipPath id="SVGID_2_">
				<use xlink:href="#SVGID_1_"  style="overflow:visible;"/>
			</clipPath>
			<path class="st2" d="M350,0.001c0,0-30.263,77.778-155.263,107.28S19.737,193.104,0,258.813v91.188h350V0.001z"/>
		</g>
	</g>
	<g class="st1">
		<g>
			<defs>
				<rect id="SVGID_3_" y="0" width="350" height="350"/>
			</defs>
			<clipPath id="SVGID_4_">
				<use xlink:href="#SVGID_3_"  style="overflow:visible;"/>
			</clipPath>
			<path class="st3" d="M272.368,0.001c0,0,14.474,81.324-109.211,137.941S13.158,225.442,0,254.265v95.735h350v-350H272.368z"/>
		</g>
	</g>
	<path class="st4" d="M241.251,105.707c0,35.83-29.045,64.875-64.875,64.875c-35.83,0-64.875-29.045-64.875-64.875
		c0-35.83,29.045-64.875,64.875-64.875C212.206,40.832,241.251,69.877,241.251,105.707"/>
	<g id="Layer_2_1_">
		<path class="st0" d="M176.234,65.028c-12.859,0.683-24.273,12.412-24.628,25.297c-0.209,7.044,2.461,13.869,7.395,18.901
			c3.558,3.546,5.996,8.058,7.014,12.977l0.184,0.959c0.553,2.85,3.047,4.909,5.95,4.912h11.046c2.891,0,5.381-2.039,5.95-4.873
			l0.184-0.946c0.961-4.863,3.332-9.335,6.817-12.859c10.15-10.183,10.123-26.666-0.061-36.816
			C190.843,67.355,183.624,64.609,176.234,65.028z M161.969,83.942c-0.123,0.28-0.236,0.56-0.341,0.841
			c-0.258,0.678-1.016,1.019-1.694,0.762c-0.678-0.258-1.019-1.016-0.762-1.694l0,0c0.123-0.324,0.254-0.648,0.394-0.972
			c0.255-0.679,1.012-1.023,1.692-0.768c0.679,0.255,1.023,1.012,0.768,1.692c-0.016,0.043-0.035,0.086-0.055,0.127V83.942z
			 M188.239,87.659c2.692,2.431,2.903,6.584,0.471,9.276c-0.072,0.08-0.146,0.158-0.222,0.234l-9.194,9.194
			c-0.922,0.925-2.419,0.927-3.344,0.006c-0.002-0.002-0.004-0.004-0.006-0.006l-8.984-8.984c-2.578-2.479-2.796-6.531-0.499-9.273
			c2.431-2.692,6.584-2.903,9.276-0.471c0.08,0.072,0.158,0.146,0.234,0.222l1.681,1.694l1.313-1.379
			c2.48-2.606,6.561-2.831,9.313-0.512H188.239z M176.536,73.211c-4.429,0.355-8.539,2.441-11.44,5.806
			c-0.593,0.417-1.413,0.274-1.83-0.319c-0.295-0.419-0.319-0.971-0.062-1.415c3.362-3.875,8.113-6.272,13.227-6.672
			c0.725-0.04,1.346,0.516,1.386,1.241s-0.516,1.346-1.241,1.386L176.536,73.211z"/>
		<path class="st0" d="M188.16,134.642c0-0.725-0.588-1.313-1.313-1.313h-18.389c-0.725,0-1.313,0.588-1.313,1.313v1.313
			c0,1.451,1.176,2.627,2.627,2.627h15.762c1.451,0,2.627-1.176,2.627-2.627V134.642z"/>
		<path class="st0" d="M185.689,141.3c0-0.537-0.435-0.972-0.972-0.972h-13.601c-0.537,0-0.972,0.435-0.972,0.972v0.972
			c0,1.073,0.87,1.943,1.943,1.943h11.658c1.073,0,1.943-0.87,1.943-1.943V141.3z"/>
	</g>
</g>
<g id="text">
	<g>
		<path class="st4" d="M102.438,216.369h-5.417v-11.54h-3.96v-4.574h13.338v4.574h-3.96V216.369z"/>
		<path class="st4" d="M115.903,204.078c0.832,0,1.524,0.152,2.077,0.455c0.552,0.304,0.991,0.694,1.315,1.173
			c0.325,0.478,0.552,1.013,0.681,1.604c0.129,0.592,0.193,1.184,0.193,1.775v7.283h-5.258v-6.373c0-0.606-0.095-1.031-0.285-1.274
			s-0.474-0.364-0.854-0.364c-0.304,0-0.577,0.133-0.819,0.398s-0.364,0.687-0.364,1.263v6.351h-5.257v-17.207h5.257v6.555h0.046
			c0.302-0.439,0.733-0.822,1.293-1.149C114.488,204.241,115.146,204.078,115.903,204.078z"/>
		<path class="st4" d="M134.554,210.497c0,0.197-0.004,0.398-0.012,0.603c-0.008,0.205-0.019,0.376-0.034,0.513h-8.058
			c0.015,0.213,0.087,0.402,0.216,0.568c0.129,0.168,0.288,0.312,0.478,0.433c0.189,0.122,0.402,0.213,0.637,0.273
			c0.235,0.061,0.474,0.091,0.717,0.091c0.486,0,0.892-0.087,1.218-0.262c0.326-0.174,0.573-0.367,0.74-0.58l3.733,1.889
			c-0.531,0.865-1.301,1.548-2.31,2.049c-1.009,0.501-2.182,0.751-3.517,0.751c-0.865,0-1.707-0.137-2.526-0.409
			c-0.82-0.273-1.544-0.68-2.174-1.218c-0.63-0.539-1.135-1.21-1.514-2.015c-0.379-0.804-0.569-1.737-0.569-2.8
			c0-0.986,0.174-1.878,0.523-2.674c0.349-0.797,0.823-1.472,1.422-2.026c0.599-0.554,1.305-0.982,2.117-1.286
			c0.812-0.303,1.681-0.455,2.606-0.455c0.94,0,1.798,0.163,2.572,0.489c0.774,0.327,1.438,0.782,1.992,1.366
			c0.554,0.584,0.982,1.278,1.286,2.082C134.402,208.684,134.554,209.557,134.554,210.497z M130.024,208.79
			c0-0.425-0.156-0.774-0.467-1.047c-0.311-0.273-0.732-0.41-1.263-0.41c-0.577,0-1.024,0.159-1.343,0.479
			c-0.319,0.318-0.501,0.645-0.546,0.979H130.024z"/>
		<path class="st4" d="M141.518,200.255h5.462v16.114h-5.462V200.255z"/>
		<path class="st4" d="M149.257,204.397h5.121v1.32h0.045c0.302-0.439,0.752-0.822,1.35-1.149c0.597-0.326,1.282-0.489,2.054-0.489
			c0.832,0,1.524,0.152,2.076,0.455c0.552,0.304,0.991,0.694,1.316,1.173c0.325,0.478,0.552,1.013,0.681,1.604
			c0.129,0.592,0.193,1.184,0.193,1.775v7.283h-5.258v-6.373c0-0.606-0.095-1.031-0.285-1.274s-0.474-0.364-0.854-0.364
			c-0.349,0-0.634,0.141-0.854,0.421c-0.22,0.281-0.33,0.687-0.33,1.218v6.373h-5.257V204.397z"/>
		<path class="st4" d="M173.77,212.568c0,0.804-0.17,1.479-0.51,2.025c-0.34,0.546-0.77,0.982-1.291,1.309
			c-0.521,0.327-1.091,0.562-1.71,0.706c-0.62,0.144-1.209,0.216-1.769,0.216c-1.032,0-2.045-0.147-3.039-0.443
			c-0.994-0.296-1.855-0.718-2.583-1.264l2.572-2.981c0.364,0.334,0.792,0.604,1.286,0.808c0.493,0.205,0.967,0.308,1.422,0.308
			c0.182,0,0.353-0.034,0.512-0.103c0.159-0.068,0.239-0.193,0.239-0.376c0-0.196-0.14-0.353-0.421-0.466
			c-0.281-0.114-0.771-0.254-1.468-0.422c-0.379-0.091-0.766-0.224-1.161-0.397c-0.395-0.175-0.755-0.406-1.081-0.694
			c-0.327-0.288-0.596-0.641-0.808-1.059c-0.213-0.417-0.319-0.914-0.319-1.491c0-0.773,0.171-1.434,0.512-1.979
			c0.341-0.547,0.774-0.99,1.297-1.332c0.523-0.341,1.093-0.592,1.707-0.751c0.615-0.159,1.195-0.239,1.741-0.239
			c0.925,0,1.844,0.137,2.754,0.41c0.91,0.273,1.729,0.652,2.458,1.138l-2.458,2.937c-0.38-0.243-0.767-0.433-1.161-0.569
			s-0.782-0.205-1.161-0.205c-0.258,0-0.471,0.034-0.637,0.103c-0.167,0.068-0.25,0.201-0.25,0.398c0,0.152,0.094,0.27,0.283,0.353
			c0.188,0.084,0.624,0.193,1.303,0.33c0.468,0.092,0.925,0.231,1.371,0.422c0.446,0.189,0.846,0.432,1.201,0.728
			s0.639,0.657,0.85,1.081C173.664,211.491,173.77,211.991,173.77,212.568z"/>
		<path class="st4" d="M183.648,216.688c-0.592,0-1.176-0.11-1.753-0.33c-0.576-0.22-1.047-0.526-1.411-0.922h-0.045v6.396h-5.212
			v-17.436h4.939v1.207h0.046c0.439-0.501,0.971-0.88,1.593-1.139c0.622-0.258,1.229-0.387,1.821-0.387
			c0.895,0,1.684,0.183,2.367,0.547c0.683,0.363,1.251,0.842,1.707,1.434c0.455,0.592,0.8,1.26,1.035,2.003s0.353,1.502,0.353,2.276
			c0,0.789-0.117,1.562-0.353,2.321s-0.58,1.438-1.035,2.037c-0.456,0.6-1.021,1.081-1.696,1.445S184.543,216.688,183.648,216.688z
			 M184.217,210.338c0-0.531-0.168-0.994-0.501-1.389c-0.334-0.395-0.819-0.592-1.457-0.592c-0.622,0-1.119,0.197-1.49,0.592
			c-0.372,0.395-0.558,0.857-0.558,1.389c0,0.562,0.186,1.039,0.558,1.434c0.371,0.395,0.868,0.592,1.49,0.592
			c0.638,0,1.123-0.193,1.457-0.58C184.049,211.396,184.217,210.914,184.217,210.338z"/>
		<path class="st4" d="M190.521,200.938c0-0.364,0.072-0.709,0.217-1.036c0.144-0.326,0.341-0.61,0.592-0.854
			c0.25-0.242,0.542-0.436,0.876-0.58s0.69-0.216,1.07-0.216c0.363,0,0.705,0.071,1.023,0.216c0.319,0.145,0.604,0.338,0.854,0.58
			c0.251,0.243,0.447,0.527,0.592,0.854c0.145,0.327,0.217,0.672,0.217,1.036c0,0.379-0.072,0.732-0.217,1.059
			s-0.341,0.606-0.592,0.842c-0.25,0.235-0.534,0.421-0.854,0.558c-0.318,0.137-0.66,0.205-1.023,0.205
			c-0.38,0-0.736-0.068-1.07-0.205s-0.626-0.322-0.876-0.558c-0.251-0.235-0.448-0.516-0.592-0.842
			C190.593,201.67,190.521,201.316,190.521,200.938z M190.613,204.397h5.258v11.973h-5.258V204.397z"/>
		<path class="st4" d="M197.872,204.397h5.053v1.366h0.046c0.258-0.485,0.641-0.888,1.149-1.206
			c0.508-0.319,1.104-0.479,1.787-0.479c0.409,0,0.743,0.038,1.001,0.114l-0.409,4.461c-0.167-0.046-0.354-0.08-0.558-0.103
			c-0.205-0.022-0.392-0.034-0.558-0.034c-0.684,0-1.229,0.197-1.639,0.592c-0.41,0.395-0.615,0.88-0.615,1.457v5.804h-5.258
			V204.397z"/>
		<path class="st4" d="M213.919,208.767c0-0.363-0.125-0.633-0.376-0.808c-0.25-0.174-0.58-0.262-0.989-0.262
			c-0.486,0-0.945,0.103-1.378,0.308c-0.432,0.204-0.815,0.443-1.149,0.717l-2.617-2.595c0.729-0.698,1.594-1.236,2.595-1.616
			c1.002-0.379,2.033-0.569,3.096-0.569c1.138,0,2.079,0.159,2.822,0.479c0.743,0.318,1.331,0.759,1.764,1.32
			s0.736,1.214,0.911,1.957c0.174,0.743,0.262,1.533,0.262,2.367v6.305h-4.758v-0.956h-0.045c-0.304,0.455-0.736,0.782-1.298,0.979
			c-0.562,0.197-1.107,0.296-1.639,0.296c-0.471,0-0.952-0.068-1.445-0.204c-0.493-0.137-0.94-0.356-1.343-0.66
			s-0.732-0.698-0.99-1.184s-0.387-1.085-0.387-1.799c0-0.834,0.216-1.514,0.648-2.037s0.982-0.933,1.65-1.229
			s1.415-0.497,2.242-0.604c0.826-0.105,1.635-0.159,2.424-0.159V208.767z M213.965,211.407c-0.774,0-1.396,0.084-1.867,0.25
			c-0.47,0.168-0.705,0.479-0.705,0.934c0,0.167,0.037,0.308,0.113,0.421c0.076,0.114,0.175,0.209,0.296,0.285
			c0.122,0.075,0.254,0.133,0.398,0.17c0.145,0.038,0.277,0.058,0.398,0.058c0.501,0,0.902-0.16,1.206-0.479
			s0.456-0.729,0.456-1.229v-0.41H213.965z"/>
		<path class="st4" d="M225.8,216.688c-1.609,0-2.8-0.345-3.574-1.035c-0.773-0.69-1.16-1.764-1.16-3.221v-4.279h-1.685v-3.756
			h1.661v-2.686h5.099v2.686h2.595v3.756h-2.595v3.187c0,0.577,0.125,0.968,0.376,1.172c0.25,0.205,0.595,0.308,1.035,0.308
			c0.167,0,0.342-0.015,0.523-0.046c0.183-0.029,0.326-0.06,0.433-0.091v3.597c-0.273,0.121-0.656,0.22-1.149,0.296
			C226.866,216.649,226.346,216.688,225.8,216.688z"/>
		<path class="st4" d="M229.668,200.938c0-0.364,0.072-0.709,0.217-1.036c0.144-0.326,0.341-0.61,0.592-0.854
			c0.25-0.242,0.542-0.436,0.876-0.58s0.69-0.216,1.07-0.216c0.363,0,0.705,0.071,1.023,0.216c0.319,0.145,0.604,0.338,0.854,0.58
			c0.251,0.243,0.447,0.527,0.592,0.854c0.145,0.327,0.217,0.672,0.217,1.036c0,0.379-0.072,0.732-0.217,1.059
			s-0.341,0.606-0.592,0.842c-0.25,0.235-0.534,0.421-0.854,0.558c-0.318,0.137-0.66,0.205-1.023,0.205
			c-0.38,0-0.736-0.068-1.07-0.205s-0.626-0.322-0.876-0.558c-0.251-0.235-0.448-0.516-0.592-0.842
			C229.741,201.67,229.668,201.316,229.668,200.938z M229.76,204.397h5.258v11.973h-5.258V204.397z"/>
		<path class="st4" d="M250.199,210.338c0,1.031-0.186,1.949-0.558,2.754s-0.873,1.483-1.502,2.037
			c-0.63,0.554-1.358,0.975-2.186,1.263s-1.695,0.433-2.605,0.433c-0.896,0-1.757-0.145-2.584-0.433s-1.552-0.709-2.174-1.263
			s-1.119-1.232-1.49-2.037c-0.372-0.805-0.558-1.723-0.558-2.754c0-1.017,0.186-1.924,0.558-2.721
			c0.371-0.796,0.868-1.468,1.49-2.014c0.622-0.547,1.347-0.96,2.174-1.241c0.827-0.28,1.688-0.421,2.584-0.421
			c0.91,0,1.778,0.141,2.605,0.421c0.827,0.281,1.556,0.694,2.186,1.241c0.629,0.546,1.13,1.218,1.502,2.014
			C250.013,208.414,250.199,209.321,250.199,210.338z M243.348,208.38c-0.577,0-1.044,0.197-1.4,0.592s-0.534,0.857-0.534,1.389
			c0,0.562,0.182,1.039,0.546,1.434c0.364,0.396,0.834,0.592,1.411,0.592c0.576,0,1.047-0.196,1.411-0.592
			c0.364-0.395,0.546-0.872,0.546-1.434c0-0.531-0.186-0.994-0.558-1.389S243.924,208.38,243.348,208.38z"/>
		<path class="st4" d="M251.701,204.397h5.121v1.32h0.046c0.303-0.439,0.753-0.822,1.35-1.149c0.598-0.326,1.283-0.489,2.055-0.489
			c0.832,0,1.523,0.152,2.076,0.455c0.552,0.304,0.991,0.694,1.316,1.173c0.325,0.478,0.552,1.013,0.681,1.604
			s0.192,1.184,0.192,1.775v7.283h-5.257v-6.373c0-0.606-0.096-1.031-0.285-1.274s-0.475-0.364-0.854-0.364
			c-0.349,0-0.634,0.141-0.854,0.421c-0.22,0.281-0.33,0.687-0.33,1.218v6.373h-5.258V204.397z"/>
	</g>
</g>
</svg>
