<?xml version="1.0" encoding="utf-8"?>
<!-- Generator: Adobe Illustrator 24.0.2, SVG Export Plug-In . SVG Version: 6.00 Build 0)  -->
<svg version="1.1" xmlns="http://www.w3.org/2000/svg" xmlns:xlink="http://www.w3.org/1999/xlink" x="0px" y="0px"
	 viewBox="0 0 350 350.003" style="enable-background:new 0 0 350 350.003;" xml:space="preserve">
<style type="text/css">
	.st0{fill:#ED7670;}
	.st1{opacity:0.1;}
	.st2{clip-path:url(#SVGID_2_);fill:#FFFFFF;}
	.st3{clip-path:url(#SVGID_4_);fill:#FFFFFF;}
	.st4{fill:#FFFFFF;}
</style>
<g id="Layer_1">
	<rect y="0.001" class="st0" width="350" height="350"/>
	<g class="st1">
		<g>
			<defs>
				<rect id="SVGID_1_" x="0" y="0.001" width="350" height="350"/>
			</defs>
			<clipPath id="SVGID_2_">
				<use xlink:href="#SVGID_1_"  style="overflow:visible;"/>
			</clipPath>
			<path class="st2" d="M350,0c0,0-30.263,77.779-155.263,107.281c-125,29.501-175,85.824-194.737,151.534v91.188h350V0z"/>
		</g>
	</g>
	<g class="st1">
		<g>
			<defs>
				<rect id="SVGID_3_" y="0.075" width="350" height="349.926"/>
			</defs>
			<clipPath id="SVGID_4_">
				<use xlink:href="#SVGID_3_"  style="overflow:visible;"/>
			</clipPath>
			<path class="st3" d="M272.368,0.076c0,0,14.474,81.306-109.211,137.912C39.474,194.594,13.158,225.47,0,254.287v95.715h350V0.076
				H272.368z"/>
		</g>
	</g>
	<path class="st4" d="M241.262,114.931c0,35.405-28.7,64.105-64.105,64.105c-35.405,0-64.105-28.7-64.105-64.105
		c0-35.405,28.7-64.105,64.105-64.105C212.562,50.826,241.262,79.527,241.262,114.931"/>
	<g>
		<g>
			<path class="st0" d="M174.929,164.755c-0.067-0.037-0.134-0.079-0.203-0.125c-1.344-0.91-2.339-3.231-2.96-6.899l-6.771-47.272
				c-0.112-0.529-0.706-3.752,0.919-5.781c0.556-0.694,1.613-1.523,3.495-1.528l6.323-0.286c0.537-0.049,6.585-0.536,9.401,2.275
				c1.111,1.111,1.586,2.55,1.415,4.279l-6.882,49.019c-0.146,1.505-0.849,6.522-3.557,6.601
				C175.872,165.058,175.44,165.04,174.929,164.755z M182.798,105.927c-2.104-1.175-5.562-1.158-6.893-1.026l-0.056,0.004
				l-6.392,0.288c-0.916,0.004-1.539,0.253-1.948,0.763c-0.906,1.131-0.666,3.398-0.51,4.103l0.013,0.076l6.773,47.282
				c0.81,4.784,2.02,5.496,2.19,5.577l0.069,0c0.441,0,1.331-2.149,1.592-4.8l6.882-49.02c0.105-1.063-0.165-1.923-0.831-2.589
				C183.435,106.332,183.133,106.114,182.798,105.927z M175.804,103.884l0.006,0.003L175.804,103.884z"/>
		</g>
		<g>
			<path class="st0" d="M175.306,104.777c-0.298-0.166-0.506-0.479-0.523-0.846c-0.386-8.287,1.725-14.891,6.274-19.626
				c7.264-7.562,18.027-7.581,18.482-7.578c0.563,0.002,1.018,0.463,1.015,1.028c-0.003,0.564-0.463,1.019-1.027,1.017
				c-0.103-0.001-10.366,0.035-17.008,6.963c-4.136,4.314-6.052,10.405-5.693,18.103c0.026,0.563-0.41,1.042-0.974,1.068
				C175.654,104.914,175.467,104.867,175.306,104.777z"/>
		</g>
		<g>
			<path class="st0" d="M178.451,80.085c-1.641-0.916-2.779-2.012-3.402-3.282c-1.037-2.11-0.21-3.885-0.174-3.96l0.19-0.397
				l0.418-0.135c2.029-0.653,3.89-0.488,5.52,0.487c3.749,2.24,4.853,8.019,4.899,8.264l0.277,1.506l-1.497-0.32
				C182.133,81.703,180.052,80.979,178.451,80.085z M176.61,74.117c-0.072,0.4-0.092,1.069,0.296,1.831
				c0.595,1.166,2.231,2.733,6.562,3.906c-0.532-1.655-1.614-4.167-3.519-5.303C178.958,73.982,177.862,73.818,176.61,74.117z"/>
		</g>
		<g>
			<path class="st0" d="M172.157,88.958c-0.699-0.39-1.215-0.836-1.593-1.258c-1.202-1.342-1.327-2.737-1.338-2.892l-0.061-0.917
				l0.905-0.158c7.596-1.326,8.872,5.057,8.884,5.121l0.215,1.155l-1.173,0.053C175.279,90.188,173.419,89.663,172.157,88.958z
				 M171.581,85.612c0.492,0.93,1.745,2.236,4.907,2.407C175.879,86.895,174.519,85.453,171.581,85.612z"/>
		</g>
		<g>
			<path class="st0" d="M165.836,113.493c-0.303-0.169-0.513-0.489-0.524-0.862c-0.017-0.564,0.427-1.036,0.991-1.053l15.292-0.464
				c0.564-0.017,1.035,0.426,1.053,0.991c0.017,0.564-0.427,1.036-0.991,1.053l-15.292,0.464
				C166.173,113.628,165.992,113.58,165.836,113.493z"/>
		</g>
		<g>
			<path class="st0" d="M166.728,119.725c-0.304-0.17-0.514-0.49-0.524-0.864c-0.017-0.564,0.428-1.035,0.993-1.05l11.856-0.335
				c0.563-0.017,1.035,0.427,1.05,0.993c0.017,0.564-0.428,1.035-0.993,1.05l-11.856,0.335
				C167.064,119.859,166.884,119.812,166.728,119.725z"/>
		</g>
		<g>
			<path class="st0" d="M168.139,126.383c-0.309-0.173-0.52-0.502-0.524-0.882c-0.006-0.564,0.447-1.027,1.011-1.033l7.595-0.082
				c0.563-0.006,1.027,0.446,1.033,1.011c0.006,0.564-0.447,1.027-1.011,1.033l-7.595,0.082
				C168.463,126.514,168.289,126.467,168.139,126.383z"/>
		</g>
		<g>
			<path class="st0" d="M168.744,133.798c-0.298-0.166-0.506-0.478-0.523-0.843c-0.027-0.564,0.407-1.043,0.971-1.071l5.25-0.254
				c0.564-0.028,1.043,0.406,1.071,0.971c0.027,0.564-0.407,1.043-0.971,1.071l-5.25,0.254
				C169.094,133.936,168.906,133.888,168.744,133.798z"/>
		</g>
		<g>
			<path class="st0" d="M170.069,140.574c-0.303-0.169-0.513-0.489-0.524-0.862c-0.017-0.565,0.427-1.036,0.991-1.053l10.259-0.308
				c0.563-0.018,1.036,0.426,1.053,0.991c0.017,0.565-0.427,1.036-0.991,1.053l-10.259,0.308
				C170.406,140.709,170.225,140.662,170.069,140.574z"/>
		</g>
		<g>
			<path class="st0" d="M170.678,147.3c-0.293-0.164-0.5-0.468-0.522-0.828c-0.036-0.564,0.392-1.049,0.956-1.085l7.724-0.487
				c0.565-0.036,1.05,0.391,1.085,0.956c0.036,0.564-0.392,1.049-0.956,1.085l-7.724,0.487
				C171.037,147.44,170.844,147.392,170.678,147.3z"/>
		</g>
		<g>
			<path class="st0" d="M172.483,154.316c-0.298-0.166-0.506-0.479-0.524-0.845c-0.026-0.564,0.41-1.043,0.974-1.069l5.476-0.257
				c0.561-0.025,1.042,0.409,1.069,0.974c0.026,0.564-0.41,1.043-0.974,1.069l-5.476,0.257
				C172.831,154.454,172.643,154.406,172.483,154.316z"/>
		</g>
	</g>
</g>
<g id="text">
	<g>
		<path class="st4" d="M90.199,221.995h5.958l2.591,9.7h0.089l2.48-9.7h5.958l-5.669,15.68h-5.847L90.199,221.995z"/>
		<path class="st4" d="M118.9,231.961c0,0.192-0.004,0.388-0.011,0.587c-0.008,0.199-0.019,0.365-0.033,0.498h-7.84
			c0.015,0.207,0.085,0.392,0.21,0.554c0.125,0.163,0.28,0.303,0.465,0.421c0.184,0.118,0.391,0.207,0.62,0.266
			c0.229,0.06,0.461,0.089,0.697,0.089c0.473,0,0.867-0.085,1.185-0.255c0.317-0.169,0.557-0.357,0.72-0.564l3.632,1.838
			c-0.517,0.842-1.266,1.506-2.248,1.993s-2.123,0.731-3.421,0.731c-0.841,0-1.661-0.134-2.458-0.399
			c-0.797-0.266-1.502-0.66-2.115-1.185c-0.613-0.523-1.104-1.177-1.473-1.96c-0.369-0.782-0.554-1.69-0.554-2.724
			c0-0.96,0.17-1.827,0.51-2.603c0.339-0.774,0.8-1.432,1.384-1.971c0.583-0.539,1.27-0.956,2.06-1.251
			c0.79-0.296,1.635-0.443,2.536-0.443c0.916,0,1.75,0.159,2.502,0.477s1.399,0.761,1.938,1.328
			c0.539,0.569,0.956,1.244,1.251,2.026C118.752,230.198,118.9,231.046,118.9,231.961z M114.493,230.3
			c0-0.413-0.151-0.753-0.454-1.019s-0.712-0.398-1.229-0.398c-0.561,0-0.997,0.155-1.307,0.465
			c-0.31,0.311-0.487,0.628-0.531,0.952H114.493z"/>
		<path class="st4" d="M119.808,231.806c0-0.753,0.114-1.49,0.343-2.214s0.565-1.373,1.008-1.949
			c0.443-0.575,0.997-1.041,1.661-1.396c0.664-0.354,1.432-0.531,2.303-0.531c0.62,0,1.229,0.118,1.827,0.354
			c0.598,0.236,1.089,0.613,1.473,1.13h0.066v-1.174h4.806v10.452c0,1.27-0.207,2.326-0.62,3.167
			c-0.413,0.842-0.963,1.51-1.649,2.005c-0.687,0.494-1.466,0.841-2.336,1.04c-0.872,0.2-1.757,0.3-2.658,0.3
			c-1.107,0-2.214-0.145-3.322-0.433c-1.107-0.287-2.075-0.712-2.901-1.273l2.237-3.388c0.561,0.428,1.152,0.741,1.772,0.941
			c0.62,0.199,1.21,0.299,1.771,0.299c0.369,0,0.72-0.049,1.052-0.145c0.333-0.096,0.624-0.236,0.875-0.421
			c0.251-0.185,0.45-0.413,0.598-0.687c0.147-0.272,0.222-0.587,0.222-0.94v-0.51h-0.066c-0.281,0.325-0.698,0.613-1.251,0.863
			c-0.554,0.252-1.185,0.377-1.894,0.377c-0.9,0-1.683-0.158-2.347-0.477c-0.665-0.316-1.218-0.745-1.661-1.284
			s-0.771-1.162-0.985-1.871C119.915,233.334,119.808,232.589,119.808,231.806z M124.547,231.806c0,0.562,0.163,1.03,0.487,1.407
			c0.325,0.376,0.797,0.564,1.417,0.564c0.605,0,1.088-0.192,1.451-0.576c0.361-0.384,0.542-0.849,0.542-1.396
			c0-0.517-0.181-0.967-0.542-1.351c-0.362-0.384-0.846-0.575-1.451-0.575c-0.62,0-1.093,0.191-1.417,0.575
			S124.547,231.289,124.547,231.806z"/>
		<path class="st4" d="M147.446,231.961c0,0.192-0.004,0.388-0.011,0.587c-0.008,0.199-0.019,0.365-0.033,0.498h-7.84
			c0.015,0.207,0.085,0.392,0.21,0.554c0.125,0.163,0.28,0.303,0.465,0.421c0.184,0.118,0.391,0.207,0.62,0.266
			c0.229,0.06,0.461,0.089,0.697,0.089c0.473,0,0.867-0.085,1.185-0.255c0.317-0.169,0.557-0.357,0.72-0.564l3.632,1.838
			c-0.517,0.842-1.266,1.506-2.248,1.993s-2.123,0.731-3.421,0.731c-0.841,0-1.661-0.134-2.458-0.399
			c-0.797-0.266-1.502-0.66-2.115-1.185c-0.613-0.523-1.104-1.177-1.473-1.96c-0.369-0.782-0.554-1.69-0.554-2.724
			c0-0.96,0.17-1.827,0.51-2.603c0.339-0.774,0.8-1.432,1.384-1.971c0.583-0.539,1.27-0.956,2.06-1.251
			c0.79-0.296,1.635-0.443,2.536-0.443c0.916,0,1.75,0.159,2.502,0.477s1.399,0.761,1.938,1.328
			c0.539,0.569,0.956,1.244,1.251,2.026C147.298,230.198,147.446,231.046,147.446,231.961z M143.039,230.3
			c0-0.413-0.151-0.753-0.454-1.019s-0.712-0.398-1.229-0.398c-0.561,0-0.997,0.155-1.307,0.465
			c-0.31,0.311-0.487,0.628-0.531,0.952H143.039z"/>
		<path class="st4" d="M153.89,237.985c-1.565,0-2.724-0.335-3.477-1.007s-1.129-1.717-1.129-3.134v-4.164h-1.639v-3.653h1.617
			v-2.613h4.96v2.613h2.525v3.653h-2.525v3.101c0,0.562,0.122,0.941,0.366,1.141s0.579,0.299,1.007,0.299
			c0.163,0,0.333-0.015,0.51-0.044c0.177-0.029,0.317-0.059,0.42-0.089v3.499c-0.266,0.118-0.639,0.214-1.118,0.288
			C154.927,237.949,154.422,237.985,153.89,237.985z"/>
		<path class="st4" d="M163.9,230.279c0-0.354-0.122-0.616-0.366-0.786c-0.243-0.17-0.564-0.255-0.963-0.255
			c-0.473,0-0.919,0.1-1.339,0.299c-0.421,0.199-0.794,0.432-1.119,0.697l-2.547-2.524c0.709-0.679,1.55-1.203,2.525-1.572
			c0.974-0.369,1.978-0.554,3.012-0.554c1.107,0,2.022,0.155,2.746,0.465c0.723,0.311,1.295,0.739,1.716,1.285
			s0.716,1.181,0.886,1.904c0.169,0.724,0.255,1.491,0.255,2.303v6.135h-4.628v-0.93h-0.044c-0.295,0.442-0.716,0.76-1.262,0.952
			c-0.546,0.191-1.078,0.287-1.595,0.287c-0.458,0-0.927-0.066-1.406-0.199c-0.48-0.133-0.916-0.347-1.307-0.642
			c-0.391-0.296-0.712-0.679-0.963-1.151s-0.376-1.056-0.376-1.75c0-0.812,0.21-1.473,0.631-1.982
			c0.421-0.509,0.956-0.907,1.605-1.195c0.649-0.288,1.376-0.483,2.182-0.587c0.804-0.104,1.59-0.155,2.358-0.155V230.279z
			 M163.944,232.847c-0.753,0-1.358,0.082-1.816,0.244s-0.687,0.465-0.687,0.908c0,0.162,0.037,0.299,0.111,0.409
			s0.169,0.203,0.288,0.277c0.118,0.073,0.247,0.129,0.387,0.166c0.141,0.037,0.27,0.055,0.388,0.055
			c0.487,0,0.878-0.154,1.174-0.465c0.295-0.31,0.443-0.709,0.443-1.195v-0.399H163.944z"/>
		<path class="st4" d="M170.389,226.027h4.917v1.328h0.044c0.251-0.472,0.624-0.863,1.119-1.174c0.494-0.31,1.073-0.465,1.738-0.465
			c0.398,0,0.724,0.037,0.975,0.111l-0.399,4.34c-0.162-0.044-0.343-0.077-0.542-0.1c-0.199-0.021-0.38-0.033-0.542-0.033
			c-0.665,0-1.196,0.192-1.596,0.576c-0.398,0.384-0.597,0.856-0.597,1.417v5.647h-5.116V226.027z"/>
		<path class="st4" d="M179.756,222.66c0-0.354,0.07-0.69,0.211-1.008c0.14-0.317,0.332-0.594,0.575-0.83s0.528-0.425,0.853-0.565
			c0.324-0.14,0.672-0.21,1.041-0.21c0.354,0,0.687,0.07,0.996,0.21c0.311,0.141,0.588,0.329,0.83,0.565
			c0.244,0.236,0.436,0.513,0.576,0.83s0.211,0.653,0.211,1.008c0,0.369-0.07,0.712-0.211,1.029
			c-0.141,0.318-0.332,0.591-0.576,0.819c-0.242,0.229-0.52,0.41-0.83,0.543c-0.31,0.133-0.643,0.199-0.996,0.199
			c-0.369,0-0.717-0.066-1.041-0.199s-0.609-0.313-0.853-0.543c-0.243-0.229-0.436-0.501-0.575-0.819
			C179.826,223.372,179.756,223.03,179.756,222.66z M179.844,226.027h5.116v11.648h-5.116V226.027z"/>
		<path class="st4" d="M193.088,230.279c0-0.354-0.123-0.616-0.366-0.786s-0.564-0.255-0.964-0.255c-0.473,0-0.918,0.1-1.339,0.299
			s-0.794,0.432-1.118,0.697l-2.547-2.524c0.709-0.679,1.55-1.203,2.524-1.572c0.974-0.369,1.978-0.554,3.012-0.554
			c1.107,0,2.022,0.155,2.746,0.465c0.724,0.311,1.296,0.739,1.716,1.285c0.422,0.546,0.717,1.181,0.887,1.904
			c0.169,0.724,0.254,1.491,0.254,2.303v6.135h-4.628v-0.93h-0.044c-0.296,0.442-0.717,0.76-1.263,0.952
			c-0.546,0.191-1.078,0.287-1.595,0.287c-0.457,0-0.927-0.066-1.406-0.199c-0.48-0.133-0.916-0.347-1.307-0.642
			c-0.391-0.296-0.713-0.679-0.963-1.151c-0.252-0.473-0.377-1.056-0.377-1.75c0-0.812,0.211-1.473,0.631-1.982
			c0.422-0.509,0.956-0.907,1.605-1.195c0.65-0.288,1.377-0.483,2.182-0.587s1.591-0.155,2.359-0.155V230.279z M193.131,232.847
			c-0.752,0-1.357,0.082-1.815,0.244s-0.687,0.465-0.687,0.908c0,0.162,0.037,0.299,0.111,0.409c0.073,0.11,0.169,0.203,0.287,0.277
			c0.118,0.073,0.248,0.129,0.388,0.166c0.141,0.037,0.27,0.055,0.388,0.055c0.487,0,0.879-0.154,1.174-0.465
			c0.295-0.31,0.443-0.709,0.443-1.195v-0.399H193.131z"/>
		<path class="st4" d="M199.576,226.027h4.982v1.284h0.045c0.294-0.428,0.732-0.801,1.312-1.118c0.582-0.317,1.248-0.477,2-0.477
			c0.809,0,1.482,0.148,2.02,0.443s0.964,0.675,1.281,1.141c0.315,0.465,0.537,0.985,0.662,1.561
			c0.125,0.576,0.188,1.152,0.188,1.728v7.087h-5.115v-6.201c0-0.59-0.093-1.004-0.277-1.24c-0.185-0.235-0.461-0.354-0.83-0.354
			c-0.34,0-0.617,0.137-0.831,0.409c-0.214,0.273-0.321,0.668-0.321,1.185v6.201h-5.115V226.027z"/>
		<path class="st4" d="M219.285,237.675v-15.68h5.848c1.238,0,2.424,0.122,3.553,0.366c1.131,0.243,2.127,0.664,2.99,1.262
			s1.555,1.392,2.07,2.381c0.518,0.989,0.775,2.236,0.775,3.742c0,1.373-0.248,2.562-0.742,3.566s-1.154,1.826-1.982,2.469
			c-0.826,0.643-1.779,1.118-2.855,1.429c-1.078,0.31-2.201,0.465-3.367,0.465H219.285z M224.357,226.469v6.666h0.975
			c1.24,0,2.191-0.269,2.855-0.806s0.996-1.416,0.996-2.638c0-1.015-0.332-1.806-0.996-2.373c-0.664-0.566-1.549-0.85-2.656-0.85
			H224.357z"/>
		<path class="st4" d="M235.961,222.66c0-0.354,0.069-0.69,0.21-1.008s0.332-0.594,0.576-0.83c0.243-0.236,0.527-0.425,0.853-0.565
			c0.324-0.14,0.672-0.21,1.041-0.21c0.354,0,0.687,0.07,0.996,0.21c0.311,0.141,0.587,0.329,0.831,0.565
			c0.243,0.236,0.435,0.513,0.575,0.83s0.211,0.653,0.211,1.008c0,0.369-0.07,0.712-0.211,1.029
			c-0.141,0.318-0.332,0.591-0.575,0.819c-0.244,0.229-0.521,0.41-0.831,0.543c-0.31,0.133-0.642,0.199-0.996,0.199
			c-0.369,0-0.717-0.066-1.041-0.199c-0.325-0.133-0.609-0.313-0.853-0.543c-0.244-0.229-0.436-0.501-0.576-0.819
			C236.03,223.372,235.961,223.03,235.961,222.66z M236.05,226.027h5.115v11.648h-5.115V226.027z"/>
		<path class="st4" d="M255.272,231.961c0,0.192-0.004,0.388-0.012,0.587c-0.007,0.199-0.019,0.365-0.033,0.498h-7.839
			c0.015,0.207,0.084,0.392,0.21,0.554c0.125,0.163,0.28,0.303,0.465,0.421s0.392,0.207,0.62,0.266
			c0.229,0.06,0.462,0.089,0.698,0.089c0.472,0,0.867-0.085,1.185-0.255c0.317-0.169,0.557-0.357,0.72-0.564l3.632,1.838
			c-0.517,0.842-1.267,1.506-2.248,1.993s-2.122,0.731-3.421,0.731c-0.842,0-1.661-0.134-2.459-0.399
			c-0.797-0.266-1.502-0.66-2.114-1.185c-0.613-0.523-1.104-1.177-1.473-1.96c-0.369-0.782-0.554-1.69-0.554-2.724
			c0-0.96,0.169-1.827,0.509-2.603c0.34-0.774,0.801-1.432,1.385-1.971c0.583-0.539,1.27-0.956,2.06-1.251
			c0.789-0.296,1.635-0.443,2.535-0.443c0.915,0,1.75,0.159,2.503,0.477s1.398,0.761,1.938,1.328
			c0.539,0.569,0.956,1.244,1.251,2.026C255.124,230.198,255.272,231.046,255.272,231.961z M250.865,230.3
			c0-0.413-0.151-0.753-0.454-1.019s-0.712-0.398-1.229-0.398c-0.562,0-0.997,0.155-1.307,0.465
			c-0.311,0.311-0.487,0.628-0.532,0.952H250.865z"/>
		<path class="st4" d="M261.717,237.985c-1.565,0-2.724-0.335-3.477-1.007s-1.13-1.717-1.13-3.134v-4.164h-1.639v-3.653h1.616
			v-2.613h4.961v2.613h2.524v3.653h-2.524v3.101c0,0.562,0.122,0.941,0.365,1.141c0.244,0.199,0.58,0.299,1.008,0.299
			c0.162,0,0.332-0.015,0.51-0.044c0.177-0.029,0.317-0.059,0.421-0.089v3.499c-0.266,0.118-0.639,0.214-1.119,0.288
			C262.754,237.949,262.248,237.985,261.717,237.985z"/>
	</g>
</g>
</svg>
