<?xml version="1.0" encoding="utf-8"?>
<!-- Generator: Adobe Illustrator 24.0.2, SVG Export Plug-In . SVG Version: 6.00 Build 0)  -->
<svg version="1.1" xmlns="http://www.w3.org/2000/svg" xmlns:xlink="http://www.w3.org/1999/xlink" x="0px" y="0px"
	 viewBox="0 0 350 349.912" style="enable-background:new 0 0 350 349.912;" xml:space="preserve">
<style type="text/css">
	.st0{fill:#8062A6;}
	.st1{opacity:0.1;}
	.st2{clip-path:url(#SVGID_2_);fill:#FFFFFF;}
	.st3{clip-path:url(#SVGID_4_);fill:#FFFFFF;}
	.st4{fill:#FFFFFF;}
</style>
<g id="Layer_1">
	<rect y="0.001" class="st0" width="350" height="349.911"/>
	<g class="st1">
		<g>
			<defs>
				<rect id="SVGID_1_" y="0.143" width="350" height="349.769"/>
			</defs>
			<clipPath id="SVGID_2_">
				<use xlink:href="#SVGID_1_"  style="overflow:visible;"/>
			</clipPath>
			<path class="st2" d="M350,0.143c0,0-30.263,77.726-155.263,107.207c-125,29.484-175,85.767-194.737,151.433v91.127h350V0.143z"/>
		</g>
	</g>
	<g class="st1">
		<g>
			<defs>
				<rect id="SVGID_3_" width="350" height="349.912"/>
			</defs>
			<clipPath id="SVGID_4_">
				<use xlink:href="#SVGID_3_"  style="overflow:visible;"/>
			</clipPath>
			<path class="st3" d="M272.368,0.001c0,0,14.474,81.304-109.211,137.906C39.474,194.511,13.158,225.384,0,254.201v95.711h350
				V0.001H272.368z"/>
		</g>
	</g>
	<path class="st4" d="M238.817,112.596c0,35.535-28.806,64.34-64.34,64.34c-35.535,0-64.34-28.806-64.34-64.34
		c0-35.534,28.806-64.34,64.34-64.34C210.011,48.256,238.817,77.062,238.817,112.596"/>
	<g>
		<path class="st0" d="M175.006,97.709c0.035-5.446-7.864-7.864-9.459-8.095c-11.126-1.607-23.144,7.651-20.924,19.498
			c0.859,4.585,3.232,8.802,5.882,12.581c3.614,5.153,23.815,23.971,23.969,22.667C174.474,144.36,175.005,97.865,175.006,97.709z"
			/>
		<path class="st0" d="M173.948,97.709c-0.035-5.446,7.864-7.864,9.459-8.095c11.126-1.607,23.144,7.651,20.924,19.498
			c-0.859,4.585-3.232,8.802-5.882,12.581c-3.614,5.153-23.815,23.971-23.969,22.667C174.48,144.36,173.949,97.865,173.948,97.709z"
			/>
	</g>
</g>
<g id="text">
	<g>
		<path class="st4" d="M44.139,215.851c0-1.26,0.222-2.4,0.667-3.423c0.445-1.022,1.052-1.897,1.823-2.623s1.678-1.285,2.723-1.679
			c1.045-0.392,2.16-0.589,3.345-0.589c1.215,0,2.364,0.197,3.445,0.589c1.082,0.394,1.986,0.923,2.712,1.59l-3.245,3.912
			c-0.297-0.386-0.667-0.679-1.111-0.878c-0.445-0.2-0.941-0.301-1.489-0.301c-0.445,0-0.86,0.078-1.245,0.233
			c-0.386,0.156-0.723,0.382-1.012,0.679c-0.289,0.296-0.515,0.655-0.678,1.077c-0.163,0.423-0.245,0.894-0.245,1.412
			s0.085,0.981,0.256,1.389c0.17,0.408,0.4,0.76,0.689,1.056c0.289,0.297,0.626,0.522,1.011,0.679
			c0.385,0.155,0.792,0.233,1.223,0.233c0.607,0,1.129-0.126,1.567-0.378c0.437-0.252,0.781-0.549,1.034-0.89l3.245,3.89
			c-0.711,0.712-1.586,1.278-2.623,1.701c-1.037,0.422-2.215,0.633-3.534,0.633c-1.186,0-2.3-0.2-3.345-0.6
			c-1.044-0.4-1.952-0.967-2.723-1.701c-0.771-0.733-1.378-1.607-1.823-2.622C44.361,218.226,44.139,217.095,44.139,215.851z"/>
		<path class="st4" d="M59.586,212.027h4.934v1.334h0.044c0.252-0.475,0.626-0.867,1.123-1.179c0.497-0.311,1.078-0.467,1.745-0.467
			c0.4,0,0.726,0.037,0.978,0.111l-0.4,4.356c-0.163-0.044-0.344-0.078-0.544-0.1c-0.2-0.022-0.382-0.033-0.544-0.033
			c-0.667,0-1.201,0.192-1.601,0.577c-0.4,0.386-0.6,0.86-0.6,1.423v5.668h-5.134V212.027z"/>
		<path class="st4" d="M80.858,217.984c0,0.192-0.004,0.389-0.011,0.589c-0.008,0.2-0.019,0.366-0.033,0.5h-7.869
			c0.015,0.208,0.085,0.393,0.211,0.556c0.125,0.163,0.281,0.304,0.467,0.422c0.185,0.119,0.392,0.208,0.622,0.268
			c0.229,0.059,0.463,0.089,0.7,0.089c0.474,0,0.871-0.085,1.189-0.256c0.318-0.17,0.559-0.359,0.722-0.566l3.645,1.845
			c-0.519,0.845-1.271,1.511-2.256,2c-0.986,0.489-2.13,0.733-3.434,0.733c-0.845,0-1.667-0.133-2.467-0.399
			c-0.8-0.268-1.508-0.663-2.123-1.189c-0.615-0.526-1.108-1.182-1.478-1.967c-0.371-0.786-0.556-1.697-0.556-2.734
			c0-0.963,0.17-1.834,0.511-2.611c0.34-0.778,0.804-1.438,1.389-1.979c0.585-0.541,1.274-0.959,2.067-1.256
			c0.792-0.296,1.641-0.444,2.545-0.444c0.919,0,1.756,0.159,2.512,0.478c0.756,0.319,1.404,0.764,1.945,1.334
			s0.959,1.248,1.256,2.033C80.709,216.214,80.858,217.065,80.858,217.984z M76.435,216.317c0-0.415-0.152-0.756-0.456-1.022
			s-0.715-0.4-1.234-0.4c-0.563,0-1,0.155-1.311,0.467c-0.312,0.312-0.489,0.63-0.534,0.956H76.435z"/>
		<path class="st4" d="M88.304,216.295c0-0.355-0.122-0.618-0.367-0.789c-0.245-0.17-0.567-0.256-0.967-0.256
			c-0.475,0-0.922,0.101-1.345,0.3c-0.422,0.2-0.797,0.434-1.123,0.7l-2.556-2.533c0.711-0.682,1.556-1.208,2.534-1.578
			s1.986-0.556,3.023-0.556c1.111,0,2.03,0.155,2.756,0.467c0.726,0.311,1.3,0.741,1.723,1.289s0.718,1.186,0.889,1.911
			c0.17,0.727,0.255,1.497,0.255,2.312v6.157h-4.646v-0.934h-0.044c-0.296,0.444-0.719,0.764-1.267,0.956s-1.082,0.289-1.6,0.289
			c-0.459,0-0.93-0.067-1.412-0.2c-0.481-0.134-0.919-0.349-1.311-0.645c-0.393-0.297-0.715-0.682-0.967-1.156
			c-0.252-0.474-0.377-1.059-0.377-1.756c0-0.814,0.211-1.478,0.633-1.989c0.422-0.511,0.959-0.911,1.611-1.2
			c0.652-0.289,1.382-0.485,2.189-0.589s1.597-0.156,2.367-0.156V216.295z M88.348,218.873c-0.756,0-1.363,0.082-1.823,0.245
			s-0.689,0.467-0.689,0.911c0,0.163,0.037,0.3,0.111,0.411c0.074,0.111,0.17,0.204,0.289,0.277c0.118,0.074,0.248,0.13,0.389,0.167
			c0.141,0.037,0.271,0.056,0.389,0.056c0.489,0,0.881-0.155,1.178-0.467s0.445-0.711,0.445-1.2v-0.4H88.348z"/>
		<path class="st4" d="M99.684,224.03c-1.571,0-2.734-0.337-3.49-1.012c-0.756-0.674-1.133-1.723-1.133-3.146v-4.179h-1.645v-3.667
			h1.623v-2.623h4.979v2.623h2.534v3.667h-2.534v3.112c0,0.563,0.122,0.944,0.367,1.145s0.582,0.3,1.011,0.3
			c0.163,0,0.333-0.015,0.511-0.044s0.318-0.06,0.422-0.089v3.512c-0.267,0.118-0.641,0.215-1.123,0.289
			S100.217,224.03,99.684,224.03z"/>
		<path class="st4" d="M103.462,208.648c0-0.355,0.07-0.692,0.211-1.011c0.141-0.318,0.333-0.597,0.578-0.834
			c0.245-0.236,0.53-0.426,0.856-0.566c0.326-0.141,0.674-0.211,1.044-0.211c0.355,0,0.689,0.07,1,0.211
			c0.311,0.141,0.589,0.33,0.833,0.566c0.244,0.237,0.437,0.516,0.578,0.834c0.141,0.318,0.211,0.655,0.211,1.011
			c0,0.371-0.071,0.716-0.211,1.034c-0.141,0.318-0.333,0.593-0.578,0.822c-0.245,0.229-0.522,0.411-0.833,0.544
			c-0.312,0.134-0.645,0.2-1,0.2c-0.371,0-0.719-0.066-1.044-0.2c-0.326-0.133-0.611-0.314-0.856-0.544s-0.437-0.504-0.578-0.822
			C103.532,209.364,103.462,209.02,103.462,208.648z M103.551,212.027h5.135v11.691h-5.135V212.027z"/>
		<path class="st4" d="M110.641,212.027h5.001v1.289h0.044c0.295-0.43,0.735-0.804,1.318-1.122c0.583-0.319,1.252-0.479,2.006-0.479
			c0.812,0,1.488,0.148,2.028,0.444c0.539,0.297,0.967,0.679,1.285,1.146c0.317,0.467,0.539,0.988,0.665,1.566
			c0.126,0.578,0.189,1.156,0.189,1.734v7.112h-5.135v-6.224c0-0.593-0.093-1.008-0.278-1.245c-0.186-0.236-0.463-0.355-0.833-0.355
			c-0.341,0-0.619,0.138-0.833,0.411c-0.215,0.274-0.322,0.671-0.322,1.189v6.224h-5.134V212.027z"/>
		<path class="st4" d="M124.555,217.828c0-0.755,0.114-1.496,0.344-2.223c0.229-0.726,0.567-1.378,1.011-1.956
			c0.445-0.577,1-1.044,1.667-1.399c0.667-0.356,1.437-0.534,2.312-0.534c0.622,0,1.233,0.119,1.833,0.355
			c0.6,0.237,1.093,0.615,1.478,1.134h0.067v-1.178h4.823v10.491c0,1.274-0.208,2.334-0.622,3.179
			c-0.415,0.845-0.967,1.515-1.656,2.012c-0.689,0.496-1.471,0.844-2.345,1.044c-0.875,0.2-1.764,0.301-2.667,0.301
			c-1.111,0-2.223-0.145-3.334-0.434s-2.082-0.716-2.912-1.278l2.245-3.4c0.563,0.43,1.156,0.744,1.778,0.944s1.215,0.3,1.778,0.3
			c0.37,0,0.722-0.048,1.056-0.145s0.626-0.237,0.878-0.422c0.252-0.186,0.452-0.415,0.6-0.689c0.148-0.273,0.222-0.589,0.222-0.944
			v-0.512h-0.066c-0.282,0.326-0.7,0.615-1.256,0.867s-1.189,0.378-1.9,0.378c-0.904,0-1.689-0.159-2.356-0.478
			c-0.667-0.318-1.223-0.748-1.667-1.289c-0.444-0.541-0.774-1.167-0.989-1.879C124.662,219.362,124.555,218.614,124.555,217.828z
			 M129.312,217.828c0,0.563,0.163,1.034,0.489,1.412c0.326,0.378,0.8,0.566,1.422,0.566c0.607,0,1.093-0.192,1.456-0.578
			c0.363-0.385,0.544-0.852,0.544-1.4c0-0.519-0.182-0.97-0.544-1.355c-0.363-0.385-0.849-0.578-1.456-0.578
			c-0.623,0-1.097,0.193-1.422,0.578C129.475,216.858,129.312,217.31,129.312,217.828z"/>
		<path class="st4" d="M151.405,216.295c0-0.355-0.122-0.618-0.367-0.789c-0.245-0.17-0.567-0.256-0.967-0.256
			c-0.475,0-0.922,0.101-1.345,0.3c-0.422,0.2-0.797,0.434-1.123,0.7l-2.556-2.533c0.711-0.682,1.556-1.208,2.534-1.578
			s1.986-0.556,3.023-0.556c1.111,0,2.03,0.155,2.756,0.467c0.726,0.311,1.3,0.741,1.723,1.289s0.718,1.186,0.889,1.911
			c0.17,0.727,0.255,1.497,0.255,2.312v6.157h-4.646v-0.934h-0.044c-0.296,0.444-0.719,0.764-1.267,0.956s-1.082,0.289-1.6,0.289
			c-0.459,0-0.93-0.067-1.412-0.2c-0.481-0.134-0.919-0.349-1.311-0.645c-0.393-0.297-0.715-0.682-0.967-1.156
			c-0.252-0.474-0.377-1.059-0.377-1.756c0-0.814,0.211-1.478,0.633-1.989c0.422-0.511,0.959-0.911,1.611-1.2
			c0.652-0.289,1.382-0.485,2.189-0.589s1.597-0.156,2.367-0.156V216.295z M151.45,218.873c-0.756,0-1.363,0.082-1.823,0.245
			s-0.689,0.467-0.689,0.911c0,0.163,0.037,0.3,0.111,0.411c0.074,0.111,0.17,0.204,0.289,0.277c0.118,0.074,0.248,0.13,0.389,0.167
			c0.141,0.037,0.271,0.056,0.389,0.056c0.489,0,0.881-0.155,1.178-0.467s0.445-0.711,0.445-1.2v-0.4H151.45z"/>
	</g>
	<g>
		<path class="st4" d="M53.007,248.859h-5.334l-4.29-15.737h5.601l1.689,8.847h0.089l1.823-8.847h5.535l1.978,8.847h0.089
			l1.711-8.847h5.423l-4.378,15.737h-5.334l-2.223-8.891h-0.089L53.007,248.859z"/>
		<path class="st4" d="M79.48,243.125c0,0.192-0.004,0.389-0.011,0.589c-0.008,0.2-0.019,0.366-0.033,0.5h-7.869
			c0.015,0.208,0.085,0.393,0.211,0.556c0.125,0.163,0.281,0.304,0.467,0.422c0.185,0.119,0.392,0.208,0.622,0.268
			c0.229,0.059,0.463,0.089,0.7,0.089c0.474,0,0.871-0.085,1.189-0.256c0.318-0.17,0.559-0.359,0.722-0.566l3.645,1.845
			c-0.519,0.845-1.271,1.511-2.256,2c-0.986,0.489-2.13,0.733-3.434,0.733c-0.845,0-1.667-0.133-2.467-0.399
			c-0.8-0.268-1.508-0.663-2.123-1.189c-0.615-0.526-1.108-1.182-1.478-1.967c-0.371-0.786-0.556-1.697-0.556-2.734
			c0-0.963,0.17-1.834,0.511-2.611c0.34-0.778,0.804-1.438,1.389-1.979c0.585-0.541,1.274-0.959,2.067-1.256
			c0.792-0.296,1.641-0.444,2.545-0.444c0.919,0,1.756,0.159,2.512,0.478c0.756,0.319,1.404,0.764,1.945,1.334
			s0.959,1.248,1.256,2.033C79.332,241.354,79.48,242.206,79.48,243.125z M75.057,241.458c0-0.415-0.152-0.756-0.456-1.022
			s-0.715-0.4-1.234-0.4c-0.563,0-1,0.155-1.311,0.467c-0.312,0.312-0.489,0.63-0.534,0.956H75.057z"/>
		<path class="st4" d="M80.858,232.056h5.246v16.804h-5.246V232.056z"/>
		<path class="st4" d="M94.394,249.304c-0.993,0-1.904-0.148-2.734-0.444c-0.83-0.296-1.549-0.719-2.156-1.267
			c-0.608-0.549-1.082-1.208-1.422-1.979c-0.341-0.771-0.511-1.638-0.511-2.601c0-0.948,0.174-1.812,0.522-2.59
			c0.348-0.777,0.833-1.44,1.456-1.989c0.623-0.548,1.352-0.97,2.189-1.267c0.837-0.296,1.745-0.444,2.723-0.444
			c0.4,0,0.804,0.033,1.211,0.1c0.407,0.066,0.8,0.159,1.178,0.278c0.378,0.118,0.726,0.252,1.044,0.399
			c0.319,0.148,0.589,0.312,0.812,0.489l-2.556,3.689c-0.178-0.2-0.411-0.354-0.7-0.461s-0.567-0.161-0.833-0.161
			c-0.252,0-0.497,0.041-0.733,0.122c-0.237,0.082-0.449,0.208-0.634,0.378c-0.185,0.171-0.337,0.378-0.456,0.622
			c-0.119,0.245-0.178,0.53-0.178,0.856s0.059,0.611,0.178,0.855s0.271,0.444,0.456,0.601c0.185,0.155,0.396,0.273,0.634,0.355
			c0.237,0.081,0.481,0.122,0.733,0.122c0.296,0,0.585-0.056,0.867-0.167c0.281-0.111,0.511-0.263,0.689-0.455l2.579,3.585
			c-0.489,0.384-1.123,0.708-1.9,0.974C96.072,249.171,95.253,249.304,94.394,249.304z"/>
		<path class="st4" d="M112.175,242.969c0,1.008-0.182,1.904-0.544,2.689c-0.363,0.786-0.852,1.449-1.467,1.99
			c-0.615,0.541-1.327,0.952-2.134,1.233c-0.808,0.281-1.656,0.422-2.545,0.422c-0.875,0-1.715-0.141-2.523-0.422
			c-0.808-0.281-1.515-0.692-2.123-1.233c-0.608-0.541-1.093-1.204-1.456-1.99c-0.363-0.785-0.544-1.682-0.544-2.689
			c0-0.992,0.181-1.878,0.544-2.655c0.363-0.778,0.848-1.435,1.456-1.968c0.607-0.533,1.314-0.937,2.123-1.211
			c0.808-0.274,1.648-0.411,2.523-0.411c0.889,0,1.737,0.137,2.545,0.411c0.807,0.274,1.519,0.678,2.134,1.211
			c0.615,0.533,1.104,1.189,1.467,1.968C111.993,241.091,112.175,241.977,112.175,242.969z M105.485,241.058
			c-0.563,0-1.019,0.192-1.367,0.578s-0.522,0.837-0.522,1.355c0,0.549,0.178,1.016,0.534,1.4c0.355,0.386,0.814,0.578,1.378,0.578
			c0.563,0,1.022-0.192,1.378-0.578c0.356-0.385,0.534-0.852,0.534-1.4c0-0.519-0.182-0.97-0.544-1.355
			C106.511,241.25,106.047,241.058,105.485,241.058z"/>
		<path class="st4" d="M120.799,248.859v-6.135c0-0.593-0.074-1.022-0.222-1.289s-0.393-0.4-0.733-0.4
			c-0.252,0-0.493,0.119-0.722,0.355c-0.23,0.237-0.345,0.66-0.345,1.268v6.201h-5.134v-11.691h5.001v1.289h0.044
			c0.148-0.192,0.33-0.381,0.544-0.566s0.459-0.356,0.733-0.512c0.274-0.155,0.582-0.281,0.923-0.378
			c0.34-0.096,0.711-0.145,1.111-0.145c0.77,0,1.437,0.138,2,0.411c0.562,0.274,1.007,0.7,1.333,1.278
			c0.385-0.474,0.859-0.874,1.422-1.2c0.563-0.326,1.274-0.489,2.134-0.489c0.83,0,1.515,0.163,2.056,0.489
			c0.541,0.326,0.97,0.733,1.289,1.223c0.318,0.489,0.541,1.019,0.667,1.589c0.125,0.571,0.189,1.101,0.189,1.59v7.112h-5.135
			v-6.224c0-0.637-0.078-1.063-0.233-1.278c-0.155-0.214-0.396-0.322-0.722-0.322c-0.297,0-0.548,0.138-0.756,0.411
			c-0.208,0.274-0.311,0.679-0.311,1.212v6.201H120.799z"/>
		<path class="st4" d="M134.824,233.789c0-0.355,0.07-0.692,0.211-1.011c0.141-0.318,0.333-0.597,0.578-0.834
			c0.245-0.236,0.53-0.426,0.856-0.566c0.326-0.141,0.674-0.211,1.044-0.211c0.355,0,0.689,0.07,1,0.211
			c0.311,0.141,0.589,0.33,0.833,0.566c0.244,0.237,0.437,0.516,0.578,0.834c0.141,0.318,0.211,0.655,0.211,1.011
			c0,0.371-0.071,0.716-0.211,1.034c-0.141,0.318-0.333,0.593-0.578,0.822c-0.245,0.229-0.522,0.411-0.833,0.544
			c-0.312,0.134-0.645,0.2-1,0.2c-0.371,0-0.719-0.066-1.044-0.2c-0.326-0.133-0.611-0.314-0.856-0.544s-0.437-0.504-0.578-0.822
			C134.895,234.505,134.824,234.16,134.824,233.789z M134.913,237.168h5.135v11.691h-5.135V237.168z"/>
		<path class="st4" d="M142.003,237.168h5.001v1.289h0.044c0.295-0.43,0.735-0.804,1.318-1.122c0.583-0.319,1.252-0.479,2.006-0.479
			c0.812,0,1.488,0.148,2.028,0.444c0.539,0.297,0.967,0.679,1.285,1.146c0.317,0.467,0.539,0.988,0.665,1.566
			c0.126,0.578,0.189,1.156,0.189,1.734v7.112h-5.135v-6.224c0-0.593-0.093-1.008-0.278-1.245c-0.186-0.236-0.463-0.355-0.833-0.355
			c-0.341,0-0.619,0.138-0.833,0.411c-0.215,0.274-0.322,0.671-0.322,1.189v6.224h-5.134V237.168z"/>
		<path class="st4" d="M155.917,242.969c0-0.755,0.114-1.496,0.344-2.223c0.229-0.726,0.567-1.378,1.011-1.956
			c0.445-0.577,1-1.044,1.667-1.399c0.667-0.356,1.437-0.534,2.312-0.534c0.622,0,1.233,0.119,1.833,0.355
			c0.6,0.237,1.093,0.615,1.478,1.134h0.067v-1.178h4.823v10.491c0,1.274-0.208,2.334-0.622,3.179
			c-0.415,0.845-0.967,1.515-1.656,2.012c-0.689,0.496-1.471,0.844-2.345,1.044c-0.875,0.2-1.764,0.301-2.667,0.301
			c-1.111,0-2.223-0.145-3.334-0.434s-2.082-0.716-2.912-1.278l2.245-3.4c0.563,0.43,1.156,0.744,1.778,0.944s1.215,0.3,1.778,0.3
			c0.37,0,0.722-0.048,1.056-0.145s0.626-0.237,0.878-0.422c0.252-0.186,0.452-0.415,0.6-0.689c0.148-0.273,0.222-0.589,0.222-0.944
			v-0.512h-0.066c-0.282,0.326-0.7,0.615-1.256,0.867s-1.189,0.378-1.9,0.378c-0.904,0-1.689-0.159-2.356-0.478
			c-0.667-0.318-1.223-0.748-1.667-1.289c-0.444-0.541-0.774-1.167-0.989-1.879C156.024,244.503,155.917,243.755,155.917,242.969z
			 M160.674,242.969c0,0.563,0.163,1.034,0.489,1.412c0.326,0.378,0.8,0.566,1.422,0.566c0.607,0,1.093-0.192,1.456-0.578
			c0.363-0.385,0.544-0.852,0.544-1.4c0-0.519-0.182-0.97-0.544-1.355c-0.363-0.385-0.849-0.578-1.456-0.578
			c-0.623,0-1.097,0.193-1.422,0.578C160.837,241.999,160.674,242.45,160.674,242.969z"/>
		<path class="st4" d="M176.855,233.122h10.824v4.401h-5.846v1.355h5.49v4.112h-5.49v1.467h6.225v4.401h-11.203V233.122z"/>
		<path class="st4" d="M189.524,237.168h5.001v1.289h0.045c0.295-0.43,0.734-0.804,1.318-1.122c0.583-0.319,1.252-0.479,2.006-0.479
			c0.812,0,1.488,0.148,2.027,0.444c0.539,0.297,0.968,0.679,1.286,1.146c0.317,0.467,0.538,0.988,0.664,1.566
			s0.188,1.156,0.188,1.734v7.112h-5.134v-6.224c0-0.593-0.093-1.008-0.278-1.245c-0.186-0.236-0.463-0.355-0.833-0.355
			c-0.342,0-0.619,0.138-0.834,0.411c-0.215,0.274-0.322,0.671-0.322,1.189v6.224h-5.135V237.168z"/>
		<path class="st4" d="M202.549,237.168h5.69l1.667,6.312h0.089l1.6-6.312h5.49l-4.512,11.691h-5.579L202.549,237.168z"/>
		<path class="st4" d="M217.597,233.789c0-0.355,0.07-0.692,0.211-1.011s0.334-0.597,0.578-0.834
			c0.244-0.236,0.529-0.426,0.855-0.566s0.675-0.211,1.045-0.211c0.355,0,0.689,0.07,1,0.211c0.312,0.141,0.589,0.33,0.834,0.566
			c0.244,0.237,0.437,0.516,0.578,0.834c0.141,0.318,0.211,0.655,0.211,1.011c0,0.371-0.07,0.716-0.211,1.034
			c-0.142,0.318-0.334,0.593-0.578,0.822c-0.245,0.229-0.522,0.411-0.834,0.544c-0.311,0.134-0.645,0.2-1,0.2
			c-0.37,0-0.719-0.066-1.045-0.2c-0.326-0.133-0.611-0.314-0.855-0.544s-0.438-0.504-0.578-0.822S217.597,234.16,217.597,233.789z
			 M217.686,237.168h5.135v11.691h-5.135V237.168z"/>
		<path class="st4" d="M224.775,237.168h4.935v1.334h0.045c0.252-0.475,0.626-0.867,1.122-1.179
			c0.496-0.311,1.078-0.467,1.745-0.467c0.4,0,0.726,0.037,0.978,0.111l-0.399,4.356c-0.164-0.044-0.345-0.078-0.545-0.1
			c-0.2-0.022-0.382-0.033-0.545-0.033c-0.667,0-1.2,0.192-1.6,0.577c-0.4,0.386-0.601,0.86-0.601,1.423v5.668h-5.135V237.168z"/>
		<path class="st4" d="M246.714,242.969c0,1.008-0.182,1.904-0.545,2.689c-0.363,0.786-0.853,1.449-1.467,1.99
			c-0.615,0.541-1.326,0.952-2.134,1.233s-1.656,0.422-2.545,0.422c-0.875,0-1.716-0.141-2.523-0.422s-1.515-0.692-2.122-1.233
			c-0.608-0.541-1.093-1.204-1.456-1.99c-0.363-0.785-0.545-1.682-0.545-2.689c0-0.992,0.182-1.878,0.545-2.655
			c0.363-0.778,0.848-1.435,1.456-1.968c0.607-0.533,1.314-0.937,2.122-1.211s1.648-0.411,2.523-0.411
			c0.889,0,1.737,0.137,2.545,0.411s1.519,0.678,2.134,1.211c0.614,0.533,1.104,1.189,1.467,1.968
			C246.532,241.091,246.714,241.977,246.714,242.969z M240.023,241.058c-0.563,0-1.02,0.192-1.367,0.578
			c-0.349,0.386-0.522,0.837-0.522,1.355c0,0.549,0.178,1.016,0.533,1.4c0.356,0.386,0.815,0.578,1.379,0.578
			c0.562,0,1.022-0.192,1.378-0.578c0.355-0.385,0.533-0.852,0.533-1.4c0-0.519-0.182-0.97-0.545-1.355
			S240.586,241.058,240.023,241.058z"/>
		<path class="st4" d="M248.181,237.168h5.001v1.289h0.045c0.295-0.43,0.734-0.804,1.318-1.122c0.583-0.319,1.252-0.479,2.006-0.479
			c0.812,0,1.488,0.148,2.027,0.444c0.539,0.297,0.968,0.679,1.286,1.146c0.317,0.467,0.538,0.988,0.664,1.566
			s0.188,1.156,0.188,1.734v7.112h-5.134v-6.224c0-0.593-0.093-1.008-0.278-1.245c-0.186-0.236-0.463-0.355-0.833-0.355
			c-0.342,0-0.619,0.138-0.834,0.411c-0.215,0.274-0.322,0.671-0.322,1.189v6.224h-5.135V237.168z"/>
		<path class="st4" d="M269.718,248.859v-6.135c0-0.593-0.074-1.022-0.222-1.289c-0.148-0.267-0.394-0.4-0.733-0.4
			c-0.253,0-0.493,0.119-0.723,0.355c-0.23,0.237-0.345,0.66-0.345,1.268v6.201h-5.135v-11.691h5.001v1.289h0.045
			c0.147-0.192,0.329-0.381,0.545-0.566c0.214-0.186,0.459-0.356,0.733-0.512c0.273-0.155,0.581-0.281,0.922-0.378
			c0.341-0.096,0.712-0.145,1.111-0.145c0.771,0,1.438,0.138,2.001,0.411c0.562,0.274,1.007,0.7,1.333,1.278
			c0.386-0.474,0.859-0.874,1.423-1.2s1.274-0.489,2.134-0.489c0.83,0,1.515,0.163,2.056,0.489s0.971,0.733,1.29,1.223
			c0.318,0.489,0.54,1.019,0.666,1.589c0.126,0.571,0.189,1.101,0.189,1.59v7.112h-5.135v-6.224c0-0.637-0.078-1.063-0.233-1.278
			c-0.155-0.214-0.396-0.322-0.723-0.322c-0.296,0-0.548,0.138-0.755,0.411c-0.208,0.274-0.312,0.679-0.312,1.212v6.201H269.718z"/>
		<path class="st4" d="M296.013,243.125c0,0.192-0.004,0.389-0.011,0.589c-0.008,0.2-0.02,0.366-0.034,0.5H288.1
			c0.015,0.208,0.085,0.393,0.211,0.556s0.281,0.304,0.467,0.422c0.186,0.119,0.393,0.208,0.623,0.268
			c0.229,0.059,0.463,0.089,0.7,0.089c0.474,0,0.87-0.085,1.188-0.256c0.318-0.17,0.56-0.359,0.723-0.566l3.646,1.845
			c-0.52,0.845-1.271,1.511-2.256,2c-0.986,0.489-2.131,0.733-3.435,0.733c-0.845,0-1.667-0.133-2.467-0.399
			c-0.801-0.268-1.509-0.663-2.123-1.189c-0.615-0.526-1.108-1.182-1.479-1.967c-0.37-0.786-0.556-1.697-0.556-2.734
			c0-0.963,0.171-1.834,0.512-2.611c0.341-0.778,0.804-1.438,1.389-1.979c0.586-0.541,1.274-0.959,2.067-1.256
			c0.793-0.296,1.641-0.444,2.545-0.444c0.919,0,1.756,0.159,2.512,0.478c0.756,0.319,1.404,0.764,1.945,1.334
			c0.54,0.57,0.959,1.248,1.256,2.033C295.864,241.354,296.013,242.206,296.013,243.125z M291.59,241.458
			c0-0.415-0.152-0.756-0.456-1.022s-0.715-0.4-1.233-0.4c-0.563,0-1.001,0.155-1.312,0.467c-0.312,0.312-0.489,0.63-0.533,0.956
			H291.59z"/>
		<path class="st4" d="M297.391,237.168h5.001v1.289h0.045c0.295-0.43,0.734-0.804,1.318-1.122c0.583-0.319,1.252-0.479,2.006-0.479
			c0.812,0,1.488,0.148,2.027,0.444c0.539,0.297,0.968,0.679,1.286,1.146c0.317,0.467,0.538,0.988,0.664,1.566
			s0.188,1.156,0.188,1.734v7.112h-5.134v-6.224c0-0.593-0.093-1.008-0.278-1.245c-0.186-0.236-0.463-0.355-0.833-0.355
			c-0.342,0-0.619,0.138-0.834,0.411c-0.215,0.274-0.322,0.671-0.322,1.189v6.224h-5.135V237.168z"/>
		<path class="st4" d="M316.861,249.171c-1.57,0-2.733-0.337-3.489-1.012c-0.756-0.674-1.134-1.723-1.134-3.146v-4.179h-1.645
			v-3.667h1.623v-2.623h4.979v2.623h2.534v3.667h-2.534v3.112c0,0.563,0.122,0.944,0.366,1.145c0.245,0.2,0.582,0.3,1.012,0.3
			c0.163,0,0.333-0.015,0.512-0.044c0.178-0.029,0.318-0.06,0.422-0.089v3.512c-0.267,0.118-0.641,0.215-1.122,0.289
			C317.902,249.134,317.396,249.171,316.861,249.171z"/>
	</g>
</g>
</svg>
